G04 EAGLE Gerber RS-274X export*
G75*
%MOMM*%
%FSLAX34Y34*%
%LPD*%
%INTop Copper CMP TOP*%
%IPPOS*%
%AMOC8*
5,1,8,0,0,1.08239X$1,22.5*%
G01*
%ADD10C,2.781300*%
%ADD11R,1.050000X1.080000*%
%ADD12R,1.200000X0.400000*%
%ADD13R,1.080000X1.050000*%
%ADD14R,2.200000X1.200000*%
%ADD15R,1.000000X1.100000*%
%ADD16R,1.100000X1.000000*%
%ADD17R,1.500000X2.100000*%
%ADD18C,1.524000*%
%ADD19C,0.503200*%
%ADD20C,0.406400*%
%ADD21C,0.203200*%
%ADD22C,0.304800*%

G36*
X234211Y4007D02*
X234211Y4007D01*
X234262Y4004D01*
X234383Y4026D01*
X234506Y4041D01*
X234554Y4058D01*
X234605Y4067D01*
X234718Y4116D01*
X234834Y4158D01*
X234877Y4186D01*
X234924Y4206D01*
X235023Y4280D01*
X235127Y4347D01*
X235163Y4384D01*
X235204Y4414D01*
X235283Y4509D01*
X235369Y4598D01*
X235396Y4642D01*
X235429Y4681D01*
X235485Y4791D01*
X235548Y4897D01*
X235564Y4945D01*
X235587Y4991D01*
X235617Y5111D01*
X235654Y5229D01*
X235659Y5280D01*
X235671Y5329D01*
X235673Y5453D01*
X235682Y5576D01*
X235675Y5627D01*
X235676Y5678D01*
X235655Y5788D01*
X235655Y8806D01*
X241329Y8806D01*
X241355Y8809D01*
X241381Y8807D01*
X241528Y8829D01*
X241675Y8846D01*
X241700Y8854D01*
X241726Y8858D01*
X241863Y8913D01*
X242003Y8963D01*
X242025Y8977D01*
X242050Y8987D01*
X242171Y9072D01*
X242296Y9152D01*
X242314Y9171D01*
X242336Y9186D01*
X242427Y9287D01*
X242498Y9223D01*
X242605Y9120D01*
X242628Y9106D01*
X242647Y9089D01*
X242777Y9017D01*
X242904Y8941D01*
X242929Y8933D01*
X242952Y8920D01*
X243095Y8880D01*
X243236Y8835D01*
X243262Y8832D01*
X243287Y8825D01*
X243531Y8806D01*
X249205Y8806D01*
X249205Y5809D01*
X249196Y5696D01*
X249177Y5574D01*
X249182Y5523D01*
X249178Y5472D01*
X249196Y5350D01*
X249206Y5227D01*
X249222Y5178D01*
X249229Y5127D01*
X249275Y5012D01*
X249313Y4895D01*
X249339Y4851D01*
X249358Y4803D01*
X249428Y4702D01*
X249492Y4596D01*
X249528Y4559D01*
X249557Y4517D01*
X249648Y4434D01*
X249734Y4346D01*
X249778Y4318D01*
X249816Y4284D01*
X249924Y4224D01*
X250028Y4157D01*
X250076Y4140D01*
X250121Y4115D01*
X250240Y4081D01*
X250356Y4040D01*
X250407Y4034D01*
X250456Y4020D01*
X250700Y4001D01*
X256310Y4001D01*
X256336Y4004D01*
X256362Y4002D01*
X256509Y4024D01*
X256656Y4041D01*
X256681Y4049D01*
X256707Y4053D01*
X256845Y4108D01*
X256984Y4158D01*
X257006Y4172D01*
X257031Y4182D01*
X257152Y4267D01*
X257277Y4347D01*
X257295Y4366D01*
X257317Y4381D01*
X257416Y4491D01*
X257519Y4598D01*
X257533Y4620D01*
X257550Y4640D01*
X257622Y4770D01*
X257698Y4897D01*
X257706Y4922D01*
X257719Y4945D01*
X257759Y5088D01*
X257804Y5229D01*
X257806Y5255D01*
X257814Y5280D01*
X257833Y5524D01*
X257833Y9189D01*
X260051Y11407D01*
X261542Y11407D01*
X261667Y11421D01*
X261794Y11428D01*
X261840Y11441D01*
X261888Y11447D01*
X262007Y11489D01*
X262128Y11524D01*
X262171Y11548D01*
X262216Y11564D01*
X262322Y11633D01*
X262433Y11694D01*
X262479Y11734D01*
X262509Y11753D01*
X262542Y11788D01*
X262619Y11853D01*
X263213Y12447D01*
X274282Y12447D01*
X274308Y12450D01*
X274334Y12448D01*
X274481Y12470D01*
X274628Y12487D01*
X274653Y12495D01*
X274679Y12499D01*
X274817Y12554D01*
X274956Y12604D01*
X274978Y12618D01*
X275003Y12628D01*
X275124Y12713D01*
X275249Y12793D01*
X275267Y12812D01*
X275289Y12827D01*
X275388Y12937D01*
X275491Y13044D01*
X275505Y13066D01*
X275522Y13086D01*
X275594Y13216D01*
X275670Y13343D01*
X275678Y13368D01*
X275691Y13391D01*
X275731Y13534D01*
X275776Y13675D01*
X275778Y13701D01*
X275786Y13726D01*
X275805Y13970D01*
X275805Y16292D01*
X276698Y17185D01*
X287900Y17185D01*
X287926Y17188D01*
X287952Y17186D01*
X288099Y17208D01*
X288246Y17225D01*
X288271Y17233D01*
X288297Y17237D01*
X288435Y17292D01*
X288574Y17342D01*
X288596Y17356D01*
X288621Y17366D01*
X288742Y17451D01*
X288867Y17531D01*
X288885Y17550D01*
X288907Y17565D01*
X289006Y17675D01*
X289109Y17782D01*
X289123Y17804D01*
X289140Y17824D01*
X289212Y17954D01*
X289288Y18081D01*
X289296Y18106D01*
X289309Y18129D01*
X289349Y18272D01*
X289394Y18413D01*
X289396Y18439D01*
X289404Y18464D01*
X289423Y18708D01*
X289423Y30981D01*
X289409Y31106D01*
X289402Y31232D01*
X289389Y31279D01*
X289383Y31327D01*
X289341Y31446D01*
X289306Y31567D01*
X289282Y31609D01*
X289266Y31655D01*
X289197Y31761D01*
X289136Y31871D01*
X289096Y31918D01*
X289077Y31948D01*
X289042Y31981D01*
X288977Y32058D01*
X288313Y32721D01*
X288313Y35859D01*
X290531Y38077D01*
X293669Y38077D01*
X295887Y35859D01*
X295887Y32721D01*
X294443Y31278D01*
X294364Y31179D01*
X294280Y31085D01*
X294256Y31042D01*
X294226Y31005D01*
X294172Y30890D01*
X294111Y30780D01*
X294098Y30733D01*
X294077Y30690D01*
X294051Y30566D01*
X294016Y30444D01*
X294011Y30384D01*
X294004Y30349D01*
X294005Y30301D01*
X293997Y30201D01*
X293997Y18708D01*
X294000Y18682D01*
X293998Y18656D01*
X294020Y18509D01*
X294037Y18362D01*
X294045Y18337D01*
X294049Y18311D01*
X294104Y18173D01*
X294154Y18034D01*
X294168Y18012D01*
X294178Y17987D01*
X294263Y17866D01*
X294343Y17741D01*
X294362Y17723D01*
X294377Y17701D01*
X294487Y17602D01*
X294594Y17499D01*
X294616Y17485D01*
X294636Y17468D01*
X294766Y17396D01*
X294893Y17320D01*
X294918Y17312D01*
X294941Y17299D01*
X295084Y17259D01*
X295225Y17214D01*
X295251Y17212D01*
X295276Y17204D01*
X295520Y17185D01*
X304962Y17185D01*
X304993Y17153D01*
X305013Y17137D01*
X305030Y17117D01*
X305150Y17029D01*
X305266Y16937D01*
X305290Y16926D01*
X305311Y16910D01*
X305447Y16851D01*
X305581Y16788D01*
X305607Y16782D01*
X305631Y16772D01*
X305777Y16746D01*
X305922Y16714D01*
X305948Y16715D01*
X305974Y16710D01*
X306122Y16718D01*
X306270Y16720D01*
X306296Y16727D01*
X306322Y16728D01*
X306464Y16769D01*
X306608Y16805D01*
X306632Y16818D01*
X306657Y16825D01*
X306786Y16897D01*
X306918Y16965D01*
X306938Y16982D01*
X306961Y16995D01*
X307147Y17153D01*
X307178Y17185D01*
X313040Y17185D01*
X313165Y17199D01*
X313292Y17206D01*
X313338Y17219D01*
X313386Y17225D01*
X313505Y17267D01*
X313626Y17302D01*
X313669Y17326D01*
X313714Y17342D01*
X313821Y17411D01*
X313931Y17472D01*
X313977Y17512D01*
X314007Y17531D01*
X314041Y17566D01*
X314117Y17631D01*
X317341Y20855D01*
X317403Y20933D01*
X317473Y21006D01*
X317511Y21070D01*
X317558Y21128D01*
X317601Y21219D01*
X317652Y21305D01*
X317675Y21376D01*
X317707Y21443D01*
X317728Y21541D01*
X317758Y21637D01*
X317764Y21711D01*
X317780Y21784D01*
X317778Y21884D01*
X317786Y21984D01*
X317775Y22058D01*
X317774Y22132D01*
X317749Y22229D01*
X317735Y22329D01*
X317707Y22398D01*
X317689Y22470D01*
X317643Y22559D01*
X317606Y22653D01*
X317563Y22714D01*
X317529Y22780D01*
X317464Y22856D01*
X317407Y22939D01*
X317352Y22989D01*
X317303Y23045D01*
X317223Y23105D01*
X317148Y23172D01*
X317083Y23208D01*
X317023Y23253D01*
X316931Y23292D01*
X316843Y23341D01*
X316771Y23361D01*
X316703Y23391D01*
X316604Y23408D01*
X316508Y23436D01*
X316408Y23444D01*
X316360Y23452D01*
X316324Y23450D01*
X316264Y23455D01*
X307178Y23455D01*
X306285Y24348D01*
X306285Y33140D01*
X306271Y33265D01*
X306264Y33392D01*
X306251Y33438D01*
X306245Y33486D01*
X306203Y33605D01*
X306168Y33727D01*
X306144Y33769D01*
X306128Y33814D01*
X306059Y33920D01*
X305998Y34031D01*
X305958Y34077D01*
X305939Y34107D01*
X305904Y34141D01*
X305839Y34217D01*
X288179Y51877D01*
X288080Y51956D01*
X287986Y52040D01*
X287944Y52064D01*
X287906Y52094D01*
X287792Y52148D01*
X287681Y52209D01*
X287634Y52222D01*
X287591Y52243D01*
X287467Y52269D01*
X287346Y52304D01*
X287285Y52309D01*
X287250Y52316D01*
X287202Y52315D01*
X287102Y52323D01*
X251349Y52323D01*
X251224Y52309D01*
X251098Y52302D01*
X251051Y52289D01*
X251003Y52283D01*
X250884Y52241D01*
X250763Y52206D01*
X250721Y52182D01*
X250675Y52166D01*
X250569Y52097D01*
X250459Y52036D01*
X250412Y51996D01*
X250382Y51977D01*
X250349Y51942D01*
X250272Y51877D01*
X249219Y50823D01*
X246081Y50823D01*
X243863Y53041D01*
X243863Y56179D01*
X246081Y58397D01*
X249219Y58397D01*
X250272Y57343D01*
X250371Y57264D01*
X250465Y57180D01*
X250508Y57156D01*
X250545Y57126D01*
X250660Y57072D01*
X250770Y57011D01*
X250817Y56998D01*
X250860Y56977D01*
X250984Y56951D01*
X251106Y56916D01*
X251166Y56911D01*
X251201Y56904D01*
X251249Y56905D01*
X251349Y56897D01*
X289627Y56897D01*
X308573Y37951D01*
X308672Y37872D01*
X308766Y37788D01*
X308808Y37764D01*
X308846Y37734D01*
X308960Y37680D01*
X309071Y37619D01*
X309117Y37606D01*
X309161Y37585D01*
X309285Y37559D01*
X309406Y37524D01*
X309467Y37519D01*
X309502Y37512D01*
X309550Y37513D01*
X309650Y37505D01*
X317500Y37505D01*
X317526Y37508D01*
X317552Y37506D01*
X317699Y37528D01*
X317846Y37545D01*
X317871Y37553D01*
X317897Y37557D01*
X318035Y37612D01*
X318174Y37662D01*
X318196Y37676D01*
X318221Y37686D01*
X318342Y37771D01*
X318467Y37851D01*
X318485Y37870D01*
X318507Y37885D01*
X318606Y37995D01*
X318709Y38102D01*
X318723Y38124D01*
X318740Y38144D01*
X318812Y38274D01*
X318888Y38401D01*
X318896Y38426D01*
X318909Y38449D01*
X318949Y38592D01*
X318994Y38733D01*
X318996Y38759D01*
X319004Y38784D01*
X319023Y39028D01*
X319023Y40751D01*
X319012Y40850D01*
X319010Y40951D01*
X318992Y41023D01*
X318983Y41097D01*
X318950Y41191D01*
X318925Y41289D01*
X318891Y41355D01*
X318866Y41425D01*
X318811Y41509D01*
X318765Y41599D01*
X318717Y41655D01*
X318677Y41718D01*
X318605Y41787D01*
X318540Y41864D01*
X318480Y41908D01*
X318426Y41960D01*
X318340Y42011D01*
X318259Y42071D01*
X318191Y42101D01*
X318127Y42139D01*
X318031Y42169D01*
X317939Y42209D01*
X317866Y42222D01*
X317795Y42245D01*
X317695Y42253D01*
X317596Y42271D01*
X317522Y42267D01*
X317448Y42273D01*
X317348Y42258D01*
X317248Y42253D01*
X317177Y42232D01*
X317103Y42221D01*
X317010Y42184D01*
X316913Y42156D01*
X316848Y42120D01*
X316779Y42093D01*
X316697Y42035D01*
X316609Y41986D01*
X316533Y41921D01*
X316493Y41894D01*
X316469Y41867D01*
X316423Y41828D01*
X315259Y40663D01*
X312121Y40663D01*
X309903Y42881D01*
X309903Y46019D01*
X310449Y46564D01*
X310528Y46663D01*
X310612Y46757D01*
X310636Y46800D01*
X310666Y46837D01*
X310720Y46952D01*
X310781Y47062D01*
X310794Y47109D01*
X310815Y47152D01*
X310841Y47276D01*
X310876Y47398D01*
X310881Y47458D01*
X310888Y47493D01*
X310887Y47541D01*
X310895Y47641D01*
X310895Y66791D01*
X310881Y66917D01*
X310874Y67043D01*
X310861Y67090D01*
X310855Y67138D01*
X310813Y67256D01*
X310778Y67378D01*
X310754Y67420D01*
X310738Y67466D01*
X310669Y67572D01*
X310608Y67682D01*
X310568Y67729D01*
X310549Y67759D01*
X310514Y67792D01*
X310449Y67869D01*
X297461Y80857D01*
X297362Y80936D01*
X297268Y81020D01*
X297225Y81044D01*
X297188Y81074D01*
X297073Y81128D01*
X296963Y81189D01*
X296916Y81202D01*
X296872Y81223D01*
X296749Y81249D01*
X296627Y81284D01*
X296566Y81289D01*
X296532Y81296D01*
X296484Y81295D01*
X296383Y81303D01*
X295611Y81303D01*
X293393Y83521D01*
X293393Y86659D01*
X295611Y88877D01*
X298749Y88877D01*
X300967Y86659D01*
X300967Y85887D01*
X300981Y85761D01*
X300988Y85635D01*
X301001Y85588D01*
X301007Y85540D01*
X301049Y85421D01*
X301084Y85300D01*
X301108Y85258D01*
X301124Y85212D01*
X301193Y85106D01*
X301254Y84996D01*
X301294Y84950D01*
X301313Y84919D01*
X301348Y84886D01*
X301413Y84809D01*
X316423Y69799D01*
X316501Y69737D01*
X316574Y69667D01*
X316638Y69629D01*
X316696Y69583D01*
X316787Y69540D01*
X316873Y69488D01*
X316944Y69466D01*
X317011Y69434D01*
X317109Y69413D01*
X317205Y69382D01*
X317279Y69376D01*
X317352Y69361D01*
X317452Y69362D01*
X317552Y69354D01*
X317626Y69365D01*
X317700Y69366D01*
X317797Y69391D01*
X317897Y69406D01*
X317966Y69433D01*
X318038Y69451D01*
X318128Y69498D01*
X318221Y69535D01*
X318282Y69577D01*
X318348Y69611D01*
X318425Y69676D01*
X318507Y69734D01*
X318557Y69789D01*
X318613Y69837D01*
X318673Y69918D01*
X318740Y69992D01*
X318776Y70057D01*
X318821Y70117D01*
X318860Y70209D01*
X318909Y70297D01*
X318929Y70369D01*
X318959Y70437D01*
X318976Y70536D01*
X319004Y70633D01*
X319012Y70733D01*
X319020Y70780D01*
X319018Y70816D01*
X319023Y70877D01*
X319023Y77162D01*
X319009Y77287D01*
X319002Y77414D01*
X318989Y77460D01*
X318983Y77508D01*
X318941Y77627D01*
X318906Y77749D01*
X318882Y77791D01*
X318866Y77836D01*
X318797Y77942D01*
X318736Y78053D01*
X318696Y78099D01*
X318677Y78129D01*
X318642Y78163D01*
X318577Y78239D01*
X299219Y97597D01*
X299120Y97676D01*
X299026Y97760D01*
X298984Y97784D01*
X298946Y97814D01*
X298832Y97868D01*
X298721Y97929D01*
X298675Y97942D01*
X298631Y97963D01*
X298507Y97989D01*
X298386Y98024D01*
X298325Y98029D01*
X298290Y98036D01*
X298242Y98035D01*
X298142Y98043D01*
X244148Y98043D01*
X244023Y98029D01*
X243896Y98022D01*
X243850Y98009D01*
X243802Y98003D01*
X243683Y97961D01*
X243562Y97926D01*
X243519Y97902D01*
X243474Y97886D01*
X243368Y97817D01*
X243257Y97756D01*
X243211Y97716D01*
X243181Y97697D01*
X243148Y97662D01*
X243071Y97597D01*
X242993Y97519D01*
X242914Y97420D01*
X242830Y97326D01*
X242806Y97284D01*
X242776Y97246D01*
X242722Y97132D01*
X242661Y97021D01*
X242648Y96974D01*
X242627Y96931D01*
X242601Y96807D01*
X242566Y96686D01*
X242561Y96625D01*
X242554Y96590D01*
X242555Y96542D01*
X242547Y96442D01*
X242547Y94951D01*
X240329Y92733D01*
X237191Y92733D01*
X234973Y94951D01*
X234973Y98089D01*
X237191Y100307D01*
X238682Y100307D01*
X238807Y100321D01*
X238934Y100328D01*
X238980Y100341D01*
X239028Y100347D01*
X239147Y100389D01*
X239268Y100424D01*
X239311Y100448D01*
X239356Y100464D01*
X239462Y100533D01*
X239573Y100594D01*
X239619Y100634D01*
X239649Y100653D01*
X239682Y100688D01*
X239759Y100753D01*
X241623Y102617D01*
X300667Y102617D01*
X302453Y100831D01*
X321811Y81473D01*
X323597Y79687D01*
X323597Y46879D01*
X323608Y46780D01*
X323610Y46679D01*
X323628Y46607D01*
X323637Y46533D01*
X323670Y46439D01*
X323695Y46341D01*
X323729Y46275D01*
X323754Y46205D01*
X323809Y46121D01*
X323855Y46031D01*
X323903Y45975D01*
X323943Y45912D01*
X324015Y45843D01*
X324080Y45766D01*
X324140Y45722D01*
X324194Y45670D01*
X324280Y45619D01*
X324361Y45559D01*
X324429Y45529D01*
X324493Y45491D01*
X324589Y45461D01*
X324681Y45421D01*
X324754Y45408D01*
X324825Y45385D01*
X324925Y45377D01*
X325024Y45359D01*
X325098Y45363D01*
X325172Y45357D01*
X325272Y45372D01*
X325372Y45377D01*
X325443Y45398D01*
X325517Y45409D01*
X325610Y45446D01*
X325707Y45474D01*
X325772Y45510D01*
X325841Y45537D01*
X325923Y45595D01*
X326011Y45644D01*
X326087Y45709D01*
X326127Y45736D01*
X326151Y45763D01*
X326197Y45802D01*
X328631Y48237D01*
X331769Y48237D01*
X333987Y46019D01*
X333987Y42881D01*
X332933Y41828D01*
X332854Y41729D01*
X332770Y41635D01*
X332746Y41592D01*
X332716Y41555D01*
X332662Y41440D01*
X332601Y41330D01*
X332588Y41283D01*
X332567Y41240D01*
X332541Y41116D01*
X332506Y40994D01*
X332501Y40934D01*
X332494Y40899D01*
X332495Y40851D01*
X332487Y40751D01*
X332487Y39028D01*
X332489Y39005D01*
X332488Y38983D01*
X332488Y38981D01*
X332488Y38976D01*
X332510Y38829D01*
X332527Y38682D01*
X332535Y38657D01*
X332539Y38631D01*
X332594Y38493D01*
X332644Y38354D01*
X332658Y38332D01*
X332668Y38307D01*
X332753Y38186D01*
X332833Y38061D01*
X332852Y38043D01*
X332867Y38021D01*
X332977Y37922D01*
X333084Y37819D01*
X333106Y37805D01*
X333126Y37788D01*
X333256Y37716D01*
X333383Y37640D01*
X333408Y37632D01*
X333431Y37619D01*
X333574Y37579D01*
X333715Y37534D01*
X333741Y37532D01*
X333766Y37524D01*
X334010Y37505D01*
X335442Y37505D01*
X336743Y36203D01*
X336822Y36141D01*
X336894Y36071D01*
X336958Y36033D01*
X337016Y35987D01*
X337107Y35944D01*
X337193Y35892D01*
X337264Y35870D01*
X337331Y35838D01*
X337429Y35817D01*
X337525Y35786D01*
X337599Y35780D01*
X337672Y35764D01*
X337772Y35766D01*
X337872Y35758D01*
X337946Y35769D01*
X338020Y35770D01*
X338117Y35795D01*
X338217Y35810D01*
X338286Y35837D01*
X338358Y35855D01*
X338447Y35901D01*
X338541Y35939D01*
X338602Y35981D01*
X338668Y36015D01*
X338744Y36080D01*
X338827Y36137D01*
X338877Y36193D01*
X338933Y36241D01*
X338993Y36322D01*
X339060Y36396D01*
X339096Y36461D01*
X339141Y36521D01*
X339180Y36613D01*
X339229Y36701D01*
X339249Y36773D01*
X339279Y36841D01*
X339296Y36940D01*
X339324Y37037D01*
X339332Y37137D01*
X339340Y37184D01*
X339338Y37220D01*
X339343Y37280D01*
X339343Y104140D01*
X339340Y104166D01*
X339342Y104192D01*
X339320Y104339D01*
X339303Y104486D01*
X339295Y104511D01*
X339291Y104537D01*
X339236Y104675D01*
X339186Y104814D01*
X339172Y104836D01*
X339162Y104861D01*
X339077Y104982D01*
X338997Y105107D01*
X338978Y105125D01*
X338963Y105147D01*
X338853Y105246D01*
X338746Y105349D01*
X338724Y105363D01*
X338704Y105380D01*
X338574Y105452D01*
X338447Y105528D01*
X338422Y105536D01*
X338399Y105549D01*
X338256Y105589D01*
X338115Y105634D01*
X338089Y105636D01*
X338064Y105644D01*
X337820Y105663D01*
X313203Y105663D01*
X309957Y108909D01*
X309858Y108988D01*
X309764Y109072D01*
X309722Y109096D01*
X309684Y109126D01*
X309570Y109180D01*
X309459Y109241D01*
X309413Y109254D01*
X309369Y109275D01*
X309245Y109301D01*
X309124Y109336D01*
X309063Y109341D01*
X309028Y109348D01*
X308980Y109347D01*
X308880Y109355D01*
X302588Y109355D01*
X301695Y110248D01*
X301695Y110634D01*
X301693Y110658D01*
X301694Y110680D01*
X301683Y110753D01*
X301682Y110834D01*
X301664Y110906D01*
X301655Y110980D01*
X301645Y111009D01*
X301643Y111025D01*
X301619Y111085D01*
X301597Y111172D01*
X301563Y111238D01*
X301538Y111308D01*
X301518Y111339D01*
X301514Y111349D01*
X301483Y111394D01*
X301437Y111482D01*
X301389Y111539D01*
X301349Y111601D01*
X301318Y111631D01*
X301315Y111635D01*
X301293Y111655D01*
X301277Y111671D01*
X301212Y111747D01*
X301152Y111791D01*
X301098Y111843D01*
X301057Y111868D01*
X301056Y111869D01*
X301051Y111872D01*
X301012Y111895D01*
X300931Y111954D01*
X300863Y111984D01*
X300799Y112022D01*
X300704Y112053D01*
X300611Y112092D01*
X300538Y112106D01*
X300467Y112128D01*
X300367Y112136D01*
X300268Y112154D01*
X300194Y112150D01*
X300120Y112156D01*
X300020Y112141D01*
X299920Y112136D01*
X299849Y112116D01*
X299829Y112113D01*
X299820Y112112D01*
X299819Y112111D01*
X299775Y112105D01*
X299682Y112067D01*
X299585Y112040D01*
X299525Y112006D01*
X299492Y111994D01*
X299484Y111989D01*
X299451Y111976D01*
X299369Y111919D01*
X299281Y111869D01*
X299225Y111822D01*
X299199Y111805D01*
X299186Y111791D01*
X299165Y111777D01*
X299141Y111750D01*
X299095Y111711D01*
X298191Y110807D01*
X298112Y110708D01*
X298028Y110614D01*
X298004Y110572D01*
X297974Y110534D01*
X297924Y110428D01*
X296852Y109355D01*
X283588Y109355D01*
X282695Y110248D01*
X282695Y115627D01*
X282707Y115651D01*
X282776Y115786D01*
X282781Y115809D01*
X282791Y115830D01*
X282823Y115977D01*
X282859Y116124D01*
X282860Y116148D01*
X282865Y116171D01*
X282862Y116322D01*
X282864Y116473D01*
X282859Y116501D01*
X282859Y116519D01*
X282847Y116565D01*
X282820Y116714D01*
X282695Y117179D01*
X282695Y117857D01*
X290220Y117857D01*
X290246Y117860D01*
X290272Y117857D01*
X290419Y117879D01*
X290566Y117896D01*
X290591Y117905D01*
X290617Y117909D01*
X290754Y117964D01*
X290894Y118014D01*
X290916Y118028D01*
X290940Y118038D01*
X291062Y118122D01*
X291187Y118203D01*
X291205Y118222D01*
X291227Y118237D01*
X291326Y118347D01*
X291429Y118454D01*
X291442Y118476D01*
X291460Y118496D01*
X291532Y118626D01*
X291608Y118753D01*
X291616Y118778D01*
X291629Y118801D01*
X291669Y118944D01*
X291714Y119085D01*
X291716Y119111D01*
X291723Y119136D01*
X291743Y119380D01*
X291740Y119406D01*
X291742Y119432D01*
X291720Y119579D01*
X291703Y119726D01*
X291694Y119751D01*
X291690Y119777D01*
X291636Y119915D01*
X291586Y120054D01*
X291571Y120077D01*
X291562Y120101D01*
X291477Y120222D01*
X291397Y120347D01*
X291378Y120366D01*
X291363Y120387D01*
X291253Y120486D01*
X291146Y120589D01*
X291123Y120603D01*
X291104Y120620D01*
X290974Y120692D01*
X290847Y120768D01*
X290822Y120776D01*
X290799Y120789D01*
X290656Y120829D01*
X290515Y120875D01*
X290489Y120877D01*
X290463Y120884D01*
X290220Y120903D01*
X282695Y120903D01*
X282695Y121581D01*
X282820Y122046D01*
X282842Y122196D01*
X282869Y122345D01*
X282868Y122368D01*
X282871Y122391D01*
X282859Y122542D01*
X282851Y122693D01*
X282845Y122715D01*
X282843Y122739D01*
X282796Y122882D01*
X282754Y123027D01*
X282743Y123048D01*
X282736Y123070D01*
X282695Y123138D01*
X282695Y128512D01*
X283588Y129405D01*
X286410Y129405D01*
X286436Y129408D01*
X286462Y129406D01*
X286609Y129428D01*
X286756Y129445D01*
X286781Y129453D01*
X286807Y129457D01*
X286945Y129512D01*
X287084Y129562D01*
X287106Y129576D01*
X287131Y129586D01*
X287252Y129671D01*
X287377Y129751D01*
X287395Y129770D01*
X287417Y129785D01*
X287516Y129895D01*
X287619Y130002D01*
X287633Y130024D01*
X287650Y130044D01*
X287722Y130174D01*
X287798Y130301D01*
X287806Y130326D01*
X287819Y130349D01*
X287859Y130492D01*
X287904Y130633D01*
X287906Y130659D01*
X287914Y130684D01*
X287933Y130928D01*
X287933Y133692D01*
X287930Y133718D01*
X287932Y133744D01*
X287910Y133891D01*
X287893Y134038D01*
X287885Y134063D01*
X287881Y134089D01*
X287826Y134227D01*
X287776Y134366D01*
X287762Y134388D01*
X287752Y134413D01*
X287667Y134534D01*
X287587Y134659D01*
X287568Y134677D01*
X287553Y134699D01*
X287443Y134798D01*
X287336Y134901D01*
X287314Y134915D01*
X287294Y134932D01*
X287164Y135004D01*
X287037Y135080D01*
X287012Y135088D01*
X286989Y135101D01*
X286846Y135141D01*
X286705Y135186D01*
X286679Y135188D01*
X286654Y135196D01*
X286410Y135215D01*
X283048Y135215D01*
X282155Y136108D01*
X282155Y137922D01*
X282152Y137948D01*
X282154Y137974D01*
X282132Y138121D01*
X282115Y138268D01*
X282107Y138293D01*
X282103Y138319D01*
X282048Y138457D01*
X281998Y138596D01*
X281984Y138618D01*
X281974Y138643D01*
X281889Y138764D01*
X281809Y138889D01*
X281790Y138907D01*
X281775Y138929D01*
X281665Y139028D01*
X281558Y139131D01*
X281536Y139145D01*
X281516Y139162D01*
X281386Y139234D01*
X281259Y139310D01*
X281234Y139318D01*
X281211Y139331D01*
X281068Y139371D01*
X280927Y139416D01*
X280901Y139418D01*
X280876Y139426D01*
X280632Y139445D01*
X278168Y139445D01*
X278142Y139442D01*
X278116Y139444D01*
X277969Y139422D01*
X277822Y139405D01*
X277797Y139397D01*
X277771Y139393D01*
X277633Y139338D01*
X277494Y139288D01*
X277472Y139274D01*
X277447Y139264D01*
X277326Y139179D01*
X277201Y139099D01*
X277183Y139080D01*
X277161Y139065D01*
X277062Y138955D01*
X276959Y138848D01*
X276945Y138826D01*
X276928Y138806D01*
X276856Y138676D01*
X276780Y138549D01*
X276772Y138524D01*
X276759Y138501D01*
X276719Y138358D01*
X276674Y138217D01*
X276672Y138191D01*
X276664Y138166D01*
X276645Y137922D01*
X276645Y136108D01*
X275752Y135215D01*
X273930Y135215D01*
X273904Y135212D01*
X273878Y135214D01*
X273731Y135192D01*
X273584Y135175D01*
X273559Y135167D01*
X273533Y135163D01*
X273395Y135108D01*
X273256Y135058D01*
X273234Y135044D01*
X273209Y135034D01*
X273088Y134949D01*
X272963Y134869D01*
X272945Y134850D01*
X272923Y134835D01*
X272824Y134725D01*
X272721Y134618D01*
X272707Y134596D01*
X272690Y134576D01*
X272618Y134446D01*
X272542Y134319D01*
X272534Y134294D01*
X272521Y134271D01*
X272481Y134128D01*
X272436Y133987D01*
X272434Y133961D01*
X272426Y133936D01*
X272407Y133692D01*
X272407Y130468D01*
X272410Y130442D01*
X272408Y130416D01*
X272430Y130269D01*
X272447Y130122D01*
X272455Y130097D01*
X272459Y130071D01*
X272514Y129933D01*
X272564Y129794D01*
X272578Y129772D01*
X272588Y129747D01*
X272673Y129626D01*
X272753Y129501D01*
X272772Y129483D01*
X272787Y129461D01*
X272897Y129362D01*
X273004Y129259D01*
X273026Y129245D01*
X273046Y129228D01*
X273176Y129156D01*
X273303Y129080D01*
X273328Y129072D01*
X273351Y129059D01*
X273494Y129019D01*
X273635Y128974D01*
X273661Y128972D01*
X273686Y128964D01*
X273930Y128945D01*
X275752Y128945D01*
X276645Y128052D01*
X276645Y115788D01*
X275752Y114895D01*
X264488Y114895D01*
X263595Y115788D01*
X263595Y128052D01*
X264488Y128945D01*
X266310Y128945D01*
X266336Y128948D01*
X266362Y128946D01*
X266509Y128968D01*
X266656Y128985D01*
X266681Y128993D01*
X266707Y128997D01*
X266845Y129052D01*
X266984Y129102D01*
X267006Y129116D01*
X267031Y129126D01*
X267152Y129211D01*
X267277Y129291D01*
X267295Y129310D01*
X267317Y129325D01*
X267416Y129435D01*
X267519Y129542D01*
X267533Y129564D01*
X267550Y129584D01*
X267622Y129714D01*
X267698Y129841D01*
X267706Y129866D01*
X267719Y129889D01*
X267759Y130032D01*
X267804Y130173D01*
X267806Y130199D01*
X267814Y130224D01*
X267833Y130468D01*
X267833Y133692D01*
X267830Y133718D01*
X267832Y133744D01*
X267810Y133891D01*
X267793Y134038D01*
X267785Y134063D01*
X267781Y134089D01*
X267726Y134227D01*
X267676Y134366D01*
X267662Y134388D01*
X267652Y134413D01*
X267567Y134534D01*
X267487Y134659D01*
X267468Y134677D01*
X267453Y134699D01*
X267343Y134798D01*
X267236Y134901D01*
X267214Y134915D01*
X267194Y134932D01*
X267064Y135004D01*
X266937Y135080D01*
X266912Y135088D01*
X266889Y135101D01*
X266746Y135141D01*
X266605Y135186D01*
X266579Y135188D01*
X266554Y135196D01*
X266310Y135215D01*
X264488Y135215D01*
X263595Y136108D01*
X263595Y146876D01*
X263592Y146902D01*
X263594Y146928D01*
X263572Y147075D01*
X263555Y147222D01*
X263547Y147247D01*
X263543Y147273D01*
X263488Y147410D01*
X263438Y147550D01*
X263424Y147572D01*
X263414Y147597D01*
X263329Y147718D01*
X263249Y147843D01*
X263230Y147861D01*
X263215Y147883D01*
X263105Y147982D01*
X262998Y148085D01*
X262976Y148099D01*
X262956Y148116D01*
X262826Y148188D01*
X262699Y148264D01*
X262674Y148272D01*
X262651Y148285D01*
X262508Y148325D01*
X262367Y148370D01*
X262341Y148372D01*
X262316Y148380D01*
X262072Y148399D01*
X261168Y148399D01*
X261142Y148396D01*
X261116Y148398D01*
X260969Y148376D01*
X260822Y148359D01*
X260797Y148351D01*
X260771Y148347D01*
X260633Y148292D01*
X260494Y148242D01*
X260472Y148228D01*
X260447Y148218D01*
X260326Y148133D01*
X260201Y148053D01*
X260183Y148034D01*
X260161Y148019D01*
X260062Y147909D01*
X259959Y147802D01*
X259945Y147780D01*
X259928Y147760D01*
X259856Y147630D01*
X259780Y147503D01*
X259772Y147478D01*
X259759Y147455D01*
X259719Y147312D01*
X259674Y147171D01*
X259672Y147145D01*
X259664Y147120D01*
X259645Y146876D01*
X259645Y136108D01*
X258752Y135215D01*
X247488Y135215D01*
X246595Y136108D01*
X246595Y138430D01*
X246592Y138456D01*
X246594Y138482D01*
X246572Y138629D01*
X246555Y138776D01*
X246547Y138801D01*
X246543Y138827D01*
X246488Y138965D01*
X246438Y139104D01*
X246424Y139126D01*
X246414Y139151D01*
X246329Y139272D01*
X246249Y139397D01*
X246230Y139415D01*
X246215Y139437D01*
X246105Y139536D01*
X245998Y139639D01*
X245976Y139653D01*
X245956Y139670D01*
X245826Y139742D01*
X245699Y139818D01*
X245674Y139826D01*
X245651Y139839D01*
X245508Y139879D01*
X245367Y139924D01*
X245341Y139926D01*
X245316Y139934D01*
X245072Y139953D01*
X244999Y139953D01*
X244874Y139939D01*
X244748Y139932D01*
X244701Y139919D01*
X244653Y139913D01*
X244534Y139871D01*
X244413Y139836D01*
X244371Y139812D01*
X244325Y139796D01*
X244219Y139727D01*
X244109Y139666D01*
X244062Y139626D01*
X244032Y139607D01*
X243999Y139572D01*
X243922Y139507D01*
X242869Y138453D01*
X239731Y138453D01*
X238605Y139580D01*
X238526Y139642D01*
X238454Y139712D01*
X238390Y139750D01*
X238332Y139796D01*
X238241Y139839D01*
X238155Y139891D01*
X238084Y139913D01*
X238017Y139945D01*
X237919Y139966D01*
X237823Y139997D01*
X237749Y140003D01*
X237676Y140019D01*
X237576Y140017D01*
X237476Y140025D01*
X237402Y140014D01*
X237328Y140013D01*
X237231Y139988D01*
X237131Y139973D01*
X237062Y139946D01*
X236990Y139928D01*
X236901Y139882D01*
X236807Y139845D01*
X236746Y139802D01*
X236680Y139768D01*
X236604Y139703D01*
X236521Y139646D01*
X236471Y139590D01*
X236415Y139542D01*
X236355Y139461D01*
X236288Y139387D01*
X236252Y139322D01*
X236207Y139262D01*
X236168Y139170D01*
X236119Y139082D01*
X236099Y139010D01*
X236069Y138942D01*
X236052Y138843D01*
X236024Y138746D01*
X236016Y138646D01*
X236008Y138599D01*
X236010Y138563D01*
X236005Y138503D01*
X236005Y136108D01*
X235112Y135215D01*
X233290Y135215D01*
X233264Y135212D01*
X233238Y135214D01*
X233091Y135192D01*
X232944Y135175D01*
X232919Y135167D01*
X232893Y135163D01*
X232755Y135108D01*
X232616Y135058D01*
X232594Y135044D01*
X232569Y135034D01*
X232448Y134949D01*
X232323Y134869D01*
X232305Y134850D01*
X232283Y134835D01*
X232184Y134725D01*
X232081Y134618D01*
X232067Y134596D01*
X232050Y134576D01*
X231978Y134446D01*
X231902Y134319D01*
X231894Y134294D01*
X231881Y134271D01*
X231841Y134128D01*
X231796Y133987D01*
X231794Y133961D01*
X231786Y133936D01*
X231767Y133692D01*
X231767Y130468D01*
X231770Y130442D01*
X231768Y130416D01*
X231790Y130269D01*
X231807Y130122D01*
X231815Y130097D01*
X231819Y130071D01*
X231874Y129933D01*
X231924Y129794D01*
X231938Y129772D01*
X231948Y129747D01*
X232033Y129626D01*
X232113Y129501D01*
X232132Y129483D01*
X232147Y129461D01*
X232257Y129362D01*
X232364Y129259D01*
X232386Y129245D01*
X232406Y129228D01*
X232536Y129156D01*
X232663Y129080D01*
X232688Y129072D01*
X232711Y129059D01*
X232854Y129019D01*
X232995Y128974D01*
X233021Y128972D01*
X233046Y128964D01*
X233290Y128945D01*
X235112Y128945D01*
X236005Y128052D01*
X236005Y115788D01*
X235112Y114895D01*
X233290Y114895D01*
X233264Y114892D01*
X233238Y114894D01*
X233091Y114872D01*
X232944Y114855D01*
X232919Y114847D01*
X232893Y114843D01*
X232755Y114788D01*
X232616Y114738D01*
X232594Y114724D01*
X232569Y114714D01*
X232448Y114629D01*
X232323Y114549D01*
X232305Y114530D01*
X232283Y114515D01*
X232184Y114405D01*
X232081Y114298D01*
X232067Y114276D01*
X232050Y114256D01*
X231978Y114126D01*
X231902Y113999D01*
X231894Y113974D01*
X231881Y113951D01*
X231841Y113808D01*
X231796Y113667D01*
X231794Y113641D01*
X231786Y113616D01*
X231767Y113372D01*
X231767Y111693D01*
X227007Y106933D01*
X181933Y106933D01*
X177299Y111567D01*
X175605Y113261D01*
X175526Y113323D01*
X175454Y113393D01*
X175390Y113431D01*
X175332Y113478D01*
X175241Y113521D01*
X175155Y113572D01*
X175084Y113595D01*
X175017Y113627D01*
X174919Y113648D01*
X174823Y113678D01*
X174749Y113684D01*
X174676Y113700D01*
X174576Y113698D01*
X174476Y113706D01*
X174402Y113695D01*
X174328Y113694D01*
X174231Y113669D01*
X174131Y113655D01*
X174062Y113627D01*
X173990Y113609D01*
X173901Y113563D01*
X173807Y113526D01*
X173746Y113483D01*
X173680Y113449D01*
X173604Y113384D01*
X173521Y113327D01*
X173471Y113272D01*
X173415Y113223D01*
X173355Y113143D01*
X173288Y113068D01*
X173252Y113003D01*
X173207Y112943D01*
X173168Y112851D01*
X173119Y112763D01*
X173099Y112691D01*
X173069Y112623D01*
X173052Y112524D01*
X173024Y112428D01*
X173016Y112328D01*
X173008Y112280D01*
X173010Y112244D01*
X173005Y112184D01*
X173005Y109969D01*
X172901Y109581D01*
X172700Y109234D01*
X172416Y108950D01*
X172069Y108749D01*
X171681Y108645D01*
X168854Y108645D01*
X168854Y114469D01*
X168851Y114495D01*
X168853Y114521D01*
X168831Y114668D01*
X168814Y114815D01*
X168806Y114840D01*
X168802Y114866D01*
X168747Y115003D01*
X168697Y115143D01*
X168683Y115165D01*
X168673Y115190D01*
X168588Y115311D01*
X168508Y115436D01*
X168489Y115454D01*
X168474Y115476D01*
X168364Y115575D01*
X168257Y115678D01*
X168235Y115692D01*
X168215Y115709D01*
X168085Y115781D01*
X167958Y115857D01*
X167933Y115865D01*
X167910Y115878D01*
X167767Y115918D01*
X167626Y115963D01*
X167600Y115965D01*
X167575Y115972D01*
X167331Y115992D01*
X165129Y115992D01*
X165103Y115989D01*
X165077Y115991D01*
X164930Y115969D01*
X164783Y115952D01*
X164758Y115943D01*
X164732Y115939D01*
X164594Y115885D01*
X164455Y115835D01*
X164433Y115820D01*
X164408Y115811D01*
X164287Y115726D01*
X164162Y115646D01*
X164144Y115627D01*
X164122Y115612D01*
X164023Y115502D01*
X163920Y115395D01*
X163906Y115372D01*
X163889Y115353D01*
X163817Y115223D01*
X163741Y115096D01*
X163733Y115071D01*
X163720Y115048D01*
X163680Y114905D01*
X163635Y114764D01*
X163632Y114738D01*
X163625Y114713D01*
X163606Y114469D01*
X163606Y108645D01*
X160779Y108645D01*
X160391Y108749D01*
X160044Y108950D01*
X160040Y108954D01*
X160019Y108970D01*
X160002Y108990D01*
X159883Y109079D01*
X159767Y109171D01*
X159743Y109182D01*
X159722Y109198D01*
X159586Y109256D01*
X159451Y109320D01*
X159426Y109325D01*
X159402Y109336D01*
X159255Y109362D01*
X159111Y109393D01*
X159085Y109393D01*
X159059Y109397D01*
X158910Y109390D01*
X158762Y109387D01*
X158737Y109381D01*
X158711Y109379D01*
X158568Y109338D01*
X158424Y109302D01*
X158401Y109290D01*
X158376Y109283D01*
X158247Y109210D01*
X158115Y109142D01*
X158095Y109125D01*
X158072Y109113D01*
X157885Y108954D01*
X148261Y99329D01*
X108279Y99329D01*
X107833Y99775D01*
X107755Y99838D01*
X107682Y99908D01*
X107619Y99946D01*
X107560Y99992D01*
X107469Y100035D01*
X107383Y100087D01*
X107313Y100109D01*
X107245Y100141D01*
X107147Y100162D01*
X107051Y100193D01*
X106977Y100199D01*
X106904Y100214D01*
X106804Y100213D01*
X106704Y100221D01*
X106630Y100210D01*
X106556Y100208D01*
X106459Y100184D01*
X106359Y100169D01*
X106290Y100142D01*
X106218Y100123D01*
X106129Y100077D01*
X106035Y100040D01*
X105974Y99998D01*
X105908Y99964D01*
X105832Y99899D01*
X105749Y99841D01*
X105700Y99786D01*
X105643Y99738D01*
X105583Y99657D01*
X105516Y99583D01*
X105480Y99517D01*
X105436Y99458D01*
X105396Y99366D01*
X105347Y99278D01*
X105327Y99206D01*
X105298Y99138D01*
X105280Y99039D01*
X105253Y98942D01*
X105244Y98842D01*
X105236Y98795D01*
X105238Y98759D01*
X105233Y98698D01*
X105233Y92416D01*
X105242Y92340D01*
X105241Y92263D01*
X105262Y92167D01*
X105273Y92069D01*
X105299Y91997D01*
X105315Y91923D01*
X105357Y91834D01*
X105390Y91741D01*
X105432Y91677D01*
X105465Y91608D01*
X105526Y91531D01*
X105579Y91449D01*
X105634Y91395D01*
X105682Y91336D01*
X105759Y91275D01*
X105830Y91206D01*
X105896Y91167D01*
X105956Y91120D01*
X106089Y91052D01*
X106129Y91027D01*
X106147Y91022D01*
X106173Y91008D01*
X110341Y89282D01*
X114682Y84941D01*
X117031Y79269D01*
X117031Y73131D01*
X114682Y67459D01*
X110341Y63118D01*
X106173Y61392D01*
X106106Y61355D01*
X106035Y61326D01*
X105955Y61270D01*
X105869Y61222D01*
X105812Y61171D01*
X105749Y61127D01*
X105683Y61054D01*
X105610Y60988D01*
X105567Y60925D01*
X105516Y60869D01*
X105468Y60782D01*
X105412Y60702D01*
X105384Y60630D01*
X105347Y60564D01*
X105321Y60469D01*
X105284Y60377D01*
X105273Y60302D01*
X105253Y60228D01*
X105241Y60079D01*
X105234Y60033D01*
X105235Y60013D01*
X105233Y59984D01*
X105233Y50633D01*
X105244Y50533D01*
X105246Y50433D01*
X105264Y50360D01*
X105273Y50286D01*
X105307Y50192D01*
X105331Y50095D01*
X105365Y50028D01*
X105390Y49958D01*
X105445Y49874D01*
X105491Y49785D01*
X105539Y49728D01*
X105579Y49666D01*
X105652Y49596D01*
X105717Y49519D01*
X105776Y49475D01*
X105830Y49423D01*
X105916Y49372D01*
X105997Y49312D01*
X106065Y49283D01*
X106129Y49245D01*
X106225Y49214D01*
X106317Y49174D01*
X106390Y49161D01*
X106461Y49138D01*
X106561Y49130D01*
X106660Y49112D01*
X106734Y49116D01*
X106808Y49110D01*
X106908Y49125D01*
X107008Y49130D01*
X107079Y49151D01*
X107153Y49162D01*
X107246Y49199D01*
X107343Y49227D01*
X107408Y49263D01*
X107477Y49291D01*
X107559Y49348D01*
X107647Y49397D01*
X107724Y49462D01*
X107763Y49490D01*
X107787Y49516D01*
X107833Y49556D01*
X144892Y86615D01*
X163179Y86615D01*
X163304Y86629D01*
X163430Y86636D01*
X163477Y86649D01*
X163525Y86655D01*
X163644Y86697D01*
X163765Y86732D01*
X163807Y86756D01*
X163853Y86772D01*
X163959Y86841D01*
X164069Y86902D01*
X164116Y86942D01*
X164146Y86961D01*
X164179Y86996D01*
X164256Y87061D01*
X164801Y87607D01*
X167939Y87607D01*
X170157Y85389D01*
X170157Y82251D01*
X167939Y80033D01*
X164801Y80033D01*
X164256Y80579D01*
X164157Y80658D01*
X164063Y80742D01*
X164020Y80766D01*
X163983Y80796D01*
X163868Y80850D01*
X163758Y80911D01*
X163711Y80924D01*
X163668Y80945D01*
X163544Y80971D01*
X163422Y81006D01*
X163362Y81011D01*
X163327Y81018D01*
X163279Y81017D01*
X163179Y81025D01*
X147839Y81025D01*
X147713Y81011D01*
X147587Y81004D01*
X147540Y80991D01*
X147492Y80985D01*
X147373Y80943D01*
X147252Y80908D01*
X147210Y80884D01*
X147164Y80868D01*
X147058Y80799D01*
X146948Y80738D01*
X146901Y80698D01*
X146871Y80679D01*
X146838Y80644D01*
X146761Y80579D01*
X113731Y47549D01*
X113652Y47450D01*
X113568Y47356D01*
X113544Y47313D01*
X113514Y47276D01*
X113460Y47161D01*
X113399Y47051D01*
X113386Y47004D01*
X113365Y46960D01*
X113339Y46837D01*
X113304Y46715D01*
X113299Y46654D01*
X113292Y46620D01*
X113293Y46572D01*
X113285Y46471D01*
X113285Y36305D01*
X113304Y36140D01*
X113320Y35978D01*
X113324Y35968D01*
X113325Y35959D01*
X113380Y35804D01*
X113434Y35648D01*
X113439Y35640D01*
X113442Y35631D01*
X113532Y35492D01*
X113619Y35353D01*
X113626Y35346D01*
X113631Y35338D01*
X113750Y35223D01*
X113867Y35108D01*
X113875Y35103D01*
X113882Y35096D01*
X114023Y35011D01*
X114163Y34925D01*
X114173Y34922D01*
X114181Y34917D01*
X114337Y34867D01*
X114494Y34815D01*
X114504Y34814D01*
X114513Y34811D01*
X114676Y34798D01*
X114841Y34782D01*
X114851Y34784D01*
X114860Y34783D01*
X115023Y34807D01*
X115186Y34830D01*
X115195Y34833D01*
X115205Y34834D01*
X115358Y34895D01*
X115512Y34954D01*
X115520Y34960D01*
X115529Y34963D01*
X115663Y35056D01*
X115800Y35149D01*
X115807Y35157D01*
X115815Y35162D01*
X115925Y35284D01*
X116037Y35405D01*
X116043Y35415D01*
X116048Y35421D01*
X116063Y35448D01*
X116165Y35614D01*
X116639Y36543D01*
X117485Y37707D01*
X118503Y38725D01*
X119667Y39571D01*
X120950Y40225D01*
X121921Y40540D01*
X121921Y25146D01*
X121924Y25120D01*
X121922Y25094D01*
X121944Y24947D01*
X121961Y24800D01*
X121969Y24775D01*
X121973Y24749D01*
X122028Y24612D01*
X122078Y24472D01*
X122092Y24450D01*
X122102Y24425D01*
X122187Y24304D01*
X122267Y24179D01*
X122286Y24161D01*
X122301Y24139D01*
X122411Y24040D01*
X122518Y23937D01*
X122540Y23923D01*
X122560Y23906D01*
X122690Y23834D01*
X122817Y23758D01*
X122842Y23750D01*
X122865Y23737D01*
X123008Y23697D01*
X123149Y23652D01*
X123175Y23650D01*
X123200Y23643D01*
X123444Y23623D01*
X123953Y23623D01*
X123953Y23114D01*
X123956Y23088D01*
X123954Y23062D01*
X123976Y22915D01*
X123993Y22768D01*
X124002Y22743D01*
X124006Y22717D01*
X124060Y22579D01*
X124110Y22440D01*
X124125Y22418D01*
X124134Y22393D01*
X124219Y22272D01*
X124299Y22147D01*
X124318Y22129D01*
X124333Y22107D01*
X124443Y22008D01*
X124550Y21905D01*
X124573Y21891D01*
X124592Y21874D01*
X124722Y21802D01*
X124849Y21726D01*
X124874Y21718D01*
X124897Y21705D01*
X125040Y21665D01*
X125181Y21620D01*
X125207Y21617D01*
X125232Y21610D01*
X125476Y21591D01*
X133605Y21591D01*
X133605Y15790D01*
X133380Y14368D01*
X132935Y13000D01*
X132281Y11717D01*
X131569Y10737D01*
X131493Y10602D01*
X131414Y10469D01*
X131408Y10451D01*
X131398Y10434D01*
X131354Y10284D01*
X131307Y10137D01*
X131306Y10118D01*
X131300Y10099D01*
X131292Y9944D01*
X131279Y9790D01*
X131282Y9771D01*
X131281Y9751D01*
X131308Y9598D01*
X131331Y9445D01*
X131338Y9427D01*
X131342Y9408D01*
X131403Y9265D01*
X131460Y9121D01*
X131471Y9105D01*
X131478Y9088D01*
X131571Y8962D01*
X131659Y8835D01*
X131673Y8822D01*
X131685Y8807D01*
X131803Y8705D01*
X131918Y8602D01*
X131934Y8592D01*
X131949Y8580D01*
X132086Y8508D01*
X132223Y8433D01*
X132241Y8428D01*
X132258Y8419D01*
X132408Y8381D01*
X132558Y8338D01*
X132581Y8336D01*
X132596Y8333D01*
X132640Y8332D01*
X132802Y8319D01*
X141441Y8319D01*
X141541Y8330D01*
X141641Y8332D01*
X141714Y8350D01*
X141787Y8359D01*
X141882Y8392D01*
X141979Y8417D01*
X142045Y8451D01*
X142116Y8476D01*
X142200Y8531D01*
X142289Y8577D01*
X142346Y8625D01*
X142408Y8665D01*
X142478Y8737D01*
X142555Y8802D01*
X142599Y8862D01*
X142651Y8916D01*
X142702Y9002D01*
X142762Y9083D01*
X142791Y9151D01*
X142829Y9215D01*
X142860Y9310D01*
X142900Y9403D01*
X142913Y9476D01*
X142936Y9547D01*
X142944Y9647D01*
X142961Y9746D01*
X142958Y9820D01*
X142964Y9894D01*
X142949Y9993D01*
X142944Y10094D01*
X142923Y10165D01*
X142912Y10239D01*
X142875Y10332D01*
X142847Y10429D01*
X142811Y10494D01*
X142783Y10563D01*
X142726Y10645D01*
X142677Y10733D01*
X142612Y10809D01*
X142584Y10849D01*
X142558Y10873D01*
X142518Y10919D01*
X142107Y11330D01*
X140715Y14691D01*
X140715Y33569D01*
X142108Y36930D01*
X144680Y39502D01*
X148041Y40895D01*
X151679Y40895D01*
X152734Y40458D01*
X152808Y40437D01*
X152878Y40407D01*
X152974Y40389D01*
X153069Y40362D01*
X153145Y40358D01*
X153221Y40345D01*
X153319Y40350D01*
X153417Y40345D01*
X153492Y40359D01*
X153569Y40363D01*
X153663Y40390D01*
X153760Y40408D01*
X153830Y40438D01*
X153904Y40459D01*
X153990Y40507D01*
X154080Y40547D01*
X154141Y40592D01*
X154208Y40629D01*
X154321Y40726D01*
X154359Y40754D01*
X154372Y40769D01*
X154394Y40788D01*
X160343Y46737D01*
X215577Y46737D01*
X225291Y37023D01*
X225390Y36944D01*
X225484Y36860D01*
X225526Y36836D01*
X225564Y36806D01*
X225678Y36752D01*
X225789Y36691D01*
X225836Y36678D01*
X225879Y36657D01*
X226003Y36631D01*
X226124Y36596D01*
X226185Y36591D01*
X226220Y36584D01*
X226268Y36585D01*
X226368Y36577D01*
X274431Y36577D01*
X274556Y36591D01*
X274682Y36598D01*
X274729Y36611D01*
X274777Y36617D01*
X274896Y36659D01*
X275017Y36694D01*
X275059Y36718D01*
X275105Y36734D01*
X275211Y36803D01*
X275321Y36864D01*
X275368Y36904D01*
X275398Y36923D01*
X275431Y36958D01*
X275508Y37023D01*
X276561Y38077D01*
X279699Y38077D01*
X281917Y35859D01*
X281917Y32721D01*
X279699Y30503D01*
X276561Y30503D01*
X275508Y31557D01*
X275409Y31636D01*
X275315Y31720D01*
X275272Y31744D01*
X275235Y31774D01*
X275120Y31828D01*
X275010Y31889D01*
X274963Y31902D01*
X274920Y31923D01*
X274796Y31949D01*
X274674Y31984D01*
X274614Y31989D01*
X274579Y31996D01*
X274531Y31995D01*
X274431Y32003D01*
X223843Y32003D01*
X214129Y41717D01*
X214030Y41796D01*
X213936Y41880D01*
X213894Y41904D01*
X213856Y41934D01*
X213742Y41988D01*
X213631Y42049D01*
X213584Y42062D01*
X213541Y42083D01*
X213417Y42109D01*
X213296Y42144D01*
X213235Y42149D01*
X213200Y42156D01*
X213152Y42155D01*
X213052Y42163D01*
X206857Y42163D01*
X206757Y42152D01*
X206657Y42150D01*
X206584Y42132D01*
X206511Y42123D01*
X206416Y42090D01*
X206319Y42065D01*
X206252Y42031D01*
X206182Y42006D01*
X206098Y41951D01*
X206009Y41905D01*
X205952Y41857D01*
X205890Y41817D01*
X205820Y41745D01*
X205743Y41680D01*
X205699Y41620D01*
X205647Y41566D01*
X205596Y41480D01*
X205536Y41399D01*
X205507Y41331D01*
X205469Y41267D01*
X205438Y41171D01*
X205398Y41079D01*
X205385Y41006D01*
X205362Y40935D01*
X205354Y40835D01*
X205337Y40736D01*
X205340Y40662D01*
X205334Y40588D01*
X205349Y40488D01*
X205354Y40388D01*
X205375Y40317D01*
X205386Y40243D01*
X205423Y40150D01*
X205451Y40053D01*
X205487Y39988D01*
X205515Y39919D01*
X205572Y39837D01*
X205621Y39749D01*
X205686Y39673D01*
X205714Y39633D01*
X205740Y39609D01*
X205780Y39563D01*
X208413Y36930D01*
X209805Y33569D01*
X209805Y19569D01*
X209819Y19443D01*
X209826Y19317D01*
X209839Y19270D01*
X209845Y19222D01*
X209887Y19103D01*
X209922Y18982D01*
X209946Y18940D01*
X209962Y18894D01*
X210031Y18788D01*
X210092Y18678D01*
X210132Y18631D01*
X210151Y18601D01*
X210186Y18568D01*
X210251Y18491D01*
X214071Y14671D01*
X214170Y14592D01*
X214264Y14508D01*
X214307Y14484D01*
X214344Y14454D01*
X214459Y14400D01*
X214569Y14339D01*
X214616Y14326D01*
X214660Y14305D01*
X214783Y14279D01*
X214905Y14244D01*
X214966Y14239D01*
X215000Y14232D01*
X215048Y14233D01*
X215149Y14225D01*
X216632Y14225D01*
X216658Y14228D01*
X216684Y14226D01*
X216831Y14248D01*
X216978Y14265D01*
X217003Y14273D01*
X217029Y14277D01*
X217167Y14332D01*
X217306Y14382D01*
X217328Y14396D01*
X217353Y14406D01*
X217474Y14491D01*
X217599Y14571D01*
X217617Y14590D01*
X217639Y14605D01*
X217738Y14715D01*
X217841Y14822D01*
X217855Y14844D01*
X217872Y14864D01*
X217944Y14994D01*
X218020Y15121D01*
X218028Y15146D01*
X218041Y15169D01*
X218081Y15312D01*
X218126Y15453D01*
X218128Y15479D01*
X218136Y15504D01*
X218155Y15748D01*
X218155Y17462D01*
X219048Y18355D01*
X230812Y18355D01*
X231705Y17462D01*
X231705Y5524D01*
X231708Y5498D01*
X231706Y5472D01*
X231728Y5325D01*
X231745Y5178D01*
X231753Y5153D01*
X231757Y5127D01*
X231812Y4989D01*
X231862Y4850D01*
X231876Y4828D01*
X231886Y4803D01*
X231971Y4682D01*
X232051Y4557D01*
X232070Y4539D01*
X232085Y4517D01*
X232195Y4418D01*
X232302Y4315D01*
X232324Y4301D01*
X232344Y4284D01*
X232474Y4212D01*
X232601Y4136D01*
X232626Y4128D01*
X232649Y4115D01*
X232792Y4075D01*
X232933Y4030D01*
X232959Y4028D01*
X232984Y4020D01*
X233228Y4001D01*
X234160Y4001D01*
X234211Y4007D01*
G37*
G36*
X431092Y4012D02*
X431092Y4012D01*
X431192Y4014D01*
X431264Y4032D01*
X431338Y4041D01*
X431432Y4074D01*
X431530Y4099D01*
X431596Y4133D01*
X431666Y4158D01*
X431750Y4213D01*
X431840Y4259D01*
X431896Y4307D01*
X431959Y4347D01*
X432029Y4419D01*
X432105Y4484D01*
X432149Y4544D01*
X432201Y4598D01*
X432253Y4684D01*
X432312Y4765D01*
X432342Y4833D01*
X432380Y4897D01*
X432411Y4993D01*
X432450Y5085D01*
X432463Y5158D01*
X432486Y5229D01*
X432494Y5329D01*
X432512Y5428D01*
X432508Y5502D01*
X432514Y5576D01*
X432499Y5676D01*
X432494Y5776D01*
X432473Y5847D01*
X432462Y5921D01*
X432425Y6014D01*
X432398Y6111D01*
X432361Y6176D01*
X432334Y6245D01*
X432276Y6327D01*
X432227Y6415D01*
X432162Y6491D01*
X432135Y6531D01*
X432108Y6555D01*
X432069Y6601D01*
X428821Y9849D01*
X426689Y14995D01*
X426689Y20565D01*
X428821Y25711D01*
X432759Y29649D01*
X437905Y31781D01*
X443475Y31781D01*
X448621Y29649D01*
X450713Y27557D01*
X450791Y27495D01*
X450864Y27425D01*
X450928Y27387D01*
X450986Y27341D01*
X451077Y27298D01*
X451163Y27246D01*
X451234Y27224D01*
X451301Y27192D01*
X451399Y27171D01*
X451495Y27140D01*
X451569Y27134D01*
X451642Y27118D01*
X451742Y27120D01*
X451842Y27112D01*
X451916Y27123D01*
X451990Y27124D01*
X452087Y27149D01*
X452187Y27164D01*
X452256Y27191D01*
X452328Y27209D01*
X452417Y27255D01*
X452511Y27292D01*
X452572Y27335D01*
X452638Y27369D01*
X452714Y27434D01*
X452797Y27491D01*
X452846Y27547D01*
X452903Y27595D01*
X452963Y27676D01*
X453030Y27750D01*
X453066Y27815D01*
X453110Y27875D01*
X453150Y27967D01*
X453199Y28055D01*
X453219Y28127D01*
X453248Y28195D01*
X453266Y28294D01*
X453293Y28391D01*
X453302Y28491D01*
X453310Y28538D01*
X453308Y28574D01*
X453313Y28634D01*
X453313Y60090D01*
X453304Y60165D01*
X453305Y60242D01*
X453284Y60338D01*
X453273Y60436D01*
X453247Y60508D01*
X453231Y60582D01*
X453189Y60671D01*
X453156Y60764D01*
X453114Y60828D01*
X453081Y60897D01*
X453020Y60974D01*
X452967Y61057D01*
X452912Y61110D01*
X452864Y61170D01*
X452787Y61230D01*
X452716Y61299D01*
X452650Y61338D01*
X452590Y61385D01*
X452457Y61454D01*
X452417Y61478D01*
X452399Y61484D01*
X452373Y61497D01*
X448459Y63118D01*
X444118Y67459D01*
X441769Y73131D01*
X441769Y79269D01*
X444118Y84941D01*
X448459Y89282D01*
X452373Y90903D01*
X452440Y90940D01*
X452511Y90968D01*
X452591Y91025D01*
X452677Y91072D01*
X452734Y91124D01*
X452797Y91167D01*
X452863Y91240D01*
X452936Y91307D01*
X452979Y91369D01*
X453030Y91426D01*
X453078Y91512D01*
X453134Y91593D01*
X453162Y91664D01*
X453199Y91731D01*
X453225Y91826D01*
X453262Y91917D01*
X453273Y91993D01*
X453293Y92067D01*
X453305Y92216D01*
X453312Y92262D01*
X453311Y92281D01*
X453313Y92310D01*
X453313Y121226D01*
X453302Y121325D01*
X453300Y121426D01*
X453282Y121498D01*
X453273Y121572D01*
X453239Y121666D01*
X453215Y121764D01*
X453181Y121830D01*
X453156Y121900D01*
X453101Y121984D01*
X453055Y122074D01*
X453007Y122130D01*
X452967Y122193D01*
X452894Y122263D01*
X452829Y122339D01*
X452770Y122383D01*
X452716Y122435D01*
X452630Y122486D01*
X452549Y122546D01*
X452481Y122576D01*
X452417Y122614D01*
X452321Y122644D01*
X452229Y122684D01*
X452156Y122697D01*
X452085Y122720D01*
X451985Y122728D01*
X451886Y122746D01*
X451812Y122742D01*
X451738Y122748D01*
X451638Y122733D01*
X451538Y122728D01*
X451467Y122707D01*
X451393Y122696D01*
X451300Y122659D01*
X451203Y122631D01*
X451138Y122595D01*
X451069Y122568D01*
X450987Y122510D01*
X450899Y122461D01*
X450822Y122396D01*
X450783Y122369D01*
X450759Y122342D01*
X450713Y122303D01*
X448621Y120211D01*
X443475Y118079D01*
X437905Y118079D01*
X432759Y120211D01*
X428821Y124149D01*
X428631Y124606D01*
X428558Y124738D01*
X428489Y124872D01*
X428474Y124890D01*
X428462Y124911D01*
X428361Y125022D01*
X428264Y125137D01*
X428244Y125151D01*
X428228Y125169D01*
X428104Y125255D01*
X427983Y125344D01*
X427961Y125354D01*
X427941Y125367D01*
X427801Y125423D01*
X427663Y125482D01*
X427640Y125486D01*
X427617Y125495D01*
X427468Y125517D01*
X427320Y125544D01*
X427296Y125543D01*
X427272Y125546D01*
X427122Y125534D01*
X426972Y125526D01*
X426949Y125519D01*
X426925Y125517D01*
X426782Y125471D01*
X426637Y125429D01*
X426616Y125417D01*
X426593Y125410D01*
X426465Y125333D01*
X426333Y125259D01*
X426311Y125240D01*
X426295Y125230D01*
X426261Y125198D01*
X426147Y125101D01*
X424912Y123865D01*
X408648Y123865D01*
X407755Y124758D01*
X407755Y132080D01*
X407752Y132106D01*
X407754Y132132D01*
X407732Y132279D01*
X407715Y132426D01*
X407707Y132451D01*
X407703Y132477D01*
X407648Y132615D01*
X407598Y132754D01*
X407584Y132776D01*
X407574Y132801D01*
X407489Y132922D01*
X407409Y133047D01*
X407390Y133065D01*
X407375Y133087D01*
X407265Y133186D01*
X407158Y133289D01*
X407136Y133303D01*
X407116Y133320D01*
X406986Y133392D01*
X406859Y133468D01*
X406834Y133476D01*
X406811Y133489D01*
X406668Y133529D01*
X406527Y133574D01*
X406501Y133576D01*
X406476Y133584D01*
X406232Y133603D01*
X402898Y133603D01*
X402773Y133589D01*
X402646Y133582D01*
X402600Y133569D01*
X402552Y133563D01*
X402433Y133521D01*
X402312Y133486D01*
X402269Y133462D01*
X402224Y133446D01*
X402118Y133377D01*
X402007Y133316D01*
X401961Y133276D01*
X401931Y133257D01*
X401898Y133222D01*
X401821Y133157D01*
X400243Y131579D01*
X400164Y131480D01*
X400080Y131386D01*
X400056Y131344D01*
X400026Y131306D01*
X399972Y131192D01*
X399911Y131081D01*
X399898Y131034D01*
X399877Y130991D01*
X399851Y130867D01*
X399816Y130746D01*
X399811Y130685D01*
X399804Y130650D01*
X399805Y130602D01*
X399797Y130502D01*
X399797Y122243D01*
X393377Y115823D01*
X370878Y115823D01*
X370852Y115820D01*
X370826Y115822D01*
X370679Y115800D01*
X370532Y115783D01*
X370507Y115775D01*
X370481Y115771D01*
X370343Y115716D01*
X370204Y115666D01*
X370182Y115652D01*
X370157Y115642D01*
X370036Y115557D01*
X369911Y115477D01*
X369893Y115458D01*
X369871Y115443D01*
X369772Y115333D01*
X369669Y115226D01*
X369655Y115204D01*
X369638Y115184D01*
X369566Y115054D01*
X369490Y114927D01*
X369482Y114902D01*
X369469Y114879D01*
X369429Y114736D01*
X369384Y114595D01*
X369382Y114569D01*
X369374Y114544D01*
X369355Y114300D01*
X369355Y111978D01*
X368462Y111085D01*
X366410Y111085D01*
X366285Y111071D01*
X366158Y111064D01*
X366112Y111051D01*
X366064Y111045D01*
X365945Y111003D01*
X365824Y110968D01*
X365781Y110944D01*
X365736Y110928D01*
X365630Y110859D01*
X365519Y110798D01*
X365473Y110758D01*
X365443Y110739D01*
X365410Y110704D01*
X365333Y110639D01*
X363331Y108637D01*
X362143Y107449D01*
X360357Y105663D01*
X345440Y105663D01*
X345414Y105660D01*
X345388Y105662D01*
X345241Y105640D01*
X345094Y105623D01*
X345069Y105615D01*
X345043Y105611D01*
X344905Y105556D01*
X344766Y105506D01*
X344744Y105492D01*
X344719Y105482D01*
X344598Y105397D01*
X344473Y105317D01*
X344455Y105298D01*
X344433Y105283D01*
X344334Y105173D01*
X344231Y105066D01*
X344217Y105044D01*
X344200Y105024D01*
X344128Y104894D01*
X344052Y104767D01*
X344044Y104742D01*
X344031Y104719D01*
X343991Y104576D01*
X343946Y104435D01*
X343944Y104409D01*
X343936Y104384D01*
X343917Y104140D01*
X343917Y19748D01*
X343931Y19623D01*
X343938Y19496D01*
X343951Y19450D01*
X343957Y19402D01*
X343999Y19283D01*
X344034Y19162D01*
X344058Y19119D01*
X344074Y19074D01*
X344143Y18968D01*
X344204Y18857D01*
X344244Y18811D01*
X344263Y18781D01*
X344298Y18748D01*
X344363Y18671D01*
X346783Y16251D01*
X346882Y16172D01*
X346976Y16088D01*
X347018Y16064D01*
X347056Y16034D01*
X347170Y15980D01*
X347281Y15919D01*
X347328Y15906D01*
X347371Y15885D01*
X347495Y15859D01*
X347616Y15824D01*
X347677Y15819D01*
X347712Y15812D01*
X347760Y15813D01*
X347860Y15805D01*
X360462Y15805D01*
X361355Y14912D01*
X361355Y13090D01*
X361358Y13064D01*
X361356Y13038D01*
X361378Y12891D01*
X361395Y12744D01*
X361403Y12719D01*
X361407Y12693D01*
X361462Y12555D01*
X361512Y12416D01*
X361526Y12394D01*
X361536Y12369D01*
X361621Y12248D01*
X361701Y12123D01*
X361720Y12105D01*
X361735Y12083D01*
X361845Y11984D01*
X361952Y11881D01*
X361974Y11867D01*
X361994Y11850D01*
X362124Y11778D01*
X362251Y11702D01*
X362276Y11694D01*
X362299Y11681D01*
X362442Y11641D01*
X362583Y11596D01*
X362609Y11594D01*
X362634Y11586D01*
X362878Y11567D01*
X367372Y11567D01*
X367398Y11570D01*
X367424Y11568D01*
X367571Y11590D01*
X367718Y11607D01*
X367743Y11615D01*
X367769Y11619D01*
X367907Y11674D01*
X368046Y11724D01*
X368068Y11738D01*
X368093Y11748D01*
X368214Y11833D01*
X368339Y11913D01*
X368357Y11932D01*
X368379Y11947D01*
X368478Y12057D01*
X368581Y12164D01*
X368595Y12186D01*
X368612Y12206D01*
X368684Y12336D01*
X368760Y12463D01*
X368768Y12488D01*
X368781Y12511D01*
X368821Y12654D01*
X368866Y12795D01*
X368868Y12821D01*
X368876Y12846D01*
X368895Y13090D01*
X368895Y14912D01*
X369788Y15805D01*
X382052Y15805D01*
X382945Y14912D01*
X382945Y13090D01*
X382948Y13064D01*
X382946Y13038D01*
X382968Y12891D01*
X382985Y12744D01*
X382993Y12719D01*
X382997Y12693D01*
X383052Y12555D01*
X383102Y12416D01*
X383116Y12394D01*
X383126Y12369D01*
X383211Y12248D01*
X383291Y12123D01*
X383310Y12105D01*
X383325Y12083D01*
X383435Y11984D01*
X383542Y11881D01*
X383564Y11867D01*
X383584Y11850D01*
X383714Y11778D01*
X383841Y11702D01*
X383866Y11694D01*
X383889Y11681D01*
X384032Y11641D01*
X384173Y11596D01*
X384199Y11594D01*
X384224Y11586D01*
X384468Y11567D01*
X388962Y11567D01*
X388988Y11570D01*
X389014Y11568D01*
X389161Y11590D01*
X389308Y11607D01*
X389333Y11615D01*
X389359Y11619D01*
X389497Y11674D01*
X389636Y11724D01*
X389658Y11738D01*
X389683Y11748D01*
X389804Y11833D01*
X389929Y11913D01*
X389947Y11932D01*
X389969Y11947D01*
X390068Y12057D01*
X390171Y12164D01*
X390185Y12186D01*
X390202Y12206D01*
X390274Y12336D01*
X390350Y12463D01*
X390358Y12488D01*
X390371Y12511D01*
X390411Y12654D01*
X390456Y12795D01*
X390458Y12821D01*
X390466Y12846D01*
X390485Y13090D01*
X390485Y14912D01*
X391378Y15805D01*
X403642Y15805D01*
X404535Y14912D01*
X404535Y5524D01*
X404538Y5498D01*
X404536Y5472D01*
X404558Y5325D01*
X404575Y5178D01*
X404583Y5153D01*
X404587Y5127D01*
X404642Y4989D01*
X404692Y4850D01*
X404706Y4828D01*
X404716Y4803D01*
X404801Y4682D01*
X404881Y4557D01*
X404900Y4539D01*
X404915Y4517D01*
X405025Y4418D01*
X405132Y4315D01*
X405154Y4301D01*
X405174Y4284D01*
X405304Y4212D01*
X405431Y4136D01*
X405456Y4128D01*
X405479Y4115D01*
X405622Y4075D01*
X405763Y4030D01*
X405789Y4028D01*
X405814Y4020D01*
X406058Y4001D01*
X430992Y4001D01*
X431092Y4012D01*
G37*
G36*
X530952Y29301D02*
X530952Y29301D01*
X531078Y29308D01*
X531124Y29321D01*
X531172Y29327D01*
X531291Y29370D01*
X531413Y29405D01*
X531455Y29428D01*
X531500Y29444D01*
X531607Y29513D01*
X531717Y29575D01*
X531763Y29614D01*
X531793Y29633D01*
X531801Y29642D01*
X536965Y31781D01*
X542535Y31781D01*
X546457Y30156D01*
X546602Y30115D01*
X546745Y30069D01*
X546769Y30067D01*
X546792Y30061D01*
X546943Y30053D01*
X547092Y30041D01*
X547116Y30045D01*
X547140Y30044D01*
X547288Y30071D01*
X547437Y30093D01*
X547459Y30102D01*
X547483Y30106D01*
X547621Y30166D01*
X547761Y30222D01*
X547780Y30235D01*
X547803Y30245D01*
X547923Y30335D01*
X548047Y30420D01*
X548063Y30438D01*
X548082Y30453D01*
X548180Y30568D01*
X548280Y30679D01*
X548292Y30700D01*
X548307Y30719D01*
X548376Y30852D01*
X548449Y30984D01*
X548455Y31008D01*
X548466Y31029D01*
X548502Y31175D01*
X548543Y31320D01*
X548546Y31349D01*
X548550Y31367D01*
X548551Y31414D01*
X548563Y31563D01*
X548563Y71077D01*
X548546Y71226D01*
X548534Y71375D01*
X548526Y71398D01*
X548523Y71423D01*
X548473Y71564D01*
X548427Y71707D01*
X548414Y71728D01*
X548406Y71751D01*
X548325Y71877D01*
X548247Y72005D01*
X548230Y72023D01*
X548217Y72044D01*
X548109Y72148D01*
X548005Y72256D01*
X547984Y72269D01*
X547966Y72286D01*
X547837Y72363D01*
X547712Y72444D01*
X547688Y72452D01*
X547667Y72465D01*
X547524Y72511D01*
X547383Y72561D01*
X547359Y72564D01*
X547335Y72571D01*
X547186Y72583D01*
X547037Y72600D01*
X547012Y72597D01*
X546988Y72599D01*
X546840Y72577D01*
X546691Y72560D01*
X546667Y72551D01*
X546643Y72548D01*
X546504Y72492D01*
X546363Y72442D01*
X546342Y72428D01*
X546319Y72419D01*
X546197Y72334D01*
X546071Y72252D01*
X546053Y72234D01*
X546033Y72220D01*
X545933Y72109D01*
X545829Y72001D01*
X545816Y71980D01*
X545799Y71961D01*
X545727Y71830D01*
X545650Y71701D01*
X545640Y71673D01*
X545631Y71656D01*
X545618Y71610D01*
X545568Y71471D01*
X545504Y71229D01*
X544729Y69360D01*
X543718Y67608D01*
X543543Y67380D01*
X542487Y66004D01*
X541056Y64573D01*
X539452Y63342D01*
X537700Y62331D01*
X535831Y61556D01*
X533907Y61041D01*
X533907Y74676D01*
X533904Y74702D01*
X533906Y74728D01*
X533884Y74875D01*
X533867Y75022D01*
X533859Y75047D01*
X533855Y75073D01*
X533800Y75211D01*
X533750Y75350D01*
X533736Y75372D01*
X533726Y75397D01*
X533641Y75518D01*
X533561Y75643D01*
X533542Y75661D01*
X533527Y75683D01*
X533417Y75782D01*
X533310Y75885D01*
X533288Y75899D01*
X533268Y75916D01*
X533138Y75988D01*
X533011Y76064D01*
X532986Y76072D01*
X532963Y76085D01*
X532820Y76125D01*
X532679Y76170D01*
X532653Y76172D01*
X532628Y76179D01*
X532384Y76199D01*
X530859Y76199D01*
X530859Y76201D01*
X532384Y76201D01*
X532410Y76204D01*
X532436Y76202D01*
X532583Y76224D01*
X532730Y76241D01*
X532755Y76250D01*
X532781Y76253D01*
X532919Y76308D01*
X533058Y76358D01*
X533080Y76373D01*
X533105Y76382D01*
X533226Y76467D01*
X533351Y76547D01*
X533369Y76566D01*
X533391Y76581D01*
X533490Y76691D01*
X533593Y76798D01*
X533607Y76820D01*
X533624Y76840D01*
X533696Y76970D01*
X533772Y77097D01*
X533780Y77122D01*
X533793Y77145D01*
X533833Y77288D01*
X533878Y77429D01*
X533880Y77455D01*
X533888Y77480D01*
X533907Y77724D01*
X533907Y91359D01*
X535831Y90844D01*
X537700Y90069D01*
X539452Y89058D01*
X541056Y87827D01*
X542487Y86396D01*
X543718Y84792D01*
X544729Y83040D01*
X545504Y81171D01*
X545568Y80929D01*
X545623Y80790D01*
X545674Y80649D01*
X545687Y80628D01*
X545697Y80605D01*
X545782Y80482D01*
X545863Y80356D01*
X545881Y80339D01*
X545895Y80318D01*
X546006Y80218D01*
X546114Y80114D01*
X546135Y80101D01*
X546153Y80084D01*
X546284Y80012D01*
X546413Y79935D01*
X546436Y79927D01*
X546458Y79915D01*
X546602Y79874D01*
X546745Y79829D01*
X546769Y79827D01*
X546793Y79820D01*
X546943Y79813D01*
X547092Y79801D01*
X547116Y79804D01*
X547141Y79803D01*
X547289Y79830D01*
X547437Y79852D01*
X547460Y79862D01*
X547484Y79866D01*
X547622Y79926D01*
X547761Y79981D01*
X547781Y79995D01*
X547804Y80005D01*
X547924Y80095D01*
X548047Y80180D01*
X548063Y80199D01*
X548083Y80213D01*
X548180Y80328D01*
X548280Y80439D01*
X548292Y80461D01*
X548308Y80480D01*
X548376Y80613D01*
X548449Y80744D01*
X548455Y80768D01*
X548467Y80790D01*
X548503Y80935D01*
X548543Y81079D01*
X548546Y81109D01*
X548551Y81128D01*
X548551Y81176D01*
X548563Y81323D01*
X548563Y121590D01*
X548560Y121616D01*
X548562Y121642D01*
X548540Y121789D01*
X548523Y121936D01*
X548514Y121961D01*
X548510Y121987D01*
X548456Y122124D01*
X548406Y122264D01*
X548391Y122286D01*
X548382Y122311D01*
X548297Y122432D01*
X548217Y122557D01*
X548198Y122575D01*
X548183Y122597D01*
X548073Y122696D01*
X547966Y122799D01*
X547943Y122813D01*
X547924Y122830D01*
X547794Y122902D01*
X547667Y122978D01*
X547642Y122986D01*
X547619Y122999D01*
X547476Y123039D01*
X547335Y123084D01*
X547309Y123086D01*
X547284Y123093D01*
X547040Y123113D01*
X457530Y123113D01*
X457504Y123110D01*
X457478Y123112D01*
X457331Y123090D01*
X457184Y123073D01*
X457159Y123064D01*
X457133Y123060D01*
X456996Y123006D01*
X456856Y122956D01*
X456834Y122941D01*
X456809Y122932D01*
X456688Y122847D01*
X456563Y122767D01*
X456545Y122748D01*
X456523Y122733D01*
X456424Y122623D01*
X456321Y122516D01*
X456307Y122493D01*
X456290Y122474D01*
X456218Y122344D01*
X456142Y122217D01*
X456134Y122192D01*
X456121Y122169D01*
X456081Y122026D01*
X456036Y121885D01*
X456034Y121859D01*
X456027Y121834D01*
X456007Y121590D01*
X456007Y93154D01*
X456010Y93128D01*
X456008Y93102D01*
X456030Y92956D01*
X456047Y92808D01*
X456056Y92784D01*
X456060Y92758D01*
X456114Y92620D01*
X456164Y92480D01*
X456179Y92458D01*
X456188Y92434D01*
X456273Y92312D01*
X456353Y92187D01*
X456372Y92169D01*
X456387Y92148D01*
X456497Y92049D01*
X456604Y91945D01*
X456627Y91932D01*
X456646Y91914D01*
X456776Y91842D01*
X456903Y91766D01*
X456928Y91758D01*
X456951Y91746D01*
X457094Y91705D01*
X457235Y91660D01*
X457261Y91658D01*
X457286Y91651D01*
X457530Y91631D01*
X460269Y91631D01*
X465941Y89282D01*
X470282Y84941D01*
X472631Y79269D01*
X472631Y73131D01*
X470282Y67459D01*
X465941Y63118D01*
X460269Y60769D01*
X457530Y60769D01*
X457504Y60766D01*
X457478Y60768D01*
X457331Y60746D01*
X457184Y60729D01*
X457159Y60720D01*
X457133Y60716D01*
X456996Y60661D01*
X456856Y60611D01*
X456834Y60597D01*
X456809Y60587D01*
X456688Y60503D01*
X456563Y60422D01*
X456545Y60403D01*
X456523Y60389D01*
X456424Y60279D01*
X456321Y60172D01*
X456307Y60149D01*
X456290Y60130D01*
X456218Y60000D01*
X456142Y59873D01*
X456134Y59848D01*
X456121Y59825D01*
X456081Y59682D01*
X456036Y59541D01*
X456034Y59515D01*
X456027Y59489D01*
X456007Y59246D01*
X456007Y30810D01*
X456010Y30784D01*
X456008Y30758D01*
X456030Y30611D01*
X456047Y30464D01*
X456056Y30439D01*
X456060Y30413D01*
X456114Y30276D01*
X456164Y30136D01*
X456179Y30114D01*
X456188Y30089D01*
X456273Y29968D01*
X456353Y29843D01*
X456372Y29825D01*
X456387Y29803D01*
X456497Y29704D01*
X456604Y29601D01*
X456627Y29587D01*
X456646Y29570D01*
X456776Y29498D01*
X456903Y29422D01*
X456928Y29414D01*
X456951Y29401D01*
X457094Y29361D01*
X457235Y29316D01*
X457261Y29314D01*
X457286Y29307D01*
X457530Y29287D01*
X530826Y29287D01*
X530952Y29301D01*
G37*
G36*
X109119Y4012D02*
X109119Y4012D01*
X109220Y4014D01*
X109292Y4032D01*
X109366Y4041D01*
X109460Y4074D01*
X109558Y4099D01*
X109624Y4133D01*
X109694Y4158D01*
X109778Y4213D01*
X109867Y4259D01*
X109924Y4307D01*
X109987Y4347D01*
X110056Y4419D01*
X110133Y4484D01*
X110177Y4544D01*
X110229Y4598D01*
X110280Y4684D01*
X110340Y4765D01*
X110369Y4833D01*
X110408Y4897D01*
X110438Y4993D01*
X110478Y5085D01*
X110491Y5158D01*
X110514Y5229D01*
X110522Y5329D01*
X110540Y5428D01*
X110536Y5502D01*
X110542Y5576D01*
X110527Y5676D01*
X110522Y5776D01*
X110501Y5847D01*
X110490Y5921D01*
X110453Y6014D01*
X110425Y6111D01*
X110389Y6176D01*
X110361Y6245D01*
X110304Y6327D01*
X110255Y6415D01*
X110190Y6491D01*
X110162Y6531D01*
X110136Y6555D01*
X110097Y6601D01*
X107695Y9002D01*
X107695Y25913D01*
X107684Y26013D01*
X107682Y26113D01*
X107664Y26185D01*
X107655Y26259D01*
X107622Y26354D01*
X107597Y26451D01*
X107563Y26517D01*
X107538Y26587D01*
X107483Y26672D01*
X107437Y26761D01*
X107389Y26818D01*
X107349Y26880D01*
X107277Y26950D01*
X107212Y27026D01*
X107152Y27071D01*
X107098Y27122D01*
X107012Y27174D01*
X106931Y27234D01*
X106863Y27263D01*
X106799Y27301D01*
X106704Y27332D01*
X106611Y27372D01*
X106538Y27385D01*
X106467Y27407D01*
X106367Y27415D01*
X106268Y27433D01*
X106194Y27429D01*
X106120Y27435D01*
X106020Y27420D01*
X105920Y27415D01*
X105849Y27395D01*
X105775Y27384D01*
X105682Y27347D01*
X105585Y27319D01*
X105520Y27282D01*
X105451Y27255D01*
X105369Y27198D01*
X105281Y27149D01*
X105205Y27083D01*
X105165Y27056D01*
X105141Y27030D01*
X105095Y26990D01*
X104698Y26593D01*
X8332Y26593D01*
X7543Y27382D01*
X7543Y125018D01*
X8332Y125807D01*
X104185Y125807D01*
X104310Y125821D01*
X104436Y125828D01*
X104483Y125841D01*
X104531Y125847D01*
X104650Y125889D01*
X104771Y125924D01*
X104813Y125948D01*
X104859Y125964D01*
X104965Y126033D01*
X105076Y126095D01*
X105122Y126134D01*
X105152Y126153D01*
X105185Y126188D01*
X105262Y126253D01*
X105739Y126731D01*
X107966Y126731D01*
X107992Y126734D01*
X108018Y126732D01*
X108165Y126754D01*
X108312Y126771D01*
X108337Y126779D01*
X108363Y126783D01*
X108501Y126838D01*
X108640Y126888D01*
X108662Y126902D01*
X108687Y126912D01*
X108808Y126997D01*
X108933Y127077D01*
X108951Y127096D01*
X108973Y127111D01*
X109072Y127221D01*
X109175Y127328D01*
X109189Y127350D01*
X109206Y127370D01*
X109278Y127500D01*
X109354Y127627D01*
X109362Y127652D01*
X109375Y127675D01*
X109415Y127818D01*
X109460Y127959D01*
X109462Y127985D01*
X109470Y128010D01*
X109489Y128254D01*
X109489Y146876D01*
X109486Y146902D01*
X109488Y146928D01*
X109466Y147075D01*
X109449Y147222D01*
X109441Y147247D01*
X109437Y147273D01*
X109382Y147410D01*
X109332Y147550D01*
X109318Y147572D01*
X109308Y147597D01*
X109223Y147718D01*
X109143Y147843D01*
X109124Y147861D01*
X109109Y147883D01*
X108999Y147982D01*
X108892Y148085D01*
X108870Y148099D01*
X108850Y148116D01*
X108720Y148188D01*
X108593Y148264D01*
X108568Y148272D01*
X108545Y148285D01*
X108402Y148325D01*
X108261Y148370D01*
X108235Y148372D01*
X108210Y148380D01*
X107966Y148399D01*
X5524Y148399D01*
X5498Y148396D01*
X5472Y148398D01*
X5325Y148376D01*
X5178Y148359D01*
X5153Y148351D01*
X5127Y148347D01*
X4989Y148292D01*
X4850Y148242D01*
X4828Y148228D01*
X4803Y148218D01*
X4682Y148133D01*
X4557Y148053D01*
X4539Y148034D01*
X4517Y148019D01*
X4418Y147909D01*
X4315Y147802D01*
X4301Y147780D01*
X4284Y147760D01*
X4212Y147630D01*
X4136Y147503D01*
X4128Y147478D01*
X4115Y147455D01*
X4075Y147312D01*
X4030Y147171D01*
X4028Y147145D01*
X4020Y147120D01*
X4001Y146876D01*
X4001Y5524D01*
X4004Y5498D01*
X4002Y5472D01*
X4024Y5325D01*
X4041Y5178D01*
X4049Y5153D01*
X4053Y5127D01*
X4108Y4989D01*
X4158Y4850D01*
X4172Y4828D01*
X4182Y4803D01*
X4267Y4682D01*
X4347Y4557D01*
X4366Y4539D01*
X4381Y4517D01*
X4491Y4418D01*
X4598Y4315D01*
X4620Y4301D01*
X4640Y4284D01*
X4770Y4212D01*
X4897Y4136D01*
X4922Y4128D01*
X4945Y4115D01*
X5088Y4075D01*
X5229Y4030D01*
X5255Y4028D01*
X5280Y4020D01*
X5524Y4001D01*
X109019Y4001D01*
X109119Y4012D01*
G37*
G36*
X553278Y24173D02*
X553278Y24173D01*
X553328Y24169D01*
X553451Y24187D01*
X553575Y24198D01*
X553623Y24213D01*
X553673Y24221D01*
X553789Y24267D01*
X553907Y24305D01*
X553950Y24331D01*
X553997Y24349D01*
X554099Y24420D01*
X554205Y24485D01*
X554242Y24520D01*
X554283Y24548D01*
X554366Y24641D01*
X554455Y24727D01*
X554483Y24770D01*
X554516Y24807D01*
X554577Y24916D01*
X554644Y25021D01*
X554660Y25068D01*
X554685Y25112D01*
X554719Y25232D01*
X554760Y25349D01*
X554766Y25399D01*
X554780Y25448D01*
X554799Y25691D01*
X554799Y146876D01*
X554796Y146902D01*
X554798Y146928D01*
X554776Y147075D01*
X554759Y147222D01*
X554751Y147247D01*
X554747Y147273D01*
X554692Y147410D01*
X554642Y147550D01*
X554628Y147572D01*
X554618Y147597D01*
X554533Y147718D01*
X554453Y147843D01*
X554434Y147861D01*
X554419Y147883D01*
X554309Y147982D01*
X554202Y148085D01*
X554180Y148099D01*
X554160Y148116D01*
X554030Y148188D01*
X553903Y148264D01*
X553878Y148272D01*
X553855Y148285D01*
X553712Y148325D01*
X553571Y148370D01*
X553545Y148372D01*
X553520Y148380D01*
X553276Y148399D01*
X445535Y148399D01*
X445485Y148394D01*
X445435Y148396D01*
X445313Y148374D01*
X445189Y148359D01*
X445142Y148342D01*
X445092Y148333D01*
X444978Y148284D01*
X444861Y148242D01*
X444819Y148215D01*
X444773Y148195D01*
X444673Y148120D01*
X444568Y148053D01*
X444533Y148017D01*
X444493Y147987D01*
X444413Y147892D01*
X444326Y147802D01*
X444300Y147759D01*
X444268Y147721D01*
X444211Y147610D01*
X444147Y147503D01*
X444132Y147455D01*
X444109Y147410D01*
X444079Y147290D01*
X444041Y147171D01*
X444037Y147121D01*
X444025Y147072D01*
X444023Y146948D01*
X444013Y146824D01*
X444020Y146774D01*
X444020Y146724D01*
X444046Y146602D01*
X444065Y146479D01*
X444083Y146432D01*
X444094Y146383D01*
X444147Y146271D01*
X444193Y146155D01*
X444222Y146114D01*
X444244Y146068D01*
X444321Y145971D01*
X444392Y145869D01*
X444430Y145835D01*
X444461Y145796D01*
X444559Y145719D01*
X444651Y145636D01*
X444695Y145611D01*
X444735Y145580D01*
X444952Y145469D01*
X448621Y143949D01*
X452559Y140011D01*
X454691Y134865D01*
X454691Y129295D01*
X454118Y127913D01*
X454077Y127768D01*
X454031Y127625D01*
X454029Y127601D01*
X454023Y127578D01*
X454015Y127427D01*
X454003Y127278D01*
X454007Y127254D01*
X454006Y127230D01*
X454033Y127082D01*
X454055Y126933D01*
X454064Y126911D01*
X454068Y126887D01*
X454128Y126749D01*
X454184Y126609D01*
X454197Y126590D01*
X454207Y126567D01*
X454297Y126447D01*
X454383Y126323D01*
X454400Y126307D01*
X454415Y126288D01*
X454530Y126190D01*
X454641Y126090D01*
X454663Y126078D01*
X454681Y126063D01*
X454815Y125994D01*
X454946Y125921D01*
X454970Y125915D01*
X454991Y125904D01*
X455137Y125868D01*
X455282Y125827D01*
X455311Y125824D01*
X455329Y125820D01*
X455376Y125819D01*
X455526Y125807D01*
X550468Y125807D01*
X551257Y125018D01*
X551257Y26952D01*
X551241Y26877D01*
X551241Y26850D01*
X551236Y26824D01*
X551244Y26676D01*
X551246Y26528D01*
X551253Y26502D01*
X551254Y26476D01*
X551295Y26334D01*
X551331Y26190D01*
X551343Y26167D01*
X551351Y26141D01*
X551423Y26012D01*
X551491Y25880D01*
X551508Y25860D01*
X551521Y25837D01*
X551611Y25731D01*
X551869Y25109D01*
X551893Y25065D01*
X551910Y25017D01*
X551978Y24913D01*
X552038Y24804D01*
X552072Y24767D01*
X552099Y24724D01*
X552189Y24638D01*
X552272Y24546D01*
X552314Y24517D01*
X552350Y24482D01*
X552456Y24418D01*
X552559Y24348D01*
X552606Y24329D01*
X552649Y24303D01*
X552767Y24265D01*
X552883Y24220D01*
X552933Y24212D01*
X552981Y24197D01*
X553105Y24187D01*
X553228Y24169D01*
X553278Y24173D01*
G37*
G36*
X530152Y4012D02*
X530152Y4012D01*
X530252Y4014D01*
X530324Y4032D01*
X530398Y4041D01*
X530492Y4074D01*
X530590Y4099D01*
X530656Y4133D01*
X530726Y4158D01*
X530810Y4213D01*
X530900Y4259D01*
X530956Y4307D01*
X531019Y4347D01*
X531089Y4419D01*
X531165Y4484D01*
X531209Y4544D01*
X531261Y4598D01*
X531313Y4684D01*
X531372Y4765D01*
X531402Y4833D01*
X531440Y4897D01*
X531471Y4993D01*
X531510Y5085D01*
X531523Y5158D01*
X531546Y5229D01*
X531554Y5329D01*
X531572Y5428D01*
X531568Y5502D01*
X531574Y5576D01*
X531559Y5676D01*
X531554Y5776D01*
X531533Y5847D01*
X531522Y5921D01*
X531485Y6014D01*
X531458Y6111D01*
X531421Y6176D01*
X531394Y6245D01*
X531336Y6327D01*
X531287Y6415D01*
X531222Y6491D01*
X531195Y6531D01*
X531168Y6555D01*
X531129Y6601D01*
X527881Y9849D01*
X525749Y14995D01*
X525749Y20565D01*
X527374Y24487D01*
X527415Y24632D01*
X527461Y24775D01*
X527463Y24799D01*
X527469Y24822D01*
X527477Y24973D01*
X527489Y25122D01*
X527485Y25146D01*
X527486Y25170D01*
X527459Y25318D01*
X527437Y25467D01*
X527428Y25489D01*
X527424Y25513D01*
X527364Y25651D01*
X527308Y25791D01*
X527295Y25810D01*
X527285Y25833D01*
X527195Y25953D01*
X527110Y26077D01*
X527092Y26093D01*
X527077Y26112D01*
X526962Y26210D01*
X526851Y26310D01*
X526830Y26322D01*
X526811Y26337D01*
X526678Y26406D01*
X526546Y26479D01*
X526522Y26485D01*
X526501Y26496D01*
X526355Y26532D01*
X526210Y26573D01*
X526181Y26576D01*
X526163Y26580D01*
X526116Y26581D01*
X525967Y26593D01*
X454473Y26593D01*
X454325Y26576D01*
X454174Y26563D01*
X454151Y26556D01*
X454127Y26553D01*
X453986Y26503D01*
X453843Y26456D01*
X453822Y26444D01*
X453799Y26436D01*
X453673Y26354D01*
X453544Y26277D01*
X453527Y26260D01*
X453506Y26247D01*
X453401Y26138D01*
X453294Y26034D01*
X453281Y26014D01*
X453264Y25996D01*
X453187Y25867D01*
X453106Y25741D01*
X453098Y25718D01*
X453085Y25697D01*
X453040Y25554D01*
X452989Y25412D01*
X452986Y25388D01*
X452979Y25365D01*
X452967Y25216D01*
X452950Y25066D01*
X452953Y25042D01*
X452951Y25018D01*
X452973Y24869D01*
X452991Y24720D01*
X453000Y24692D01*
X453003Y24673D01*
X453020Y24629D01*
X453066Y24487D01*
X454691Y20565D01*
X454691Y14995D01*
X452559Y9849D01*
X449311Y6601D01*
X449249Y6523D01*
X449179Y6450D01*
X449141Y6386D01*
X449094Y6328D01*
X449052Y6237D01*
X449000Y6151D01*
X448977Y6080D01*
X448946Y6013D01*
X448924Y5915D01*
X448894Y5819D01*
X448888Y5745D01*
X448872Y5672D01*
X448874Y5572D01*
X448866Y5472D01*
X448877Y5398D01*
X448878Y5324D01*
X448903Y5227D01*
X448918Y5127D01*
X448945Y5058D01*
X448963Y4986D01*
X449009Y4897D01*
X449046Y4803D01*
X449089Y4742D01*
X449123Y4676D01*
X449188Y4600D01*
X449245Y4517D01*
X449300Y4467D01*
X449349Y4411D01*
X449429Y4351D01*
X449504Y4284D01*
X449569Y4248D01*
X449629Y4203D01*
X449721Y4164D01*
X449809Y4115D01*
X449881Y4095D01*
X449949Y4065D01*
X450048Y4048D01*
X450144Y4020D01*
X450244Y4012D01*
X450292Y4004D01*
X450328Y4006D01*
X450388Y4001D01*
X530052Y4001D01*
X530152Y4012D01*
G37*
%LPC*%
G36*
X348198Y19755D02*
X348198Y19755D01*
X347305Y20648D01*
X347305Y31912D01*
X348198Y32805D01*
X350520Y32805D01*
X350546Y32808D01*
X350572Y32806D01*
X350719Y32828D01*
X350866Y32845D01*
X350891Y32853D01*
X350917Y32857D01*
X351055Y32912D01*
X351194Y32962D01*
X351216Y32976D01*
X351241Y32986D01*
X351362Y33071D01*
X351487Y33151D01*
X351505Y33170D01*
X351527Y33185D01*
X351626Y33295D01*
X351729Y33402D01*
X351743Y33424D01*
X351760Y33444D01*
X351832Y33574D01*
X351908Y33701D01*
X351916Y33726D01*
X351929Y33749D01*
X351969Y33892D01*
X352014Y34033D01*
X352016Y34059D01*
X352024Y34084D01*
X352043Y34328D01*
X352043Y36667D01*
X359057Y43681D01*
X359136Y43780D01*
X359220Y43874D01*
X359244Y43916D01*
X359274Y43954D01*
X359328Y44068D01*
X359389Y44179D01*
X359402Y44226D01*
X359423Y44269D01*
X359449Y44393D01*
X359484Y44514D01*
X359489Y44575D01*
X359496Y44610D01*
X359495Y44658D01*
X359503Y44758D01*
X359503Y70056D01*
X376214Y86767D01*
X377301Y86767D01*
X377426Y86781D01*
X377552Y86788D01*
X377599Y86801D01*
X377647Y86807D01*
X377766Y86849D01*
X377887Y86884D01*
X377929Y86908D01*
X377975Y86924D01*
X378081Y86993D01*
X378191Y87054D01*
X378238Y87094D01*
X378268Y87113D01*
X378301Y87148D01*
X378378Y87213D01*
X379431Y88267D01*
X382569Y88267D01*
X384787Y86049D01*
X384787Y82911D01*
X382566Y80691D01*
X382550Y80671D01*
X382530Y80654D01*
X382442Y80534D01*
X382350Y80418D01*
X382339Y80394D01*
X382323Y80373D01*
X382264Y80237D01*
X382201Y80103D01*
X382195Y80077D01*
X382185Y80053D01*
X382159Y79907D01*
X382127Y79762D01*
X382128Y79736D01*
X382123Y79710D01*
X382131Y79562D01*
X382133Y79414D01*
X382140Y79388D01*
X382141Y79362D01*
X382182Y79220D01*
X382218Y79076D01*
X382230Y79053D01*
X382238Y79027D01*
X382310Y78898D01*
X382378Y78766D01*
X382395Y78746D01*
X382408Y78723D01*
X382566Y78537D01*
X384787Y76317D01*
X384787Y73179D01*
X382693Y71086D01*
X382677Y71065D01*
X382657Y71049D01*
X382569Y70929D01*
X382477Y70813D01*
X382466Y70789D01*
X382450Y70768D01*
X382391Y70632D01*
X382328Y70498D01*
X382322Y70472D01*
X382312Y70448D01*
X382286Y70302D01*
X382254Y70157D01*
X382255Y70131D01*
X382250Y70105D01*
X382258Y69957D01*
X382260Y69809D01*
X382267Y69783D01*
X382268Y69757D01*
X382309Y69615D01*
X382345Y69471D01*
X382357Y69448D01*
X382365Y69422D01*
X382437Y69293D01*
X382505Y69161D01*
X382522Y69141D01*
X382535Y69118D01*
X382693Y68932D01*
X384787Y66839D01*
X384787Y63701D01*
X383733Y62648D01*
X383654Y62549D01*
X383570Y62455D01*
X383546Y62412D01*
X383516Y62375D01*
X383462Y62260D01*
X383401Y62150D01*
X383388Y62103D01*
X383367Y62060D01*
X383341Y61936D01*
X383306Y61814D01*
X383301Y61754D01*
X383294Y61719D01*
X383295Y61671D01*
X383287Y61571D01*
X383287Y44368D01*
X383301Y44243D01*
X383308Y44116D01*
X383321Y44070D01*
X383327Y44022D01*
X383369Y43903D01*
X383404Y43782D01*
X383428Y43739D01*
X383444Y43694D01*
X383513Y43588D01*
X383574Y43477D01*
X383614Y43431D01*
X383633Y43401D01*
X383668Y43368D01*
X383733Y43291D01*
X387461Y39563D01*
X387560Y39484D01*
X387654Y39400D01*
X387696Y39376D01*
X387734Y39346D01*
X387848Y39292D01*
X387959Y39231D01*
X388006Y39218D01*
X388049Y39197D01*
X388173Y39171D01*
X388294Y39136D01*
X388355Y39131D01*
X388390Y39124D01*
X388438Y39125D01*
X388538Y39117D01*
X393377Y39117D01*
X399243Y33251D01*
X399342Y33172D01*
X399436Y33088D01*
X399478Y33064D01*
X399516Y33034D01*
X399630Y32980D01*
X399741Y32919D01*
X399788Y32906D01*
X399831Y32885D01*
X399955Y32859D01*
X400076Y32824D01*
X400137Y32819D01*
X400172Y32812D01*
X400220Y32813D01*
X400320Y32805D01*
X403642Y32805D01*
X404535Y31912D01*
X404535Y20648D01*
X403642Y19755D01*
X391378Y19755D01*
X390485Y20648D01*
X390485Y31912D01*
X390517Y31943D01*
X390579Y32021D01*
X390649Y32094D01*
X390687Y32158D01*
X390733Y32216D01*
X390776Y32307D01*
X390828Y32393D01*
X390850Y32464D01*
X390882Y32531D01*
X390903Y32629D01*
X390934Y32725D01*
X390940Y32799D01*
X390956Y32872D01*
X390954Y32972D01*
X390962Y33072D01*
X390951Y33146D01*
X390950Y33220D01*
X390925Y33318D01*
X390910Y33417D01*
X390883Y33486D01*
X390865Y33558D01*
X390819Y33647D01*
X390781Y33741D01*
X390739Y33802D01*
X390705Y33868D01*
X390640Y33944D01*
X390583Y34027D01*
X390527Y34077D01*
X390479Y34133D01*
X390398Y34193D01*
X390324Y34260D01*
X390259Y34296D01*
X390199Y34341D01*
X390107Y34380D01*
X390019Y34429D01*
X389947Y34449D01*
X389879Y34479D01*
X389780Y34496D01*
X389683Y34524D01*
X389583Y34532D01*
X389536Y34540D01*
X389500Y34538D01*
X389440Y34543D01*
X386013Y34543D01*
X378713Y41843D01*
X378713Y61571D01*
X378699Y61696D01*
X378692Y61822D01*
X378679Y61869D01*
X378673Y61917D01*
X378631Y62036D01*
X378596Y62157D01*
X378572Y62199D01*
X378556Y62245D01*
X378487Y62351D01*
X378426Y62461D01*
X378386Y62508D01*
X378367Y62538D01*
X378332Y62571D01*
X378267Y62648D01*
X377213Y63701D01*
X377213Y66731D01*
X377202Y66831D01*
X377200Y66932D01*
X377182Y67004D01*
X377173Y67078D01*
X377140Y67172D01*
X377115Y67270D01*
X377081Y67336D01*
X377056Y67406D01*
X377001Y67490D01*
X376955Y67579D01*
X376907Y67636D01*
X376867Y67699D01*
X376795Y67768D01*
X376730Y67845D01*
X376670Y67889D01*
X376616Y67941D01*
X376530Y67992D01*
X376449Y68052D01*
X376381Y68081D01*
X376317Y68120D01*
X376221Y68150D01*
X376129Y68190D01*
X376056Y68203D01*
X375985Y68226D01*
X375885Y68234D01*
X375786Y68252D01*
X375712Y68248D01*
X375638Y68254D01*
X375538Y68239D01*
X375438Y68234D01*
X375367Y68213D01*
X375293Y68202D01*
X375200Y68165D01*
X375103Y68137D01*
X375038Y68101D01*
X374969Y68073D01*
X374887Y68016D01*
X374799Y67967D01*
X374723Y67902D01*
X374683Y67874D01*
X374659Y67848D01*
X374613Y67808D01*
X372223Y65418D01*
X372144Y65319D01*
X372060Y65226D01*
X372036Y65183D01*
X372006Y65145D01*
X371952Y65031D01*
X371891Y64921D01*
X371878Y64874D01*
X371857Y64830D01*
X371831Y64707D01*
X371796Y64585D01*
X371791Y64524D01*
X371784Y64490D01*
X371785Y64442D01*
X371777Y64341D01*
X371777Y44758D01*
X371791Y44633D01*
X371798Y44506D01*
X371811Y44460D01*
X371817Y44412D01*
X371859Y44293D01*
X371894Y44172D01*
X371918Y44129D01*
X371934Y44084D01*
X372003Y43978D01*
X372064Y43867D01*
X372104Y43821D01*
X372123Y43791D01*
X372158Y43758D01*
X372223Y43681D01*
X378207Y37697D01*
X378207Y34328D01*
X378210Y34302D01*
X378208Y34276D01*
X378230Y34129D01*
X378247Y33982D01*
X378255Y33957D01*
X378259Y33931D01*
X378314Y33793D01*
X378364Y33654D01*
X378378Y33632D01*
X378388Y33607D01*
X378473Y33486D01*
X378553Y33361D01*
X378572Y33343D01*
X378587Y33321D01*
X378697Y33222D01*
X378804Y33119D01*
X378826Y33105D01*
X378846Y33088D01*
X378976Y33016D01*
X379103Y32940D01*
X379128Y32932D01*
X379151Y32919D01*
X379294Y32879D01*
X379435Y32834D01*
X379461Y32832D01*
X379486Y32824D01*
X379730Y32805D01*
X382052Y32805D01*
X382945Y31912D01*
X382945Y20648D01*
X382052Y19755D01*
X369788Y19755D01*
X368895Y20648D01*
X368895Y31912D01*
X369788Y32805D01*
X372110Y32805D01*
X372136Y32808D01*
X372162Y32806D01*
X372309Y32828D01*
X372456Y32845D01*
X372481Y32853D01*
X372507Y32857D01*
X372645Y32912D01*
X372784Y32962D01*
X372806Y32976D01*
X372831Y32986D01*
X372952Y33071D01*
X373077Y33151D01*
X373095Y33170D01*
X373117Y33185D01*
X373216Y33295D01*
X373319Y33402D01*
X373333Y33424D01*
X373350Y33444D01*
X373422Y33574D01*
X373498Y33701D01*
X373506Y33726D01*
X373519Y33749D01*
X373559Y33892D01*
X373604Y34033D01*
X373606Y34059D01*
X373614Y34084D01*
X373633Y34328D01*
X373633Y35172D01*
X373619Y35297D01*
X373612Y35424D01*
X373599Y35470D01*
X373593Y35518D01*
X373551Y35637D01*
X373516Y35758D01*
X373492Y35801D01*
X373476Y35846D01*
X373407Y35952D01*
X373346Y36063D01*
X373306Y36109D01*
X373287Y36139D01*
X373252Y36172D01*
X373187Y36249D01*
X367203Y42233D01*
X367203Y66867D01*
X368989Y68652D01*
X375586Y75249D01*
X377380Y77044D01*
X377426Y77049D01*
X377552Y77056D01*
X377599Y77069D01*
X377647Y77075D01*
X377766Y77117D01*
X377887Y77152D01*
X377929Y77176D01*
X377975Y77192D01*
X378081Y77261D01*
X378191Y77322D01*
X378238Y77362D01*
X378268Y77381D01*
X378301Y77416D01*
X378378Y77481D01*
X379434Y78537D01*
X379450Y78557D01*
X379470Y78574D01*
X379558Y78694D01*
X379650Y78810D01*
X379661Y78834D01*
X379677Y78855D01*
X379736Y78991D01*
X379799Y79125D01*
X379805Y79151D01*
X379815Y79175D01*
X379841Y79321D01*
X379873Y79466D01*
X379872Y79492D01*
X379877Y79518D01*
X379869Y79666D01*
X379867Y79814D01*
X379860Y79840D01*
X379859Y79866D01*
X379818Y80008D01*
X379782Y80152D01*
X379770Y80176D01*
X379762Y80201D01*
X379690Y80330D01*
X379622Y80462D01*
X379605Y80482D01*
X379592Y80505D01*
X379434Y80691D01*
X379097Y81028D01*
X379076Y81044D01*
X379059Y81064D01*
X378940Y81152D01*
X378824Y81244D01*
X378800Y81256D01*
X378779Y81271D01*
X378643Y81330D01*
X378509Y81393D01*
X378483Y81399D01*
X378459Y81409D01*
X378313Y81436D01*
X378168Y81467D01*
X378142Y81466D01*
X378116Y81471D01*
X377968Y81463D01*
X377820Y81461D01*
X377794Y81454D01*
X377768Y81453D01*
X377626Y81412D01*
X377482Y81376D01*
X377458Y81364D01*
X377433Y81356D01*
X377304Y81284D01*
X377172Y81216D01*
X377152Y81199D01*
X377129Y81186D01*
X376943Y81028D01*
X364523Y68608D01*
X364444Y68509D01*
X364360Y68415D01*
X364336Y68373D01*
X364306Y68335D01*
X364252Y68221D01*
X364191Y68110D01*
X364178Y68063D01*
X364157Y68020D01*
X364131Y67896D01*
X364096Y67775D01*
X364091Y67714D01*
X364084Y67679D01*
X364085Y67631D01*
X364077Y67531D01*
X364077Y42233D01*
X357249Y35405D01*
X357187Y35327D01*
X357117Y35254D01*
X357079Y35190D01*
X357032Y35132D01*
X356989Y35041D01*
X356938Y34955D01*
X356915Y34884D01*
X356883Y34817D01*
X356862Y34719D01*
X356832Y34623D01*
X356826Y34549D01*
X356810Y34476D01*
X356812Y34376D01*
X356804Y34276D01*
X356815Y34202D01*
X356816Y34128D01*
X356841Y34031D01*
X356855Y33931D01*
X356883Y33862D01*
X356901Y33790D01*
X356947Y33700D01*
X356984Y33607D01*
X357027Y33546D01*
X357061Y33480D01*
X357126Y33403D01*
X357183Y33321D01*
X357238Y33271D01*
X357287Y33215D01*
X357367Y33155D01*
X357442Y33088D01*
X357507Y33052D01*
X357567Y33007D01*
X357659Y32968D01*
X357747Y32919D01*
X357819Y32899D01*
X357887Y32869D01*
X357986Y32852D01*
X358082Y32824D01*
X358182Y32816D01*
X358230Y32808D01*
X358266Y32810D01*
X358326Y32805D01*
X360462Y32805D01*
X361355Y31912D01*
X361355Y20648D01*
X360462Y19755D01*
X348198Y19755D01*
G37*
%LPD*%
G36*
X147415Y100614D02*
X147415Y100614D01*
X147511Y100619D01*
X147554Y100634D01*
X147599Y100641D01*
X147687Y100680D01*
X147778Y100712D01*
X147812Y100737D01*
X147856Y100757D01*
X147954Y100840D01*
X148027Y100893D01*
X154073Y106939D01*
X154092Y106965D01*
X154116Y106986D01*
X154176Y107078D01*
X154242Y107165D01*
X154253Y107195D01*
X154271Y107222D01*
X154303Y107327D01*
X154341Y107429D01*
X154344Y107461D01*
X154353Y107492D01*
X154355Y107601D01*
X154363Y107710D01*
X154357Y107742D01*
X154357Y107774D01*
X154328Y107879D01*
X154306Y107986D01*
X154290Y108015D01*
X154282Y108046D01*
X154224Y108139D01*
X154173Y108235D01*
X154151Y108258D01*
X154134Y108286D01*
X154053Y108359D01*
X153976Y108437D01*
X153948Y108453D01*
X153924Y108475D01*
X153826Y108522D01*
X153731Y108576D01*
X153700Y108584D01*
X153671Y108598D01*
X153581Y108612D01*
X153457Y108641D01*
X153408Y108639D01*
X153366Y108645D01*
X150729Y108645D01*
X150729Y113571D01*
X155505Y113571D01*
X155505Y110784D01*
X155509Y110752D01*
X155507Y110720D01*
X155529Y110613D01*
X155545Y110505D01*
X155558Y110475D01*
X155564Y110444D01*
X155616Y110347D01*
X155661Y110248D01*
X155682Y110223D01*
X155697Y110195D01*
X155773Y110116D01*
X155844Y110034D01*
X155871Y110016D01*
X155894Y109993D01*
X155989Y109939D01*
X156080Y109879D01*
X156111Y109870D01*
X156139Y109854D01*
X156246Y109829D01*
X156350Y109797D01*
X156382Y109796D01*
X156413Y109789D01*
X156523Y109794D01*
X156632Y109793D01*
X156663Y109802D01*
X156695Y109803D01*
X156798Y109839D01*
X156904Y109868D01*
X156931Y109885D01*
X156962Y109896D01*
X157035Y109949D01*
X157144Y110016D01*
X157176Y110052D01*
X157211Y110077D01*
X159163Y112029D01*
X159220Y112106D01*
X159285Y112178D01*
X159305Y112219D01*
X159332Y112255D01*
X159366Y112345D01*
X159408Y112431D01*
X159414Y112473D01*
X159431Y112519D01*
X159441Y112647D01*
X159455Y112736D01*
X159455Y121602D01*
X159457Y121603D01*
X159514Y121680D01*
X159579Y121751D01*
X159599Y121792D01*
X159626Y121828D01*
X159660Y121918D01*
X159702Y122005D01*
X159708Y122047D01*
X159725Y122092D01*
X159735Y122220D01*
X159749Y122309D01*
X159749Y125009D01*
X159821Y125070D01*
X159839Y125097D01*
X159862Y125120D01*
X159916Y125215D01*
X159975Y125306D01*
X159985Y125337D01*
X160001Y125365D01*
X160026Y125472D01*
X160058Y125576D01*
X160058Y125608D01*
X160066Y125640D01*
X160060Y125749D01*
X160062Y125858D01*
X160053Y125889D01*
X160051Y125921D01*
X160016Y126024D01*
X159986Y126130D01*
X159969Y126157D01*
X159959Y126188D01*
X159905Y126261D01*
X159838Y126370D01*
X159802Y126402D01*
X159777Y126437D01*
X159687Y126526D01*
X159455Y127087D01*
X159455Y128391D01*
X166980Y128391D01*
X167043Y128400D01*
X167108Y128399D01*
X167182Y128419D01*
X167259Y128430D01*
X167317Y128457D01*
X167379Y128474D01*
X167445Y128515D01*
X167516Y128547D01*
X167565Y128588D01*
X167619Y128622D01*
X167671Y128680D01*
X167730Y128730D01*
X167765Y128784D01*
X167808Y128831D01*
X167842Y128901D01*
X167885Y128966D01*
X167903Y129027D01*
X167931Y129085D01*
X167942Y129155D01*
X167967Y129236D01*
X167968Y129320D01*
X167979Y129390D01*
X167970Y129454D01*
X167971Y129518D01*
X167950Y129593D01*
X167939Y129669D01*
X167913Y129728D01*
X167896Y129790D01*
X167855Y129856D01*
X167823Y129926D01*
X167781Y129975D01*
X167747Y130030D01*
X167690Y130082D01*
X167639Y130141D01*
X167586Y130176D01*
X167538Y130219D01*
X167468Y130253D01*
X167404Y130295D01*
X167342Y130314D01*
X167284Y130342D01*
X167215Y130353D01*
X167134Y130377D01*
X167049Y130379D01*
X166980Y130389D01*
X159455Y130389D01*
X159455Y130810D01*
X159446Y130874D01*
X159447Y130938D01*
X159426Y131013D01*
X159415Y131089D01*
X159389Y131148D01*
X159372Y131210D01*
X159331Y131276D01*
X159299Y131346D01*
X159257Y131395D01*
X159224Y131450D01*
X159166Y131502D01*
X159116Y131560D01*
X159062Y131596D01*
X159014Y131639D01*
X158945Y131672D01*
X158880Y131715D01*
X158818Y131734D01*
X158761Y131762D01*
X158691Y131773D01*
X158610Y131797D01*
X158525Y131798D01*
X158456Y131809D01*
X156504Y131809D01*
X156440Y131800D01*
X156376Y131801D01*
X156301Y131780D01*
X156225Y131769D01*
X156166Y131743D01*
X156104Y131726D01*
X156038Y131685D01*
X155968Y131653D01*
X155919Y131611D01*
X155864Y131578D01*
X155812Y131520D01*
X155754Y131470D01*
X155718Y131416D01*
X155675Y131368D01*
X155642Y131299D01*
X155599Y131234D01*
X155580Y131172D01*
X155552Y131115D01*
X155541Y131045D01*
X155517Y130964D01*
X155516Y130879D01*
X155505Y130810D01*
X155505Y130389D01*
X147980Y130389D01*
X147917Y130380D01*
X147852Y130381D01*
X147778Y130361D01*
X147701Y130350D01*
X147643Y130323D01*
X147581Y130306D01*
X147515Y130265D01*
X147444Y130233D01*
X147395Y130192D01*
X147341Y130158D01*
X147340Y130157D01*
X147288Y130100D01*
X147230Y130050D01*
X147229Y130049D01*
X147194Y129996D01*
X147151Y129948D01*
X147117Y129878D01*
X147075Y129814D01*
X147056Y129752D01*
X147028Y129694D01*
X147017Y129625D01*
X146993Y129544D01*
X146991Y129459D01*
X146981Y129390D01*
X146981Y125865D01*
X141677Y125865D01*
X141034Y126131D01*
X141001Y126156D01*
X140941Y126179D01*
X140885Y126210D01*
X140810Y126228D01*
X140737Y126256D01*
X140673Y126261D01*
X140611Y126275D01*
X140533Y126271D01*
X140456Y126277D01*
X140393Y126264D01*
X140329Y126261D01*
X140256Y126236D01*
X140180Y126220D01*
X140123Y126190D01*
X140063Y126169D01*
X140006Y126127D01*
X139931Y126087D01*
X139870Y126028D01*
X139814Y125987D01*
X139286Y125459D01*
X137699Y125459D01*
X137582Y125443D01*
X137464Y125431D01*
X137442Y125423D01*
X137420Y125419D01*
X137312Y125371D01*
X137202Y125327D01*
X137184Y125313D01*
X137163Y125303D01*
X137073Y125226D01*
X136979Y125153D01*
X136966Y125135D01*
X136949Y125120D01*
X136883Y125020D01*
X136814Y124924D01*
X136807Y124903D01*
X136794Y124884D01*
X136759Y124770D01*
X136720Y124659D01*
X136718Y124636D01*
X136712Y124614D01*
X136710Y124496D01*
X136703Y124377D01*
X136708Y124356D01*
X136708Y124332D01*
X136758Y124153D01*
X136776Y124078D01*
X136985Y123573D01*
X136985Y119269D01*
X125460Y119269D01*
X125396Y119260D01*
X125332Y119261D01*
X125258Y119240D01*
X125181Y119229D01*
X125122Y119203D01*
X125060Y119186D01*
X124994Y119145D01*
X124924Y119113D01*
X124875Y119071D01*
X124820Y119038D01*
X124769Y118980D01*
X124710Y118930D01*
X124674Y118876D01*
X124631Y118828D01*
X124598Y118759D01*
X124555Y118694D01*
X124536Y118632D01*
X124508Y118575D01*
X124498Y118505D01*
X124473Y118424D01*
X124472Y118339D01*
X124461Y118270D01*
X124461Y117269D01*
X124459Y117269D01*
X124459Y118270D01*
X124450Y118334D01*
X124451Y118398D01*
X124430Y118473D01*
X124419Y118549D01*
X124393Y118608D01*
X124376Y118670D01*
X124335Y118736D01*
X124303Y118806D01*
X124261Y118855D01*
X124228Y118910D01*
X124170Y118962D01*
X124120Y119020D01*
X124066Y119056D01*
X124018Y119099D01*
X123949Y119132D01*
X123884Y119175D01*
X123822Y119194D01*
X123764Y119222D01*
X123695Y119232D01*
X123614Y119257D01*
X123529Y119258D01*
X123460Y119269D01*
X111935Y119269D01*
X111935Y123573D01*
X112144Y124078D01*
X112174Y124192D01*
X112208Y124306D01*
X112209Y124329D01*
X112214Y124351D01*
X112210Y124469D01*
X112212Y124588D01*
X112206Y124610D01*
X112205Y124633D01*
X112168Y124745D01*
X112137Y124860D01*
X112125Y124879D01*
X112118Y124901D01*
X112051Y124999D01*
X111989Y125100D01*
X111972Y125115D01*
X111959Y125134D01*
X111867Y125209D01*
X111779Y125289D01*
X111759Y125299D01*
X111741Y125313D01*
X111632Y125360D01*
X111526Y125412D01*
X111504Y125415D01*
X111482Y125425D01*
X111297Y125447D01*
X111221Y125459D01*
X106680Y125459D01*
X106616Y125450D01*
X106552Y125451D01*
X106477Y125430D01*
X106401Y125419D01*
X106342Y125393D01*
X106280Y125376D01*
X106214Y125335D01*
X106144Y125303D01*
X106095Y125261D01*
X106040Y125228D01*
X105988Y125170D01*
X105930Y125120D01*
X105894Y125066D01*
X105851Y125018D01*
X105818Y124949D01*
X105775Y124884D01*
X105756Y124822D01*
X105728Y124765D01*
X105717Y124695D01*
X105693Y124614D01*
X105692Y124529D01*
X105681Y124460D01*
X105681Y104140D01*
X105694Y104045D01*
X105699Y103949D01*
X105714Y103906D01*
X105721Y103861D01*
X105760Y103773D01*
X105792Y103682D01*
X105817Y103648D01*
X105837Y103604D01*
X105920Y103507D01*
X105973Y103433D01*
X108513Y100893D01*
X108590Y100836D01*
X108662Y100771D01*
X108703Y100751D01*
X108739Y100724D01*
X108829Y100690D01*
X108915Y100648D01*
X108957Y100642D01*
X109003Y100625D01*
X109131Y100615D01*
X109220Y100601D01*
X147320Y100601D01*
X147415Y100614D01*
G37*
G36*
X224607Y111521D02*
X224607Y111521D01*
X224734Y111528D01*
X224780Y111541D01*
X224828Y111547D01*
X224947Y111589D01*
X225068Y111624D01*
X225111Y111648D01*
X225156Y111664D01*
X225262Y111733D01*
X225373Y111794D01*
X225419Y111834D01*
X225449Y111853D01*
X225482Y111888D01*
X225559Y111953D01*
X225901Y112295D01*
X225963Y112374D01*
X226033Y112446D01*
X226071Y112510D01*
X226118Y112568D01*
X226161Y112659D01*
X226212Y112745D01*
X226235Y112816D01*
X226266Y112883D01*
X226288Y112981D01*
X226318Y113077D01*
X226324Y113151D01*
X226340Y113224D01*
X226338Y113324D01*
X226346Y113424D01*
X226335Y113498D01*
X226334Y113572D01*
X226309Y113670D01*
X226295Y113769D01*
X226267Y113838D01*
X226249Y113910D01*
X226203Y114000D01*
X226166Y114093D01*
X226123Y114154D01*
X226089Y114220D01*
X226024Y114296D01*
X225967Y114379D01*
X225912Y114429D01*
X225863Y114485D01*
X225783Y114545D01*
X225708Y114612D01*
X225643Y114648D01*
X225583Y114693D01*
X225491Y114732D01*
X225403Y114781D01*
X225332Y114801D01*
X225263Y114831D01*
X225164Y114848D01*
X225068Y114876D01*
X224967Y114884D01*
X224920Y114892D01*
X224885Y114890D01*
X224824Y114895D01*
X223848Y114895D01*
X222955Y115788D01*
X222955Y128052D01*
X223848Y128945D01*
X225670Y128945D01*
X225696Y128948D01*
X225722Y128946D01*
X225869Y128968D01*
X226016Y128985D01*
X226041Y128993D01*
X226067Y128997D01*
X226205Y129052D01*
X226344Y129102D01*
X226366Y129116D01*
X226391Y129126D01*
X226512Y129211D01*
X226637Y129291D01*
X226655Y129310D01*
X226677Y129325D01*
X226776Y129435D01*
X226879Y129542D01*
X226893Y129564D01*
X226910Y129584D01*
X226982Y129714D01*
X227058Y129841D01*
X227066Y129866D01*
X227079Y129889D01*
X227119Y130032D01*
X227164Y130173D01*
X227166Y130199D01*
X227174Y130224D01*
X227193Y130468D01*
X227193Y133692D01*
X227190Y133718D01*
X227192Y133744D01*
X227170Y133891D01*
X227153Y134038D01*
X227145Y134063D01*
X227141Y134089D01*
X227086Y134227D01*
X227036Y134366D01*
X227022Y134388D01*
X227012Y134413D01*
X226927Y134534D01*
X226847Y134659D01*
X226828Y134677D01*
X226813Y134699D01*
X226703Y134798D01*
X226596Y134901D01*
X226574Y134915D01*
X226554Y134932D01*
X226424Y135004D01*
X226297Y135080D01*
X226272Y135088D01*
X226249Y135101D01*
X226106Y135141D01*
X225965Y135186D01*
X225939Y135188D01*
X225914Y135196D01*
X225670Y135215D01*
X223848Y135215D01*
X222955Y136108D01*
X222955Y146876D01*
X222952Y146902D01*
X222954Y146928D01*
X222932Y147075D01*
X222915Y147222D01*
X222907Y147247D01*
X222903Y147273D01*
X222848Y147410D01*
X222798Y147550D01*
X222784Y147572D01*
X222774Y147597D01*
X222689Y147718D01*
X222609Y147843D01*
X222590Y147861D01*
X222575Y147883D01*
X222465Y147982D01*
X222358Y148085D01*
X222336Y148099D01*
X222316Y148116D01*
X222186Y148188D01*
X222059Y148264D01*
X222034Y148272D01*
X222011Y148285D01*
X221868Y148325D01*
X221727Y148370D01*
X221701Y148372D01*
X221676Y148380D01*
X221432Y148399D01*
X220528Y148399D01*
X220502Y148396D01*
X220476Y148398D01*
X220329Y148376D01*
X220182Y148359D01*
X220157Y148351D01*
X220131Y148347D01*
X219993Y148292D01*
X219854Y148242D01*
X219832Y148228D01*
X219807Y148218D01*
X219686Y148133D01*
X219561Y148053D01*
X219543Y148034D01*
X219521Y148019D01*
X219422Y147909D01*
X219319Y147802D01*
X219305Y147780D01*
X219288Y147760D01*
X219216Y147630D01*
X219140Y147503D01*
X219132Y147478D01*
X219119Y147455D01*
X219079Y147312D01*
X219034Y147171D01*
X219032Y147145D01*
X219024Y147120D01*
X219005Y146876D01*
X219005Y136108D01*
X218112Y135215D01*
X208510Y135215D01*
X208484Y135212D01*
X208458Y135214D01*
X208343Y135197D01*
X208258Y135193D01*
X208220Y135182D01*
X208164Y135175D01*
X208139Y135167D01*
X208113Y135163D01*
X208006Y135120D01*
X207923Y135096D01*
X207889Y135077D01*
X207836Y135058D01*
X207814Y135044D01*
X207789Y135034D01*
X207696Y134969D01*
X207619Y134926D01*
X207580Y134893D01*
X207543Y134869D01*
X207525Y134850D01*
X207503Y134835D01*
X207473Y134802D01*
X207433Y134768D01*
X204769Y132103D01*
X201631Y132103D01*
X199413Y134321D01*
X199413Y135890D01*
X199410Y135916D01*
X199412Y135942D01*
X199390Y136089D01*
X199373Y136236D01*
X199365Y136261D01*
X199361Y136287D01*
X199306Y136425D01*
X199256Y136564D01*
X199242Y136586D01*
X199232Y136611D01*
X199147Y136732D01*
X199067Y136857D01*
X199048Y136875D01*
X199033Y136897D01*
X198923Y136996D01*
X198816Y137099D01*
X198794Y137113D01*
X198774Y137130D01*
X198644Y137202D01*
X198517Y137278D01*
X198492Y137286D01*
X198469Y137299D01*
X198326Y137339D01*
X198185Y137384D01*
X198159Y137386D01*
X198134Y137394D01*
X197890Y137413D01*
X196408Y137413D01*
X196382Y137410D01*
X196356Y137412D01*
X196209Y137390D01*
X196062Y137373D01*
X196037Y137365D01*
X196011Y137361D01*
X195873Y137306D01*
X195734Y137256D01*
X195712Y137242D01*
X195687Y137232D01*
X195566Y137147D01*
X195441Y137067D01*
X195423Y137048D01*
X195401Y137033D01*
X195302Y136923D01*
X195199Y136816D01*
X195185Y136794D01*
X195168Y136774D01*
X195096Y136644D01*
X195020Y136517D01*
X195012Y136492D01*
X194999Y136469D01*
X194959Y136326D01*
X194914Y136185D01*
X194912Y136159D01*
X194904Y136134D01*
X194885Y135890D01*
X194885Y133678D01*
X193992Y132785D01*
X181610Y132785D01*
X181584Y132782D01*
X181558Y132784D01*
X181411Y132762D01*
X181264Y132745D01*
X181239Y132737D01*
X181213Y132733D01*
X181075Y132678D01*
X180936Y132628D01*
X180914Y132614D01*
X180889Y132604D01*
X180768Y132519D01*
X180643Y132439D01*
X180625Y132420D01*
X180603Y132405D01*
X180504Y132295D01*
X180401Y132188D01*
X180387Y132166D01*
X180370Y132146D01*
X180298Y132016D01*
X180222Y131889D01*
X180214Y131864D01*
X180201Y131841D01*
X180161Y131698D01*
X180116Y131557D01*
X180114Y131531D01*
X180106Y131506D01*
X180087Y131262D01*
X180087Y130211D01*
X180093Y130160D01*
X180090Y130109D01*
X180112Y129988D01*
X180127Y129865D01*
X180144Y129817D01*
X180153Y129766D01*
X180202Y129653D01*
X180244Y129537D01*
X180272Y129494D01*
X180292Y129447D01*
X180366Y129348D01*
X180433Y129244D01*
X180470Y129208D01*
X180500Y129167D01*
X180595Y129088D01*
X180684Y129002D01*
X180728Y128975D01*
X180767Y128942D01*
X180877Y128886D01*
X180983Y128823D01*
X181031Y128807D01*
X181077Y128784D01*
X181197Y128754D01*
X181315Y128717D01*
X181366Y128712D01*
X181415Y128700D01*
X181539Y128698D01*
X181662Y128689D01*
X181713Y128696D01*
X181764Y128695D01*
X182004Y128740D01*
X182007Y128740D01*
X182359Y128835D01*
X185336Y128835D01*
X185336Y123161D01*
X185339Y123135D01*
X185337Y123109D01*
X185359Y122962D01*
X185376Y122815D01*
X185384Y122790D01*
X185388Y122764D01*
X185443Y122627D01*
X185493Y122487D01*
X185507Y122465D01*
X185517Y122440D01*
X185602Y122319D01*
X185682Y122194D01*
X185701Y122176D01*
X185716Y122154D01*
X185817Y122063D01*
X185753Y121992D01*
X185650Y121885D01*
X185636Y121862D01*
X185619Y121843D01*
X185547Y121713D01*
X185471Y121586D01*
X185463Y121561D01*
X185450Y121538D01*
X185410Y121395D01*
X185365Y121254D01*
X185362Y121228D01*
X185355Y121203D01*
X185336Y120959D01*
X185336Y115285D01*
X183726Y115285D01*
X183626Y115274D01*
X183526Y115272D01*
X183454Y115254D01*
X183380Y115245D01*
X183285Y115212D01*
X183188Y115187D01*
X183122Y115153D01*
X183052Y115128D01*
X182967Y115073D01*
X182878Y115027D01*
X182821Y114979D01*
X182759Y114939D01*
X182689Y114867D01*
X182613Y114802D01*
X182569Y114742D01*
X182517Y114688D01*
X182465Y114602D01*
X182406Y114521D01*
X182376Y114453D01*
X182338Y114389D01*
X182307Y114294D01*
X182268Y114201D01*
X182254Y114128D01*
X182232Y114057D01*
X182224Y113957D01*
X182206Y113858D01*
X182210Y113784D01*
X182204Y113710D01*
X182219Y113611D01*
X182224Y113510D01*
X182244Y113439D01*
X182255Y113365D01*
X182293Y113272D01*
X182320Y113175D01*
X182357Y113110D01*
X182384Y113041D01*
X182441Y112959D01*
X182491Y112871D01*
X182556Y112795D01*
X182583Y112755D01*
X182610Y112731D01*
X182649Y112685D01*
X183381Y111953D01*
X183480Y111874D01*
X183574Y111790D01*
X183616Y111766D01*
X183654Y111736D01*
X183768Y111682D01*
X183879Y111621D01*
X183926Y111608D01*
X183969Y111587D01*
X184093Y111561D01*
X184214Y111526D01*
X184275Y111521D01*
X184310Y111514D01*
X184358Y111515D01*
X184458Y111507D01*
X224482Y111507D01*
X224607Y111521D01*
G37*
G36*
X134715Y128554D02*
X134715Y128554D01*
X134811Y128559D01*
X134854Y128574D01*
X134899Y128581D01*
X134987Y128620D01*
X135078Y128652D01*
X135112Y128677D01*
X135156Y128697D01*
X135254Y128780D01*
X135327Y128833D01*
X140114Y133621D01*
X154940Y133621D01*
X155004Y133630D01*
X155068Y133629D01*
X155143Y133650D01*
X155219Y133661D01*
X155278Y133687D01*
X155340Y133704D01*
X155406Y133745D01*
X155476Y133777D01*
X155525Y133819D01*
X155580Y133852D01*
X155632Y133910D01*
X155690Y133960D01*
X155726Y134014D01*
X155769Y134062D01*
X155802Y134131D01*
X155845Y134196D01*
X155864Y134258D01*
X155892Y134315D01*
X155903Y134385D01*
X155927Y134466D01*
X155928Y134551D01*
X155939Y134620D01*
X155939Y137160D01*
X155930Y137224D01*
X155931Y137288D01*
X155910Y137363D01*
X155899Y137439D01*
X155873Y137498D01*
X155856Y137560D01*
X155815Y137626D01*
X155783Y137696D01*
X155741Y137745D01*
X155708Y137800D01*
X155650Y137852D01*
X155600Y137910D01*
X155546Y137946D01*
X155498Y137989D01*
X155429Y138022D01*
X155364Y138065D01*
X155302Y138084D01*
X155245Y138112D01*
X155175Y138123D01*
X155094Y138147D01*
X155009Y138148D01*
X154940Y138159D01*
X141384Y138159D01*
X135619Y143924D01*
X135619Y144780D01*
X135606Y144875D01*
X135601Y144971D01*
X135586Y145014D01*
X135579Y145059D01*
X135540Y145147D01*
X135508Y145238D01*
X135483Y145272D01*
X135463Y145316D01*
X135380Y145414D01*
X135327Y145487D01*
X132787Y148027D01*
X132710Y148084D01*
X132638Y148149D01*
X132597Y148169D01*
X132561Y148196D01*
X132471Y148230D01*
X132385Y148272D01*
X132343Y148278D01*
X132297Y148295D01*
X132170Y148305D01*
X132080Y148319D01*
X111760Y148319D01*
X111696Y148310D01*
X111632Y148311D01*
X111557Y148290D01*
X111481Y148279D01*
X111422Y148253D01*
X111360Y148236D01*
X111294Y148195D01*
X111224Y148163D01*
X111175Y148121D01*
X111120Y148088D01*
X111068Y148030D01*
X111010Y147980D01*
X110974Y147926D01*
X110931Y147878D01*
X110898Y147809D01*
X110855Y147744D01*
X110836Y147682D01*
X110808Y147625D01*
X110797Y147555D01*
X110773Y147474D01*
X110772Y147389D01*
X110761Y147320D01*
X110761Y129540D01*
X110770Y129476D01*
X110769Y129412D01*
X110790Y129337D01*
X110801Y129261D01*
X110827Y129202D01*
X110844Y129140D01*
X110885Y129074D01*
X110917Y129004D01*
X110959Y128955D01*
X110992Y128900D01*
X111050Y128848D01*
X111100Y128790D01*
X111154Y128754D01*
X111202Y128711D01*
X111271Y128678D01*
X111336Y128635D01*
X111398Y128616D01*
X111455Y128588D01*
X111525Y128577D01*
X111606Y128553D01*
X111691Y128552D01*
X111760Y128541D01*
X134620Y128541D01*
X134715Y128554D01*
G37*
G36*
X337908Y130467D02*
X337908Y130467D01*
X337982Y130468D01*
X338079Y130493D01*
X338179Y130508D01*
X338248Y130535D01*
X338320Y130553D01*
X338409Y130599D01*
X338503Y130637D01*
X338564Y130679D01*
X338630Y130713D01*
X338707Y130778D01*
X338789Y130835D01*
X338839Y130891D01*
X338895Y130939D01*
X338955Y131020D01*
X339022Y131094D01*
X339058Y131159D01*
X339103Y131219D01*
X339142Y131311D01*
X339191Y131399D01*
X339211Y131471D01*
X339241Y131539D01*
X339258Y131638D01*
X339286Y131735D01*
X339294Y131835D01*
X339302Y131882D01*
X339300Y131918D01*
X339305Y131978D01*
X339305Y134722D01*
X339294Y134821D01*
X339292Y134922D01*
X339274Y134994D01*
X339265Y135068D01*
X339232Y135162D01*
X339207Y135260D01*
X339173Y135326D01*
X339148Y135396D01*
X339093Y135480D01*
X339047Y135570D01*
X338999Y135626D01*
X338959Y135689D01*
X338887Y135758D01*
X338822Y135835D01*
X338762Y135879D01*
X338708Y135931D01*
X338622Y135982D01*
X338541Y136042D01*
X338473Y136072D01*
X338409Y136110D01*
X338314Y136140D01*
X338221Y136180D01*
X338148Y136193D01*
X338077Y136216D01*
X337977Y136224D01*
X337878Y136242D01*
X337804Y136238D01*
X337730Y136244D01*
X337631Y136229D01*
X337530Y136224D01*
X337459Y136203D01*
X337385Y136192D01*
X337292Y136155D01*
X337195Y136127D01*
X337130Y136091D01*
X337061Y136063D01*
X336979Y136006D01*
X336891Y135957D01*
X336815Y135892D01*
X336775Y135865D01*
X336751Y135838D01*
X336705Y135799D01*
X336536Y135630D01*
X336189Y135429D01*
X335801Y135325D01*
X332824Y135325D01*
X332824Y140999D01*
X332821Y141025D01*
X332823Y141051D01*
X332801Y141198D01*
X332784Y141345D01*
X332776Y141370D01*
X332772Y141396D01*
X332717Y141533D01*
X332667Y141673D01*
X332653Y141695D01*
X332643Y141720D01*
X332558Y141841D01*
X332478Y141966D01*
X332459Y141984D01*
X332444Y142006D01*
X332334Y142105D01*
X332227Y142208D01*
X332205Y142222D01*
X332185Y142239D01*
X332055Y142311D01*
X331928Y142387D01*
X331903Y142395D01*
X331880Y142408D01*
X331737Y142448D01*
X331596Y142493D01*
X331570Y142495D01*
X331545Y142502D01*
X331301Y142522D01*
X330622Y142522D01*
X330622Y143201D01*
X330619Y143227D01*
X330621Y143253D01*
X330599Y143400D01*
X330582Y143547D01*
X330573Y143572D01*
X330569Y143598D01*
X330515Y143736D01*
X330465Y143875D01*
X330450Y143897D01*
X330441Y143922D01*
X330356Y144043D01*
X330276Y144168D01*
X330257Y144186D01*
X330242Y144208D01*
X330132Y144307D01*
X330025Y144410D01*
X330002Y144424D01*
X329983Y144441D01*
X329853Y144513D01*
X329726Y144589D01*
X329701Y144597D01*
X329678Y144610D01*
X329535Y144650D01*
X329394Y144695D01*
X329368Y144697D01*
X329343Y144705D01*
X329099Y144724D01*
X323275Y144724D01*
X323275Y146876D01*
X323272Y146902D01*
X323274Y146928D01*
X323252Y147075D01*
X323235Y147222D01*
X323227Y147247D01*
X323223Y147273D01*
X323168Y147410D01*
X323118Y147550D01*
X323104Y147572D01*
X323094Y147597D01*
X323009Y147718D01*
X322929Y147843D01*
X322910Y147861D01*
X322895Y147883D01*
X322785Y147982D01*
X322678Y148085D01*
X322656Y148099D01*
X322636Y148116D01*
X322506Y148188D01*
X322379Y148264D01*
X322354Y148272D01*
X322331Y148285D01*
X322188Y148325D01*
X322047Y148370D01*
X322021Y148372D01*
X321996Y148380D01*
X321752Y148399D01*
X313728Y148399D01*
X313702Y148396D01*
X313676Y148398D01*
X313529Y148376D01*
X313382Y148359D01*
X313357Y148351D01*
X313331Y148347D01*
X313193Y148292D01*
X313054Y148242D01*
X313032Y148228D01*
X313007Y148218D01*
X312886Y148133D01*
X312761Y148053D01*
X312743Y148034D01*
X312721Y148019D01*
X312622Y147909D01*
X312519Y147802D01*
X312505Y147780D01*
X312488Y147760D01*
X312416Y147630D01*
X312340Y147503D01*
X312332Y147478D01*
X312319Y147455D01*
X312279Y147312D01*
X312234Y147171D01*
X312232Y147145D01*
X312224Y147120D01*
X312205Y146876D01*
X312205Y135817D01*
X312216Y135718D01*
X312218Y135617D01*
X312236Y135545D01*
X312245Y135471D01*
X312278Y135377D01*
X312303Y135279D01*
X312337Y135213D01*
X312362Y135143D01*
X312417Y135059D01*
X312463Y134969D01*
X312511Y134913D01*
X312551Y134850D01*
X312623Y134781D01*
X312688Y134704D01*
X312748Y134660D01*
X312802Y134608D01*
X312888Y134557D01*
X312969Y134497D01*
X313037Y134467D01*
X313101Y134429D01*
X313197Y134399D01*
X313289Y134359D01*
X313362Y134346D01*
X313433Y134323D01*
X313533Y134315D01*
X313632Y134297D01*
X313706Y134301D01*
X313780Y134295D01*
X313880Y134310D01*
X313980Y134315D01*
X314051Y134336D01*
X314125Y134347D01*
X314218Y134384D01*
X314315Y134412D01*
X314380Y134448D01*
X314449Y134475D01*
X314531Y134533D01*
X314619Y134582D01*
X314695Y134647D01*
X314735Y134674D01*
X314759Y134701D01*
X314805Y134740D01*
X317201Y137137D01*
X320338Y137137D01*
X320675Y136800D01*
X320754Y136738D01*
X320826Y136668D01*
X320890Y136630D01*
X320948Y136584D01*
X321039Y136541D01*
X321125Y136489D01*
X321196Y136467D01*
X321263Y136435D01*
X321361Y136414D01*
X321457Y136383D01*
X321531Y136377D01*
X321604Y136361D01*
X321704Y136363D01*
X321804Y136355D01*
X321878Y136366D01*
X321952Y136367D01*
X322049Y136392D01*
X322149Y136407D01*
X322218Y136434D01*
X322290Y136452D01*
X322379Y136498D01*
X322473Y136535D01*
X322534Y136578D01*
X322600Y136612D01*
X322677Y136677D01*
X322759Y136734D01*
X322809Y136790D01*
X322865Y136838D01*
X322925Y136919D01*
X322992Y136993D01*
X323028Y137058D01*
X323073Y137118D01*
X323112Y137210D01*
X323161Y137298D01*
X323181Y137370D01*
X323211Y137438D01*
X323228Y137537D01*
X323256Y137634D01*
X323264Y137734D01*
X323272Y137781D01*
X323270Y137817D01*
X323275Y137877D01*
X323275Y139476D01*
X327576Y139476D01*
X327576Y135325D01*
X324599Y135325D01*
X324474Y135359D01*
X324424Y135366D01*
X324375Y135382D01*
X324252Y135392D01*
X324130Y135410D01*
X324079Y135406D01*
X324028Y135410D01*
X323905Y135391D01*
X323782Y135381D01*
X323734Y135366D01*
X323683Y135358D01*
X323568Y135312D01*
X323450Y135274D01*
X323407Y135248D01*
X323359Y135229D01*
X323258Y135159D01*
X323152Y135095D01*
X323115Y135060D01*
X323073Y135030D01*
X322990Y134939D01*
X322901Y134852D01*
X322874Y134810D01*
X322840Y134772D01*
X322780Y134663D01*
X322713Y134559D01*
X322696Y134511D01*
X322671Y134467D01*
X322637Y134348D01*
X322596Y134231D01*
X322590Y134180D01*
X322576Y134131D01*
X322557Y133887D01*
X322557Y132898D01*
X322560Y132872D01*
X322558Y132846D01*
X322580Y132699D01*
X322597Y132552D01*
X322605Y132527D01*
X322609Y132501D01*
X322664Y132363D01*
X322714Y132224D01*
X322728Y132202D01*
X322738Y132177D01*
X322823Y132056D01*
X322903Y131931D01*
X322922Y131913D01*
X322937Y131891D01*
X323047Y131792D01*
X323154Y131689D01*
X323176Y131675D01*
X323196Y131658D01*
X323326Y131586D01*
X323453Y131510D01*
X323478Y131502D01*
X323501Y131489D01*
X323644Y131449D01*
X323785Y131404D01*
X323811Y131402D01*
X323836Y131394D01*
X324080Y131375D01*
X336232Y131375D01*
X336705Y130901D01*
X336784Y130839D01*
X336856Y130769D01*
X336920Y130731D01*
X336978Y130685D01*
X337069Y130642D01*
X337155Y130590D01*
X337226Y130568D01*
X337293Y130536D01*
X337391Y130515D01*
X337487Y130484D01*
X337561Y130478D01*
X337634Y130462D01*
X337734Y130464D01*
X337834Y130456D01*
X337908Y130467D01*
G37*
%LPC*%
G36*
X229571Y50823D02*
X229571Y50823D01*
X227353Y53041D01*
X227353Y56179D01*
X229571Y58397D01*
X232883Y58397D01*
X233009Y58411D01*
X233135Y58418D01*
X233182Y58431D01*
X233230Y58437D01*
X233349Y58479D01*
X233470Y58514D01*
X233512Y58538D01*
X233558Y58554D01*
X233664Y58623D01*
X233774Y58684D01*
X233821Y58724D01*
X233851Y58743D01*
X233884Y58778D01*
X233961Y58843D01*
X249767Y74649D01*
X249846Y74748D01*
X249930Y74842D01*
X249954Y74885D01*
X249984Y74922D01*
X250038Y75037D01*
X250099Y75147D01*
X250112Y75194D01*
X250133Y75238D01*
X250159Y75361D01*
X250194Y75483D01*
X250199Y75544D01*
X250206Y75578D01*
X250205Y75626D01*
X250213Y75727D01*
X250213Y76499D01*
X252431Y78717D01*
X255569Y78717D01*
X257787Y76499D01*
X257787Y73361D01*
X255569Y71143D01*
X254797Y71143D01*
X254671Y71129D01*
X254545Y71122D01*
X254498Y71109D01*
X254450Y71103D01*
X254331Y71061D01*
X254210Y71026D01*
X254168Y71002D01*
X254122Y70986D01*
X254016Y70917D01*
X253906Y70856D01*
X253859Y70816D01*
X253829Y70797D01*
X253796Y70762D01*
X253719Y70697D01*
X234838Y51815D01*
X234331Y51815D01*
X234206Y51801D01*
X234080Y51794D01*
X234033Y51781D01*
X233985Y51775D01*
X233866Y51733D01*
X233745Y51698D01*
X233703Y51674D01*
X233657Y51658D01*
X233551Y51589D01*
X233441Y51528D01*
X233394Y51488D01*
X233364Y51469D01*
X233331Y51434D01*
X233254Y51369D01*
X232709Y50823D01*
X229571Y50823D01*
G37*
%LPD*%
G36*
X179638Y136785D02*
X179638Y136785D01*
X179712Y136786D01*
X179809Y136811D01*
X179909Y136825D01*
X179978Y136853D01*
X180050Y136871D01*
X180139Y136917D01*
X180233Y136954D01*
X180294Y136997D01*
X180360Y137031D01*
X180436Y137096D01*
X180519Y137153D01*
X180569Y137208D01*
X180625Y137257D01*
X180685Y137337D01*
X180752Y137412D01*
X180788Y137477D01*
X180833Y137537D01*
X180872Y137629D01*
X180921Y137717D01*
X180941Y137789D01*
X180971Y137857D01*
X180988Y137956D01*
X181016Y138052D01*
X181024Y138152D01*
X181032Y138200D01*
X181030Y138236D01*
X181035Y138296D01*
X181035Y143510D01*
X181032Y143536D01*
X181034Y143562D01*
X181012Y143709D01*
X180995Y143856D01*
X180987Y143881D01*
X180983Y143907D01*
X180928Y144045D01*
X180878Y144184D01*
X180864Y144206D01*
X180854Y144231D01*
X180769Y144352D01*
X180689Y144477D01*
X180670Y144495D01*
X180655Y144517D01*
X180545Y144616D01*
X180438Y144719D01*
X180416Y144733D01*
X180396Y144750D01*
X180266Y144822D01*
X180139Y144898D01*
X180114Y144906D01*
X180091Y144919D01*
X179948Y144959D01*
X179807Y145004D01*
X179781Y145006D01*
X179756Y145014D01*
X179512Y145033D01*
X176028Y145033D01*
X176002Y145030D01*
X175976Y145032D01*
X175829Y145010D01*
X175682Y144993D01*
X175657Y144985D01*
X175631Y144981D01*
X175493Y144926D01*
X175354Y144876D01*
X175332Y144862D01*
X175307Y144852D01*
X175186Y144767D01*
X175061Y144687D01*
X175043Y144668D01*
X175021Y144653D01*
X174922Y144543D01*
X174819Y144436D01*
X174805Y144414D01*
X174788Y144394D01*
X174716Y144264D01*
X174640Y144137D01*
X174632Y144112D01*
X174619Y144089D01*
X174579Y143946D01*
X174568Y143913D01*
X166980Y143913D01*
X159400Y143913D01*
X159348Y144045D01*
X159298Y144184D01*
X159284Y144206D01*
X159274Y144231D01*
X159189Y144352D01*
X159109Y144477D01*
X159090Y144495D01*
X159075Y144517D01*
X158965Y144616D01*
X158858Y144719D01*
X158836Y144733D01*
X158816Y144750D01*
X158686Y144822D01*
X158559Y144898D01*
X158534Y144906D01*
X158511Y144919D01*
X158368Y144959D01*
X158227Y145004D01*
X158201Y145006D01*
X158176Y145014D01*
X157932Y145033D01*
X157028Y145033D01*
X157002Y145030D01*
X156976Y145032D01*
X156829Y145010D01*
X156682Y144993D01*
X156657Y144985D01*
X156631Y144981D01*
X156493Y144926D01*
X156354Y144876D01*
X156332Y144862D01*
X156307Y144852D01*
X156186Y144767D01*
X156061Y144687D01*
X156043Y144668D01*
X156021Y144653D01*
X155922Y144543D01*
X155819Y144436D01*
X155805Y144414D01*
X155788Y144394D01*
X155716Y144264D01*
X155640Y144137D01*
X155632Y144112D01*
X155619Y144089D01*
X155579Y143946D01*
X155534Y143805D01*
X155532Y143779D01*
X155524Y143754D01*
X155505Y143510D01*
X155505Y140438D01*
X155519Y140312D01*
X155526Y140186D01*
X155539Y140139D01*
X155545Y140091D01*
X155587Y139972D01*
X155622Y139851D01*
X155646Y139809D01*
X155662Y139763D01*
X155731Y139657D01*
X155792Y139547D01*
X155832Y139500D01*
X155851Y139470D01*
X155886Y139437D01*
X155951Y139360D01*
X157022Y138290D01*
X157120Y138212D01*
X157212Y138128D01*
X157256Y138104D01*
X157295Y138073D01*
X157408Y138020D01*
X157517Y137959D01*
X157565Y137945D01*
X157610Y137924D01*
X157732Y137898D01*
X157852Y137864D01*
X157902Y137861D01*
X157950Y137851D01*
X158075Y137853D01*
X158200Y137847D01*
X158249Y137856D01*
X158299Y137857D01*
X158420Y137887D01*
X158543Y137910D01*
X158589Y137930D01*
X158637Y137942D01*
X158748Y137999D01*
X158863Y138049D01*
X158903Y138079D01*
X158947Y138101D01*
X159042Y138182D01*
X159142Y138257D01*
X159174Y138295D01*
X159212Y138327D01*
X159286Y138428D01*
X159367Y138523D01*
X159390Y138568D01*
X159419Y138607D01*
X159469Y138722D01*
X159526Y138834D01*
X159538Y138882D01*
X159557Y138928D01*
X159579Y139051D01*
X159609Y139172D01*
X159610Y139222D01*
X159619Y139271D01*
X159612Y139396D01*
X159614Y139521D01*
X159603Y139582D01*
X159601Y139619D01*
X159588Y139665D01*
X159570Y139761D01*
X159455Y140189D01*
X159455Y140867D01*
X166980Y140867D01*
X174505Y140867D01*
X174505Y140189D01*
X174479Y140094D01*
X174472Y140044D01*
X174456Y139995D01*
X174446Y139872D01*
X174428Y139750D01*
X174432Y139699D01*
X174428Y139648D01*
X174447Y139526D01*
X174457Y139402D01*
X174472Y139354D01*
X174480Y139303D01*
X174526Y139188D01*
X174564Y139070D01*
X174590Y139027D01*
X174609Y138979D01*
X174679Y138878D01*
X174743Y138772D01*
X174779Y138735D01*
X174808Y138693D01*
X174899Y138610D01*
X174986Y138521D01*
X175029Y138494D01*
X175066Y138460D01*
X175175Y138400D01*
X175279Y138333D01*
X175327Y138316D01*
X175371Y138291D01*
X175491Y138257D01*
X175607Y138216D01*
X175658Y138210D01*
X175707Y138196D01*
X175951Y138177D01*
X177477Y138177D01*
X178435Y137219D01*
X178514Y137157D01*
X178586Y137087D01*
X178650Y137049D01*
X178708Y137002D01*
X178799Y136959D01*
X178885Y136908D01*
X178956Y136885D01*
X179023Y136853D01*
X179121Y136832D01*
X179217Y136802D01*
X179291Y136796D01*
X179364Y136780D01*
X179464Y136782D01*
X179564Y136774D01*
X179638Y136785D01*
G37*
%LPC*%
G36*
X515701Y79247D02*
X515701Y79247D01*
X516216Y81171D01*
X516991Y83040D01*
X518002Y84792D01*
X518415Y85330D01*
X519233Y86396D01*
X520664Y87827D01*
X522268Y89058D01*
X524020Y90069D01*
X525889Y90844D01*
X527813Y91359D01*
X527813Y79247D01*
X515701Y79247D01*
G37*
%LPD*%
%LPC*%
G36*
X525889Y61556D02*
X525889Y61556D01*
X524020Y62331D01*
X522268Y63342D01*
X520664Y64573D01*
X519233Y66004D01*
X518002Y67608D01*
X516991Y69360D01*
X516216Y71229D01*
X515701Y73153D01*
X527813Y73153D01*
X527813Y61041D01*
X525889Y61556D01*
G37*
%LPD*%
%LPC*%
G36*
X126999Y26669D02*
X126999Y26669D01*
X126999Y40540D01*
X127970Y40225D01*
X129253Y39571D01*
X130417Y38725D01*
X131435Y37707D01*
X132281Y36543D01*
X132935Y35260D01*
X133380Y33892D01*
X133605Y32470D01*
X133605Y26669D01*
X126999Y26669D01*
G37*
%LPD*%
%LPC*%
G36*
X126459Y109745D02*
X126459Y109745D01*
X126459Y115271D01*
X136985Y115271D01*
X136985Y110967D01*
X136753Y110406D01*
X136324Y109977D01*
X135763Y109745D01*
X126459Y109745D01*
G37*
%LPD*%
%LPC*%
G36*
X113157Y109745D02*
X113157Y109745D01*
X112596Y109977D01*
X112167Y110406D01*
X111935Y110967D01*
X111935Y115271D01*
X122461Y115271D01*
X122461Y109745D01*
X113157Y109745D01*
G37*
%LPD*%
%LPC*%
G36*
X150729Y117569D02*
X150729Y117569D01*
X150729Y122495D01*
X154283Y122495D01*
X154844Y122263D01*
X155273Y121834D01*
X155505Y121273D01*
X155505Y117569D01*
X150729Y117569D01*
G37*
%LPD*%
%LPC*%
G36*
X141955Y117569D02*
X141955Y117569D01*
X141955Y121273D01*
X142187Y121834D01*
X142616Y122263D01*
X143177Y122495D01*
X146731Y122495D01*
X146731Y117569D01*
X141955Y117569D01*
G37*
%LPD*%
%LPC*%
G36*
X143177Y108645D02*
X143177Y108645D01*
X142616Y108877D01*
X142187Y109306D01*
X141955Y109867D01*
X141955Y113571D01*
X146731Y113571D01*
X146731Y108645D01*
X143177Y108645D01*
G37*
%LPD*%
%LPC*%
G36*
X255619Y124419D02*
X255619Y124419D01*
X255619Y128945D01*
X258321Y128945D01*
X258709Y128841D01*
X259056Y128640D01*
X259340Y128356D01*
X259541Y128009D01*
X259645Y127621D01*
X259645Y124419D01*
X255619Y124419D01*
G37*
%LPD*%
%LPC*%
G36*
X214979Y124419D02*
X214979Y124419D01*
X214979Y128945D01*
X217681Y128945D01*
X218069Y128841D01*
X218416Y128640D01*
X218700Y128356D01*
X218901Y128009D01*
X219005Y127621D01*
X219005Y124419D01*
X214979Y124419D01*
G37*
%LPD*%
%LPC*%
G36*
X214979Y114895D02*
X214979Y114895D01*
X214979Y119421D01*
X219005Y119421D01*
X219005Y116219D01*
X218901Y115831D01*
X218700Y115484D01*
X218416Y115200D01*
X218069Y114999D01*
X217681Y114895D01*
X214979Y114895D01*
G37*
%LPD*%
%LPC*%
G36*
X255619Y114895D02*
X255619Y114895D01*
X255619Y119421D01*
X259645Y119421D01*
X259645Y116219D01*
X259541Y115831D01*
X259340Y115484D01*
X259056Y115200D01*
X258709Y114999D01*
X258321Y114895D01*
X255619Y114895D01*
G37*
%LPD*%
%LPC*%
G36*
X205955Y124419D02*
X205955Y124419D01*
X205955Y127621D01*
X206059Y128009D01*
X206260Y128356D01*
X206544Y128640D01*
X206891Y128841D01*
X207279Y128945D01*
X209981Y128945D01*
X209981Y124419D01*
X205955Y124419D01*
G37*
%LPD*%
%LPC*%
G36*
X246595Y124419D02*
X246595Y124419D01*
X246595Y127621D01*
X246699Y128009D01*
X246900Y128356D01*
X247184Y128640D01*
X247531Y128841D01*
X247919Y128945D01*
X250621Y128945D01*
X250621Y124419D01*
X246595Y124419D01*
G37*
%LPD*%
%LPC*%
G36*
X247919Y114895D02*
X247919Y114895D01*
X247531Y114999D01*
X247184Y115200D01*
X246900Y115484D01*
X246699Y115831D01*
X246595Y116219D01*
X246595Y119421D01*
X250621Y119421D01*
X250621Y114895D01*
X247919Y114895D01*
G37*
%LPD*%
%LPC*%
G36*
X207279Y114895D02*
X207279Y114895D01*
X206891Y114999D01*
X206544Y115200D01*
X206260Y115484D01*
X206059Y115831D01*
X205955Y116219D01*
X205955Y119421D01*
X209981Y119421D01*
X209981Y114895D01*
X207279Y114895D01*
G37*
%LPD*%
%LPC*%
G36*
X190584Y124684D02*
X190584Y124684D01*
X190584Y128835D01*
X193561Y128835D01*
X193949Y128731D01*
X194296Y128530D01*
X194580Y128246D01*
X194781Y127899D01*
X194885Y127511D01*
X194885Y124684D01*
X190584Y124684D01*
G37*
%LPD*%
%LPC*%
G36*
X245054Y14054D02*
X245054Y14054D01*
X245054Y18355D01*
X247881Y18355D01*
X248269Y18251D01*
X248616Y18050D01*
X248900Y17766D01*
X249101Y17419D01*
X249205Y17031D01*
X249205Y14054D01*
X245054Y14054D01*
G37*
%LPD*%
%LPC*%
G36*
X190584Y115285D02*
X190584Y115285D01*
X190584Y119436D01*
X194885Y119436D01*
X194885Y116609D01*
X194781Y116221D01*
X194580Y115874D01*
X194296Y115590D01*
X193949Y115389D01*
X193561Y115285D01*
X190584Y115285D01*
G37*
%LPD*%
%LPC*%
G36*
X235655Y14054D02*
X235655Y14054D01*
X235655Y17031D01*
X235759Y17419D01*
X235960Y17766D01*
X236244Y18050D01*
X236591Y18251D01*
X236979Y18355D01*
X239806Y18355D01*
X239806Y14054D01*
X235655Y14054D01*
G37*
%LPD*%
%LPC*%
G36*
X148979Y125865D02*
X148979Y125865D01*
X148979Y128391D01*
X155505Y128391D01*
X155505Y127087D01*
X155273Y126526D01*
X154844Y126097D01*
X154283Y125865D01*
X148979Y125865D01*
G37*
%LPD*%
%LPC*%
G36*
X148729Y115569D02*
X148729Y115569D01*
X148729Y115571D01*
X148731Y115571D01*
X148731Y115569D01*
X148729Y115569D01*
G37*
%LPD*%
D10*
X101600Y76200D03*
X27940Y76200D03*
X457200Y76200D03*
X530860Y76200D03*
D11*
X148730Y115570D03*
X166230Y115570D03*
D12*
X290220Y125880D03*
X290220Y119380D03*
X290220Y112880D03*
X309220Y112880D03*
X309220Y125880D03*
X166980Y129390D03*
X166980Y135890D03*
X166980Y142390D03*
X147980Y142390D03*
X147980Y135890D03*
X147980Y129390D03*
D13*
X187960Y139560D03*
X187960Y122060D03*
D14*
X124460Y117270D03*
X124460Y139270D03*
D15*
X229480Y142240D03*
X212480Y142240D03*
X212480Y121920D03*
X229480Y121920D03*
X305680Y142240D03*
X288680Y142240D03*
X362830Y118110D03*
X345830Y118110D03*
D13*
X330200Y124600D03*
X330200Y142100D03*
D15*
X362830Y138430D03*
X345830Y138430D03*
X253120Y142240D03*
X270120Y142240D03*
X270120Y121920D03*
X253120Y121920D03*
D16*
X397510Y26280D03*
X397510Y9280D03*
X375920Y26280D03*
X375920Y9280D03*
X354330Y26280D03*
X354330Y9280D03*
D17*
X416780Y135890D03*
X380780Y135890D03*
D18*
X200660Y31750D02*
X200660Y16510D01*
X175260Y16510D02*
X175260Y31750D01*
X149860Y31750D02*
X149860Y16510D01*
X124460Y16510D02*
X124460Y31750D01*
D15*
X329810Y10160D03*
X312810Y10160D03*
X299330Y10160D03*
X282330Y10160D03*
X329810Y30480D03*
X312810Y30480D03*
D11*
X224930Y11430D03*
X242430Y11430D03*
D19*
X177800Y142240D03*
X198120Y127000D03*
X198120Y116840D03*
X241300Y127000D03*
X318770Y144780D03*
X218440Y31750D03*
X251460Y7620D03*
X279400Y109220D03*
X351790Y44450D03*
X515620Y10160D03*
X546100Y139700D03*
X11430Y140970D03*
X11430Y12700D03*
X408940Y53340D03*
X408940Y96520D03*
D20*
X126570Y119380D02*
X124460Y117270D01*
X126570Y119380D02*
X129540Y119380D01*
X124460Y117270D02*
X69010Y117270D01*
X27940Y76200D01*
D21*
X229480Y121920D02*
X229480Y142240D01*
X229480Y121920D02*
X229480Y112640D01*
X226060Y109220D01*
X182880Y109220D01*
X177800Y114300D01*
X177800Y134620D01*
X176530Y135890D01*
X166980Y135890D01*
X152910Y147320D02*
X147980Y142390D01*
X152910Y147320D02*
X187960Y147320D01*
X187960Y139700D02*
X187960Y139560D01*
X187960Y139700D02*
X187960Y147320D01*
X209940Y139700D02*
X212480Y142240D01*
X209940Y139700D02*
X203200Y139700D01*
D19*
X203200Y135890D03*
X198120Y144780D03*
D21*
X198120Y139700D02*
X203200Y139700D01*
X198120Y139700D02*
X187960Y139700D01*
X198120Y139700D02*
X198120Y144780D01*
X203200Y139700D02*
X203200Y135890D01*
D19*
X241300Y142240D03*
D21*
X253120Y142240D01*
D19*
X318770Y133350D03*
D21*
X311300Y125880D02*
X309220Y125880D01*
X311300Y125880D02*
X318770Y133350D01*
D22*
X200660Y24130D02*
X213360Y11430D01*
X224930Y11430D01*
D19*
X166370Y83820D03*
D22*
X146050Y83820D01*
X110490Y48260D02*
X110490Y10160D01*
X115126Y5524D01*
X190500Y5524D01*
X200660Y15684D01*
X200660Y24130D01*
X146050Y83820D02*
X110490Y48260D01*
D19*
X313690Y44450D03*
D22*
X313690Y68580D01*
X297180Y85090D01*
D19*
X297180Y85090D03*
D21*
X270120Y121920D02*
X270120Y142240D01*
X290220Y140700D02*
X290220Y125880D01*
X290220Y140700D02*
X288680Y142240D01*
D22*
X270120Y142240D01*
D21*
X362830Y118110D02*
X362830Y111370D01*
X359410Y107950D01*
X341630Y107950D01*
X314150Y107950D01*
X309220Y112880D01*
X401320Y135890D02*
X416780Y135890D01*
X401320Y135890D02*
X397510Y132080D01*
X397510Y123190D01*
X392430Y118110D01*
X362830Y118110D01*
X375920Y9280D02*
X397510Y9280D01*
X375920Y9280D02*
X354330Y9280D01*
X350520Y9280D01*
X341630Y18170D01*
X341630Y107950D01*
X305680Y142240D02*
X299720Y136280D01*
X299720Y132080D01*
D19*
X299720Y132080D03*
X321310Y113030D03*
D21*
X321160Y112880D01*
X309220Y112880D01*
X345830Y128270D02*
X345830Y138430D01*
X345830Y128270D02*
X345830Y118110D01*
X297030Y112880D02*
X290220Y112880D01*
X303530Y119380D02*
X318770Y119380D01*
X322580Y123190D01*
X322580Y124460D01*
X322720Y124600D01*
X330200Y124600D01*
X303530Y119380D02*
X297030Y112880D01*
X330200Y124600D02*
X336690Y124600D01*
X340360Y128270D01*
X345830Y128270D01*
X362830Y138430D02*
X378240Y138430D01*
X380780Y135890D01*
D19*
X381000Y74748D03*
D21*
X378319Y74748D01*
X369490Y65920D01*
X369490Y43180D01*
X375920Y36750D02*
X375920Y26280D01*
X375920Y36750D02*
X369490Y43180D01*
X330200Y30870D02*
X329810Y30480D01*
X330200Y30870D02*
X330200Y44450D01*
D19*
X330200Y44450D03*
X381000Y65270D03*
D21*
X381000Y42790D01*
X386960Y36830D01*
X392430Y36830D01*
X397510Y31750D01*
X397510Y26280D01*
X339090Y10160D02*
X329810Y10160D01*
X339090Y10160D02*
X341630Y7620D01*
D19*
X341630Y7620D03*
X381000Y84480D03*
D21*
X377161Y84480D01*
X361790Y69109D01*
X361790Y43180D01*
X354330Y35720D02*
X354330Y26280D01*
X354330Y35720D02*
X361790Y43180D01*
X299330Y10160D02*
X294250Y10160D01*
X291710Y12700D01*
X291710Y33900D01*
X292100Y34290D01*
D19*
X292100Y34290D03*
X254000Y74930D03*
D22*
X233680Y54610D01*
X231140Y54610D01*
D19*
X231140Y54610D03*
D21*
X312810Y13090D02*
X312810Y10160D01*
X312810Y13090D02*
X321310Y21590D01*
X242570Y100330D02*
X238760Y96520D01*
D19*
X238760Y96520D03*
D21*
X321310Y78740D02*
X321310Y21590D01*
X321310Y78740D02*
X299720Y100330D01*
X242570Y100330D01*
D19*
X247650Y54610D03*
D21*
X288680Y54610D01*
X312810Y30480D01*
D19*
X261620Y7620D03*
D21*
X264160Y10160D01*
X282330Y10160D01*
D19*
X278130Y34290D03*
D21*
X224790Y34290D01*
X214630Y44450D02*
X161290Y44450D01*
X149860Y33020D01*
X149860Y24130D01*
X214630Y44450D02*
X224790Y34290D01*
M02*
