G04 EAGLE Gerber RS-274X export*
G75*
%MOMM*%
%FSLAX34Y34*%
%LPD*%
%INSoldermask stop Top STC SMT*%
%IPPOS*%
%AMOC8*
5,1,8,0,0,1.08239X$1,22.5*%
G01*
%ADD10C,2.203200*%
%ADD11C,2.984500*%
%ADD12R,1.253200X1.283200*%
%ADD13R,1.403200X0.603200*%
%ADD14R,1.283200X1.253200*%
%ADD15R,2.403200X1.403200*%
%ADD16R,1.203200X1.303200*%
%ADD17R,1.303200X1.203200*%
%ADD18R,1.703200X2.303200*%
%ADD19C,1.727200*%


D10*
X539750Y17780D03*
X440690Y17780D03*
X440690Y132080D03*
D11*
X101600Y76200D03*
X27940Y76200D03*
X457200Y76200D03*
X530860Y76200D03*
D12*
X148730Y115570D03*
X166230Y115570D03*
D13*
X290220Y125880D03*
X290220Y119380D03*
X290220Y112880D03*
X309220Y112880D03*
X309220Y125880D03*
X166980Y129390D03*
X166980Y135890D03*
X166980Y142390D03*
X147980Y142390D03*
X147980Y135890D03*
X147980Y129390D03*
D14*
X187960Y139560D03*
X187960Y122060D03*
D15*
X124460Y117270D03*
X124460Y139270D03*
D16*
X229480Y142240D03*
X212480Y142240D03*
X212480Y121920D03*
X229480Y121920D03*
X305680Y142240D03*
X288680Y142240D03*
X362830Y118110D03*
X345830Y118110D03*
D14*
X330200Y124600D03*
X330200Y142100D03*
D16*
X362830Y138430D03*
X345830Y138430D03*
X253120Y142240D03*
X270120Y142240D03*
X270120Y121920D03*
X253120Y121920D03*
D17*
X397510Y26280D03*
X397510Y9280D03*
X375920Y26280D03*
X375920Y9280D03*
X354330Y26280D03*
X354330Y9280D03*
D18*
X416780Y135890D03*
X380780Y135890D03*
D19*
X200660Y31750D02*
X200660Y16510D01*
X175260Y16510D02*
X175260Y31750D01*
X149860Y31750D02*
X149860Y16510D01*
X124460Y16510D02*
X124460Y31750D01*
D16*
X329810Y10160D03*
X312810Y10160D03*
X299330Y10160D03*
X282330Y10160D03*
X329810Y30480D03*
X312810Y30480D03*
D12*
X224930Y11430D03*
X242430Y11430D03*
M02*
