M48
;GenerationSoftware,Autodesk,EAGLE,9.5.1*%
;CreationDate,2019-10-30T19:26:26Z*%
FMAT,2
ICI,OFF
METRIC,TZ,000.000
T4C0.300
T3C1.016
T2C1.854
T1C2.000
%
G90
M71
T1
X53975Y1778
X44069Y1778
X44069Y13208
T2
X45720Y7620
X10160Y7620
X2794Y7620
X53086Y7620
T3
X20066Y2413
X17526Y2413
X14986Y2413
X12446Y2413
T4
X1143Y14097
X1143Y1270
X40894Y5334
X40894Y9652
X20320Y13589
X19812Y14478
X24130Y14224
X31877Y13335
X16637Y8382
X31369Y4445
X29718Y8509
X29972Y13208
X21844Y3175
X38100Y7475
X33020Y4445
X38100Y6527
X34163Y762
X38100Y8448
X29210Y3429
X25400Y7493
X23114Y5461
X23876Y9652
X24765Y5461
X26162Y762
X27813Y3429
X17780Y14224
X19812Y12700
X19812Y11684
X24130Y12700
X31877Y14478
X32131Y11303
X25146Y762
X27940Y10922
X35179Y4445
X51562Y1016
X54610Y13970
M30