G04 EAGLE Gerber RS-274X export*
G75*
%MOMM*%
%FSLAX34Y34*%
%LPD*%
%INSilkscreen Top PLC SST*%
%IPPOS*%
%AMOC8*
5,1,8,0,0,1.08239X$1,22.5*%
G01*
%ADD10C,0.000000*%
%ADD11C,0.203200*%
%ADD12C,0.127000*%
%ADD13C,0.254000*%
%ADD14C,0.304800*%
%ADD15C,0.101600*%
%ADD16R,0.350000X0.800000*%
%ADD17C,0.050000*%
%ADD18C,0.100000*%
%ADD19C,0.200000*%
%ADD20R,0.800000X0.350000*%
%ADD21C,0.152400*%
%ADD22R,0.406400X0.863600*%
%ADD23R,0.863600X0.406400*%
%ADD24R,0.362500X1.800000*%
%ADD25R,0.362400X1.800000*%


D10*
X0Y0D02*
X558800Y0D01*
X558800Y152400D01*
X0Y152400D01*
X0Y0D01*
X529750Y17780D02*
X529753Y18025D01*
X529762Y18271D01*
X529777Y18516D01*
X529798Y18760D01*
X529825Y19004D01*
X529858Y19247D01*
X529897Y19490D01*
X529942Y19731D01*
X529993Y19971D01*
X530050Y20210D01*
X530112Y20447D01*
X530181Y20683D01*
X530255Y20917D01*
X530335Y21149D01*
X530420Y21379D01*
X530511Y21607D01*
X530608Y21832D01*
X530710Y22056D01*
X530818Y22276D01*
X530931Y22494D01*
X531049Y22709D01*
X531173Y22921D01*
X531301Y23130D01*
X531435Y23336D01*
X531574Y23538D01*
X531718Y23737D01*
X531867Y23932D01*
X532020Y24124D01*
X532178Y24312D01*
X532340Y24496D01*
X532508Y24675D01*
X532679Y24851D01*
X532855Y25022D01*
X533034Y25190D01*
X533218Y25352D01*
X533406Y25510D01*
X533598Y25663D01*
X533793Y25812D01*
X533992Y25956D01*
X534194Y26095D01*
X534400Y26229D01*
X534609Y26357D01*
X534821Y26481D01*
X535036Y26599D01*
X535254Y26712D01*
X535474Y26820D01*
X535698Y26922D01*
X535923Y27019D01*
X536151Y27110D01*
X536381Y27195D01*
X536613Y27275D01*
X536847Y27349D01*
X537083Y27418D01*
X537320Y27480D01*
X537559Y27537D01*
X537799Y27588D01*
X538040Y27633D01*
X538283Y27672D01*
X538526Y27705D01*
X538770Y27732D01*
X539014Y27753D01*
X539259Y27768D01*
X539505Y27777D01*
X539750Y27780D01*
X539995Y27777D01*
X540241Y27768D01*
X540486Y27753D01*
X540730Y27732D01*
X540974Y27705D01*
X541217Y27672D01*
X541460Y27633D01*
X541701Y27588D01*
X541941Y27537D01*
X542180Y27480D01*
X542417Y27418D01*
X542653Y27349D01*
X542887Y27275D01*
X543119Y27195D01*
X543349Y27110D01*
X543577Y27019D01*
X543802Y26922D01*
X544026Y26820D01*
X544246Y26712D01*
X544464Y26599D01*
X544679Y26481D01*
X544891Y26357D01*
X545100Y26229D01*
X545306Y26095D01*
X545508Y25956D01*
X545707Y25812D01*
X545902Y25663D01*
X546094Y25510D01*
X546282Y25352D01*
X546466Y25190D01*
X546645Y25022D01*
X546821Y24851D01*
X546992Y24675D01*
X547160Y24496D01*
X547322Y24312D01*
X547480Y24124D01*
X547633Y23932D01*
X547782Y23737D01*
X547926Y23538D01*
X548065Y23336D01*
X548199Y23130D01*
X548327Y22921D01*
X548451Y22709D01*
X548569Y22494D01*
X548682Y22276D01*
X548790Y22056D01*
X548892Y21832D01*
X548989Y21607D01*
X549080Y21379D01*
X549165Y21149D01*
X549245Y20917D01*
X549319Y20683D01*
X549388Y20447D01*
X549450Y20210D01*
X549507Y19971D01*
X549558Y19731D01*
X549603Y19490D01*
X549642Y19247D01*
X549675Y19004D01*
X549702Y18760D01*
X549723Y18516D01*
X549738Y18271D01*
X549747Y18025D01*
X549750Y17780D01*
X549747Y17535D01*
X549738Y17289D01*
X549723Y17044D01*
X549702Y16800D01*
X549675Y16556D01*
X549642Y16313D01*
X549603Y16070D01*
X549558Y15829D01*
X549507Y15589D01*
X549450Y15350D01*
X549388Y15113D01*
X549319Y14877D01*
X549245Y14643D01*
X549165Y14411D01*
X549080Y14181D01*
X548989Y13953D01*
X548892Y13728D01*
X548790Y13504D01*
X548682Y13284D01*
X548569Y13066D01*
X548451Y12851D01*
X548327Y12639D01*
X548199Y12430D01*
X548065Y12224D01*
X547926Y12022D01*
X547782Y11823D01*
X547633Y11628D01*
X547480Y11436D01*
X547322Y11248D01*
X547160Y11064D01*
X546992Y10885D01*
X546821Y10709D01*
X546645Y10538D01*
X546466Y10370D01*
X546282Y10208D01*
X546094Y10050D01*
X545902Y9897D01*
X545707Y9748D01*
X545508Y9604D01*
X545306Y9465D01*
X545100Y9331D01*
X544891Y9203D01*
X544679Y9079D01*
X544464Y8961D01*
X544246Y8848D01*
X544026Y8740D01*
X543802Y8638D01*
X543577Y8541D01*
X543349Y8450D01*
X543119Y8365D01*
X542887Y8285D01*
X542653Y8211D01*
X542417Y8142D01*
X542180Y8080D01*
X541941Y8023D01*
X541701Y7972D01*
X541460Y7927D01*
X541217Y7888D01*
X540974Y7855D01*
X540730Y7828D01*
X540486Y7807D01*
X540241Y7792D01*
X539995Y7783D01*
X539750Y7780D01*
X539505Y7783D01*
X539259Y7792D01*
X539014Y7807D01*
X538770Y7828D01*
X538526Y7855D01*
X538283Y7888D01*
X538040Y7927D01*
X537799Y7972D01*
X537559Y8023D01*
X537320Y8080D01*
X537083Y8142D01*
X536847Y8211D01*
X536613Y8285D01*
X536381Y8365D01*
X536151Y8450D01*
X535923Y8541D01*
X535698Y8638D01*
X535474Y8740D01*
X535254Y8848D01*
X535036Y8961D01*
X534821Y9079D01*
X534609Y9203D01*
X534400Y9331D01*
X534194Y9465D01*
X533992Y9604D01*
X533793Y9748D01*
X533598Y9897D01*
X533406Y10050D01*
X533218Y10208D01*
X533034Y10370D01*
X532855Y10538D01*
X532679Y10709D01*
X532508Y10885D01*
X532340Y11064D01*
X532178Y11248D01*
X532020Y11436D01*
X531867Y11628D01*
X531718Y11823D01*
X531574Y12022D01*
X531435Y12224D01*
X531301Y12430D01*
X531173Y12639D01*
X531049Y12851D01*
X530931Y13066D01*
X530818Y13284D01*
X530710Y13504D01*
X530608Y13728D01*
X530511Y13953D01*
X530420Y14181D01*
X530335Y14411D01*
X530255Y14643D01*
X530181Y14877D01*
X530112Y15113D01*
X530050Y15350D01*
X529993Y15589D01*
X529942Y15829D01*
X529897Y16070D01*
X529858Y16313D01*
X529825Y16556D01*
X529798Y16800D01*
X529777Y17044D01*
X529762Y17289D01*
X529753Y17535D01*
X529750Y17780D01*
X430690Y17780D02*
X430693Y18025D01*
X430702Y18271D01*
X430717Y18516D01*
X430738Y18760D01*
X430765Y19004D01*
X430798Y19247D01*
X430837Y19490D01*
X430882Y19731D01*
X430933Y19971D01*
X430990Y20210D01*
X431052Y20447D01*
X431121Y20683D01*
X431195Y20917D01*
X431275Y21149D01*
X431360Y21379D01*
X431451Y21607D01*
X431548Y21832D01*
X431650Y22056D01*
X431758Y22276D01*
X431871Y22494D01*
X431989Y22709D01*
X432113Y22921D01*
X432241Y23130D01*
X432375Y23336D01*
X432514Y23538D01*
X432658Y23737D01*
X432807Y23932D01*
X432960Y24124D01*
X433118Y24312D01*
X433280Y24496D01*
X433448Y24675D01*
X433619Y24851D01*
X433795Y25022D01*
X433974Y25190D01*
X434158Y25352D01*
X434346Y25510D01*
X434538Y25663D01*
X434733Y25812D01*
X434932Y25956D01*
X435134Y26095D01*
X435340Y26229D01*
X435549Y26357D01*
X435761Y26481D01*
X435976Y26599D01*
X436194Y26712D01*
X436414Y26820D01*
X436638Y26922D01*
X436863Y27019D01*
X437091Y27110D01*
X437321Y27195D01*
X437553Y27275D01*
X437787Y27349D01*
X438023Y27418D01*
X438260Y27480D01*
X438499Y27537D01*
X438739Y27588D01*
X438980Y27633D01*
X439223Y27672D01*
X439466Y27705D01*
X439710Y27732D01*
X439954Y27753D01*
X440199Y27768D01*
X440445Y27777D01*
X440690Y27780D01*
X440935Y27777D01*
X441181Y27768D01*
X441426Y27753D01*
X441670Y27732D01*
X441914Y27705D01*
X442157Y27672D01*
X442400Y27633D01*
X442641Y27588D01*
X442881Y27537D01*
X443120Y27480D01*
X443357Y27418D01*
X443593Y27349D01*
X443827Y27275D01*
X444059Y27195D01*
X444289Y27110D01*
X444517Y27019D01*
X444742Y26922D01*
X444966Y26820D01*
X445186Y26712D01*
X445404Y26599D01*
X445619Y26481D01*
X445831Y26357D01*
X446040Y26229D01*
X446246Y26095D01*
X446448Y25956D01*
X446647Y25812D01*
X446842Y25663D01*
X447034Y25510D01*
X447222Y25352D01*
X447406Y25190D01*
X447585Y25022D01*
X447761Y24851D01*
X447932Y24675D01*
X448100Y24496D01*
X448262Y24312D01*
X448420Y24124D01*
X448573Y23932D01*
X448722Y23737D01*
X448866Y23538D01*
X449005Y23336D01*
X449139Y23130D01*
X449267Y22921D01*
X449391Y22709D01*
X449509Y22494D01*
X449622Y22276D01*
X449730Y22056D01*
X449832Y21832D01*
X449929Y21607D01*
X450020Y21379D01*
X450105Y21149D01*
X450185Y20917D01*
X450259Y20683D01*
X450328Y20447D01*
X450390Y20210D01*
X450447Y19971D01*
X450498Y19731D01*
X450543Y19490D01*
X450582Y19247D01*
X450615Y19004D01*
X450642Y18760D01*
X450663Y18516D01*
X450678Y18271D01*
X450687Y18025D01*
X450690Y17780D01*
X450687Y17535D01*
X450678Y17289D01*
X450663Y17044D01*
X450642Y16800D01*
X450615Y16556D01*
X450582Y16313D01*
X450543Y16070D01*
X450498Y15829D01*
X450447Y15589D01*
X450390Y15350D01*
X450328Y15113D01*
X450259Y14877D01*
X450185Y14643D01*
X450105Y14411D01*
X450020Y14181D01*
X449929Y13953D01*
X449832Y13728D01*
X449730Y13504D01*
X449622Y13284D01*
X449509Y13066D01*
X449391Y12851D01*
X449267Y12639D01*
X449139Y12430D01*
X449005Y12224D01*
X448866Y12022D01*
X448722Y11823D01*
X448573Y11628D01*
X448420Y11436D01*
X448262Y11248D01*
X448100Y11064D01*
X447932Y10885D01*
X447761Y10709D01*
X447585Y10538D01*
X447406Y10370D01*
X447222Y10208D01*
X447034Y10050D01*
X446842Y9897D01*
X446647Y9748D01*
X446448Y9604D01*
X446246Y9465D01*
X446040Y9331D01*
X445831Y9203D01*
X445619Y9079D01*
X445404Y8961D01*
X445186Y8848D01*
X444966Y8740D01*
X444742Y8638D01*
X444517Y8541D01*
X444289Y8450D01*
X444059Y8365D01*
X443827Y8285D01*
X443593Y8211D01*
X443357Y8142D01*
X443120Y8080D01*
X442881Y8023D01*
X442641Y7972D01*
X442400Y7927D01*
X442157Y7888D01*
X441914Y7855D01*
X441670Y7828D01*
X441426Y7807D01*
X441181Y7792D01*
X440935Y7783D01*
X440690Y7780D01*
X440445Y7783D01*
X440199Y7792D01*
X439954Y7807D01*
X439710Y7828D01*
X439466Y7855D01*
X439223Y7888D01*
X438980Y7927D01*
X438739Y7972D01*
X438499Y8023D01*
X438260Y8080D01*
X438023Y8142D01*
X437787Y8211D01*
X437553Y8285D01*
X437321Y8365D01*
X437091Y8450D01*
X436863Y8541D01*
X436638Y8638D01*
X436414Y8740D01*
X436194Y8848D01*
X435976Y8961D01*
X435761Y9079D01*
X435549Y9203D01*
X435340Y9331D01*
X435134Y9465D01*
X434932Y9604D01*
X434733Y9748D01*
X434538Y9897D01*
X434346Y10050D01*
X434158Y10208D01*
X433974Y10370D01*
X433795Y10538D01*
X433619Y10709D01*
X433448Y10885D01*
X433280Y11064D01*
X433118Y11248D01*
X432960Y11436D01*
X432807Y11628D01*
X432658Y11823D01*
X432514Y12022D01*
X432375Y12224D01*
X432241Y12430D01*
X432113Y12639D01*
X431989Y12851D01*
X431871Y13066D01*
X431758Y13284D01*
X431650Y13504D01*
X431548Y13728D01*
X431451Y13953D01*
X431360Y14181D01*
X431275Y14411D01*
X431195Y14643D01*
X431121Y14877D01*
X431052Y15113D01*
X430990Y15350D01*
X430933Y15589D01*
X430882Y15829D01*
X430837Y16070D01*
X430798Y16313D01*
X430765Y16556D01*
X430738Y16800D01*
X430717Y17044D01*
X430702Y17289D01*
X430693Y17535D01*
X430690Y17780D01*
X430690Y132080D02*
X430693Y132325D01*
X430702Y132571D01*
X430717Y132816D01*
X430738Y133060D01*
X430765Y133304D01*
X430798Y133547D01*
X430837Y133790D01*
X430882Y134031D01*
X430933Y134271D01*
X430990Y134510D01*
X431052Y134747D01*
X431121Y134983D01*
X431195Y135217D01*
X431275Y135449D01*
X431360Y135679D01*
X431451Y135907D01*
X431548Y136132D01*
X431650Y136356D01*
X431758Y136576D01*
X431871Y136794D01*
X431989Y137009D01*
X432113Y137221D01*
X432241Y137430D01*
X432375Y137636D01*
X432514Y137838D01*
X432658Y138037D01*
X432807Y138232D01*
X432960Y138424D01*
X433118Y138612D01*
X433280Y138796D01*
X433448Y138975D01*
X433619Y139151D01*
X433795Y139322D01*
X433974Y139490D01*
X434158Y139652D01*
X434346Y139810D01*
X434538Y139963D01*
X434733Y140112D01*
X434932Y140256D01*
X435134Y140395D01*
X435340Y140529D01*
X435549Y140657D01*
X435761Y140781D01*
X435976Y140899D01*
X436194Y141012D01*
X436414Y141120D01*
X436638Y141222D01*
X436863Y141319D01*
X437091Y141410D01*
X437321Y141495D01*
X437553Y141575D01*
X437787Y141649D01*
X438023Y141718D01*
X438260Y141780D01*
X438499Y141837D01*
X438739Y141888D01*
X438980Y141933D01*
X439223Y141972D01*
X439466Y142005D01*
X439710Y142032D01*
X439954Y142053D01*
X440199Y142068D01*
X440445Y142077D01*
X440690Y142080D01*
X440935Y142077D01*
X441181Y142068D01*
X441426Y142053D01*
X441670Y142032D01*
X441914Y142005D01*
X442157Y141972D01*
X442400Y141933D01*
X442641Y141888D01*
X442881Y141837D01*
X443120Y141780D01*
X443357Y141718D01*
X443593Y141649D01*
X443827Y141575D01*
X444059Y141495D01*
X444289Y141410D01*
X444517Y141319D01*
X444742Y141222D01*
X444966Y141120D01*
X445186Y141012D01*
X445404Y140899D01*
X445619Y140781D01*
X445831Y140657D01*
X446040Y140529D01*
X446246Y140395D01*
X446448Y140256D01*
X446647Y140112D01*
X446842Y139963D01*
X447034Y139810D01*
X447222Y139652D01*
X447406Y139490D01*
X447585Y139322D01*
X447761Y139151D01*
X447932Y138975D01*
X448100Y138796D01*
X448262Y138612D01*
X448420Y138424D01*
X448573Y138232D01*
X448722Y138037D01*
X448866Y137838D01*
X449005Y137636D01*
X449139Y137430D01*
X449267Y137221D01*
X449391Y137009D01*
X449509Y136794D01*
X449622Y136576D01*
X449730Y136356D01*
X449832Y136132D01*
X449929Y135907D01*
X450020Y135679D01*
X450105Y135449D01*
X450185Y135217D01*
X450259Y134983D01*
X450328Y134747D01*
X450390Y134510D01*
X450447Y134271D01*
X450498Y134031D01*
X450543Y133790D01*
X450582Y133547D01*
X450615Y133304D01*
X450642Y133060D01*
X450663Y132816D01*
X450678Y132571D01*
X450687Y132325D01*
X450690Y132080D01*
X450687Y131835D01*
X450678Y131589D01*
X450663Y131344D01*
X450642Y131100D01*
X450615Y130856D01*
X450582Y130613D01*
X450543Y130370D01*
X450498Y130129D01*
X450447Y129889D01*
X450390Y129650D01*
X450328Y129413D01*
X450259Y129177D01*
X450185Y128943D01*
X450105Y128711D01*
X450020Y128481D01*
X449929Y128253D01*
X449832Y128028D01*
X449730Y127804D01*
X449622Y127584D01*
X449509Y127366D01*
X449391Y127151D01*
X449267Y126939D01*
X449139Y126730D01*
X449005Y126524D01*
X448866Y126322D01*
X448722Y126123D01*
X448573Y125928D01*
X448420Y125736D01*
X448262Y125548D01*
X448100Y125364D01*
X447932Y125185D01*
X447761Y125009D01*
X447585Y124838D01*
X447406Y124670D01*
X447222Y124508D01*
X447034Y124350D01*
X446842Y124197D01*
X446647Y124048D01*
X446448Y123904D01*
X446246Y123765D01*
X446040Y123631D01*
X445831Y123503D01*
X445619Y123379D01*
X445404Y123261D01*
X445186Y123148D01*
X444966Y123040D01*
X444742Y122938D01*
X444517Y122841D01*
X444289Y122750D01*
X444059Y122665D01*
X443827Y122585D01*
X443593Y122511D01*
X443357Y122442D01*
X443120Y122380D01*
X442881Y122323D01*
X442641Y122272D01*
X442400Y122227D01*
X442157Y122188D01*
X441914Y122155D01*
X441670Y122128D01*
X441426Y122107D01*
X441181Y122092D01*
X440935Y122083D01*
X440690Y122080D01*
X440445Y122083D01*
X440199Y122092D01*
X439954Y122107D01*
X439710Y122128D01*
X439466Y122155D01*
X439223Y122188D01*
X438980Y122227D01*
X438739Y122272D01*
X438499Y122323D01*
X438260Y122380D01*
X438023Y122442D01*
X437787Y122511D01*
X437553Y122585D01*
X437321Y122665D01*
X437091Y122750D01*
X436863Y122841D01*
X436638Y122938D01*
X436414Y123040D01*
X436194Y123148D01*
X435976Y123261D01*
X435761Y123379D01*
X435549Y123503D01*
X435340Y123631D01*
X435134Y123765D01*
X434932Y123904D01*
X434733Y124048D01*
X434538Y124197D01*
X434346Y124350D01*
X434158Y124508D01*
X433974Y124670D01*
X433795Y124838D01*
X433619Y125009D01*
X433448Y125185D01*
X433280Y125364D01*
X433118Y125548D01*
X432960Y125736D01*
X432807Y125928D01*
X432658Y126123D01*
X432514Y126322D01*
X432375Y126524D01*
X432241Y126730D01*
X432113Y126939D01*
X431989Y127151D01*
X431871Y127366D01*
X431758Y127584D01*
X431650Y127804D01*
X431548Y128028D01*
X431451Y128253D01*
X431360Y128481D01*
X431275Y128711D01*
X431195Y128943D01*
X431121Y129177D01*
X431052Y129413D01*
X430990Y129650D01*
X430933Y129889D01*
X430882Y130129D01*
X430837Y130370D01*
X430798Y130613D01*
X430765Y130856D01*
X430738Y131100D01*
X430717Y131344D01*
X430702Y131589D01*
X430693Y131835D01*
X430690Y132080D01*
D11*
X454660Y124460D02*
X549910Y124460D01*
X549910Y27940D02*
X454660Y27940D01*
X549910Y27940D02*
X549910Y124460D01*
D12*
X546100Y152400D02*
X12700Y152400D01*
X12700Y0D02*
X546100Y0D01*
D11*
X454660Y97790D02*
X454660Y124460D01*
X454660Y54610D02*
X454660Y27940D01*
X104140Y27940D02*
X8890Y27940D01*
X8890Y124460D01*
X104140Y124460D01*
X104140Y97790D01*
D13*
X104140Y54610D02*
X104140Y27940D01*
D14*
X133604Y73716D02*
X148505Y73716D01*
X141055Y66266D02*
X141055Y81167D01*
X407924Y73716D02*
X422825Y73716D01*
D12*
X123966Y67905D02*
X123966Y65435D01*
X123967Y67905D02*
X123969Y68003D01*
X123975Y68101D01*
X123985Y68199D01*
X123998Y68296D01*
X124016Y68393D01*
X124037Y68489D01*
X124062Y68583D01*
X124091Y68677D01*
X124123Y68770D01*
X124160Y68861D01*
X124199Y68951D01*
X124243Y69039D01*
X124290Y69125D01*
X124340Y69210D01*
X124393Y69292D01*
X124450Y69372D01*
X124510Y69450D01*
X124573Y69525D01*
X124639Y69598D01*
X124708Y69668D01*
X124779Y69735D01*
X124853Y69800D01*
X124930Y69861D01*
X125009Y69920D01*
X125090Y69975D01*
X125173Y70027D01*
X125259Y70075D01*
X125346Y70120D01*
X125435Y70162D01*
X125525Y70200D01*
X125617Y70234D01*
X125710Y70265D01*
X125805Y70292D01*
X125900Y70315D01*
X125997Y70335D01*
X126093Y70350D01*
X126191Y70362D01*
X126289Y70370D01*
X126387Y70374D01*
X126485Y70374D01*
X126583Y70370D01*
X126681Y70362D01*
X126779Y70350D01*
X126875Y70335D01*
X126972Y70315D01*
X127067Y70292D01*
X127162Y70265D01*
X127255Y70234D01*
X127347Y70200D01*
X127437Y70162D01*
X127526Y70120D01*
X127613Y70075D01*
X127699Y70027D01*
X127782Y69975D01*
X127863Y69920D01*
X127942Y69861D01*
X128019Y69800D01*
X128093Y69735D01*
X128164Y69668D01*
X128233Y69598D01*
X128299Y69525D01*
X128362Y69450D01*
X128422Y69372D01*
X128479Y69292D01*
X128532Y69210D01*
X128582Y69125D01*
X128629Y69039D01*
X128673Y68951D01*
X128712Y68861D01*
X128749Y68770D01*
X128781Y68677D01*
X128810Y68583D01*
X128835Y68489D01*
X128856Y68393D01*
X128874Y68296D01*
X128887Y68199D01*
X128897Y68101D01*
X128903Y68003D01*
X128905Y67905D01*
X128905Y65435D01*
X120015Y65435D01*
X120015Y67905D01*
X120017Y67992D01*
X120023Y68080D01*
X120032Y68167D01*
X120046Y68253D01*
X120063Y68339D01*
X120084Y68423D01*
X120109Y68507D01*
X120138Y68590D01*
X120170Y68671D01*
X120205Y68751D01*
X120244Y68829D01*
X120287Y68906D01*
X120333Y68980D01*
X120382Y69052D01*
X120434Y69122D01*
X120490Y69190D01*
X120548Y69255D01*
X120609Y69318D01*
X120673Y69377D01*
X120740Y69434D01*
X120808Y69488D01*
X120880Y69539D01*
X120953Y69586D01*
X121028Y69631D01*
X121106Y69672D01*
X121185Y69709D01*
X121265Y69743D01*
X121347Y69773D01*
X121430Y69800D01*
X121515Y69823D01*
X121600Y69842D01*
X121686Y69857D01*
X121773Y69869D01*
X121860Y69877D01*
X121947Y69881D01*
X122035Y69881D01*
X122122Y69877D01*
X122209Y69869D01*
X122296Y69857D01*
X122382Y69842D01*
X122467Y69823D01*
X122552Y69800D01*
X122635Y69773D01*
X122717Y69743D01*
X122797Y69709D01*
X122876Y69672D01*
X122954Y69631D01*
X123029Y69586D01*
X123102Y69539D01*
X123174Y69488D01*
X123242Y69434D01*
X123309Y69377D01*
X123373Y69318D01*
X123434Y69255D01*
X123492Y69190D01*
X123548Y69122D01*
X123600Y69052D01*
X123649Y68980D01*
X123695Y68906D01*
X123738Y68829D01*
X123777Y68751D01*
X123812Y68671D01*
X123844Y68590D01*
X123873Y68507D01*
X123898Y68423D01*
X123919Y68339D01*
X123936Y68253D01*
X123950Y68167D01*
X123959Y68080D01*
X123965Y67992D01*
X123967Y67905D01*
X120015Y75961D02*
X128905Y75961D01*
X120015Y73491D02*
X120015Y78430D01*
X121991Y82026D02*
X120015Y84495D01*
X128905Y84495D01*
X128905Y82026D02*
X128905Y86965D01*
D15*
X150230Y119070D02*
X164730Y119070D01*
X164730Y112070D02*
X150230Y112070D01*
D16*
X151230Y115570D03*
X163730Y115570D03*
D12*
X155336Y97305D02*
X153361Y97305D01*
X153275Y97307D01*
X153189Y97313D01*
X153103Y97322D01*
X153018Y97335D01*
X152933Y97352D01*
X152850Y97372D01*
X152767Y97396D01*
X152685Y97424D01*
X152605Y97455D01*
X152526Y97490D01*
X152449Y97528D01*
X152373Y97570D01*
X152299Y97614D01*
X152228Y97662D01*
X152158Y97713D01*
X152091Y97767D01*
X152026Y97824D01*
X151964Y97884D01*
X151904Y97946D01*
X151847Y98011D01*
X151793Y98078D01*
X151742Y98148D01*
X151694Y98219D01*
X151650Y98293D01*
X151608Y98369D01*
X151570Y98446D01*
X151535Y98525D01*
X151504Y98605D01*
X151476Y98687D01*
X151452Y98770D01*
X151432Y98853D01*
X151415Y98938D01*
X151402Y99023D01*
X151393Y99109D01*
X151387Y99195D01*
X151385Y99281D01*
X151385Y104219D01*
X151387Y104308D01*
X151393Y104396D01*
X151403Y104484D01*
X151417Y104572D01*
X151435Y104659D01*
X151456Y104745D01*
X151482Y104830D01*
X151511Y104913D01*
X151544Y104996D01*
X151581Y105076D01*
X151621Y105155D01*
X151665Y105232D01*
X151712Y105308D01*
X151762Y105380D01*
X151816Y105451D01*
X151873Y105519D01*
X151933Y105585D01*
X151995Y105647D01*
X152061Y105707D01*
X152129Y105764D01*
X152200Y105818D01*
X152272Y105868D01*
X152347Y105915D01*
X152425Y105959D01*
X152504Y105999D01*
X152584Y106036D01*
X152667Y106069D01*
X152750Y106098D01*
X152835Y106124D01*
X152921Y106145D01*
X153008Y106163D01*
X153096Y106177D01*
X153184Y106187D01*
X153272Y106193D01*
X153361Y106195D01*
X155336Y106195D01*
X161755Y106196D02*
X161847Y106194D01*
X161939Y106188D01*
X162030Y106179D01*
X162121Y106166D01*
X162211Y106149D01*
X162301Y106128D01*
X162389Y106104D01*
X162477Y106076D01*
X162563Y106044D01*
X162648Y106009D01*
X162731Y105970D01*
X162813Y105928D01*
X162893Y105883D01*
X162971Y105834D01*
X163047Y105782D01*
X163120Y105727D01*
X163192Y105669D01*
X163261Y105609D01*
X163327Y105545D01*
X163391Y105479D01*
X163451Y105410D01*
X163509Y105338D01*
X163564Y105265D01*
X163616Y105189D01*
X163665Y105111D01*
X163710Y105031D01*
X163752Y104949D01*
X163791Y104866D01*
X163826Y104781D01*
X163858Y104695D01*
X163886Y104607D01*
X163910Y104519D01*
X163931Y104429D01*
X163948Y104339D01*
X163961Y104248D01*
X163970Y104157D01*
X163976Y104065D01*
X163978Y103973D01*
X161755Y106195D02*
X161649Y106193D01*
X161544Y106187D01*
X161439Y106177D01*
X161334Y106164D01*
X161230Y106146D01*
X161127Y106125D01*
X161024Y106100D01*
X160922Y106071D01*
X160822Y106038D01*
X160723Y106002D01*
X160625Y105962D01*
X160529Y105918D01*
X160434Y105871D01*
X160342Y105821D01*
X160251Y105767D01*
X160162Y105709D01*
X160076Y105649D01*
X159992Y105585D01*
X159910Y105519D01*
X159830Y105449D01*
X159754Y105376D01*
X159680Y105301D01*
X159609Y105223D01*
X159541Y105142D01*
X159475Y105059D01*
X159413Y104973D01*
X159355Y104886D01*
X159299Y104796D01*
X159247Y104704D01*
X159198Y104610D01*
X159153Y104515D01*
X159111Y104418D01*
X159073Y104319D01*
X159039Y104220D01*
X163237Y102244D02*
X163306Y102313D01*
X163372Y102383D01*
X163435Y102457D01*
X163494Y102533D01*
X163551Y102611D01*
X163605Y102691D01*
X163655Y102774D01*
X163702Y102858D01*
X163745Y102945D01*
X163785Y103033D01*
X163821Y103122D01*
X163854Y103213D01*
X163883Y103305D01*
X163908Y103399D01*
X163929Y103493D01*
X163947Y103588D01*
X163960Y103684D01*
X163970Y103780D01*
X163976Y103876D01*
X163978Y103973D01*
X163237Y102244D02*
X159039Y97305D01*
X163978Y97305D01*
D17*
X281720Y132630D02*
X317720Y132630D01*
X317720Y106130D01*
X281720Y106130D01*
X281720Y132630D01*
D18*
X293470Y129380D02*
X305970Y129380D01*
X305970Y109380D01*
X293470Y109380D01*
X293470Y129380D01*
X293470Y122880D02*
X299970Y129380D01*
D19*
X296220Y130380D02*
X284220Y130380D01*
D12*
X301672Y104775D02*
X301672Y95885D01*
X302659Y95885D02*
X300684Y95885D01*
X300684Y104775D02*
X302659Y104775D01*
X308459Y95885D02*
X310434Y95885D01*
X308459Y95885D02*
X308373Y95887D01*
X308287Y95893D01*
X308201Y95902D01*
X308116Y95915D01*
X308031Y95932D01*
X307948Y95952D01*
X307865Y95976D01*
X307783Y96004D01*
X307703Y96035D01*
X307624Y96070D01*
X307547Y96108D01*
X307471Y96150D01*
X307397Y96194D01*
X307326Y96242D01*
X307256Y96293D01*
X307189Y96347D01*
X307124Y96404D01*
X307062Y96464D01*
X307002Y96526D01*
X306945Y96591D01*
X306891Y96658D01*
X306840Y96728D01*
X306792Y96799D01*
X306748Y96873D01*
X306706Y96949D01*
X306668Y97026D01*
X306633Y97105D01*
X306602Y97185D01*
X306574Y97267D01*
X306550Y97350D01*
X306530Y97433D01*
X306513Y97518D01*
X306500Y97603D01*
X306491Y97689D01*
X306485Y97775D01*
X306483Y97861D01*
X306483Y102799D01*
X306485Y102888D01*
X306491Y102976D01*
X306501Y103064D01*
X306515Y103152D01*
X306533Y103239D01*
X306554Y103325D01*
X306580Y103410D01*
X306609Y103493D01*
X306642Y103576D01*
X306679Y103656D01*
X306719Y103735D01*
X306763Y103812D01*
X306810Y103888D01*
X306860Y103960D01*
X306914Y104031D01*
X306971Y104099D01*
X307031Y104165D01*
X307093Y104227D01*
X307159Y104287D01*
X307227Y104344D01*
X307298Y104398D01*
X307370Y104448D01*
X307445Y104495D01*
X307523Y104539D01*
X307602Y104579D01*
X307682Y104616D01*
X307765Y104649D01*
X307848Y104678D01*
X307933Y104704D01*
X308019Y104725D01*
X308106Y104743D01*
X308194Y104757D01*
X308282Y104767D01*
X308370Y104773D01*
X308459Y104775D01*
X310434Y104775D01*
X314137Y102799D02*
X316607Y104775D01*
X316607Y95885D01*
X319076Y95885D02*
X314137Y95885D01*
D17*
X175480Y122640D02*
X139480Y122640D01*
X139480Y149140D01*
X175480Y149140D01*
X175480Y122640D01*
D18*
X163730Y125890D02*
X151230Y125890D01*
X151230Y145890D01*
X163730Y145890D01*
X163730Y125890D01*
X163730Y132390D02*
X157230Y125890D01*
D19*
X160980Y123890D02*
X172980Y123890D01*
D12*
X176891Y112395D02*
X176891Y103505D01*
X176891Y112395D02*
X179360Y112395D01*
X179458Y112393D01*
X179556Y112387D01*
X179654Y112377D01*
X179751Y112364D01*
X179848Y112346D01*
X179944Y112325D01*
X180038Y112300D01*
X180132Y112271D01*
X180225Y112239D01*
X180316Y112202D01*
X180406Y112163D01*
X180494Y112119D01*
X180580Y112072D01*
X180665Y112022D01*
X180747Y111969D01*
X180827Y111912D01*
X180905Y111852D01*
X180980Y111789D01*
X181053Y111723D01*
X181123Y111654D01*
X181190Y111583D01*
X181255Y111509D01*
X181316Y111432D01*
X181375Y111353D01*
X181430Y111272D01*
X181482Y111189D01*
X181530Y111103D01*
X181575Y111016D01*
X181617Y110927D01*
X181655Y110837D01*
X181689Y110745D01*
X181720Y110652D01*
X181747Y110557D01*
X181770Y110462D01*
X181790Y110365D01*
X181805Y110269D01*
X181817Y110171D01*
X181825Y110073D01*
X181829Y109975D01*
X181829Y109877D01*
X181825Y109779D01*
X181817Y109681D01*
X181805Y109583D01*
X181790Y109487D01*
X181770Y109390D01*
X181747Y109295D01*
X181720Y109200D01*
X181689Y109107D01*
X181655Y109015D01*
X181617Y108925D01*
X181575Y108836D01*
X181530Y108749D01*
X181482Y108663D01*
X181430Y108580D01*
X181375Y108499D01*
X181316Y108420D01*
X181255Y108343D01*
X181190Y108269D01*
X181123Y108198D01*
X181053Y108129D01*
X180980Y108063D01*
X180905Y108000D01*
X180827Y107940D01*
X180747Y107883D01*
X180665Y107830D01*
X180580Y107780D01*
X180494Y107733D01*
X180406Y107689D01*
X180316Y107650D01*
X180225Y107613D01*
X180132Y107581D01*
X180038Y107552D01*
X179944Y107527D01*
X179848Y107506D01*
X179751Y107488D01*
X179654Y107475D01*
X179556Y107465D01*
X179458Y107459D01*
X179360Y107457D01*
X179360Y107456D02*
X176891Y107456D01*
X188215Y103505D02*
X188301Y103507D01*
X188387Y103513D01*
X188473Y103522D01*
X188558Y103535D01*
X188643Y103552D01*
X188726Y103572D01*
X188809Y103596D01*
X188891Y103624D01*
X188971Y103655D01*
X189050Y103690D01*
X189127Y103728D01*
X189203Y103770D01*
X189277Y103814D01*
X189348Y103862D01*
X189418Y103913D01*
X189485Y103967D01*
X189550Y104024D01*
X189612Y104084D01*
X189672Y104146D01*
X189729Y104211D01*
X189783Y104278D01*
X189834Y104348D01*
X189882Y104419D01*
X189926Y104493D01*
X189968Y104569D01*
X190006Y104646D01*
X190041Y104725D01*
X190072Y104805D01*
X190100Y104887D01*
X190124Y104970D01*
X190144Y105053D01*
X190161Y105138D01*
X190174Y105223D01*
X190183Y105309D01*
X190189Y105395D01*
X190191Y105481D01*
X188215Y103505D02*
X188088Y103507D01*
X187962Y103513D01*
X187835Y103522D01*
X187709Y103536D01*
X187584Y103553D01*
X187459Y103574D01*
X187335Y103599D01*
X187211Y103628D01*
X187089Y103660D01*
X186967Y103696D01*
X186847Y103736D01*
X186728Y103779D01*
X186610Y103826D01*
X186494Y103877D01*
X186379Y103931D01*
X186266Y103988D01*
X186155Y104049D01*
X186046Y104113D01*
X185939Y104181D01*
X185833Y104251D01*
X185730Y104325D01*
X185630Y104402D01*
X185532Y104482D01*
X185436Y104565D01*
X185343Y104651D01*
X185252Y104740D01*
X185498Y110419D02*
X185500Y110505D01*
X185506Y110591D01*
X185515Y110677D01*
X185528Y110762D01*
X185545Y110847D01*
X185565Y110930D01*
X185589Y111013D01*
X185617Y111095D01*
X185648Y111175D01*
X185683Y111254D01*
X185721Y111331D01*
X185763Y111407D01*
X185807Y111481D01*
X185855Y111552D01*
X185906Y111622D01*
X185960Y111689D01*
X186017Y111754D01*
X186077Y111816D01*
X186139Y111876D01*
X186204Y111933D01*
X186271Y111987D01*
X186341Y112038D01*
X186412Y112086D01*
X186486Y112130D01*
X186562Y112172D01*
X186639Y112210D01*
X186718Y112245D01*
X186798Y112276D01*
X186880Y112304D01*
X186963Y112328D01*
X187046Y112348D01*
X187131Y112365D01*
X187216Y112378D01*
X187302Y112387D01*
X187388Y112393D01*
X187474Y112395D01*
X187593Y112393D01*
X187712Y112387D01*
X187831Y112378D01*
X187949Y112364D01*
X188067Y112347D01*
X188185Y112326D01*
X188301Y112301D01*
X188417Y112273D01*
X188532Y112241D01*
X188645Y112205D01*
X188758Y112165D01*
X188869Y112122D01*
X188979Y112076D01*
X189087Y112026D01*
X189193Y111972D01*
X189298Y111915D01*
X189400Y111855D01*
X189501Y111791D01*
X189600Y111724D01*
X189696Y111654D01*
X186487Y108691D02*
X186413Y108736D01*
X186341Y108785D01*
X186271Y108837D01*
X186204Y108892D01*
X186139Y108950D01*
X186077Y109010D01*
X186018Y109073D01*
X185961Y109139D01*
X185907Y109207D01*
X185856Y109277D01*
X185808Y109349D01*
X185763Y109424D01*
X185722Y109500D01*
X185684Y109578D01*
X185649Y109658D01*
X185618Y109739D01*
X185590Y109821D01*
X185566Y109904D01*
X185546Y109988D01*
X185529Y110074D01*
X185516Y110159D01*
X185507Y110246D01*
X185501Y110332D01*
X185499Y110419D01*
X189202Y107209D02*
X189276Y107164D01*
X189348Y107115D01*
X189418Y107063D01*
X189485Y107008D01*
X189550Y106950D01*
X189612Y106890D01*
X189672Y106827D01*
X189728Y106761D01*
X189782Y106693D01*
X189833Y106623D01*
X189881Y106551D01*
X189926Y106476D01*
X189967Y106400D01*
X190005Y106322D01*
X190040Y106242D01*
X190071Y106161D01*
X190099Y106079D01*
X190123Y105996D01*
X190143Y105912D01*
X190160Y105826D01*
X190173Y105741D01*
X190182Y105654D01*
X190188Y105568D01*
X190190Y105481D01*
X189202Y107209D02*
X186486Y108691D01*
X194091Y110419D02*
X196560Y112395D01*
X196560Y103505D01*
X194091Y103505D02*
X199029Y103505D01*
D15*
X191460Y123560D02*
X191460Y138060D01*
X184460Y138060D02*
X184460Y123560D01*
D20*
X187960Y137060D03*
X187960Y124560D03*
D12*
X192555Y91433D02*
X192555Y89458D01*
X192553Y89369D01*
X192547Y89281D01*
X192537Y89193D01*
X192523Y89105D01*
X192505Y89018D01*
X192484Y88932D01*
X192458Y88847D01*
X192429Y88764D01*
X192396Y88681D01*
X192359Y88601D01*
X192319Y88522D01*
X192275Y88445D01*
X192228Y88369D01*
X192178Y88297D01*
X192124Y88226D01*
X192067Y88158D01*
X192007Y88092D01*
X191945Y88030D01*
X191879Y87970D01*
X191811Y87913D01*
X191740Y87859D01*
X191668Y87809D01*
X191593Y87762D01*
X191515Y87718D01*
X191436Y87678D01*
X191356Y87641D01*
X191273Y87608D01*
X191190Y87579D01*
X191105Y87553D01*
X191019Y87532D01*
X190932Y87514D01*
X190844Y87500D01*
X190756Y87490D01*
X190668Y87484D01*
X190579Y87482D01*
X185641Y87482D01*
X185552Y87484D01*
X185464Y87490D01*
X185376Y87500D01*
X185288Y87514D01*
X185201Y87532D01*
X185115Y87553D01*
X185030Y87579D01*
X184947Y87608D01*
X184864Y87641D01*
X184784Y87678D01*
X184705Y87718D01*
X184628Y87762D01*
X184552Y87809D01*
X184480Y87859D01*
X184409Y87913D01*
X184341Y87970D01*
X184275Y88030D01*
X184213Y88092D01*
X184153Y88158D01*
X184096Y88226D01*
X184042Y88297D01*
X183992Y88369D01*
X183945Y88444D01*
X183901Y88522D01*
X183861Y88601D01*
X183824Y88681D01*
X183791Y88764D01*
X183762Y88847D01*
X183736Y88932D01*
X183715Y89018D01*
X183697Y89105D01*
X183683Y89193D01*
X183673Y89281D01*
X183667Y89369D01*
X183665Y89458D01*
X183665Y91433D01*
X185641Y95136D02*
X183665Y97606D01*
X192555Y97606D01*
X192555Y100075D02*
X192555Y95136D01*
D17*
X110960Y108770D02*
X110960Y147770D01*
X137960Y147770D01*
X137960Y108770D01*
X110960Y108770D01*
D18*
X114460Y115770D02*
X114460Y140770D01*
X134460Y140770D01*
X134460Y115770D01*
X114460Y115770D01*
D19*
X115460Y128270D02*
X133460Y128270D01*
D12*
X108585Y133432D02*
X99695Y133432D01*
X108585Y133432D02*
X108585Y137383D01*
X101671Y141029D02*
X99695Y143498D01*
X108585Y143498D01*
X108585Y141029D02*
X108585Y145968D01*
D21*
X216660Y145800D02*
X225300Y145800D01*
X225300Y138680D02*
X216660Y138680D01*
D22*
X214630Y142240D03*
X227330Y142240D03*
D12*
X213958Y112395D02*
X213958Y103505D01*
X213958Y112395D02*
X216427Y112395D01*
X216525Y112393D01*
X216623Y112387D01*
X216721Y112377D01*
X216818Y112364D01*
X216915Y112346D01*
X217011Y112325D01*
X217105Y112300D01*
X217199Y112271D01*
X217292Y112239D01*
X217383Y112202D01*
X217473Y112163D01*
X217561Y112119D01*
X217647Y112072D01*
X217732Y112022D01*
X217814Y111969D01*
X217894Y111912D01*
X217972Y111852D01*
X218047Y111789D01*
X218120Y111723D01*
X218190Y111654D01*
X218257Y111583D01*
X218322Y111509D01*
X218383Y111432D01*
X218442Y111353D01*
X218497Y111272D01*
X218549Y111189D01*
X218597Y111103D01*
X218642Y111016D01*
X218684Y110927D01*
X218722Y110837D01*
X218756Y110745D01*
X218787Y110652D01*
X218814Y110557D01*
X218837Y110462D01*
X218857Y110365D01*
X218872Y110269D01*
X218884Y110171D01*
X218892Y110073D01*
X218896Y109975D01*
X218896Y109877D01*
X218892Y109779D01*
X218884Y109681D01*
X218872Y109583D01*
X218857Y109487D01*
X218837Y109390D01*
X218814Y109295D01*
X218787Y109200D01*
X218756Y109107D01*
X218722Y109015D01*
X218684Y108925D01*
X218642Y108836D01*
X218597Y108749D01*
X218549Y108663D01*
X218497Y108580D01*
X218442Y108499D01*
X218383Y108420D01*
X218322Y108343D01*
X218257Y108269D01*
X218190Y108198D01*
X218120Y108129D01*
X218047Y108063D01*
X217972Y108000D01*
X217894Y107940D01*
X217814Y107883D01*
X217732Y107830D01*
X217647Y107780D01*
X217561Y107733D01*
X217473Y107689D01*
X217383Y107650D01*
X217292Y107613D01*
X217199Y107581D01*
X217105Y107552D01*
X217011Y107527D01*
X216915Y107506D01*
X216818Y107488D01*
X216721Y107475D01*
X216623Y107465D01*
X216525Y107459D01*
X216427Y107457D01*
X216427Y107456D02*
X213958Y107456D01*
X216921Y107456D02*
X218896Y103505D01*
X223026Y110419D02*
X225496Y112395D01*
X225496Y103505D01*
X227965Y103505D02*
X223026Y103505D01*
D21*
X225300Y118360D02*
X216660Y118360D01*
X216660Y125480D02*
X225300Y125480D01*
D22*
X227330Y121920D03*
X214630Y121920D03*
D12*
X213995Y100965D02*
X213995Y92075D01*
X213995Y100965D02*
X216464Y100965D01*
X216562Y100963D01*
X216660Y100957D01*
X216758Y100947D01*
X216855Y100934D01*
X216952Y100916D01*
X217048Y100895D01*
X217142Y100870D01*
X217236Y100841D01*
X217329Y100809D01*
X217420Y100772D01*
X217510Y100733D01*
X217598Y100689D01*
X217684Y100642D01*
X217769Y100592D01*
X217851Y100539D01*
X217931Y100482D01*
X218009Y100422D01*
X218084Y100359D01*
X218157Y100293D01*
X218227Y100224D01*
X218294Y100153D01*
X218359Y100079D01*
X218420Y100002D01*
X218479Y99923D01*
X218534Y99842D01*
X218586Y99759D01*
X218634Y99673D01*
X218679Y99586D01*
X218721Y99497D01*
X218759Y99407D01*
X218793Y99315D01*
X218824Y99222D01*
X218851Y99127D01*
X218874Y99032D01*
X218894Y98935D01*
X218909Y98839D01*
X218921Y98741D01*
X218929Y98643D01*
X218933Y98545D01*
X218933Y98447D01*
X218929Y98349D01*
X218921Y98251D01*
X218909Y98153D01*
X218894Y98057D01*
X218874Y97960D01*
X218851Y97865D01*
X218824Y97770D01*
X218793Y97677D01*
X218759Y97585D01*
X218721Y97495D01*
X218679Y97406D01*
X218634Y97319D01*
X218586Y97233D01*
X218534Y97150D01*
X218479Y97069D01*
X218420Y96990D01*
X218359Y96913D01*
X218294Y96839D01*
X218227Y96768D01*
X218157Y96699D01*
X218084Y96633D01*
X218009Y96570D01*
X217931Y96510D01*
X217851Y96453D01*
X217769Y96400D01*
X217684Y96350D01*
X217598Y96303D01*
X217510Y96259D01*
X217420Y96220D01*
X217329Y96183D01*
X217236Y96151D01*
X217142Y96122D01*
X217048Y96097D01*
X216952Y96076D01*
X216855Y96058D01*
X216758Y96045D01*
X216660Y96035D01*
X216562Y96029D01*
X216464Y96027D01*
X216464Y96026D02*
X213995Y96026D01*
X216958Y96026D02*
X218934Y92075D01*
X225780Y100966D02*
X225872Y100964D01*
X225964Y100958D01*
X226055Y100949D01*
X226146Y100936D01*
X226236Y100919D01*
X226326Y100898D01*
X226414Y100874D01*
X226502Y100846D01*
X226588Y100814D01*
X226673Y100779D01*
X226756Y100740D01*
X226838Y100698D01*
X226918Y100653D01*
X226996Y100604D01*
X227072Y100552D01*
X227145Y100497D01*
X227217Y100439D01*
X227286Y100379D01*
X227352Y100315D01*
X227416Y100249D01*
X227476Y100180D01*
X227534Y100108D01*
X227589Y100035D01*
X227641Y99959D01*
X227690Y99881D01*
X227735Y99801D01*
X227777Y99719D01*
X227816Y99636D01*
X227851Y99551D01*
X227883Y99465D01*
X227911Y99377D01*
X227935Y99289D01*
X227956Y99199D01*
X227973Y99109D01*
X227986Y99018D01*
X227995Y98927D01*
X228001Y98835D01*
X228003Y98743D01*
X225780Y100965D02*
X225674Y100963D01*
X225569Y100957D01*
X225464Y100947D01*
X225359Y100934D01*
X225255Y100916D01*
X225152Y100895D01*
X225049Y100870D01*
X224947Y100841D01*
X224847Y100808D01*
X224748Y100772D01*
X224650Y100732D01*
X224554Y100688D01*
X224459Y100641D01*
X224367Y100591D01*
X224276Y100537D01*
X224187Y100479D01*
X224101Y100419D01*
X224017Y100355D01*
X223935Y100289D01*
X223855Y100219D01*
X223779Y100146D01*
X223705Y100071D01*
X223634Y99993D01*
X223566Y99912D01*
X223500Y99829D01*
X223438Y99743D01*
X223380Y99656D01*
X223324Y99566D01*
X223272Y99474D01*
X223223Y99380D01*
X223178Y99285D01*
X223136Y99188D01*
X223098Y99089D01*
X223064Y98990D01*
X227261Y97014D02*
X227330Y97083D01*
X227396Y97153D01*
X227459Y97227D01*
X227518Y97303D01*
X227575Y97381D01*
X227629Y97461D01*
X227679Y97544D01*
X227726Y97628D01*
X227769Y97715D01*
X227809Y97803D01*
X227845Y97892D01*
X227878Y97983D01*
X227907Y98075D01*
X227932Y98169D01*
X227953Y98263D01*
X227971Y98358D01*
X227984Y98454D01*
X227994Y98550D01*
X228000Y98646D01*
X228002Y98743D01*
X227262Y97014D02*
X223064Y92075D01*
X228002Y92075D01*
D21*
X292860Y145800D02*
X301500Y145800D01*
X301500Y138680D02*
X292860Y138680D01*
D22*
X290830Y142240D03*
X303530Y142240D03*
D12*
X282538Y104775D02*
X282538Y95885D01*
X282538Y104775D02*
X285007Y104775D01*
X285105Y104773D01*
X285203Y104767D01*
X285301Y104757D01*
X285398Y104744D01*
X285495Y104726D01*
X285591Y104705D01*
X285685Y104680D01*
X285779Y104651D01*
X285872Y104619D01*
X285963Y104582D01*
X286053Y104543D01*
X286141Y104499D01*
X286227Y104452D01*
X286312Y104402D01*
X286394Y104349D01*
X286474Y104292D01*
X286552Y104232D01*
X286627Y104169D01*
X286700Y104103D01*
X286770Y104034D01*
X286837Y103963D01*
X286902Y103889D01*
X286963Y103812D01*
X287022Y103733D01*
X287077Y103652D01*
X287129Y103569D01*
X287177Y103483D01*
X287222Y103396D01*
X287264Y103307D01*
X287302Y103217D01*
X287336Y103125D01*
X287367Y103032D01*
X287394Y102937D01*
X287417Y102842D01*
X287437Y102745D01*
X287452Y102649D01*
X287464Y102551D01*
X287472Y102453D01*
X287476Y102355D01*
X287476Y102257D01*
X287472Y102159D01*
X287464Y102061D01*
X287452Y101963D01*
X287437Y101867D01*
X287417Y101770D01*
X287394Y101675D01*
X287367Y101580D01*
X287336Y101487D01*
X287302Y101395D01*
X287264Y101305D01*
X287222Y101216D01*
X287177Y101129D01*
X287129Y101043D01*
X287077Y100960D01*
X287022Y100879D01*
X286963Y100800D01*
X286902Y100723D01*
X286837Y100649D01*
X286770Y100578D01*
X286700Y100509D01*
X286627Y100443D01*
X286552Y100380D01*
X286474Y100320D01*
X286394Y100263D01*
X286312Y100210D01*
X286227Y100160D01*
X286141Y100113D01*
X286053Y100069D01*
X285963Y100030D01*
X285872Y99993D01*
X285779Y99961D01*
X285685Y99932D01*
X285591Y99907D01*
X285495Y99886D01*
X285398Y99868D01*
X285301Y99855D01*
X285203Y99845D01*
X285105Y99839D01*
X285007Y99837D01*
X285007Y99836D02*
X282538Y99836D01*
X285501Y99836D02*
X287476Y95885D01*
X291606Y95885D02*
X294076Y95885D01*
X294174Y95887D01*
X294272Y95893D01*
X294370Y95903D01*
X294467Y95916D01*
X294564Y95934D01*
X294660Y95955D01*
X294754Y95980D01*
X294848Y96009D01*
X294941Y96041D01*
X295032Y96078D01*
X295122Y96117D01*
X295210Y96161D01*
X295296Y96208D01*
X295381Y96258D01*
X295463Y96311D01*
X295543Y96368D01*
X295621Y96428D01*
X295696Y96491D01*
X295769Y96557D01*
X295839Y96626D01*
X295906Y96697D01*
X295971Y96771D01*
X296032Y96848D01*
X296091Y96927D01*
X296146Y97008D01*
X296198Y97091D01*
X296246Y97177D01*
X296291Y97264D01*
X296333Y97353D01*
X296371Y97443D01*
X296405Y97535D01*
X296436Y97628D01*
X296463Y97723D01*
X296486Y97818D01*
X296506Y97915D01*
X296521Y98011D01*
X296533Y98109D01*
X296541Y98207D01*
X296545Y98305D01*
X296545Y98403D01*
X296541Y98501D01*
X296533Y98599D01*
X296521Y98697D01*
X296506Y98793D01*
X296486Y98890D01*
X296463Y98985D01*
X296436Y99080D01*
X296405Y99173D01*
X296371Y99265D01*
X296333Y99355D01*
X296291Y99444D01*
X296246Y99531D01*
X296198Y99617D01*
X296146Y99700D01*
X296091Y99781D01*
X296032Y99860D01*
X295971Y99937D01*
X295906Y100011D01*
X295839Y100082D01*
X295769Y100151D01*
X295696Y100217D01*
X295621Y100280D01*
X295543Y100340D01*
X295463Y100397D01*
X295381Y100450D01*
X295296Y100500D01*
X295210Y100547D01*
X295122Y100591D01*
X295032Y100630D01*
X294941Y100667D01*
X294848Y100699D01*
X294754Y100728D01*
X294660Y100753D01*
X294564Y100774D01*
X294467Y100792D01*
X294370Y100805D01*
X294272Y100815D01*
X294174Y100821D01*
X294076Y100823D01*
X294569Y104775D02*
X291606Y104775D01*
X294569Y104775D02*
X294656Y104773D01*
X294744Y104767D01*
X294831Y104758D01*
X294917Y104744D01*
X295003Y104727D01*
X295087Y104706D01*
X295171Y104681D01*
X295254Y104652D01*
X295335Y104620D01*
X295415Y104585D01*
X295493Y104546D01*
X295570Y104503D01*
X295644Y104457D01*
X295716Y104408D01*
X295786Y104356D01*
X295854Y104300D01*
X295919Y104242D01*
X295982Y104181D01*
X296041Y104117D01*
X296098Y104050D01*
X296152Y103982D01*
X296203Y103910D01*
X296250Y103837D01*
X296295Y103762D01*
X296336Y103684D01*
X296373Y103605D01*
X296407Y103525D01*
X296437Y103443D01*
X296464Y103360D01*
X296487Y103275D01*
X296506Y103190D01*
X296521Y103104D01*
X296533Y103017D01*
X296541Y102930D01*
X296545Y102843D01*
X296545Y102755D01*
X296541Y102668D01*
X296533Y102581D01*
X296521Y102494D01*
X296506Y102408D01*
X296487Y102323D01*
X296464Y102238D01*
X296437Y102155D01*
X296407Y102073D01*
X296373Y101993D01*
X296336Y101914D01*
X296295Y101836D01*
X296250Y101761D01*
X296203Y101688D01*
X296152Y101616D01*
X296098Y101548D01*
X296041Y101481D01*
X295982Y101417D01*
X295919Y101356D01*
X295854Y101298D01*
X295786Y101242D01*
X295716Y101190D01*
X295644Y101141D01*
X295570Y101095D01*
X295493Y101052D01*
X295415Y101013D01*
X295335Y100978D01*
X295254Y100946D01*
X295171Y100917D01*
X295087Y100892D01*
X295003Y100871D01*
X294917Y100854D01*
X294831Y100840D01*
X294744Y100831D01*
X294656Y100825D01*
X294569Y100823D01*
X294569Y100824D02*
X292594Y100824D01*
D21*
X350010Y121670D02*
X358650Y121670D01*
X358650Y114550D02*
X350010Y114550D01*
D22*
X347980Y118110D03*
X360680Y118110D03*
D12*
X347308Y94615D02*
X347308Y85725D01*
X347308Y94615D02*
X349777Y94615D01*
X349875Y94613D01*
X349973Y94607D01*
X350071Y94597D01*
X350168Y94584D01*
X350265Y94566D01*
X350361Y94545D01*
X350455Y94520D01*
X350549Y94491D01*
X350642Y94459D01*
X350733Y94422D01*
X350823Y94383D01*
X350911Y94339D01*
X350997Y94292D01*
X351082Y94242D01*
X351164Y94189D01*
X351244Y94132D01*
X351322Y94072D01*
X351397Y94009D01*
X351470Y93943D01*
X351540Y93874D01*
X351607Y93803D01*
X351672Y93729D01*
X351733Y93652D01*
X351792Y93573D01*
X351847Y93492D01*
X351899Y93409D01*
X351947Y93323D01*
X351992Y93236D01*
X352034Y93147D01*
X352072Y93057D01*
X352106Y92965D01*
X352137Y92872D01*
X352164Y92777D01*
X352187Y92682D01*
X352207Y92585D01*
X352222Y92489D01*
X352234Y92391D01*
X352242Y92293D01*
X352246Y92195D01*
X352246Y92097D01*
X352242Y91999D01*
X352234Y91901D01*
X352222Y91803D01*
X352207Y91707D01*
X352187Y91610D01*
X352164Y91515D01*
X352137Y91420D01*
X352106Y91327D01*
X352072Y91235D01*
X352034Y91145D01*
X351992Y91056D01*
X351947Y90969D01*
X351899Y90883D01*
X351847Y90800D01*
X351792Y90719D01*
X351733Y90640D01*
X351672Y90563D01*
X351607Y90489D01*
X351540Y90418D01*
X351470Y90349D01*
X351397Y90283D01*
X351322Y90220D01*
X351244Y90160D01*
X351164Y90103D01*
X351082Y90050D01*
X350997Y90000D01*
X350911Y89953D01*
X350823Y89909D01*
X350733Y89870D01*
X350642Y89833D01*
X350549Y89801D01*
X350455Y89772D01*
X350361Y89747D01*
X350265Y89726D01*
X350168Y89708D01*
X350071Y89695D01*
X349973Y89685D01*
X349875Y89679D01*
X349777Y89677D01*
X349777Y89676D02*
X347308Y89676D01*
X350271Y89676D02*
X352246Y85725D01*
X356376Y87701D02*
X358352Y94615D01*
X356376Y87701D02*
X361315Y87701D01*
X359833Y89676D02*
X359833Y85725D01*
D15*
X326700Y126100D02*
X326700Y140600D01*
X333700Y140600D02*
X333700Y126100D01*
D20*
X330200Y127100D03*
X330200Y139600D03*
D12*
X335765Y107076D02*
X335765Y105101D01*
X335763Y105012D01*
X335757Y104924D01*
X335747Y104836D01*
X335733Y104748D01*
X335715Y104661D01*
X335694Y104575D01*
X335668Y104490D01*
X335639Y104407D01*
X335606Y104324D01*
X335569Y104244D01*
X335529Y104165D01*
X335485Y104088D01*
X335438Y104012D01*
X335388Y103940D01*
X335334Y103869D01*
X335277Y103801D01*
X335217Y103735D01*
X335155Y103673D01*
X335089Y103613D01*
X335021Y103556D01*
X334950Y103502D01*
X334878Y103452D01*
X334803Y103405D01*
X334725Y103361D01*
X334646Y103321D01*
X334566Y103284D01*
X334483Y103251D01*
X334400Y103222D01*
X334315Y103196D01*
X334229Y103175D01*
X334142Y103157D01*
X334054Y103143D01*
X333966Y103133D01*
X333878Y103127D01*
X333789Y103125D01*
X328851Y103125D01*
X328762Y103127D01*
X328674Y103133D01*
X328586Y103143D01*
X328498Y103157D01*
X328411Y103175D01*
X328325Y103196D01*
X328240Y103222D01*
X328157Y103251D01*
X328074Y103284D01*
X327994Y103321D01*
X327915Y103361D01*
X327838Y103405D01*
X327762Y103452D01*
X327690Y103502D01*
X327619Y103556D01*
X327551Y103613D01*
X327485Y103673D01*
X327423Y103735D01*
X327363Y103801D01*
X327306Y103869D01*
X327252Y103940D01*
X327202Y104012D01*
X327155Y104087D01*
X327111Y104165D01*
X327071Y104244D01*
X327034Y104324D01*
X327001Y104407D01*
X326972Y104490D01*
X326946Y104575D01*
X326925Y104661D01*
X326907Y104748D01*
X326893Y104836D01*
X326883Y104924D01*
X326877Y105012D01*
X326875Y105101D01*
X326875Y107076D01*
X335765Y110779D02*
X335765Y113248D01*
X335763Y113346D01*
X335757Y113444D01*
X335747Y113542D01*
X335734Y113639D01*
X335716Y113736D01*
X335695Y113832D01*
X335670Y113926D01*
X335641Y114020D01*
X335609Y114113D01*
X335572Y114204D01*
X335533Y114294D01*
X335489Y114382D01*
X335442Y114468D01*
X335392Y114553D01*
X335339Y114635D01*
X335282Y114715D01*
X335222Y114793D01*
X335159Y114868D01*
X335093Y114941D01*
X335024Y115011D01*
X334953Y115078D01*
X334879Y115143D01*
X334802Y115204D01*
X334723Y115263D01*
X334642Y115318D01*
X334559Y115370D01*
X334473Y115418D01*
X334386Y115463D01*
X334297Y115505D01*
X334207Y115543D01*
X334115Y115577D01*
X334022Y115608D01*
X333927Y115635D01*
X333832Y115658D01*
X333735Y115678D01*
X333639Y115693D01*
X333541Y115705D01*
X333443Y115713D01*
X333345Y115717D01*
X333247Y115717D01*
X333149Y115713D01*
X333051Y115705D01*
X332953Y115693D01*
X332857Y115678D01*
X332760Y115658D01*
X332665Y115635D01*
X332570Y115608D01*
X332477Y115577D01*
X332385Y115543D01*
X332295Y115505D01*
X332206Y115463D01*
X332119Y115418D01*
X332033Y115370D01*
X331950Y115318D01*
X331869Y115263D01*
X331790Y115204D01*
X331713Y115143D01*
X331639Y115078D01*
X331568Y115011D01*
X331499Y114941D01*
X331433Y114868D01*
X331370Y114793D01*
X331310Y114715D01*
X331253Y114635D01*
X331200Y114553D01*
X331150Y114468D01*
X331103Y114382D01*
X331059Y114294D01*
X331020Y114204D01*
X330983Y114113D01*
X330951Y114020D01*
X330922Y113926D01*
X330897Y113832D01*
X330876Y113736D01*
X330858Y113639D01*
X330845Y113542D01*
X330835Y113444D01*
X330829Y113346D01*
X330827Y113248D01*
X326875Y113742D02*
X326875Y110779D01*
X326875Y113742D02*
X326877Y113829D01*
X326883Y113917D01*
X326892Y114004D01*
X326906Y114090D01*
X326923Y114176D01*
X326944Y114260D01*
X326969Y114344D01*
X326998Y114427D01*
X327030Y114508D01*
X327065Y114588D01*
X327104Y114666D01*
X327147Y114743D01*
X327193Y114817D01*
X327242Y114889D01*
X327294Y114959D01*
X327350Y115027D01*
X327408Y115092D01*
X327469Y115155D01*
X327533Y115214D01*
X327600Y115271D01*
X327668Y115325D01*
X327740Y115376D01*
X327813Y115423D01*
X327888Y115468D01*
X327966Y115509D01*
X328045Y115546D01*
X328125Y115580D01*
X328207Y115610D01*
X328290Y115637D01*
X328375Y115660D01*
X328460Y115679D01*
X328546Y115694D01*
X328633Y115706D01*
X328720Y115714D01*
X328807Y115718D01*
X328895Y115718D01*
X328982Y115714D01*
X329069Y115706D01*
X329156Y115694D01*
X329242Y115679D01*
X329327Y115660D01*
X329412Y115637D01*
X329495Y115610D01*
X329577Y115580D01*
X329657Y115546D01*
X329736Y115509D01*
X329814Y115468D01*
X329889Y115423D01*
X329962Y115376D01*
X330034Y115325D01*
X330102Y115271D01*
X330169Y115214D01*
X330233Y115155D01*
X330294Y115092D01*
X330352Y115027D01*
X330408Y114959D01*
X330460Y114889D01*
X330509Y114817D01*
X330555Y114743D01*
X330598Y114666D01*
X330637Y114588D01*
X330672Y114508D01*
X330704Y114427D01*
X330733Y114344D01*
X330758Y114260D01*
X330779Y114176D01*
X330796Y114090D01*
X330810Y114004D01*
X330819Y113917D01*
X330825Y113829D01*
X330827Y113742D01*
X330826Y113742D02*
X330826Y111767D01*
D21*
X350010Y141990D02*
X358650Y141990D01*
X358650Y134870D02*
X350010Y134870D01*
D22*
X347980Y138430D03*
X360680Y138430D03*
D12*
X347308Y106045D02*
X347308Y97155D01*
X347308Y106045D02*
X349777Y106045D01*
X349875Y106043D01*
X349973Y106037D01*
X350071Y106027D01*
X350168Y106014D01*
X350265Y105996D01*
X350361Y105975D01*
X350455Y105950D01*
X350549Y105921D01*
X350642Y105889D01*
X350733Y105852D01*
X350823Y105813D01*
X350911Y105769D01*
X350997Y105722D01*
X351082Y105672D01*
X351164Y105619D01*
X351244Y105562D01*
X351322Y105502D01*
X351397Y105439D01*
X351470Y105373D01*
X351540Y105304D01*
X351607Y105233D01*
X351672Y105159D01*
X351733Y105082D01*
X351792Y105003D01*
X351847Y104922D01*
X351899Y104839D01*
X351947Y104753D01*
X351992Y104666D01*
X352034Y104577D01*
X352072Y104487D01*
X352106Y104395D01*
X352137Y104302D01*
X352164Y104207D01*
X352187Y104112D01*
X352207Y104015D01*
X352222Y103919D01*
X352234Y103821D01*
X352242Y103723D01*
X352246Y103625D01*
X352246Y103527D01*
X352242Y103429D01*
X352234Y103331D01*
X352222Y103233D01*
X352207Y103137D01*
X352187Y103040D01*
X352164Y102945D01*
X352137Y102850D01*
X352106Y102757D01*
X352072Y102665D01*
X352034Y102575D01*
X351992Y102486D01*
X351947Y102399D01*
X351899Y102313D01*
X351847Y102230D01*
X351792Y102149D01*
X351733Y102070D01*
X351672Y101993D01*
X351607Y101919D01*
X351540Y101848D01*
X351470Y101779D01*
X351397Y101713D01*
X351322Y101650D01*
X351244Y101590D01*
X351164Y101533D01*
X351082Y101480D01*
X350997Y101430D01*
X350911Y101383D01*
X350823Y101339D01*
X350733Y101300D01*
X350642Y101263D01*
X350549Y101231D01*
X350455Y101202D01*
X350361Y101177D01*
X350265Y101156D01*
X350168Y101138D01*
X350071Y101125D01*
X349973Y101115D01*
X349875Y101109D01*
X349777Y101107D01*
X349777Y101106D02*
X347308Y101106D01*
X350271Y101106D02*
X352246Y97155D01*
X356376Y97155D02*
X359339Y97155D01*
X359428Y97157D01*
X359516Y97163D01*
X359604Y97173D01*
X359692Y97187D01*
X359779Y97205D01*
X359865Y97226D01*
X359950Y97252D01*
X360033Y97281D01*
X360116Y97314D01*
X360196Y97351D01*
X360275Y97391D01*
X360352Y97435D01*
X360428Y97482D01*
X360500Y97532D01*
X360571Y97586D01*
X360639Y97643D01*
X360705Y97703D01*
X360767Y97765D01*
X360827Y97831D01*
X360884Y97899D01*
X360938Y97970D01*
X360988Y98042D01*
X361035Y98117D01*
X361079Y98195D01*
X361119Y98274D01*
X361156Y98354D01*
X361189Y98437D01*
X361218Y98520D01*
X361244Y98605D01*
X361265Y98691D01*
X361283Y98778D01*
X361297Y98866D01*
X361307Y98954D01*
X361313Y99042D01*
X361315Y99131D01*
X361315Y100118D01*
X361313Y100204D01*
X361307Y100290D01*
X361298Y100376D01*
X361285Y100461D01*
X361268Y100546D01*
X361248Y100629D01*
X361224Y100712D01*
X361196Y100794D01*
X361165Y100874D01*
X361130Y100953D01*
X361092Y101030D01*
X361050Y101106D01*
X361006Y101180D01*
X360958Y101251D01*
X360907Y101321D01*
X360853Y101388D01*
X360796Y101453D01*
X360736Y101515D01*
X360674Y101575D01*
X360609Y101632D01*
X360542Y101686D01*
X360472Y101737D01*
X360401Y101785D01*
X360327Y101829D01*
X360251Y101871D01*
X360174Y101909D01*
X360095Y101944D01*
X360015Y101975D01*
X359933Y102003D01*
X359850Y102027D01*
X359767Y102047D01*
X359682Y102064D01*
X359597Y102077D01*
X359511Y102086D01*
X359425Y102092D01*
X359339Y102094D01*
X356376Y102094D01*
X356376Y106045D01*
X361315Y106045D01*
D21*
X265940Y138680D02*
X257300Y138680D01*
X257300Y145800D02*
X265940Y145800D01*
D22*
X267970Y142240D03*
X255270Y142240D03*
D12*
X254635Y112395D02*
X254635Y103505D01*
X254635Y112395D02*
X257104Y112395D01*
X257202Y112393D01*
X257300Y112387D01*
X257398Y112377D01*
X257495Y112364D01*
X257592Y112346D01*
X257688Y112325D01*
X257782Y112300D01*
X257876Y112271D01*
X257969Y112239D01*
X258060Y112202D01*
X258150Y112163D01*
X258238Y112119D01*
X258324Y112072D01*
X258409Y112022D01*
X258491Y111969D01*
X258571Y111912D01*
X258649Y111852D01*
X258724Y111789D01*
X258797Y111723D01*
X258867Y111654D01*
X258934Y111583D01*
X258999Y111509D01*
X259060Y111432D01*
X259119Y111353D01*
X259174Y111272D01*
X259226Y111189D01*
X259274Y111103D01*
X259319Y111016D01*
X259361Y110927D01*
X259399Y110837D01*
X259433Y110745D01*
X259464Y110652D01*
X259491Y110557D01*
X259514Y110462D01*
X259534Y110365D01*
X259549Y110269D01*
X259561Y110171D01*
X259569Y110073D01*
X259573Y109975D01*
X259573Y109877D01*
X259569Y109779D01*
X259561Y109681D01*
X259549Y109583D01*
X259534Y109487D01*
X259514Y109390D01*
X259491Y109295D01*
X259464Y109200D01*
X259433Y109107D01*
X259399Y109015D01*
X259361Y108925D01*
X259319Y108836D01*
X259274Y108749D01*
X259226Y108663D01*
X259174Y108580D01*
X259119Y108499D01*
X259060Y108420D01*
X258999Y108343D01*
X258934Y108269D01*
X258867Y108198D01*
X258797Y108129D01*
X258724Y108063D01*
X258649Y108000D01*
X258571Y107940D01*
X258491Y107883D01*
X258409Y107830D01*
X258324Y107780D01*
X258238Y107733D01*
X258150Y107689D01*
X258060Y107650D01*
X257969Y107613D01*
X257876Y107581D01*
X257782Y107552D01*
X257688Y107527D01*
X257592Y107506D01*
X257495Y107488D01*
X257398Y107475D01*
X257300Y107465D01*
X257202Y107459D01*
X257104Y107457D01*
X257104Y107456D02*
X254635Y107456D01*
X257598Y107456D02*
X259574Y103505D01*
X263704Y108444D02*
X266667Y108444D01*
X266753Y108442D01*
X266839Y108436D01*
X266925Y108427D01*
X267010Y108414D01*
X267095Y108397D01*
X267178Y108377D01*
X267261Y108353D01*
X267343Y108325D01*
X267423Y108294D01*
X267502Y108259D01*
X267579Y108221D01*
X267655Y108179D01*
X267729Y108135D01*
X267800Y108087D01*
X267870Y108036D01*
X267937Y107982D01*
X268002Y107925D01*
X268064Y107865D01*
X268124Y107803D01*
X268181Y107738D01*
X268235Y107671D01*
X268286Y107601D01*
X268334Y107530D01*
X268378Y107456D01*
X268420Y107380D01*
X268458Y107303D01*
X268493Y107224D01*
X268524Y107144D01*
X268552Y107062D01*
X268576Y106979D01*
X268596Y106896D01*
X268613Y106811D01*
X268626Y106726D01*
X268635Y106640D01*
X268641Y106554D01*
X268643Y106468D01*
X268642Y106468D02*
X268642Y105974D01*
X268640Y105876D01*
X268634Y105778D01*
X268624Y105680D01*
X268611Y105583D01*
X268593Y105486D01*
X268572Y105390D01*
X268547Y105296D01*
X268518Y105202D01*
X268486Y105109D01*
X268449Y105018D01*
X268410Y104928D01*
X268366Y104840D01*
X268319Y104754D01*
X268269Y104669D01*
X268216Y104587D01*
X268159Y104507D01*
X268099Y104429D01*
X268036Y104354D01*
X267970Y104281D01*
X267901Y104211D01*
X267830Y104144D01*
X267756Y104079D01*
X267679Y104018D01*
X267600Y103959D01*
X267519Y103904D01*
X267436Y103852D01*
X267350Y103804D01*
X267263Y103759D01*
X267174Y103717D01*
X267084Y103679D01*
X266992Y103645D01*
X266899Y103614D01*
X266804Y103587D01*
X266709Y103564D01*
X266612Y103544D01*
X266516Y103529D01*
X266418Y103517D01*
X266320Y103509D01*
X266222Y103505D01*
X266124Y103505D01*
X266026Y103509D01*
X265928Y103517D01*
X265830Y103529D01*
X265734Y103544D01*
X265637Y103564D01*
X265542Y103587D01*
X265447Y103614D01*
X265354Y103645D01*
X265262Y103679D01*
X265172Y103717D01*
X265083Y103759D01*
X264996Y103804D01*
X264910Y103852D01*
X264827Y103904D01*
X264746Y103959D01*
X264667Y104018D01*
X264590Y104079D01*
X264516Y104144D01*
X264445Y104211D01*
X264376Y104281D01*
X264310Y104354D01*
X264247Y104429D01*
X264187Y104507D01*
X264130Y104587D01*
X264077Y104669D01*
X264027Y104754D01*
X263980Y104840D01*
X263936Y104928D01*
X263897Y105018D01*
X263860Y105109D01*
X263828Y105202D01*
X263799Y105296D01*
X263774Y105390D01*
X263753Y105486D01*
X263735Y105583D01*
X263722Y105680D01*
X263712Y105778D01*
X263706Y105876D01*
X263704Y105974D01*
X263704Y108444D01*
X263706Y108568D01*
X263712Y108692D01*
X263722Y108816D01*
X263735Y108939D01*
X263753Y109062D01*
X263774Y109184D01*
X263799Y109306D01*
X263828Y109427D01*
X263861Y109546D01*
X263897Y109665D01*
X263938Y109782D01*
X263981Y109898D01*
X264029Y110013D01*
X264080Y110126D01*
X264135Y110238D01*
X264193Y110347D01*
X264254Y110455D01*
X264319Y110561D01*
X264387Y110665D01*
X264459Y110766D01*
X264533Y110866D01*
X264611Y110962D01*
X264691Y111057D01*
X264775Y111149D01*
X264861Y111238D01*
X264950Y111324D01*
X265042Y111408D01*
X265137Y111488D01*
X265233Y111566D01*
X265333Y111640D01*
X265434Y111712D01*
X265538Y111780D01*
X265644Y111845D01*
X265752Y111906D01*
X265861Y111964D01*
X265973Y112019D01*
X266086Y112070D01*
X266201Y112118D01*
X266317Y112161D01*
X266434Y112202D01*
X266553Y112238D01*
X266672Y112271D01*
X266793Y112300D01*
X266915Y112325D01*
X267037Y112346D01*
X267160Y112364D01*
X267283Y112377D01*
X267407Y112387D01*
X267531Y112393D01*
X267655Y112395D01*
D21*
X265940Y125480D02*
X257300Y125480D01*
X257300Y118360D02*
X265940Y118360D01*
D22*
X255270Y121920D03*
X267970Y121920D03*
D12*
X254598Y100965D02*
X254598Y92075D01*
X254598Y100965D02*
X257067Y100965D01*
X257165Y100963D01*
X257263Y100957D01*
X257361Y100947D01*
X257458Y100934D01*
X257555Y100916D01*
X257651Y100895D01*
X257745Y100870D01*
X257839Y100841D01*
X257932Y100809D01*
X258023Y100772D01*
X258113Y100733D01*
X258201Y100689D01*
X258287Y100642D01*
X258372Y100592D01*
X258454Y100539D01*
X258534Y100482D01*
X258612Y100422D01*
X258687Y100359D01*
X258760Y100293D01*
X258830Y100224D01*
X258897Y100153D01*
X258962Y100079D01*
X259023Y100002D01*
X259082Y99923D01*
X259137Y99842D01*
X259189Y99759D01*
X259237Y99673D01*
X259282Y99586D01*
X259324Y99497D01*
X259362Y99407D01*
X259396Y99315D01*
X259427Y99222D01*
X259454Y99127D01*
X259477Y99032D01*
X259497Y98935D01*
X259512Y98839D01*
X259524Y98741D01*
X259532Y98643D01*
X259536Y98545D01*
X259536Y98447D01*
X259532Y98349D01*
X259524Y98251D01*
X259512Y98153D01*
X259497Y98057D01*
X259477Y97960D01*
X259454Y97865D01*
X259427Y97770D01*
X259396Y97677D01*
X259362Y97585D01*
X259324Y97495D01*
X259282Y97406D01*
X259237Y97319D01*
X259189Y97233D01*
X259137Y97150D01*
X259082Y97069D01*
X259023Y96990D01*
X258962Y96913D01*
X258897Y96839D01*
X258830Y96768D01*
X258760Y96699D01*
X258687Y96633D01*
X258612Y96570D01*
X258534Y96510D01*
X258454Y96453D01*
X258372Y96400D01*
X258287Y96350D01*
X258201Y96303D01*
X258113Y96259D01*
X258023Y96220D01*
X257932Y96183D01*
X257839Y96151D01*
X257745Y96122D01*
X257651Y96097D01*
X257555Y96076D01*
X257458Y96058D01*
X257361Y96045D01*
X257263Y96035D01*
X257165Y96029D01*
X257067Y96027D01*
X257067Y96026D02*
X254598Y96026D01*
X257561Y96026D02*
X259536Y92075D01*
X263666Y99977D02*
X263666Y100965D01*
X268605Y100965D01*
X266136Y92075D01*
D21*
X393950Y22100D02*
X393950Y13460D01*
X401070Y13460D02*
X401070Y22100D01*
D23*
X397510Y11430D03*
X397510Y24130D03*
D12*
X401955Y34888D02*
X393065Y34888D01*
X393065Y37357D01*
X393067Y37455D01*
X393073Y37553D01*
X393083Y37651D01*
X393096Y37748D01*
X393114Y37845D01*
X393135Y37941D01*
X393160Y38035D01*
X393189Y38129D01*
X393221Y38222D01*
X393258Y38313D01*
X393297Y38403D01*
X393341Y38491D01*
X393388Y38577D01*
X393438Y38662D01*
X393491Y38744D01*
X393548Y38824D01*
X393608Y38902D01*
X393671Y38977D01*
X393737Y39050D01*
X393806Y39120D01*
X393877Y39187D01*
X393951Y39252D01*
X394028Y39313D01*
X394107Y39372D01*
X394188Y39427D01*
X394271Y39479D01*
X394357Y39527D01*
X394444Y39572D01*
X394533Y39614D01*
X394623Y39652D01*
X394715Y39686D01*
X394808Y39717D01*
X394903Y39744D01*
X394998Y39767D01*
X395095Y39787D01*
X395191Y39802D01*
X395289Y39814D01*
X395387Y39822D01*
X395485Y39826D01*
X395583Y39826D01*
X395681Y39822D01*
X395779Y39814D01*
X395877Y39802D01*
X395973Y39787D01*
X396070Y39767D01*
X396165Y39744D01*
X396260Y39717D01*
X396353Y39686D01*
X396445Y39652D01*
X396535Y39614D01*
X396624Y39572D01*
X396711Y39527D01*
X396797Y39479D01*
X396880Y39427D01*
X396961Y39372D01*
X397040Y39313D01*
X397117Y39252D01*
X397191Y39187D01*
X397262Y39120D01*
X397331Y39050D01*
X397397Y38977D01*
X397460Y38902D01*
X397520Y38824D01*
X397577Y38744D01*
X397630Y38662D01*
X397680Y38577D01*
X397727Y38491D01*
X397771Y38403D01*
X397810Y38313D01*
X397847Y38222D01*
X397879Y38129D01*
X397908Y38035D01*
X397933Y37941D01*
X397954Y37845D01*
X397972Y37748D01*
X397985Y37651D01*
X397995Y37553D01*
X398001Y37455D01*
X398003Y37357D01*
X398004Y37357D02*
X398004Y34888D01*
X398004Y37851D02*
X401955Y39826D01*
X399486Y43957D02*
X399388Y43959D01*
X399290Y43965D01*
X399192Y43975D01*
X399095Y43988D01*
X398998Y44006D01*
X398902Y44027D01*
X398808Y44052D01*
X398714Y44081D01*
X398621Y44113D01*
X398530Y44150D01*
X398440Y44189D01*
X398352Y44233D01*
X398266Y44280D01*
X398181Y44330D01*
X398099Y44383D01*
X398019Y44440D01*
X397941Y44500D01*
X397866Y44563D01*
X397793Y44629D01*
X397723Y44698D01*
X397656Y44769D01*
X397591Y44843D01*
X397530Y44920D01*
X397471Y44999D01*
X397416Y45080D01*
X397364Y45163D01*
X397316Y45249D01*
X397271Y45336D01*
X397229Y45425D01*
X397191Y45515D01*
X397157Y45607D01*
X397126Y45700D01*
X397099Y45795D01*
X397076Y45890D01*
X397056Y45987D01*
X397041Y46083D01*
X397029Y46181D01*
X397021Y46279D01*
X397017Y46377D01*
X397017Y46475D01*
X397021Y46573D01*
X397029Y46671D01*
X397041Y46769D01*
X397056Y46865D01*
X397076Y46962D01*
X397099Y47057D01*
X397126Y47152D01*
X397157Y47245D01*
X397191Y47337D01*
X397229Y47427D01*
X397271Y47516D01*
X397316Y47603D01*
X397364Y47689D01*
X397416Y47772D01*
X397471Y47853D01*
X397530Y47932D01*
X397591Y48009D01*
X397656Y48083D01*
X397723Y48154D01*
X397793Y48223D01*
X397866Y48289D01*
X397941Y48352D01*
X398019Y48412D01*
X398099Y48469D01*
X398181Y48522D01*
X398266Y48572D01*
X398352Y48619D01*
X398440Y48663D01*
X398530Y48702D01*
X398621Y48739D01*
X398714Y48771D01*
X398808Y48800D01*
X398902Y48825D01*
X398998Y48846D01*
X399095Y48864D01*
X399192Y48877D01*
X399290Y48887D01*
X399388Y48893D01*
X399486Y48895D01*
X399584Y48893D01*
X399682Y48887D01*
X399780Y48877D01*
X399877Y48864D01*
X399974Y48846D01*
X400070Y48825D01*
X400164Y48800D01*
X400258Y48771D01*
X400351Y48739D01*
X400442Y48702D01*
X400532Y48663D01*
X400620Y48619D01*
X400706Y48572D01*
X400791Y48522D01*
X400873Y48469D01*
X400953Y48412D01*
X401031Y48352D01*
X401106Y48289D01*
X401179Y48223D01*
X401249Y48154D01*
X401316Y48083D01*
X401381Y48009D01*
X401442Y47932D01*
X401501Y47853D01*
X401556Y47772D01*
X401608Y47689D01*
X401656Y47603D01*
X401701Y47516D01*
X401743Y47427D01*
X401781Y47337D01*
X401815Y47245D01*
X401846Y47152D01*
X401873Y47057D01*
X401896Y46962D01*
X401916Y46865D01*
X401931Y46769D01*
X401943Y46671D01*
X401951Y46573D01*
X401955Y46475D01*
X401955Y46377D01*
X401951Y46279D01*
X401943Y46181D01*
X401931Y46083D01*
X401916Y45987D01*
X401896Y45890D01*
X401873Y45795D01*
X401846Y45700D01*
X401815Y45607D01*
X401781Y45515D01*
X401743Y45425D01*
X401701Y45336D01*
X401656Y45249D01*
X401608Y45163D01*
X401556Y45080D01*
X401501Y44999D01*
X401442Y44920D01*
X401381Y44843D01*
X401316Y44769D01*
X401249Y44698D01*
X401179Y44629D01*
X401106Y44563D01*
X401031Y44500D01*
X400953Y44440D01*
X400873Y44383D01*
X400791Y44330D01*
X400706Y44280D01*
X400620Y44233D01*
X400532Y44189D01*
X400442Y44150D01*
X400351Y44113D01*
X400258Y44081D01*
X400164Y44052D01*
X400070Y44027D01*
X399974Y44006D01*
X399877Y43988D01*
X399780Y43975D01*
X399682Y43965D01*
X399584Y43959D01*
X399486Y43957D01*
X395041Y44450D02*
X394954Y44452D01*
X394866Y44458D01*
X394779Y44467D01*
X394693Y44481D01*
X394607Y44498D01*
X394523Y44519D01*
X394439Y44544D01*
X394356Y44573D01*
X394275Y44605D01*
X394195Y44640D01*
X394117Y44679D01*
X394040Y44722D01*
X393966Y44768D01*
X393894Y44817D01*
X393824Y44869D01*
X393756Y44925D01*
X393691Y44983D01*
X393628Y45044D01*
X393569Y45108D01*
X393512Y45175D01*
X393458Y45243D01*
X393407Y45315D01*
X393360Y45388D01*
X393315Y45463D01*
X393274Y45541D01*
X393237Y45620D01*
X393203Y45700D01*
X393173Y45782D01*
X393146Y45865D01*
X393123Y45950D01*
X393104Y46035D01*
X393089Y46121D01*
X393077Y46208D01*
X393069Y46295D01*
X393065Y46382D01*
X393065Y46470D01*
X393069Y46557D01*
X393077Y46644D01*
X393089Y46731D01*
X393104Y46817D01*
X393123Y46902D01*
X393146Y46987D01*
X393173Y47070D01*
X393203Y47152D01*
X393237Y47232D01*
X393274Y47311D01*
X393315Y47389D01*
X393360Y47464D01*
X393407Y47537D01*
X393458Y47609D01*
X393512Y47677D01*
X393569Y47744D01*
X393628Y47808D01*
X393691Y47869D01*
X393756Y47927D01*
X393824Y47983D01*
X393894Y48035D01*
X393966Y48084D01*
X394040Y48130D01*
X394117Y48173D01*
X394195Y48212D01*
X394275Y48247D01*
X394356Y48279D01*
X394439Y48308D01*
X394523Y48333D01*
X394607Y48354D01*
X394693Y48371D01*
X394779Y48385D01*
X394866Y48394D01*
X394954Y48400D01*
X395041Y48402D01*
X395128Y48400D01*
X395216Y48394D01*
X395303Y48385D01*
X395389Y48371D01*
X395475Y48354D01*
X395559Y48333D01*
X395643Y48308D01*
X395726Y48279D01*
X395807Y48247D01*
X395887Y48212D01*
X395965Y48173D01*
X396042Y48130D01*
X396116Y48084D01*
X396188Y48035D01*
X396258Y47983D01*
X396326Y47927D01*
X396391Y47869D01*
X396454Y47808D01*
X396513Y47744D01*
X396570Y47677D01*
X396624Y47609D01*
X396675Y47537D01*
X396722Y47464D01*
X396767Y47389D01*
X396808Y47311D01*
X396845Y47232D01*
X396879Y47152D01*
X396909Y47070D01*
X396936Y46987D01*
X396959Y46902D01*
X396978Y46817D01*
X396993Y46731D01*
X397005Y46644D01*
X397013Y46557D01*
X397017Y46470D01*
X397017Y46382D01*
X397013Y46295D01*
X397005Y46208D01*
X396993Y46121D01*
X396978Y46035D01*
X396959Y45950D01*
X396936Y45865D01*
X396909Y45782D01*
X396879Y45700D01*
X396845Y45620D01*
X396808Y45541D01*
X396767Y45463D01*
X396722Y45388D01*
X396675Y45315D01*
X396624Y45243D01*
X396570Y45175D01*
X396513Y45108D01*
X396454Y45044D01*
X396391Y44983D01*
X396326Y44925D01*
X396258Y44869D01*
X396188Y44817D01*
X396116Y44768D01*
X396042Y44722D01*
X395965Y44679D01*
X395887Y44640D01*
X395807Y44605D01*
X395726Y44573D01*
X395643Y44544D01*
X395559Y44519D01*
X395475Y44498D01*
X395389Y44481D01*
X395303Y44467D01*
X395216Y44458D01*
X395128Y44452D01*
X395041Y44450D01*
D21*
X372360Y22100D02*
X372360Y13460D01*
X379480Y13460D02*
X379480Y22100D01*
D23*
X375920Y11430D03*
X375920Y24130D03*
D12*
X372745Y36158D02*
X381635Y36158D01*
X372745Y36158D02*
X372745Y38627D01*
X372747Y38725D01*
X372753Y38823D01*
X372763Y38921D01*
X372776Y39018D01*
X372794Y39115D01*
X372815Y39211D01*
X372840Y39305D01*
X372869Y39399D01*
X372901Y39492D01*
X372938Y39583D01*
X372977Y39673D01*
X373021Y39761D01*
X373068Y39847D01*
X373118Y39932D01*
X373171Y40014D01*
X373228Y40094D01*
X373288Y40172D01*
X373351Y40247D01*
X373417Y40320D01*
X373486Y40390D01*
X373557Y40457D01*
X373631Y40522D01*
X373708Y40583D01*
X373787Y40642D01*
X373868Y40697D01*
X373951Y40749D01*
X374037Y40797D01*
X374124Y40842D01*
X374213Y40884D01*
X374303Y40922D01*
X374395Y40956D01*
X374488Y40987D01*
X374583Y41014D01*
X374678Y41037D01*
X374775Y41057D01*
X374871Y41072D01*
X374969Y41084D01*
X375067Y41092D01*
X375165Y41096D01*
X375263Y41096D01*
X375361Y41092D01*
X375459Y41084D01*
X375557Y41072D01*
X375653Y41057D01*
X375750Y41037D01*
X375845Y41014D01*
X375940Y40987D01*
X376033Y40956D01*
X376125Y40922D01*
X376215Y40884D01*
X376304Y40842D01*
X376391Y40797D01*
X376477Y40749D01*
X376560Y40697D01*
X376641Y40642D01*
X376720Y40583D01*
X376797Y40522D01*
X376871Y40457D01*
X376942Y40390D01*
X377011Y40320D01*
X377077Y40247D01*
X377140Y40172D01*
X377200Y40094D01*
X377257Y40014D01*
X377310Y39932D01*
X377360Y39847D01*
X377407Y39761D01*
X377451Y39673D01*
X377490Y39583D01*
X377527Y39492D01*
X377559Y39399D01*
X377588Y39305D01*
X377613Y39211D01*
X377634Y39115D01*
X377652Y39018D01*
X377665Y38921D01*
X377675Y38823D01*
X377681Y38725D01*
X377683Y38627D01*
X377684Y38627D02*
X377684Y36158D01*
X377684Y39121D02*
X381635Y41096D01*
X377684Y47202D02*
X377684Y50165D01*
X377684Y47202D02*
X377682Y47116D01*
X377676Y47030D01*
X377667Y46944D01*
X377654Y46859D01*
X377637Y46774D01*
X377617Y46691D01*
X377593Y46608D01*
X377565Y46526D01*
X377534Y46446D01*
X377499Y46367D01*
X377461Y46290D01*
X377419Y46214D01*
X377375Y46140D01*
X377327Y46069D01*
X377276Y45999D01*
X377222Y45932D01*
X377165Y45867D01*
X377105Y45805D01*
X377043Y45745D01*
X376978Y45688D01*
X376911Y45634D01*
X376841Y45583D01*
X376770Y45535D01*
X376696Y45491D01*
X376620Y45449D01*
X376543Y45411D01*
X376464Y45376D01*
X376384Y45345D01*
X376302Y45317D01*
X376219Y45293D01*
X376136Y45273D01*
X376051Y45256D01*
X375966Y45243D01*
X375880Y45234D01*
X375794Y45228D01*
X375708Y45226D01*
X375214Y45226D01*
X375214Y45227D02*
X375116Y45229D01*
X375018Y45235D01*
X374920Y45245D01*
X374823Y45258D01*
X374726Y45276D01*
X374630Y45297D01*
X374536Y45322D01*
X374442Y45351D01*
X374349Y45383D01*
X374258Y45420D01*
X374168Y45459D01*
X374080Y45503D01*
X373994Y45550D01*
X373909Y45600D01*
X373827Y45653D01*
X373747Y45710D01*
X373669Y45770D01*
X373594Y45833D01*
X373521Y45899D01*
X373451Y45968D01*
X373384Y46039D01*
X373319Y46113D01*
X373258Y46190D01*
X373199Y46269D01*
X373144Y46350D01*
X373092Y46433D01*
X373044Y46519D01*
X372999Y46606D01*
X372957Y46695D01*
X372919Y46785D01*
X372885Y46877D01*
X372854Y46970D01*
X372827Y47065D01*
X372804Y47160D01*
X372784Y47257D01*
X372769Y47353D01*
X372757Y47451D01*
X372749Y47549D01*
X372745Y47647D01*
X372745Y47745D01*
X372749Y47843D01*
X372757Y47941D01*
X372769Y48039D01*
X372784Y48135D01*
X372804Y48232D01*
X372827Y48327D01*
X372854Y48422D01*
X372885Y48515D01*
X372919Y48607D01*
X372957Y48697D01*
X372999Y48786D01*
X373044Y48873D01*
X373092Y48959D01*
X373144Y49042D01*
X373199Y49123D01*
X373258Y49202D01*
X373319Y49279D01*
X373384Y49353D01*
X373451Y49424D01*
X373521Y49493D01*
X373594Y49559D01*
X373669Y49622D01*
X373747Y49682D01*
X373827Y49739D01*
X373909Y49792D01*
X373994Y49842D01*
X374080Y49889D01*
X374168Y49933D01*
X374258Y49972D01*
X374349Y50009D01*
X374442Y50041D01*
X374536Y50070D01*
X374630Y50095D01*
X374726Y50116D01*
X374823Y50134D01*
X374920Y50147D01*
X375018Y50157D01*
X375116Y50163D01*
X375214Y50165D01*
X377684Y50165D01*
X377808Y50163D01*
X377932Y50157D01*
X378056Y50147D01*
X378179Y50134D01*
X378302Y50116D01*
X378424Y50095D01*
X378546Y50070D01*
X378667Y50041D01*
X378786Y50008D01*
X378905Y49972D01*
X379022Y49931D01*
X379138Y49888D01*
X379253Y49840D01*
X379366Y49789D01*
X379478Y49734D01*
X379587Y49676D01*
X379695Y49615D01*
X379801Y49550D01*
X379905Y49482D01*
X380006Y49410D01*
X380106Y49336D01*
X380202Y49258D01*
X380297Y49178D01*
X380389Y49094D01*
X380478Y49008D01*
X380564Y48919D01*
X380648Y48827D01*
X380728Y48732D01*
X380806Y48636D01*
X380880Y48536D01*
X380952Y48435D01*
X381020Y48331D01*
X381085Y48225D01*
X381146Y48117D01*
X381204Y48008D01*
X381259Y47896D01*
X381310Y47783D01*
X381358Y47668D01*
X381401Y47552D01*
X381442Y47435D01*
X381478Y47316D01*
X381511Y47197D01*
X381540Y47076D01*
X381565Y46954D01*
X381586Y46832D01*
X381604Y46709D01*
X381617Y46586D01*
X381627Y46462D01*
X381633Y46338D01*
X381635Y46214D01*
D21*
X350770Y22100D02*
X350770Y13460D01*
X357890Y13460D02*
X357890Y22100D01*
D23*
X354330Y11430D03*
X354330Y24130D03*
D12*
X357505Y35904D02*
X366395Y35904D01*
X357505Y35904D02*
X357505Y38373D01*
X357507Y38471D01*
X357513Y38569D01*
X357523Y38667D01*
X357536Y38764D01*
X357554Y38861D01*
X357575Y38957D01*
X357600Y39051D01*
X357629Y39145D01*
X357661Y39238D01*
X357698Y39329D01*
X357737Y39419D01*
X357781Y39507D01*
X357828Y39593D01*
X357878Y39678D01*
X357931Y39760D01*
X357988Y39840D01*
X358048Y39918D01*
X358111Y39993D01*
X358177Y40066D01*
X358246Y40136D01*
X358317Y40203D01*
X358391Y40268D01*
X358468Y40329D01*
X358547Y40388D01*
X358628Y40443D01*
X358711Y40495D01*
X358797Y40543D01*
X358884Y40588D01*
X358973Y40630D01*
X359063Y40668D01*
X359155Y40702D01*
X359248Y40733D01*
X359343Y40760D01*
X359438Y40783D01*
X359535Y40803D01*
X359631Y40818D01*
X359729Y40830D01*
X359827Y40838D01*
X359925Y40842D01*
X360023Y40842D01*
X360121Y40838D01*
X360219Y40830D01*
X360317Y40818D01*
X360413Y40803D01*
X360510Y40783D01*
X360605Y40760D01*
X360700Y40733D01*
X360793Y40702D01*
X360885Y40668D01*
X360975Y40630D01*
X361064Y40588D01*
X361151Y40543D01*
X361237Y40495D01*
X361320Y40443D01*
X361401Y40388D01*
X361480Y40329D01*
X361557Y40268D01*
X361631Y40203D01*
X361702Y40136D01*
X361771Y40066D01*
X361837Y39993D01*
X361900Y39918D01*
X361960Y39840D01*
X362017Y39760D01*
X362070Y39678D01*
X362120Y39593D01*
X362167Y39507D01*
X362211Y39419D01*
X362250Y39329D01*
X362287Y39238D01*
X362319Y39145D01*
X362348Y39051D01*
X362373Y38957D01*
X362394Y38861D01*
X362412Y38764D01*
X362425Y38667D01*
X362435Y38569D01*
X362441Y38471D01*
X362443Y38373D01*
X362444Y38373D02*
X362444Y35904D01*
X362444Y38867D02*
X366395Y40842D01*
X359481Y44972D02*
X357505Y47442D01*
X366395Y47442D01*
X366395Y49911D02*
X366395Y44972D01*
X361950Y54116D02*
X361775Y54118D01*
X361600Y54124D01*
X361426Y54135D01*
X361251Y54149D01*
X361078Y54168D01*
X360904Y54191D01*
X360731Y54218D01*
X360559Y54249D01*
X360388Y54284D01*
X360218Y54324D01*
X360048Y54367D01*
X359880Y54415D01*
X359713Y54466D01*
X359547Y54521D01*
X359382Y54581D01*
X359219Y54644D01*
X359058Y54711D01*
X358898Y54782D01*
X358740Y54857D01*
X358739Y54858D02*
X358661Y54887D01*
X358583Y54919D01*
X358508Y54956D01*
X358434Y54995D01*
X358362Y55038D01*
X358291Y55084D01*
X358224Y55134D01*
X358158Y55186D01*
X358095Y55241D01*
X358035Y55300D01*
X357977Y55361D01*
X357922Y55424D01*
X357870Y55490D01*
X357821Y55559D01*
X357776Y55629D01*
X357733Y55701D01*
X357694Y55776D01*
X357659Y55852D01*
X357627Y55929D01*
X357599Y56008D01*
X357574Y56089D01*
X357553Y56170D01*
X357536Y56252D01*
X357522Y56335D01*
X357513Y56418D01*
X357507Y56502D01*
X357505Y56586D01*
X357507Y56670D01*
X357513Y56754D01*
X357522Y56837D01*
X357536Y56920D01*
X357553Y57002D01*
X357574Y57083D01*
X357599Y57164D01*
X357627Y57243D01*
X357659Y57320D01*
X357694Y57396D01*
X357733Y57471D01*
X357776Y57543D01*
X357821Y57614D01*
X357870Y57682D01*
X357922Y57748D01*
X357977Y57811D01*
X358035Y57872D01*
X358095Y57931D01*
X358158Y57986D01*
X358224Y58038D01*
X358291Y58088D01*
X358362Y58134D01*
X358434Y58177D01*
X358508Y58216D01*
X358583Y58253D01*
X358661Y58285D01*
X358740Y58314D01*
X358898Y58389D01*
X359058Y58460D01*
X359219Y58527D01*
X359382Y58590D01*
X359547Y58650D01*
X359713Y58705D01*
X359880Y58756D01*
X360048Y58804D01*
X360218Y58847D01*
X360388Y58887D01*
X360559Y58922D01*
X360731Y58953D01*
X360904Y58980D01*
X361078Y59003D01*
X361251Y59022D01*
X361426Y59036D01*
X361600Y59047D01*
X361775Y59053D01*
X361950Y59055D01*
X361950Y54116D02*
X362125Y54118D01*
X362300Y54124D01*
X362474Y54135D01*
X362649Y54149D01*
X362822Y54168D01*
X362996Y54191D01*
X363169Y54218D01*
X363341Y54249D01*
X363512Y54284D01*
X363682Y54324D01*
X363852Y54367D01*
X364020Y54415D01*
X364187Y54466D01*
X364353Y54521D01*
X364518Y54581D01*
X364681Y54644D01*
X364842Y54711D01*
X365002Y54782D01*
X365160Y54857D01*
X365161Y54858D02*
X365239Y54887D01*
X365317Y54919D01*
X365392Y54956D01*
X365466Y54995D01*
X365539Y55038D01*
X365609Y55084D01*
X365676Y55134D01*
X365742Y55186D01*
X365805Y55242D01*
X365866Y55300D01*
X365923Y55361D01*
X365978Y55424D01*
X366030Y55490D01*
X366079Y55559D01*
X366124Y55629D01*
X366167Y55701D01*
X366206Y55776D01*
X366241Y55852D01*
X366273Y55930D01*
X366301Y56009D01*
X366326Y56089D01*
X366347Y56170D01*
X366364Y56252D01*
X366378Y56335D01*
X366387Y56418D01*
X366393Y56502D01*
X366395Y56586D01*
X365160Y58314D02*
X365002Y58389D01*
X364842Y58460D01*
X364681Y58527D01*
X364518Y58590D01*
X364353Y58650D01*
X364187Y58705D01*
X364020Y58756D01*
X363852Y58804D01*
X363682Y58847D01*
X363512Y58887D01*
X363341Y58922D01*
X363169Y58953D01*
X362996Y58980D01*
X362822Y59003D01*
X362649Y59022D01*
X362474Y59036D01*
X362300Y59047D01*
X362125Y59053D01*
X361950Y59055D01*
X365161Y58314D02*
X365239Y58285D01*
X365317Y58253D01*
X365392Y58216D01*
X365466Y58177D01*
X365539Y58134D01*
X365609Y58088D01*
X365676Y58038D01*
X365742Y57986D01*
X365805Y57930D01*
X365865Y57872D01*
X365923Y57811D01*
X365978Y57748D01*
X366030Y57682D01*
X366079Y57613D01*
X366124Y57543D01*
X366167Y57471D01*
X366206Y57396D01*
X366241Y57320D01*
X366273Y57243D01*
X366301Y57164D01*
X366326Y57083D01*
X366347Y57002D01*
X366364Y56920D01*
X366378Y56837D01*
X366387Y56754D01*
X366393Y56670D01*
X366395Y56586D01*
X364419Y54610D02*
X359481Y58561D01*
X380055Y144240D02*
X417505Y144240D01*
X417505Y127540D02*
X380055Y127540D01*
X395605Y135890D02*
X401955Y131127D01*
X401955Y135890D01*
X401955Y140653D01*
X395605Y135890D01*
X395605Y131127D01*
X395605Y135890D02*
X395605Y140653D01*
X401955Y135890D02*
X404393Y135890D01*
X395605Y135890D02*
X393167Y135890D01*
D24*
X381093Y135890D03*
X416468Y135890D03*
D25*
X390343Y135890D03*
D12*
X391795Y120015D02*
X391795Y111125D01*
X391795Y120015D02*
X394264Y120015D01*
X394361Y120013D01*
X394458Y120007D01*
X394554Y119998D01*
X394650Y119985D01*
X394746Y119968D01*
X394840Y119947D01*
X394934Y119922D01*
X395027Y119894D01*
X395119Y119862D01*
X395209Y119827D01*
X395298Y119788D01*
X395385Y119746D01*
X395470Y119700D01*
X395554Y119651D01*
X395636Y119599D01*
X395715Y119543D01*
X395793Y119485D01*
X395867Y119423D01*
X395940Y119359D01*
X396010Y119292D01*
X396077Y119222D01*
X396141Y119149D01*
X396203Y119075D01*
X396261Y118997D01*
X396317Y118918D01*
X396369Y118836D01*
X396418Y118752D01*
X396464Y118667D01*
X396506Y118580D01*
X396545Y118491D01*
X396580Y118401D01*
X396612Y118309D01*
X396640Y118216D01*
X396665Y118122D01*
X396686Y118028D01*
X396703Y117932D01*
X396716Y117836D01*
X396725Y117740D01*
X396731Y117643D01*
X396733Y117546D01*
X396734Y117546D02*
X396734Y113594D01*
X396733Y113594D02*
X396731Y113497D01*
X396725Y113400D01*
X396716Y113304D01*
X396703Y113208D01*
X396686Y113112D01*
X396665Y113018D01*
X396640Y112924D01*
X396612Y112831D01*
X396580Y112739D01*
X396545Y112649D01*
X396506Y112560D01*
X396464Y112473D01*
X396418Y112388D01*
X396369Y112304D01*
X396317Y112222D01*
X396261Y112143D01*
X396203Y112065D01*
X396141Y111991D01*
X396077Y111918D01*
X396010Y111848D01*
X395940Y111781D01*
X395867Y111717D01*
X395793Y111655D01*
X395715Y111597D01*
X395636Y111541D01*
X395554Y111489D01*
X395470Y111440D01*
X395385Y111394D01*
X395298Y111352D01*
X395209Y111313D01*
X395119Y111278D01*
X395027Y111246D01*
X394934Y111218D01*
X394840Y111193D01*
X394746Y111172D01*
X394650Y111155D01*
X394554Y111142D01*
X394458Y111133D01*
X394361Y111127D01*
X394264Y111125D01*
X391795Y111125D01*
X401244Y118039D02*
X403713Y120015D01*
X403713Y111125D01*
X401244Y111125D02*
X406183Y111125D01*
D21*
X325630Y13720D02*
X316990Y13720D01*
X316990Y6600D02*
X325630Y6600D01*
D22*
X314960Y10160D03*
X327660Y10160D03*
D12*
X310224Y50165D02*
X310224Y59055D01*
X312693Y59055D01*
X312791Y59053D01*
X312889Y59047D01*
X312987Y59037D01*
X313084Y59024D01*
X313181Y59006D01*
X313277Y58985D01*
X313371Y58960D01*
X313465Y58931D01*
X313558Y58899D01*
X313649Y58862D01*
X313739Y58823D01*
X313827Y58779D01*
X313913Y58732D01*
X313998Y58682D01*
X314080Y58629D01*
X314160Y58572D01*
X314238Y58512D01*
X314313Y58449D01*
X314386Y58383D01*
X314456Y58314D01*
X314523Y58243D01*
X314588Y58169D01*
X314649Y58092D01*
X314708Y58013D01*
X314763Y57932D01*
X314815Y57849D01*
X314863Y57763D01*
X314908Y57676D01*
X314950Y57587D01*
X314988Y57497D01*
X315022Y57405D01*
X315053Y57312D01*
X315080Y57217D01*
X315103Y57122D01*
X315123Y57025D01*
X315138Y56929D01*
X315150Y56831D01*
X315158Y56733D01*
X315162Y56635D01*
X315162Y56537D01*
X315158Y56439D01*
X315150Y56341D01*
X315138Y56243D01*
X315123Y56147D01*
X315103Y56050D01*
X315080Y55955D01*
X315053Y55860D01*
X315022Y55767D01*
X314988Y55675D01*
X314950Y55585D01*
X314908Y55496D01*
X314863Y55409D01*
X314815Y55323D01*
X314763Y55240D01*
X314708Y55159D01*
X314649Y55080D01*
X314588Y55003D01*
X314523Y54929D01*
X314456Y54858D01*
X314386Y54789D01*
X314313Y54723D01*
X314238Y54660D01*
X314160Y54600D01*
X314080Y54543D01*
X313998Y54490D01*
X313913Y54440D01*
X313827Y54393D01*
X313739Y54349D01*
X313649Y54310D01*
X313558Y54273D01*
X313465Y54241D01*
X313371Y54212D01*
X313277Y54187D01*
X313181Y54166D01*
X313084Y54148D01*
X312987Y54135D01*
X312889Y54125D01*
X312791Y54119D01*
X312693Y54117D01*
X312693Y54116D02*
X310224Y54116D01*
X313187Y54116D02*
X315162Y50165D01*
X319292Y57079D02*
X321762Y59055D01*
X321762Y50165D01*
X324231Y50165D02*
X319292Y50165D01*
X328436Y52141D02*
X330412Y59055D01*
X328436Y52141D02*
X333375Y52141D01*
X331893Y54116D02*
X331893Y50165D01*
D21*
X295150Y13720D02*
X286510Y13720D01*
X286510Y6600D02*
X295150Y6600D01*
D22*
X284480Y10160D03*
X297180Y10160D03*
D12*
X278474Y20955D02*
X278474Y29845D01*
X280943Y29845D01*
X281041Y29843D01*
X281139Y29837D01*
X281237Y29827D01*
X281334Y29814D01*
X281431Y29796D01*
X281527Y29775D01*
X281621Y29750D01*
X281715Y29721D01*
X281808Y29689D01*
X281899Y29652D01*
X281989Y29613D01*
X282077Y29569D01*
X282163Y29522D01*
X282248Y29472D01*
X282330Y29419D01*
X282410Y29362D01*
X282488Y29302D01*
X282563Y29239D01*
X282636Y29173D01*
X282706Y29104D01*
X282773Y29033D01*
X282838Y28959D01*
X282899Y28882D01*
X282958Y28803D01*
X283013Y28722D01*
X283065Y28639D01*
X283113Y28553D01*
X283158Y28466D01*
X283200Y28377D01*
X283238Y28287D01*
X283272Y28195D01*
X283303Y28102D01*
X283330Y28007D01*
X283353Y27912D01*
X283373Y27815D01*
X283388Y27719D01*
X283400Y27621D01*
X283408Y27523D01*
X283412Y27425D01*
X283412Y27327D01*
X283408Y27229D01*
X283400Y27131D01*
X283388Y27033D01*
X283373Y26937D01*
X283353Y26840D01*
X283330Y26745D01*
X283303Y26650D01*
X283272Y26557D01*
X283238Y26465D01*
X283200Y26375D01*
X283158Y26286D01*
X283113Y26199D01*
X283065Y26113D01*
X283013Y26030D01*
X282958Y25949D01*
X282899Y25870D01*
X282838Y25793D01*
X282773Y25719D01*
X282706Y25648D01*
X282636Y25579D01*
X282563Y25513D01*
X282488Y25450D01*
X282410Y25390D01*
X282330Y25333D01*
X282248Y25280D01*
X282163Y25230D01*
X282077Y25183D01*
X281989Y25139D01*
X281899Y25100D01*
X281808Y25063D01*
X281715Y25031D01*
X281621Y25002D01*
X281527Y24977D01*
X281431Y24956D01*
X281334Y24938D01*
X281237Y24925D01*
X281139Y24915D01*
X281041Y24909D01*
X280943Y24907D01*
X280943Y24906D02*
X278474Y24906D01*
X281437Y24906D02*
X283412Y20955D01*
X287542Y27869D02*
X290012Y29845D01*
X290012Y20955D01*
X292481Y20955D02*
X287542Y20955D01*
X296686Y20955D02*
X299649Y20955D01*
X299738Y20957D01*
X299826Y20963D01*
X299914Y20973D01*
X300002Y20987D01*
X300089Y21005D01*
X300175Y21026D01*
X300260Y21052D01*
X300343Y21081D01*
X300426Y21114D01*
X300506Y21151D01*
X300585Y21191D01*
X300662Y21235D01*
X300738Y21282D01*
X300810Y21332D01*
X300881Y21386D01*
X300949Y21443D01*
X301015Y21503D01*
X301077Y21565D01*
X301137Y21631D01*
X301194Y21699D01*
X301248Y21770D01*
X301298Y21842D01*
X301345Y21917D01*
X301389Y21995D01*
X301429Y22074D01*
X301466Y22154D01*
X301499Y22237D01*
X301528Y22320D01*
X301554Y22405D01*
X301575Y22491D01*
X301593Y22578D01*
X301607Y22666D01*
X301617Y22754D01*
X301623Y22842D01*
X301625Y22931D01*
X301625Y23918D01*
X301623Y24004D01*
X301617Y24090D01*
X301608Y24176D01*
X301595Y24261D01*
X301578Y24346D01*
X301558Y24429D01*
X301534Y24512D01*
X301506Y24594D01*
X301475Y24674D01*
X301440Y24753D01*
X301402Y24830D01*
X301360Y24906D01*
X301316Y24980D01*
X301268Y25051D01*
X301217Y25121D01*
X301163Y25188D01*
X301106Y25253D01*
X301046Y25315D01*
X300984Y25375D01*
X300919Y25432D01*
X300852Y25486D01*
X300782Y25537D01*
X300711Y25585D01*
X300637Y25629D01*
X300561Y25671D01*
X300484Y25709D01*
X300405Y25744D01*
X300325Y25775D01*
X300243Y25803D01*
X300160Y25827D01*
X300077Y25847D01*
X299992Y25864D01*
X299907Y25877D01*
X299821Y25886D01*
X299735Y25892D01*
X299649Y25894D01*
X296686Y25894D01*
X296686Y29845D01*
X301625Y29845D01*
D21*
X316990Y34040D02*
X325630Y34040D01*
X325630Y26920D02*
X316990Y26920D01*
D22*
X314960Y30480D03*
X327660Y30480D03*
D12*
X310224Y61595D02*
X310224Y70485D01*
X312693Y70485D01*
X312791Y70483D01*
X312889Y70477D01*
X312987Y70467D01*
X313084Y70454D01*
X313181Y70436D01*
X313277Y70415D01*
X313371Y70390D01*
X313465Y70361D01*
X313558Y70329D01*
X313649Y70292D01*
X313739Y70253D01*
X313827Y70209D01*
X313913Y70162D01*
X313998Y70112D01*
X314080Y70059D01*
X314160Y70002D01*
X314238Y69942D01*
X314313Y69879D01*
X314386Y69813D01*
X314456Y69744D01*
X314523Y69673D01*
X314588Y69599D01*
X314649Y69522D01*
X314708Y69443D01*
X314763Y69362D01*
X314815Y69279D01*
X314863Y69193D01*
X314908Y69106D01*
X314950Y69017D01*
X314988Y68927D01*
X315022Y68835D01*
X315053Y68742D01*
X315080Y68647D01*
X315103Y68552D01*
X315123Y68455D01*
X315138Y68359D01*
X315150Y68261D01*
X315158Y68163D01*
X315162Y68065D01*
X315162Y67967D01*
X315158Y67869D01*
X315150Y67771D01*
X315138Y67673D01*
X315123Y67577D01*
X315103Y67480D01*
X315080Y67385D01*
X315053Y67290D01*
X315022Y67197D01*
X314988Y67105D01*
X314950Y67015D01*
X314908Y66926D01*
X314863Y66839D01*
X314815Y66753D01*
X314763Y66670D01*
X314708Y66589D01*
X314649Y66510D01*
X314588Y66433D01*
X314523Y66359D01*
X314456Y66288D01*
X314386Y66219D01*
X314313Y66153D01*
X314238Y66090D01*
X314160Y66030D01*
X314080Y65973D01*
X313998Y65920D01*
X313913Y65870D01*
X313827Y65823D01*
X313739Y65779D01*
X313649Y65740D01*
X313558Y65703D01*
X313465Y65671D01*
X313371Y65642D01*
X313277Y65617D01*
X313181Y65596D01*
X313084Y65578D01*
X312987Y65565D01*
X312889Y65555D01*
X312791Y65549D01*
X312693Y65547D01*
X312693Y65546D02*
X310224Y65546D01*
X313187Y65546D02*
X315162Y61595D01*
X319292Y68509D02*
X321762Y70485D01*
X321762Y61595D01*
X324231Y61595D02*
X319292Y61595D01*
X328436Y66534D02*
X331399Y66534D01*
X331485Y66532D01*
X331571Y66526D01*
X331657Y66517D01*
X331742Y66504D01*
X331827Y66487D01*
X331910Y66467D01*
X331993Y66443D01*
X332075Y66415D01*
X332155Y66384D01*
X332234Y66349D01*
X332311Y66311D01*
X332387Y66269D01*
X332461Y66225D01*
X332532Y66177D01*
X332602Y66126D01*
X332669Y66072D01*
X332734Y66015D01*
X332796Y65955D01*
X332856Y65893D01*
X332913Y65828D01*
X332967Y65761D01*
X333018Y65691D01*
X333066Y65620D01*
X333110Y65546D01*
X333152Y65470D01*
X333190Y65393D01*
X333225Y65314D01*
X333256Y65234D01*
X333284Y65152D01*
X333308Y65069D01*
X333328Y64986D01*
X333345Y64901D01*
X333358Y64816D01*
X333367Y64730D01*
X333373Y64644D01*
X333375Y64558D01*
X333375Y64064D01*
X333373Y63966D01*
X333367Y63868D01*
X333357Y63770D01*
X333344Y63673D01*
X333326Y63576D01*
X333305Y63480D01*
X333280Y63386D01*
X333251Y63292D01*
X333219Y63199D01*
X333182Y63108D01*
X333143Y63018D01*
X333099Y62930D01*
X333052Y62844D01*
X333002Y62759D01*
X332949Y62677D01*
X332892Y62597D01*
X332832Y62519D01*
X332769Y62444D01*
X332703Y62371D01*
X332634Y62301D01*
X332563Y62234D01*
X332489Y62169D01*
X332412Y62108D01*
X332333Y62049D01*
X332252Y61994D01*
X332169Y61942D01*
X332083Y61894D01*
X331996Y61849D01*
X331907Y61807D01*
X331817Y61769D01*
X331725Y61735D01*
X331632Y61704D01*
X331537Y61677D01*
X331442Y61654D01*
X331345Y61634D01*
X331249Y61619D01*
X331151Y61607D01*
X331053Y61599D01*
X330955Y61595D01*
X330857Y61595D01*
X330759Y61599D01*
X330661Y61607D01*
X330563Y61619D01*
X330467Y61634D01*
X330370Y61654D01*
X330275Y61677D01*
X330180Y61704D01*
X330087Y61735D01*
X329995Y61769D01*
X329905Y61807D01*
X329816Y61849D01*
X329729Y61894D01*
X329643Y61942D01*
X329560Y61994D01*
X329479Y62049D01*
X329400Y62108D01*
X329323Y62169D01*
X329249Y62234D01*
X329178Y62301D01*
X329109Y62371D01*
X329043Y62444D01*
X328980Y62519D01*
X328920Y62597D01*
X328863Y62677D01*
X328810Y62759D01*
X328760Y62844D01*
X328713Y62930D01*
X328669Y63018D01*
X328630Y63108D01*
X328593Y63199D01*
X328561Y63292D01*
X328532Y63386D01*
X328507Y63480D01*
X328486Y63576D01*
X328468Y63673D01*
X328455Y63770D01*
X328445Y63868D01*
X328439Y63966D01*
X328437Y64064D01*
X328436Y64064D02*
X328436Y66534D01*
X328438Y66658D01*
X328444Y66782D01*
X328454Y66906D01*
X328467Y67029D01*
X328485Y67152D01*
X328506Y67274D01*
X328531Y67396D01*
X328560Y67517D01*
X328593Y67636D01*
X328629Y67755D01*
X328670Y67872D01*
X328713Y67988D01*
X328761Y68103D01*
X328812Y68216D01*
X328867Y68328D01*
X328925Y68437D01*
X328986Y68545D01*
X329051Y68651D01*
X329119Y68755D01*
X329191Y68856D01*
X329265Y68956D01*
X329343Y69052D01*
X329423Y69147D01*
X329507Y69239D01*
X329593Y69328D01*
X329682Y69414D01*
X329774Y69498D01*
X329869Y69578D01*
X329965Y69656D01*
X330065Y69730D01*
X330166Y69802D01*
X330270Y69870D01*
X330376Y69935D01*
X330484Y69996D01*
X330593Y70054D01*
X330705Y70109D01*
X330818Y70160D01*
X330933Y70208D01*
X331049Y70251D01*
X331166Y70292D01*
X331285Y70328D01*
X331404Y70361D01*
X331525Y70390D01*
X331647Y70415D01*
X331769Y70436D01*
X331892Y70454D01*
X332015Y70467D01*
X332139Y70477D01*
X332263Y70483D01*
X332387Y70485D01*
D15*
X240930Y14930D02*
X226430Y14930D01*
X226430Y7930D02*
X240930Y7930D01*
D16*
X227430Y11430D03*
X239930Y11430D03*
D12*
X232806Y19835D02*
X230831Y19835D01*
X230745Y19837D01*
X230659Y19843D01*
X230573Y19852D01*
X230488Y19865D01*
X230403Y19882D01*
X230320Y19902D01*
X230237Y19926D01*
X230155Y19954D01*
X230075Y19985D01*
X229996Y20020D01*
X229919Y20058D01*
X229843Y20100D01*
X229769Y20144D01*
X229698Y20192D01*
X229628Y20243D01*
X229561Y20297D01*
X229496Y20354D01*
X229434Y20414D01*
X229374Y20476D01*
X229317Y20541D01*
X229263Y20608D01*
X229212Y20678D01*
X229164Y20749D01*
X229120Y20823D01*
X229078Y20899D01*
X229040Y20976D01*
X229005Y21055D01*
X228974Y21135D01*
X228946Y21217D01*
X228922Y21300D01*
X228902Y21383D01*
X228885Y21468D01*
X228872Y21553D01*
X228863Y21639D01*
X228857Y21725D01*
X228855Y21811D01*
X228855Y26749D01*
X228857Y26838D01*
X228863Y26926D01*
X228873Y27014D01*
X228887Y27102D01*
X228905Y27189D01*
X228926Y27275D01*
X228952Y27360D01*
X228981Y27443D01*
X229014Y27526D01*
X229051Y27606D01*
X229091Y27685D01*
X229135Y27762D01*
X229182Y27838D01*
X229232Y27910D01*
X229286Y27981D01*
X229343Y28049D01*
X229403Y28115D01*
X229465Y28177D01*
X229531Y28237D01*
X229599Y28294D01*
X229670Y28348D01*
X229742Y28398D01*
X229817Y28445D01*
X229895Y28489D01*
X229974Y28529D01*
X230054Y28566D01*
X230137Y28599D01*
X230220Y28628D01*
X230305Y28654D01*
X230391Y28675D01*
X230478Y28693D01*
X230566Y28707D01*
X230654Y28717D01*
X230742Y28723D01*
X230831Y28725D01*
X232806Y28725D01*
X236509Y19835D02*
X239472Y19835D01*
X239561Y19837D01*
X239649Y19843D01*
X239737Y19853D01*
X239825Y19867D01*
X239912Y19885D01*
X239998Y19906D01*
X240083Y19932D01*
X240166Y19961D01*
X240249Y19994D01*
X240329Y20031D01*
X240408Y20071D01*
X240485Y20115D01*
X240561Y20162D01*
X240633Y20212D01*
X240704Y20266D01*
X240772Y20323D01*
X240838Y20383D01*
X240900Y20445D01*
X240960Y20511D01*
X241017Y20579D01*
X241071Y20650D01*
X241121Y20722D01*
X241168Y20797D01*
X241212Y20875D01*
X241252Y20954D01*
X241289Y21034D01*
X241322Y21117D01*
X241351Y21200D01*
X241377Y21285D01*
X241398Y21371D01*
X241416Y21458D01*
X241430Y21546D01*
X241440Y21634D01*
X241446Y21722D01*
X241448Y21811D01*
X241448Y22798D01*
X241446Y22884D01*
X241440Y22970D01*
X241431Y23056D01*
X241418Y23141D01*
X241401Y23226D01*
X241381Y23309D01*
X241357Y23392D01*
X241329Y23474D01*
X241298Y23554D01*
X241263Y23633D01*
X241225Y23710D01*
X241183Y23786D01*
X241139Y23860D01*
X241091Y23931D01*
X241040Y24001D01*
X240986Y24068D01*
X240929Y24133D01*
X240869Y24195D01*
X240807Y24255D01*
X240742Y24312D01*
X240675Y24366D01*
X240605Y24417D01*
X240534Y24465D01*
X240460Y24509D01*
X240384Y24551D01*
X240307Y24589D01*
X240228Y24624D01*
X240148Y24655D01*
X240066Y24683D01*
X239983Y24707D01*
X239900Y24727D01*
X239815Y24744D01*
X239730Y24757D01*
X239644Y24766D01*
X239558Y24772D01*
X239472Y24774D01*
X236509Y24774D01*
X236509Y28725D01*
X241448Y28725D01*
M02*
