G04 EAGLE Gerber RS-274X export*
G75*
%MOMM*%
%FSLAX34Y34*%
%LPD*%
%INSilkscreen Bottom PLS SSB*%
%IPPOS*%
%AMOC8*
5,1,8,0,0,1.08239X$1,22.5*%
G01*
%ADD10C,0.000000*%
%ADD11C,0.152400*%
%ADD12C,0.200000*%
%ADD13C,0.100000*%
%ADD14R,1.397000X0.571500*%
%ADD15C,0.127000*%
%ADD16C,0.254000*%
%ADD17C,0.203200*%
%ADD18C,0.200000*%
%ADD19R,0.508000X0.508000*%
%ADD20R,0.406400X0.863600*%
%ADD21C,0.101600*%
%ADD22R,0.800000X0.350000*%


D10*
X0Y0D02*
X558800Y0D01*
X558800Y152400D01*
X0Y152400D01*
X0Y0D01*
X529750Y17780D02*
X529753Y18025D01*
X529762Y18271D01*
X529777Y18516D01*
X529798Y18760D01*
X529825Y19004D01*
X529858Y19247D01*
X529897Y19490D01*
X529942Y19731D01*
X529993Y19971D01*
X530050Y20210D01*
X530112Y20447D01*
X530181Y20683D01*
X530255Y20917D01*
X530335Y21149D01*
X530420Y21379D01*
X530511Y21607D01*
X530608Y21832D01*
X530710Y22056D01*
X530818Y22276D01*
X530931Y22494D01*
X531049Y22709D01*
X531173Y22921D01*
X531301Y23130D01*
X531435Y23336D01*
X531574Y23538D01*
X531718Y23737D01*
X531867Y23932D01*
X532020Y24124D01*
X532178Y24312D01*
X532340Y24496D01*
X532508Y24675D01*
X532679Y24851D01*
X532855Y25022D01*
X533034Y25190D01*
X533218Y25352D01*
X533406Y25510D01*
X533598Y25663D01*
X533793Y25812D01*
X533992Y25956D01*
X534194Y26095D01*
X534400Y26229D01*
X534609Y26357D01*
X534821Y26481D01*
X535036Y26599D01*
X535254Y26712D01*
X535474Y26820D01*
X535698Y26922D01*
X535923Y27019D01*
X536151Y27110D01*
X536381Y27195D01*
X536613Y27275D01*
X536847Y27349D01*
X537083Y27418D01*
X537320Y27480D01*
X537559Y27537D01*
X537799Y27588D01*
X538040Y27633D01*
X538283Y27672D01*
X538526Y27705D01*
X538770Y27732D01*
X539014Y27753D01*
X539259Y27768D01*
X539505Y27777D01*
X539750Y27780D01*
X539995Y27777D01*
X540241Y27768D01*
X540486Y27753D01*
X540730Y27732D01*
X540974Y27705D01*
X541217Y27672D01*
X541460Y27633D01*
X541701Y27588D01*
X541941Y27537D01*
X542180Y27480D01*
X542417Y27418D01*
X542653Y27349D01*
X542887Y27275D01*
X543119Y27195D01*
X543349Y27110D01*
X543577Y27019D01*
X543802Y26922D01*
X544026Y26820D01*
X544246Y26712D01*
X544464Y26599D01*
X544679Y26481D01*
X544891Y26357D01*
X545100Y26229D01*
X545306Y26095D01*
X545508Y25956D01*
X545707Y25812D01*
X545902Y25663D01*
X546094Y25510D01*
X546282Y25352D01*
X546466Y25190D01*
X546645Y25022D01*
X546821Y24851D01*
X546992Y24675D01*
X547160Y24496D01*
X547322Y24312D01*
X547480Y24124D01*
X547633Y23932D01*
X547782Y23737D01*
X547926Y23538D01*
X548065Y23336D01*
X548199Y23130D01*
X548327Y22921D01*
X548451Y22709D01*
X548569Y22494D01*
X548682Y22276D01*
X548790Y22056D01*
X548892Y21832D01*
X548989Y21607D01*
X549080Y21379D01*
X549165Y21149D01*
X549245Y20917D01*
X549319Y20683D01*
X549388Y20447D01*
X549450Y20210D01*
X549507Y19971D01*
X549558Y19731D01*
X549603Y19490D01*
X549642Y19247D01*
X549675Y19004D01*
X549702Y18760D01*
X549723Y18516D01*
X549738Y18271D01*
X549747Y18025D01*
X549750Y17780D01*
X549747Y17535D01*
X549738Y17289D01*
X549723Y17044D01*
X549702Y16800D01*
X549675Y16556D01*
X549642Y16313D01*
X549603Y16070D01*
X549558Y15829D01*
X549507Y15589D01*
X549450Y15350D01*
X549388Y15113D01*
X549319Y14877D01*
X549245Y14643D01*
X549165Y14411D01*
X549080Y14181D01*
X548989Y13953D01*
X548892Y13728D01*
X548790Y13504D01*
X548682Y13284D01*
X548569Y13066D01*
X548451Y12851D01*
X548327Y12639D01*
X548199Y12430D01*
X548065Y12224D01*
X547926Y12022D01*
X547782Y11823D01*
X547633Y11628D01*
X547480Y11436D01*
X547322Y11248D01*
X547160Y11064D01*
X546992Y10885D01*
X546821Y10709D01*
X546645Y10538D01*
X546466Y10370D01*
X546282Y10208D01*
X546094Y10050D01*
X545902Y9897D01*
X545707Y9748D01*
X545508Y9604D01*
X545306Y9465D01*
X545100Y9331D01*
X544891Y9203D01*
X544679Y9079D01*
X544464Y8961D01*
X544246Y8848D01*
X544026Y8740D01*
X543802Y8638D01*
X543577Y8541D01*
X543349Y8450D01*
X543119Y8365D01*
X542887Y8285D01*
X542653Y8211D01*
X542417Y8142D01*
X542180Y8080D01*
X541941Y8023D01*
X541701Y7972D01*
X541460Y7927D01*
X541217Y7888D01*
X540974Y7855D01*
X540730Y7828D01*
X540486Y7807D01*
X540241Y7792D01*
X539995Y7783D01*
X539750Y7780D01*
X539505Y7783D01*
X539259Y7792D01*
X539014Y7807D01*
X538770Y7828D01*
X538526Y7855D01*
X538283Y7888D01*
X538040Y7927D01*
X537799Y7972D01*
X537559Y8023D01*
X537320Y8080D01*
X537083Y8142D01*
X536847Y8211D01*
X536613Y8285D01*
X536381Y8365D01*
X536151Y8450D01*
X535923Y8541D01*
X535698Y8638D01*
X535474Y8740D01*
X535254Y8848D01*
X535036Y8961D01*
X534821Y9079D01*
X534609Y9203D01*
X534400Y9331D01*
X534194Y9465D01*
X533992Y9604D01*
X533793Y9748D01*
X533598Y9897D01*
X533406Y10050D01*
X533218Y10208D01*
X533034Y10370D01*
X532855Y10538D01*
X532679Y10709D01*
X532508Y10885D01*
X532340Y11064D01*
X532178Y11248D01*
X532020Y11436D01*
X531867Y11628D01*
X531718Y11823D01*
X531574Y12022D01*
X531435Y12224D01*
X531301Y12430D01*
X531173Y12639D01*
X531049Y12851D01*
X530931Y13066D01*
X530818Y13284D01*
X530710Y13504D01*
X530608Y13728D01*
X530511Y13953D01*
X530420Y14181D01*
X530335Y14411D01*
X530255Y14643D01*
X530181Y14877D01*
X530112Y15113D01*
X530050Y15350D01*
X529993Y15589D01*
X529942Y15829D01*
X529897Y16070D01*
X529858Y16313D01*
X529825Y16556D01*
X529798Y16800D01*
X529777Y17044D01*
X529762Y17289D01*
X529753Y17535D01*
X529750Y17780D01*
X430690Y17780D02*
X430693Y18025D01*
X430702Y18271D01*
X430717Y18516D01*
X430738Y18760D01*
X430765Y19004D01*
X430798Y19247D01*
X430837Y19490D01*
X430882Y19731D01*
X430933Y19971D01*
X430990Y20210D01*
X431052Y20447D01*
X431121Y20683D01*
X431195Y20917D01*
X431275Y21149D01*
X431360Y21379D01*
X431451Y21607D01*
X431548Y21832D01*
X431650Y22056D01*
X431758Y22276D01*
X431871Y22494D01*
X431989Y22709D01*
X432113Y22921D01*
X432241Y23130D01*
X432375Y23336D01*
X432514Y23538D01*
X432658Y23737D01*
X432807Y23932D01*
X432960Y24124D01*
X433118Y24312D01*
X433280Y24496D01*
X433448Y24675D01*
X433619Y24851D01*
X433795Y25022D01*
X433974Y25190D01*
X434158Y25352D01*
X434346Y25510D01*
X434538Y25663D01*
X434733Y25812D01*
X434932Y25956D01*
X435134Y26095D01*
X435340Y26229D01*
X435549Y26357D01*
X435761Y26481D01*
X435976Y26599D01*
X436194Y26712D01*
X436414Y26820D01*
X436638Y26922D01*
X436863Y27019D01*
X437091Y27110D01*
X437321Y27195D01*
X437553Y27275D01*
X437787Y27349D01*
X438023Y27418D01*
X438260Y27480D01*
X438499Y27537D01*
X438739Y27588D01*
X438980Y27633D01*
X439223Y27672D01*
X439466Y27705D01*
X439710Y27732D01*
X439954Y27753D01*
X440199Y27768D01*
X440445Y27777D01*
X440690Y27780D01*
X440935Y27777D01*
X441181Y27768D01*
X441426Y27753D01*
X441670Y27732D01*
X441914Y27705D01*
X442157Y27672D01*
X442400Y27633D01*
X442641Y27588D01*
X442881Y27537D01*
X443120Y27480D01*
X443357Y27418D01*
X443593Y27349D01*
X443827Y27275D01*
X444059Y27195D01*
X444289Y27110D01*
X444517Y27019D01*
X444742Y26922D01*
X444966Y26820D01*
X445186Y26712D01*
X445404Y26599D01*
X445619Y26481D01*
X445831Y26357D01*
X446040Y26229D01*
X446246Y26095D01*
X446448Y25956D01*
X446647Y25812D01*
X446842Y25663D01*
X447034Y25510D01*
X447222Y25352D01*
X447406Y25190D01*
X447585Y25022D01*
X447761Y24851D01*
X447932Y24675D01*
X448100Y24496D01*
X448262Y24312D01*
X448420Y24124D01*
X448573Y23932D01*
X448722Y23737D01*
X448866Y23538D01*
X449005Y23336D01*
X449139Y23130D01*
X449267Y22921D01*
X449391Y22709D01*
X449509Y22494D01*
X449622Y22276D01*
X449730Y22056D01*
X449832Y21832D01*
X449929Y21607D01*
X450020Y21379D01*
X450105Y21149D01*
X450185Y20917D01*
X450259Y20683D01*
X450328Y20447D01*
X450390Y20210D01*
X450447Y19971D01*
X450498Y19731D01*
X450543Y19490D01*
X450582Y19247D01*
X450615Y19004D01*
X450642Y18760D01*
X450663Y18516D01*
X450678Y18271D01*
X450687Y18025D01*
X450690Y17780D01*
X450687Y17535D01*
X450678Y17289D01*
X450663Y17044D01*
X450642Y16800D01*
X450615Y16556D01*
X450582Y16313D01*
X450543Y16070D01*
X450498Y15829D01*
X450447Y15589D01*
X450390Y15350D01*
X450328Y15113D01*
X450259Y14877D01*
X450185Y14643D01*
X450105Y14411D01*
X450020Y14181D01*
X449929Y13953D01*
X449832Y13728D01*
X449730Y13504D01*
X449622Y13284D01*
X449509Y13066D01*
X449391Y12851D01*
X449267Y12639D01*
X449139Y12430D01*
X449005Y12224D01*
X448866Y12022D01*
X448722Y11823D01*
X448573Y11628D01*
X448420Y11436D01*
X448262Y11248D01*
X448100Y11064D01*
X447932Y10885D01*
X447761Y10709D01*
X447585Y10538D01*
X447406Y10370D01*
X447222Y10208D01*
X447034Y10050D01*
X446842Y9897D01*
X446647Y9748D01*
X446448Y9604D01*
X446246Y9465D01*
X446040Y9331D01*
X445831Y9203D01*
X445619Y9079D01*
X445404Y8961D01*
X445186Y8848D01*
X444966Y8740D01*
X444742Y8638D01*
X444517Y8541D01*
X444289Y8450D01*
X444059Y8365D01*
X443827Y8285D01*
X443593Y8211D01*
X443357Y8142D01*
X443120Y8080D01*
X442881Y8023D01*
X442641Y7972D01*
X442400Y7927D01*
X442157Y7888D01*
X441914Y7855D01*
X441670Y7828D01*
X441426Y7807D01*
X441181Y7792D01*
X440935Y7783D01*
X440690Y7780D01*
X440445Y7783D01*
X440199Y7792D01*
X439954Y7807D01*
X439710Y7828D01*
X439466Y7855D01*
X439223Y7888D01*
X438980Y7927D01*
X438739Y7972D01*
X438499Y8023D01*
X438260Y8080D01*
X438023Y8142D01*
X437787Y8211D01*
X437553Y8285D01*
X437321Y8365D01*
X437091Y8450D01*
X436863Y8541D01*
X436638Y8638D01*
X436414Y8740D01*
X436194Y8848D01*
X435976Y8961D01*
X435761Y9079D01*
X435549Y9203D01*
X435340Y9331D01*
X435134Y9465D01*
X434932Y9604D01*
X434733Y9748D01*
X434538Y9897D01*
X434346Y10050D01*
X434158Y10208D01*
X433974Y10370D01*
X433795Y10538D01*
X433619Y10709D01*
X433448Y10885D01*
X433280Y11064D01*
X433118Y11248D01*
X432960Y11436D01*
X432807Y11628D01*
X432658Y11823D01*
X432514Y12022D01*
X432375Y12224D01*
X432241Y12430D01*
X432113Y12639D01*
X431989Y12851D01*
X431871Y13066D01*
X431758Y13284D01*
X431650Y13504D01*
X431548Y13728D01*
X431451Y13953D01*
X431360Y14181D01*
X431275Y14411D01*
X431195Y14643D01*
X431121Y14877D01*
X431052Y15113D01*
X430990Y15350D01*
X430933Y15589D01*
X430882Y15829D01*
X430837Y16070D01*
X430798Y16313D01*
X430765Y16556D01*
X430738Y16800D01*
X430717Y17044D01*
X430702Y17289D01*
X430693Y17535D01*
X430690Y17780D01*
X430690Y132080D02*
X430693Y132325D01*
X430702Y132571D01*
X430717Y132816D01*
X430738Y133060D01*
X430765Y133304D01*
X430798Y133547D01*
X430837Y133790D01*
X430882Y134031D01*
X430933Y134271D01*
X430990Y134510D01*
X431052Y134747D01*
X431121Y134983D01*
X431195Y135217D01*
X431275Y135449D01*
X431360Y135679D01*
X431451Y135907D01*
X431548Y136132D01*
X431650Y136356D01*
X431758Y136576D01*
X431871Y136794D01*
X431989Y137009D01*
X432113Y137221D01*
X432241Y137430D01*
X432375Y137636D01*
X432514Y137838D01*
X432658Y138037D01*
X432807Y138232D01*
X432960Y138424D01*
X433118Y138612D01*
X433280Y138796D01*
X433448Y138975D01*
X433619Y139151D01*
X433795Y139322D01*
X433974Y139490D01*
X434158Y139652D01*
X434346Y139810D01*
X434538Y139963D01*
X434733Y140112D01*
X434932Y140256D01*
X435134Y140395D01*
X435340Y140529D01*
X435549Y140657D01*
X435761Y140781D01*
X435976Y140899D01*
X436194Y141012D01*
X436414Y141120D01*
X436638Y141222D01*
X436863Y141319D01*
X437091Y141410D01*
X437321Y141495D01*
X437553Y141575D01*
X437787Y141649D01*
X438023Y141718D01*
X438260Y141780D01*
X438499Y141837D01*
X438739Y141888D01*
X438980Y141933D01*
X439223Y141972D01*
X439466Y142005D01*
X439710Y142032D01*
X439954Y142053D01*
X440199Y142068D01*
X440445Y142077D01*
X440690Y142080D01*
X440935Y142077D01*
X441181Y142068D01*
X441426Y142053D01*
X441670Y142032D01*
X441914Y142005D01*
X442157Y141972D01*
X442400Y141933D01*
X442641Y141888D01*
X442881Y141837D01*
X443120Y141780D01*
X443357Y141718D01*
X443593Y141649D01*
X443827Y141575D01*
X444059Y141495D01*
X444289Y141410D01*
X444517Y141319D01*
X444742Y141222D01*
X444966Y141120D01*
X445186Y141012D01*
X445404Y140899D01*
X445619Y140781D01*
X445831Y140657D01*
X446040Y140529D01*
X446246Y140395D01*
X446448Y140256D01*
X446647Y140112D01*
X446842Y139963D01*
X447034Y139810D01*
X447222Y139652D01*
X447406Y139490D01*
X447585Y139322D01*
X447761Y139151D01*
X447932Y138975D01*
X448100Y138796D01*
X448262Y138612D01*
X448420Y138424D01*
X448573Y138232D01*
X448722Y138037D01*
X448866Y137838D01*
X449005Y137636D01*
X449139Y137430D01*
X449267Y137221D01*
X449391Y137009D01*
X449509Y136794D01*
X449622Y136576D01*
X449730Y136356D01*
X449832Y136132D01*
X449929Y135907D01*
X450020Y135679D01*
X450105Y135449D01*
X450185Y135217D01*
X450259Y134983D01*
X450328Y134747D01*
X450390Y134510D01*
X450447Y134271D01*
X450498Y134031D01*
X450543Y133790D01*
X450582Y133547D01*
X450615Y133304D01*
X450642Y133060D01*
X450663Y132816D01*
X450678Y132571D01*
X450687Y132325D01*
X450690Y132080D01*
X450687Y131835D01*
X450678Y131589D01*
X450663Y131344D01*
X450642Y131100D01*
X450615Y130856D01*
X450582Y130613D01*
X450543Y130370D01*
X450498Y130129D01*
X450447Y129889D01*
X450390Y129650D01*
X450328Y129413D01*
X450259Y129177D01*
X450185Y128943D01*
X450105Y128711D01*
X450020Y128481D01*
X449929Y128253D01*
X449832Y128028D01*
X449730Y127804D01*
X449622Y127584D01*
X449509Y127366D01*
X449391Y127151D01*
X449267Y126939D01*
X449139Y126730D01*
X449005Y126524D01*
X448866Y126322D01*
X448722Y126123D01*
X448573Y125928D01*
X448420Y125736D01*
X448262Y125548D01*
X448100Y125364D01*
X447932Y125185D01*
X447761Y125009D01*
X447585Y124838D01*
X447406Y124670D01*
X447222Y124508D01*
X447034Y124350D01*
X446842Y124197D01*
X446647Y124048D01*
X446448Y123904D01*
X446246Y123765D01*
X446040Y123631D01*
X445831Y123503D01*
X445619Y123379D01*
X445404Y123261D01*
X445186Y123148D01*
X444966Y123040D01*
X444742Y122938D01*
X444517Y122841D01*
X444289Y122750D01*
X444059Y122665D01*
X443827Y122585D01*
X443593Y122511D01*
X443357Y122442D01*
X443120Y122380D01*
X442881Y122323D01*
X442641Y122272D01*
X442400Y122227D01*
X442157Y122188D01*
X441914Y122155D01*
X441670Y122128D01*
X441426Y122107D01*
X441181Y122092D01*
X440935Y122083D01*
X440690Y122080D01*
X440445Y122083D01*
X440199Y122092D01*
X439954Y122107D01*
X439710Y122128D01*
X439466Y122155D01*
X439223Y122188D01*
X438980Y122227D01*
X438739Y122272D01*
X438499Y122323D01*
X438260Y122380D01*
X438023Y122442D01*
X437787Y122511D01*
X437553Y122585D01*
X437321Y122665D01*
X437091Y122750D01*
X436863Y122841D01*
X436638Y122938D01*
X436414Y123040D01*
X436194Y123148D01*
X435976Y123261D01*
X435761Y123379D01*
X435549Y123503D01*
X435340Y123631D01*
X435134Y123765D01*
X434932Y123904D01*
X434733Y124048D01*
X434538Y124197D01*
X434346Y124350D01*
X434158Y124508D01*
X433974Y124670D01*
X433795Y124838D01*
X433619Y125009D01*
X433448Y125185D01*
X433280Y125364D01*
X433118Y125548D01*
X432960Y125736D01*
X432807Y125928D01*
X432658Y126123D01*
X432514Y126322D01*
X432375Y126524D01*
X432241Y126730D01*
X432113Y126939D01*
X431989Y127151D01*
X431871Y127366D01*
X431758Y127584D01*
X431650Y127804D01*
X431548Y128028D01*
X431451Y128253D01*
X431360Y128481D01*
X431275Y128711D01*
X431195Y128943D01*
X431121Y129177D01*
X431052Y129413D01*
X430990Y129650D01*
X430933Y129889D01*
X430882Y130129D01*
X430837Y130370D01*
X430798Y130613D01*
X430765Y130856D01*
X430738Y131100D01*
X430717Y131344D01*
X430702Y131589D01*
X430693Y131835D01*
X430690Y132080D01*
D11*
X421571Y133542D02*
X416915Y133542D01*
X421571Y133542D02*
X421571Y144018D01*
X416915Y144018D01*
X418079Y139362D02*
X421571Y139362D01*
X412659Y135288D02*
X412659Y144018D01*
X412659Y135288D02*
X412657Y135207D01*
X412652Y135127D01*
X412642Y135047D01*
X412629Y134967D01*
X412613Y134888D01*
X412592Y134810D01*
X412568Y134733D01*
X412541Y134657D01*
X412510Y134583D01*
X412476Y134510D01*
X412438Y134438D01*
X412397Y134369D01*
X412353Y134301D01*
X412306Y134236D01*
X412256Y134173D01*
X412203Y134112D01*
X412148Y134053D01*
X412089Y133998D01*
X412028Y133945D01*
X411965Y133895D01*
X411900Y133848D01*
X411832Y133804D01*
X411763Y133763D01*
X411691Y133725D01*
X411618Y133691D01*
X411544Y133660D01*
X411468Y133633D01*
X411391Y133609D01*
X411313Y133588D01*
X411234Y133572D01*
X411154Y133559D01*
X411074Y133549D01*
X410994Y133544D01*
X410913Y133542D01*
X405231Y133542D02*
X402321Y133542D01*
X405231Y133542D02*
X405312Y133544D01*
X405392Y133549D01*
X405472Y133559D01*
X405552Y133572D01*
X405631Y133588D01*
X405709Y133609D01*
X405786Y133633D01*
X405862Y133660D01*
X405936Y133691D01*
X406009Y133725D01*
X406081Y133763D01*
X406150Y133804D01*
X406218Y133848D01*
X406283Y133895D01*
X406346Y133945D01*
X406407Y133998D01*
X406466Y134053D01*
X406521Y134112D01*
X406574Y134173D01*
X406624Y134236D01*
X406671Y134301D01*
X406715Y134369D01*
X406756Y134438D01*
X406794Y134510D01*
X406828Y134583D01*
X406859Y134657D01*
X406886Y134733D01*
X406910Y134810D01*
X406931Y134888D01*
X406947Y134967D01*
X406960Y135047D01*
X406970Y135127D01*
X406975Y135207D01*
X406977Y135288D01*
X406977Y138198D01*
X406975Y138293D01*
X406969Y138388D01*
X406960Y138482D01*
X406946Y138576D01*
X406929Y138670D01*
X406908Y138762D01*
X406883Y138854D01*
X406854Y138944D01*
X406822Y139034D01*
X406786Y139122D01*
X406746Y139208D01*
X406704Y139293D01*
X406657Y139376D01*
X406607Y139457D01*
X406554Y139535D01*
X406498Y139612D01*
X406439Y139686D01*
X406377Y139758D01*
X406312Y139827D01*
X406244Y139894D01*
X406174Y139957D01*
X406100Y140018D01*
X406025Y140076D01*
X405947Y140130D01*
X405867Y140182D01*
X405785Y140230D01*
X405702Y140274D01*
X405616Y140316D01*
X405529Y140353D01*
X405440Y140387D01*
X405350Y140418D01*
X405259Y140445D01*
X405167Y140468D01*
X405074Y140487D01*
X404980Y140502D01*
X404886Y140514D01*
X404791Y140522D01*
X404696Y140526D01*
X404602Y140526D01*
X404507Y140522D01*
X404412Y140514D01*
X404318Y140502D01*
X404224Y140487D01*
X404131Y140468D01*
X404039Y140445D01*
X403948Y140418D01*
X403858Y140387D01*
X403769Y140353D01*
X403682Y140316D01*
X403596Y140274D01*
X403513Y140230D01*
X403431Y140182D01*
X403351Y140130D01*
X403273Y140076D01*
X403198Y140018D01*
X403124Y139957D01*
X403054Y139894D01*
X402986Y139827D01*
X402921Y139758D01*
X402859Y139686D01*
X402800Y139612D01*
X402744Y139535D01*
X402691Y139457D01*
X402641Y139376D01*
X402594Y139293D01*
X402552Y139208D01*
X402512Y139122D01*
X402476Y139034D01*
X402444Y138944D01*
X402415Y138854D01*
X402390Y138762D01*
X402369Y138670D01*
X402352Y138576D01*
X402338Y138482D01*
X402329Y138388D01*
X402323Y138293D01*
X402321Y138198D01*
X402321Y137034D01*
X406977Y137034D01*
X395854Y133542D02*
X393526Y133542D01*
X395854Y133542D02*
X395935Y133544D01*
X396015Y133549D01*
X396095Y133559D01*
X396175Y133572D01*
X396254Y133588D01*
X396332Y133609D01*
X396409Y133633D01*
X396485Y133660D01*
X396559Y133691D01*
X396632Y133725D01*
X396704Y133763D01*
X396773Y133804D01*
X396841Y133848D01*
X396906Y133895D01*
X396969Y133945D01*
X397030Y133998D01*
X397089Y134053D01*
X397144Y134112D01*
X397197Y134173D01*
X397247Y134236D01*
X397294Y134301D01*
X397338Y134369D01*
X397379Y134438D01*
X397417Y134510D01*
X397451Y134583D01*
X397482Y134657D01*
X397509Y134733D01*
X397533Y134810D01*
X397554Y134888D01*
X397570Y134967D01*
X397583Y135047D01*
X397593Y135127D01*
X397598Y135207D01*
X397600Y135288D01*
X397600Y138780D01*
X397598Y138861D01*
X397593Y138941D01*
X397583Y139021D01*
X397570Y139101D01*
X397554Y139180D01*
X397533Y139258D01*
X397509Y139335D01*
X397482Y139411D01*
X397451Y139485D01*
X397417Y139558D01*
X397379Y139630D01*
X397338Y139699D01*
X397294Y139767D01*
X397247Y139832D01*
X397197Y139895D01*
X397144Y139956D01*
X397089Y140015D01*
X397030Y140070D01*
X396969Y140123D01*
X396906Y140173D01*
X396841Y140220D01*
X396773Y140264D01*
X396704Y140305D01*
X396632Y140343D01*
X396559Y140377D01*
X396485Y140408D01*
X396409Y140435D01*
X396332Y140459D01*
X396254Y140480D01*
X396175Y140496D01*
X396095Y140509D01*
X396015Y140519D01*
X395935Y140524D01*
X395854Y140526D01*
X393526Y140526D01*
X390308Y140526D02*
X386816Y140526D01*
X389144Y144018D02*
X389144Y135288D01*
X389142Y135207D01*
X389137Y135127D01*
X389127Y135047D01*
X389114Y134967D01*
X389098Y134888D01*
X389077Y134810D01*
X389053Y134733D01*
X389026Y134657D01*
X388995Y134583D01*
X388961Y134510D01*
X388923Y134438D01*
X388882Y134369D01*
X388838Y134301D01*
X388791Y134236D01*
X388741Y134173D01*
X388688Y134112D01*
X388633Y134053D01*
X388574Y133998D01*
X388513Y133945D01*
X388450Y133895D01*
X388385Y133848D01*
X388317Y133804D01*
X388248Y133763D01*
X388176Y133725D01*
X388103Y133691D01*
X388029Y133660D01*
X387953Y133633D01*
X387876Y133609D01*
X387798Y133588D01*
X387719Y133572D01*
X387639Y133559D01*
X387559Y133549D01*
X387479Y133544D01*
X387398Y133542D01*
X386816Y133542D01*
X382055Y133542D02*
X382055Y140526D01*
X378563Y140526D01*
X378563Y139362D01*
X374937Y138198D02*
X374937Y135870D01*
X374937Y138198D02*
X374935Y138293D01*
X374929Y138388D01*
X374920Y138482D01*
X374906Y138576D01*
X374889Y138670D01*
X374868Y138762D01*
X374843Y138854D01*
X374814Y138944D01*
X374782Y139034D01*
X374746Y139122D01*
X374706Y139208D01*
X374664Y139293D01*
X374617Y139376D01*
X374567Y139457D01*
X374514Y139535D01*
X374458Y139612D01*
X374399Y139686D01*
X374337Y139758D01*
X374272Y139827D01*
X374204Y139894D01*
X374134Y139957D01*
X374060Y140018D01*
X373985Y140076D01*
X373907Y140130D01*
X373827Y140182D01*
X373745Y140230D01*
X373662Y140274D01*
X373576Y140316D01*
X373489Y140353D01*
X373400Y140387D01*
X373310Y140418D01*
X373219Y140445D01*
X373127Y140468D01*
X373034Y140487D01*
X372940Y140502D01*
X372846Y140514D01*
X372751Y140522D01*
X372656Y140526D01*
X372562Y140526D01*
X372467Y140522D01*
X372372Y140514D01*
X372278Y140502D01*
X372184Y140487D01*
X372091Y140468D01*
X371999Y140445D01*
X371908Y140418D01*
X371818Y140387D01*
X371729Y140353D01*
X371642Y140316D01*
X371556Y140274D01*
X371473Y140230D01*
X371391Y140182D01*
X371311Y140130D01*
X371233Y140076D01*
X371158Y140018D01*
X371084Y139957D01*
X371014Y139894D01*
X370946Y139827D01*
X370881Y139758D01*
X370819Y139686D01*
X370760Y139612D01*
X370704Y139535D01*
X370651Y139457D01*
X370601Y139376D01*
X370554Y139293D01*
X370512Y139208D01*
X370472Y139122D01*
X370436Y139034D01*
X370404Y138944D01*
X370375Y138854D01*
X370350Y138762D01*
X370329Y138670D01*
X370312Y138576D01*
X370298Y138482D01*
X370289Y138388D01*
X370283Y138293D01*
X370281Y138198D01*
X370281Y135870D01*
X370283Y135775D01*
X370289Y135680D01*
X370298Y135586D01*
X370312Y135492D01*
X370329Y135398D01*
X370350Y135306D01*
X370375Y135214D01*
X370404Y135124D01*
X370436Y135034D01*
X370472Y134946D01*
X370512Y134860D01*
X370554Y134775D01*
X370601Y134692D01*
X370651Y134611D01*
X370704Y134533D01*
X370760Y134456D01*
X370819Y134382D01*
X370881Y134310D01*
X370946Y134241D01*
X371014Y134174D01*
X371084Y134111D01*
X371158Y134050D01*
X371233Y133992D01*
X371311Y133938D01*
X371391Y133886D01*
X371473Y133838D01*
X371556Y133794D01*
X371642Y133752D01*
X371729Y133715D01*
X371818Y133681D01*
X371908Y133650D01*
X371999Y133623D01*
X372091Y133600D01*
X372184Y133581D01*
X372278Y133566D01*
X372372Y133554D01*
X372467Y133546D01*
X372562Y133542D01*
X372656Y133542D01*
X372751Y133546D01*
X372846Y133554D01*
X372940Y133566D01*
X373034Y133581D01*
X373127Y133600D01*
X373219Y133623D01*
X373310Y133650D01*
X373400Y133681D01*
X373489Y133715D01*
X373576Y133752D01*
X373662Y133794D01*
X373745Y133838D01*
X373827Y133886D01*
X373907Y133938D01*
X373985Y133992D01*
X374060Y134050D01*
X374134Y134111D01*
X374204Y134174D01*
X374272Y134241D01*
X374337Y134310D01*
X374399Y134382D01*
X374458Y134456D01*
X374514Y134533D01*
X374567Y134611D01*
X374617Y134692D01*
X374664Y134775D01*
X374706Y134860D01*
X374746Y134946D01*
X374782Y135034D01*
X374814Y135124D01*
X374843Y135214D01*
X374868Y135306D01*
X374889Y135398D01*
X374906Y135492D01*
X374920Y135586D01*
X374929Y135680D01*
X374935Y135775D01*
X374937Y135870D01*
X365217Y133542D02*
X365217Y140526D01*
X362307Y140526D01*
X362226Y140524D01*
X362146Y140519D01*
X362066Y140509D01*
X361986Y140496D01*
X361907Y140480D01*
X361829Y140459D01*
X361752Y140435D01*
X361676Y140408D01*
X361602Y140377D01*
X361529Y140343D01*
X361457Y140305D01*
X361388Y140264D01*
X361320Y140220D01*
X361255Y140173D01*
X361192Y140123D01*
X361131Y140070D01*
X361072Y140015D01*
X361017Y139956D01*
X360964Y139895D01*
X360914Y139832D01*
X360867Y139767D01*
X360823Y139699D01*
X360782Y139630D01*
X360744Y139558D01*
X360710Y139485D01*
X360679Y139411D01*
X360652Y139335D01*
X360628Y139258D01*
X360607Y139180D01*
X360591Y139101D01*
X360578Y139021D01*
X360568Y138941D01*
X360563Y138861D01*
X360561Y138780D01*
X360561Y133542D01*
X355689Y133542D02*
X355689Y140526D01*
X355980Y143436D02*
X355980Y144018D01*
X355398Y144018D01*
X355398Y143436D01*
X355980Y143436D01*
X349414Y133542D02*
X347086Y133542D01*
X349414Y133542D02*
X349495Y133544D01*
X349575Y133549D01*
X349655Y133559D01*
X349735Y133572D01*
X349814Y133588D01*
X349892Y133609D01*
X349969Y133633D01*
X350045Y133660D01*
X350119Y133691D01*
X350192Y133725D01*
X350264Y133763D01*
X350333Y133804D01*
X350401Y133848D01*
X350466Y133895D01*
X350529Y133945D01*
X350590Y133998D01*
X350649Y134053D01*
X350704Y134112D01*
X350757Y134173D01*
X350807Y134236D01*
X350854Y134301D01*
X350898Y134369D01*
X350939Y134438D01*
X350977Y134510D01*
X351011Y134583D01*
X351042Y134657D01*
X351069Y134733D01*
X351093Y134810D01*
X351114Y134888D01*
X351130Y134967D01*
X351143Y135047D01*
X351153Y135127D01*
X351158Y135207D01*
X351160Y135288D01*
X351160Y138780D01*
X351158Y138861D01*
X351153Y138941D01*
X351143Y139021D01*
X351130Y139101D01*
X351114Y139180D01*
X351093Y139258D01*
X351069Y139335D01*
X351042Y139411D01*
X351011Y139485D01*
X350977Y139558D01*
X350939Y139630D01*
X350898Y139699D01*
X350854Y139767D01*
X350807Y139832D01*
X350757Y139895D01*
X350704Y139956D01*
X350649Y140015D01*
X350590Y140070D01*
X350529Y140123D01*
X350466Y140173D01*
X350401Y140220D01*
X350333Y140264D01*
X350264Y140305D01*
X350192Y140343D01*
X350119Y140377D01*
X350045Y140408D01*
X349969Y140435D01*
X349892Y140459D01*
X349814Y140480D01*
X349735Y140496D01*
X349655Y140509D01*
X349575Y140519D01*
X349495Y140524D01*
X349414Y140526D01*
X347086Y140526D01*
X342024Y137616D02*
X339114Y136452D01*
X342023Y137616D02*
X342093Y137646D01*
X342162Y137680D01*
X342228Y137716D01*
X342293Y137757D01*
X342355Y137800D01*
X342416Y137847D01*
X342473Y137896D01*
X342529Y137949D01*
X342581Y138004D01*
X342631Y138061D01*
X342678Y138122D01*
X342721Y138184D01*
X342762Y138249D01*
X342799Y138315D01*
X342832Y138383D01*
X342863Y138453D01*
X342889Y138525D01*
X342912Y138597D01*
X342932Y138671D01*
X342947Y138745D01*
X342959Y138820D01*
X342967Y138896D01*
X342971Y138972D01*
X342972Y139048D01*
X342968Y139124D01*
X342961Y139200D01*
X342950Y139276D01*
X342935Y139350D01*
X342916Y139424D01*
X342894Y139497D01*
X342868Y139568D01*
X342838Y139638D01*
X342805Y139707D01*
X342768Y139774D01*
X342729Y139839D01*
X342686Y139902D01*
X342639Y139962D01*
X342590Y140020D01*
X342538Y140076D01*
X342483Y140129D01*
X342426Y140179D01*
X342366Y140226D01*
X342304Y140270D01*
X342240Y140311D01*
X342174Y140348D01*
X342106Y140382D01*
X342036Y140413D01*
X341965Y140440D01*
X341892Y140464D01*
X341819Y140483D01*
X341744Y140500D01*
X341669Y140512D01*
X341594Y140520D01*
X341518Y140525D01*
X341441Y140526D01*
X341442Y140525D02*
X341283Y140521D01*
X341124Y140513D01*
X340966Y140501D01*
X340807Y140486D01*
X340650Y140466D01*
X340492Y140443D01*
X340336Y140416D01*
X340180Y140385D01*
X340025Y140351D01*
X339871Y140313D01*
X339717Y140271D01*
X339565Y140225D01*
X339414Y140176D01*
X339264Y140123D01*
X339116Y140067D01*
X338968Y140007D01*
X338823Y139943D01*
X339114Y136452D02*
X339044Y136422D01*
X338975Y136388D01*
X338909Y136352D01*
X338844Y136311D01*
X338782Y136268D01*
X338721Y136221D01*
X338664Y136172D01*
X338608Y136119D01*
X338556Y136064D01*
X338506Y136007D01*
X338459Y135946D01*
X338416Y135884D01*
X338375Y135819D01*
X338338Y135753D01*
X338305Y135685D01*
X338274Y135615D01*
X338248Y135543D01*
X338225Y135471D01*
X338205Y135397D01*
X338190Y135323D01*
X338178Y135248D01*
X338170Y135172D01*
X338166Y135096D01*
X338165Y135020D01*
X338169Y134944D01*
X338176Y134868D01*
X338187Y134792D01*
X338202Y134718D01*
X338221Y134644D01*
X338243Y134571D01*
X338269Y134500D01*
X338299Y134430D01*
X338332Y134361D01*
X338369Y134294D01*
X338408Y134229D01*
X338451Y134166D01*
X338498Y134106D01*
X338547Y134048D01*
X338599Y133992D01*
X338654Y133939D01*
X338711Y133889D01*
X338771Y133842D01*
X338833Y133798D01*
X338897Y133757D01*
X338963Y133720D01*
X339031Y133686D01*
X339101Y133655D01*
X339172Y133628D01*
X339245Y133604D01*
X339318Y133585D01*
X339393Y133568D01*
X339468Y133556D01*
X339543Y133548D01*
X339619Y133543D01*
X339696Y133542D01*
X339929Y133548D01*
X340163Y133560D01*
X340395Y133577D01*
X340628Y133599D01*
X340859Y133628D01*
X341090Y133661D01*
X341321Y133700D01*
X341550Y133745D01*
X341778Y133795D01*
X342005Y133850D01*
X342230Y133910D01*
X342454Y133976D01*
X342676Y134048D01*
X342897Y134124D01*
X403667Y126018D02*
X403667Y115542D01*
X406577Y115542D01*
X406658Y115544D01*
X406738Y115549D01*
X406818Y115559D01*
X406898Y115572D01*
X406977Y115588D01*
X407055Y115609D01*
X407132Y115633D01*
X407208Y115660D01*
X407282Y115691D01*
X407355Y115725D01*
X407427Y115763D01*
X407496Y115804D01*
X407564Y115848D01*
X407629Y115895D01*
X407692Y115945D01*
X407753Y115998D01*
X407812Y116053D01*
X407867Y116112D01*
X407920Y116173D01*
X407970Y116236D01*
X408017Y116301D01*
X408061Y116369D01*
X408102Y116438D01*
X408140Y116510D01*
X408174Y116583D01*
X408205Y116657D01*
X408232Y116733D01*
X408256Y116810D01*
X408277Y116888D01*
X408293Y116967D01*
X408306Y117047D01*
X408316Y117127D01*
X408321Y117207D01*
X408323Y117288D01*
X408323Y120780D01*
X408321Y120861D01*
X408316Y120941D01*
X408306Y121021D01*
X408293Y121101D01*
X408277Y121180D01*
X408256Y121258D01*
X408232Y121335D01*
X408205Y121411D01*
X408174Y121485D01*
X408140Y121558D01*
X408102Y121630D01*
X408061Y121699D01*
X408017Y121767D01*
X407970Y121832D01*
X407920Y121895D01*
X407867Y121956D01*
X407812Y122015D01*
X407753Y122070D01*
X407692Y122123D01*
X407629Y122173D01*
X407564Y122220D01*
X407496Y122264D01*
X407427Y122305D01*
X407355Y122343D01*
X407282Y122377D01*
X407208Y122408D01*
X407132Y122435D01*
X407055Y122459D01*
X406977Y122480D01*
X406898Y122496D01*
X406818Y122509D01*
X406738Y122519D01*
X406658Y122524D01*
X406577Y122526D01*
X403667Y122526D01*
X396785Y115542D02*
X393875Y115542D01*
X396785Y115542D02*
X396866Y115544D01*
X396946Y115549D01*
X397026Y115559D01*
X397106Y115572D01*
X397185Y115588D01*
X397263Y115609D01*
X397340Y115633D01*
X397416Y115660D01*
X397490Y115691D01*
X397563Y115725D01*
X397635Y115763D01*
X397704Y115804D01*
X397772Y115848D01*
X397837Y115895D01*
X397900Y115945D01*
X397961Y115998D01*
X398020Y116053D01*
X398075Y116112D01*
X398128Y116173D01*
X398178Y116236D01*
X398225Y116301D01*
X398269Y116369D01*
X398310Y116438D01*
X398348Y116510D01*
X398382Y116583D01*
X398413Y116657D01*
X398440Y116733D01*
X398464Y116810D01*
X398485Y116888D01*
X398501Y116967D01*
X398514Y117047D01*
X398524Y117127D01*
X398529Y117207D01*
X398531Y117288D01*
X398531Y120198D01*
X398529Y120293D01*
X398523Y120388D01*
X398514Y120482D01*
X398500Y120576D01*
X398483Y120670D01*
X398462Y120762D01*
X398437Y120854D01*
X398408Y120944D01*
X398376Y121034D01*
X398340Y121122D01*
X398300Y121208D01*
X398258Y121293D01*
X398211Y121376D01*
X398161Y121457D01*
X398108Y121535D01*
X398052Y121612D01*
X397993Y121686D01*
X397931Y121758D01*
X397866Y121827D01*
X397798Y121894D01*
X397728Y121957D01*
X397654Y122018D01*
X397579Y122076D01*
X397501Y122130D01*
X397421Y122182D01*
X397339Y122230D01*
X397256Y122274D01*
X397170Y122316D01*
X397083Y122353D01*
X396994Y122387D01*
X396904Y122418D01*
X396813Y122445D01*
X396721Y122468D01*
X396628Y122487D01*
X396534Y122502D01*
X396440Y122514D01*
X396345Y122522D01*
X396250Y122526D01*
X396156Y122526D01*
X396061Y122522D01*
X395966Y122514D01*
X395872Y122502D01*
X395778Y122487D01*
X395685Y122468D01*
X395593Y122445D01*
X395502Y122418D01*
X395412Y122387D01*
X395323Y122353D01*
X395236Y122316D01*
X395150Y122274D01*
X395067Y122230D01*
X394985Y122182D01*
X394905Y122130D01*
X394827Y122076D01*
X394752Y122018D01*
X394678Y121957D01*
X394608Y121894D01*
X394540Y121827D01*
X394475Y121758D01*
X394413Y121686D01*
X394354Y121612D01*
X394298Y121535D01*
X394245Y121457D01*
X394195Y121376D01*
X394148Y121293D01*
X394106Y121208D01*
X394066Y121122D01*
X394030Y121034D01*
X393998Y120944D01*
X393969Y120854D01*
X393944Y120762D01*
X393923Y120670D01*
X393906Y120576D01*
X393892Y120482D01*
X393883Y120388D01*
X393877Y120293D01*
X393875Y120198D01*
X393875Y119034D01*
X398531Y119034D01*
X388298Y119616D02*
X385388Y118452D01*
X388297Y119616D02*
X388367Y119646D01*
X388436Y119680D01*
X388502Y119716D01*
X388567Y119757D01*
X388629Y119800D01*
X388690Y119847D01*
X388747Y119896D01*
X388803Y119949D01*
X388855Y120004D01*
X388905Y120061D01*
X388952Y120122D01*
X388995Y120184D01*
X389036Y120249D01*
X389073Y120315D01*
X389106Y120383D01*
X389137Y120453D01*
X389163Y120525D01*
X389186Y120597D01*
X389206Y120671D01*
X389221Y120745D01*
X389233Y120820D01*
X389241Y120896D01*
X389245Y120972D01*
X389246Y121048D01*
X389242Y121124D01*
X389235Y121200D01*
X389224Y121276D01*
X389209Y121350D01*
X389190Y121424D01*
X389168Y121497D01*
X389142Y121568D01*
X389112Y121638D01*
X389079Y121707D01*
X389042Y121774D01*
X389003Y121839D01*
X388960Y121902D01*
X388913Y121962D01*
X388864Y122020D01*
X388812Y122076D01*
X388757Y122129D01*
X388700Y122179D01*
X388640Y122226D01*
X388578Y122270D01*
X388514Y122311D01*
X388448Y122348D01*
X388380Y122382D01*
X388310Y122413D01*
X388239Y122440D01*
X388166Y122464D01*
X388093Y122483D01*
X388018Y122500D01*
X387943Y122512D01*
X387868Y122520D01*
X387792Y122525D01*
X387715Y122526D01*
X387716Y122525D02*
X387557Y122521D01*
X387398Y122513D01*
X387240Y122501D01*
X387081Y122486D01*
X386924Y122466D01*
X386766Y122443D01*
X386610Y122416D01*
X386454Y122385D01*
X386299Y122351D01*
X386145Y122313D01*
X385991Y122271D01*
X385839Y122225D01*
X385688Y122176D01*
X385538Y122123D01*
X385390Y122067D01*
X385242Y122007D01*
X385097Y121943D01*
X385388Y118452D02*
X385318Y118422D01*
X385249Y118388D01*
X385183Y118352D01*
X385118Y118311D01*
X385056Y118268D01*
X384995Y118221D01*
X384938Y118172D01*
X384882Y118119D01*
X384830Y118064D01*
X384780Y118007D01*
X384733Y117946D01*
X384690Y117884D01*
X384649Y117819D01*
X384612Y117753D01*
X384579Y117685D01*
X384548Y117615D01*
X384522Y117543D01*
X384499Y117471D01*
X384479Y117397D01*
X384464Y117323D01*
X384452Y117248D01*
X384444Y117172D01*
X384440Y117096D01*
X384439Y117020D01*
X384443Y116944D01*
X384450Y116868D01*
X384461Y116792D01*
X384476Y116718D01*
X384495Y116644D01*
X384517Y116571D01*
X384543Y116500D01*
X384573Y116430D01*
X384606Y116361D01*
X384643Y116294D01*
X384682Y116229D01*
X384725Y116166D01*
X384772Y116106D01*
X384821Y116048D01*
X384873Y115992D01*
X384928Y115939D01*
X384985Y115889D01*
X385045Y115842D01*
X385107Y115798D01*
X385171Y115757D01*
X385237Y115720D01*
X385305Y115686D01*
X385375Y115655D01*
X385446Y115628D01*
X385519Y115604D01*
X385592Y115585D01*
X385667Y115568D01*
X385742Y115556D01*
X385817Y115548D01*
X385893Y115543D01*
X385970Y115542D01*
X386203Y115548D01*
X386437Y115560D01*
X386669Y115577D01*
X386902Y115599D01*
X387133Y115628D01*
X387364Y115661D01*
X387595Y115700D01*
X387824Y115745D01*
X388052Y115795D01*
X388279Y115850D01*
X388504Y115910D01*
X388728Y115976D01*
X388950Y116048D01*
X389171Y116124D01*
X380003Y115542D02*
X380003Y122526D01*
X380294Y125436D02*
X380294Y126018D01*
X379712Y126018D01*
X379712Y125436D01*
X380294Y125436D01*
X373817Y115542D02*
X370907Y115542D01*
X373817Y115542D02*
X373898Y115544D01*
X373978Y115549D01*
X374058Y115559D01*
X374138Y115572D01*
X374217Y115588D01*
X374295Y115609D01*
X374372Y115633D01*
X374448Y115660D01*
X374522Y115691D01*
X374595Y115725D01*
X374667Y115763D01*
X374736Y115804D01*
X374804Y115848D01*
X374869Y115895D01*
X374932Y115945D01*
X374993Y115998D01*
X375052Y116053D01*
X375107Y116112D01*
X375160Y116173D01*
X375210Y116236D01*
X375257Y116301D01*
X375301Y116369D01*
X375342Y116438D01*
X375380Y116510D01*
X375414Y116583D01*
X375445Y116657D01*
X375472Y116733D01*
X375496Y116810D01*
X375517Y116888D01*
X375533Y116967D01*
X375546Y117047D01*
X375556Y117127D01*
X375561Y117207D01*
X375563Y117288D01*
X375563Y120780D01*
X375561Y120861D01*
X375556Y120941D01*
X375546Y121021D01*
X375533Y121101D01*
X375517Y121180D01*
X375496Y121258D01*
X375472Y121335D01*
X375445Y121411D01*
X375414Y121485D01*
X375380Y121558D01*
X375342Y121630D01*
X375301Y121699D01*
X375257Y121767D01*
X375210Y121832D01*
X375160Y121895D01*
X375107Y121956D01*
X375052Y122015D01*
X374993Y122070D01*
X374932Y122123D01*
X374869Y122173D01*
X374804Y122220D01*
X374736Y122264D01*
X374667Y122305D01*
X374595Y122343D01*
X374522Y122377D01*
X374448Y122408D01*
X374372Y122435D01*
X374295Y122459D01*
X374217Y122480D01*
X374138Y122496D01*
X374058Y122509D01*
X373978Y122519D01*
X373898Y122524D01*
X373817Y122526D01*
X370907Y122526D01*
X370907Y113796D01*
X370909Y113715D01*
X370914Y113635D01*
X370924Y113555D01*
X370937Y113475D01*
X370953Y113396D01*
X370974Y113318D01*
X370998Y113241D01*
X371025Y113165D01*
X371056Y113091D01*
X371090Y113018D01*
X371128Y112946D01*
X371169Y112877D01*
X371213Y112809D01*
X371260Y112744D01*
X371310Y112681D01*
X371363Y112620D01*
X371418Y112561D01*
X371477Y112506D01*
X371538Y112453D01*
X371601Y112403D01*
X371666Y112356D01*
X371734Y112312D01*
X371803Y112271D01*
X371875Y112233D01*
X371948Y112199D01*
X372022Y112168D01*
X372098Y112141D01*
X372175Y112117D01*
X372253Y112096D01*
X372332Y112080D01*
X372412Y112067D01*
X372492Y112057D01*
X372572Y112052D01*
X372653Y112050D01*
X374981Y112050D01*
X365411Y115542D02*
X365411Y122526D01*
X362501Y122526D01*
X362420Y122524D01*
X362340Y122519D01*
X362260Y122509D01*
X362180Y122496D01*
X362101Y122480D01*
X362023Y122459D01*
X361946Y122435D01*
X361870Y122408D01*
X361796Y122377D01*
X361723Y122343D01*
X361651Y122305D01*
X361582Y122264D01*
X361514Y122220D01*
X361449Y122173D01*
X361386Y122123D01*
X361325Y122070D01*
X361266Y122015D01*
X361211Y121956D01*
X361158Y121895D01*
X361108Y121832D01*
X361061Y121767D01*
X361017Y121699D01*
X360976Y121630D01*
X360938Y121558D01*
X360904Y121485D01*
X360873Y121411D01*
X360846Y121335D01*
X360822Y121258D01*
X360801Y121180D01*
X360785Y121101D01*
X360772Y121021D01*
X360762Y120941D01*
X360757Y120861D01*
X360755Y120780D01*
X360755Y115542D01*
X392948Y100452D02*
X395858Y101616D01*
X395857Y101616D02*
X395927Y101646D01*
X395996Y101680D01*
X396062Y101716D01*
X396127Y101757D01*
X396189Y101800D01*
X396250Y101847D01*
X396307Y101896D01*
X396363Y101949D01*
X396415Y102004D01*
X396465Y102061D01*
X396512Y102122D01*
X396555Y102184D01*
X396596Y102249D01*
X396633Y102315D01*
X396666Y102383D01*
X396697Y102453D01*
X396723Y102525D01*
X396746Y102597D01*
X396766Y102671D01*
X396781Y102745D01*
X396793Y102820D01*
X396801Y102896D01*
X396805Y102972D01*
X396806Y103048D01*
X396802Y103124D01*
X396795Y103200D01*
X396784Y103276D01*
X396769Y103350D01*
X396750Y103424D01*
X396728Y103497D01*
X396702Y103568D01*
X396672Y103638D01*
X396639Y103707D01*
X396602Y103774D01*
X396563Y103839D01*
X396520Y103902D01*
X396473Y103962D01*
X396424Y104020D01*
X396372Y104076D01*
X396317Y104129D01*
X396260Y104179D01*
X396200Y104226D01*
X396138Y104270D01*
X396074Y104311D01*
X396008Y104348D01*
X395940Y104382D01*
X395870Y104413D01*
X395799Y104440D01*
X395726Y104464D01*
X395653Y104483D01*
X395578Y104500D01*
X395503Y104512D01*
X395428Y104520D01*
X395352Y104525D01*
X395275Y104526D01*
X395276Y104525D02*
X395117Y104521D01*
X394958Y104513D01*
X394800Y104501D01*
X394641Y104486D01*
X394484Y104466D01*
X394326Y104443D01*
X394170Y104416D01*
X394014Y104385D01*
X393859Y104351D01*
X393705Y104313D01*
X393551Y104271D01*
X393399Y104225D01*
X393248Y104176D01*
X393098Y104123D01*
X392950Y104067D01*
X392802Y104007D01*
X392657Y103943D01*
X392948Y100452D02*
X392878Y100422D01*
X392809Y100388D01*
X392743Y100352D01*
X392678Y100311D01*
X392616Y100268D01*
X392555Y100221D01*
X392498Y100172D01*
X392442Y100119D01*
X392390Y100064D01*
X392340Y100007D01*
X392293Y99946D01*
X392250Y99884D01*
X392209Y99819D01*
X392172Y99753D01*
X392139Y99685D01*
X392108Y99615D01*
X392082Y99543D01*
X392059Y99471D01*
X392039Y99397D01*
X392024Y99323D01*
X392012Y99248D01*
X392004Y99172D01*
X392000Y99096D01*
X391999Y99020D01*
X392003Y98944D01*
X392010Y98868D01*
X392021Y98792D01*
X392036Y98718D01*
X392055Y98644D01*
X392077Y98571D01*
X392103Y98500D01*
X392133Y98430D01*
X392166Y98361D01*
X392203Y98294D01*
X392242Y98229D01*
X392285Y98166D01*
X392332Y98106D01*
X392381Y98048D01*
X392433Y97992D01*
X392488Y97939D01*
X392545Y97889D01*
X392605Y97842D01*
X392667Y97798D01*
X392731Y97757D01*
X392797Y97720D01*
X392865Y97686D01*
X392935Y97655D01*
X393006Y97628D01*
X393079Y97604D01*
X393152Y97585D01*
X393227Y97568D01*
X393302Y97556D01*
X393377Y97548D01*
X393453Y97543D01*
X393530Y97542D01*
X393763Y97548D01*
X393997Y97560D01*
X394229Y97577D01*
X394462Y97599D01*
X394693Y97628D01*
X394924Y97661D01*
X395155Y97700D01*
X395384Y97745D01*
X395612Y97795D01*
X395839Y97850D01*
X396064Y97910D01*
X396288Y97976D01*
X396510Y98048D01*
X396731Y98124D01*
X387371Y99870D02*
X387371Y102198D01*
X387369Y102293D01*
X387363Y102388D01*
X387354Y102482D01*
X387340Y102576D01*
X387323Y102670D01*
X387302Y102762D01*
X387277Y102854D01*
X387248Y102944D01*
X387216Y103034D01*
X387180Y103122D01*
X387140Y103208D01*
X387098Y103293D01*
X387051Y103376D01*
X387001Y103457D01*
X386948Y103535D01*
X386892Y103612D01*
X386833Y103686D01*
X386771Y103758D01*
X386706Y103827D01*
X386638Y103894D01*
X386568Y103957D01*
X386494Y104018D01*
X386419Y104076D01*
X386341Y104130D01*
X386261Y104182D01*
X386179Y104230D01*
X386096Y104274D01*
X386010Y104316D01*
X385923Y104353D01*
X385834Y104387D01*
X385744Y104418D01*
X385653Y104445D01*
X385561Y104468D01*
X385468Y104487D01*
X385374Y104502D01*
X385280Y104514D01*
X385185Y104522D01*
X385090Y104526D01*
X384996Y104526D01*
X384901Y104522D01*
X384806Y104514D01*
X384712Y104502D01*
X384618Y104487D01*
X384525Y104468D01*
X384433Y104445D01*
X384342Y104418D01*
X384252Y104387D01*
X384163Y104353D01*
X384076Y104316D01*
X383990Y104274D01*
X383907Y104230D01*
X383825Y104182D01*
X383745Y104130D01*
X383667Y104076D01*
X383592Y104018D01*
X383518Y103957D01*
X383448Y103894D01*
X383380Y103827D01*
X383315Y103758D01*
X383253Y103686D01*
X383194Y103612D01*
X383138Y103535D01*
X383085Y103457D01*
X383035Y103376D01*
X382988Y103293D01*
X382946Y103208D01*
X382906Y103122D01*
X382870Y103034D01*
X382838Y102944D01*
X382809Y102854D01*
X382784Y102762D01*
X382763Y102670D01*
X382746Y102576D01*
X382732Y102482D01*
X382723Y102388D01*
X382717Y102293D01*
X382715Y102198D01*
X382715Y99870D01*
X382717Y99775D01*
X382723Y99680D01*
X382732Y99586D01*
X382746Y99492D01*
X382763Y99398D01*
X382784Y99306D01*
X382809Y99214D01*
X382838Y99124D01*
X382870Y99034D01*
X382906Y98946D01*
X382946Y98860D01*
X382988Y98775D01*
X383035Y98692D01*
X383085Y98611D01*
X383138Y98533D01*
X383194Y98456D01*
X383253Y98382D01*
X383315Y98310D01*
X383380Y98241D01*
X383448Y98174D01*
X383518Y98111D01*
X383592Y98050D01*
X383667Y97992D01*
X383745Y97938D01*
X383825Y97886D01*
X383907Y97838D01*
X383990Y97794D01*
X384076Y97752D01*
X384163Y97715D01*
X384252Y97681D01*
X384342Y97650D01*
X384433Y97623D01*
X384525Y97600D01*
X384618Y97581D01*
X384712Y97566D01*
X384806Y97554D01*
X384901Y97546D01*
X384996Y97542D01*
X385090Y97542D01*
X385185Y97546D01*
X385280Y97554D01*
X385374Y97566D01*
X385468Y97581D01*
X385561Y97600D01*
X385653Y97623D01*
X385744Y97650D01*
X385834Y97681D01*
X385923Y97715D01*
X386010Y97752D01*
X386096Y97794D01*
X386179Y97838D01*
X386261Y97886D01*
X386341Y97938D01*
X386419Y97992D01*
X386494Y98050D01*
X386568Y98111D01*
X386638Y98174D01*
X386706Y98241D01*
X386771Y98310D01*
X386833Y98382D01*
X386892Y98456D01*
X386948Y98533D01*
X387001Y98611D01*
X387051Y98692D01*
X387098Y98775D01*
X387140Y98860D01*
X387180Y98946D01*
X387216Y99034D01*
X387248Y99124D01*
X387277Y99214D01*
X387302Y99306D01*
X387323Y99398D01*
X387340Y99492D01*
X387354Y99586D01*
X387363Y99680D01*
X387369Y99775D01*
X387371Y99870D01*
X377934Y99288D02*
X377934Y108018D01*
X377934Y99288D02*
X377932Y99207D01*
X377927Y99127D01*
X377917Y99047D01*
X377904Y98967D01*
X377888Y98888D01*
X377867Y98810D01*
X377843Y98733D01*
X377816Y98657D01*
X377785Y98583D01*
X377751Y98510D01*
X377713Y98438D01*
X377672Y98369D01*
X377628Y98301D01*
X377581Y98236D01*
X377531Y98173D01*
X377478Y98112D01*
X377423Y98053D01*
X377364Y97998D01*
X377303Y97945D01*
X377240Y97895D01*
X377175Y97848D01*
X377107Y97804D01*
X377038Y97763D01*
X376966Y97725D01*
X376893Y97691D01*
X376819Y97660D01*
X376743Y97633D01*
X376666Y97609D01*
X376588Y97588D01*
X376509Y97572D01*
X376429Y97559D01*
X376349Y97549D01*
X376269Y97544D01*
X376188Y97542D01*
X371891Y99288D02*
X371891Y104526D01*
X371891Y99288D02*
X371889Y99207D01*
X371884Y99127D01*
X371874Y99047D01*
X371861Y98967D01*
X371845Y98888D01*
X371824Y98810D01*
X371800Y98733D01*
X371773Y98657D01*
X371742Y98583D01*
X371708Y98510D01*
X371670Y98438D01*
X371629Y98369D01*
X371585Y98301D01*
X371538Y98236D01*
X371488Y98173D01*
X371435Y98112D01*
X371380Y98053D01*
X371321Y97998D01*
X371260Y97945D01*
X371197Y97895D01*
X371132Y97848D01*
X371064Y97804D01*
X370995Y97763D01*
X370923Y97725D01*
X370850Y97691D01*
X370776Y97660D01*
X370700Y97633D01*
X370623Y97609D01*
X370545Y97588D01*
X370466Y97572D01*
X370386Y97559D01*
X370306Y97549D01*
X370226Y97544D01*
X370145Y97542D01*
X367235Y97542D01*
X367235Y104526D01*
X363142Y104526D02*
X359650Y104526D01*
X361978Y108018D02*
X361978Y99288D01*
X361976Y99207D01*
X361971Y99127D01*
X361961Y99047D01*
X361948Y98967D01*
X361932Y98888D01*
X361911Y98810D01*
X361887Y98733D01*
X361860Y98657D01*
X361829Y98583D01*
X361795Y98510D01*
X361757Y98438D01*
X361716Y98369D01*
X361672Y98301D01*
X361625Y98236D01*
X361575Y98173D01*
X361522Y98112D01*
X361467Y98053D01*
X361408Y97998D01*
X361347Y97945D01*
X361284Y97895D01*
X361219Y97848D01*
X361151Y97804D01*
X361082Y97763D01*
X361010Y97725D01*
X360937Y97691D01*
X360863Y97660D01*
X360787Y97633D01*
X360710Y97609D01*
X360632Y97588D01*
X360553Y97572D01*
X360473Y97559D01*
X360393Y97549D01*
X360313Y97544D01*
X360232Y97542D01*
X359650Y97542D01*
X355523Y97542D02*
X355523Y104526D01*
X355814Y107436D02*
X355814Y108018D01*
X355232Y108018D01*
X355232Y107436D01*
X355814Y107436D01*
X351011Y102198D02*
X351011Y99870D01*
X351011Y102198D02*
X351009Y102293D01*
X351003Y102388D01*
X350994Y102482D01*
X350980Y102576D01*
X350963Y102670D01*
X350942Y102762D01*
X350917Y102854D01*
X350888Y102944D01*
X350856Y103034D01*
X350820Y103122D01*
X350780Y103208D01*
X350738Y103293D01*
X350691Y103376D01*
X350641Y103457D01*
X350588Y103535D01*
X350532Y103612D01*
X350473Y103686D01*
X350411Y103758D01*
X350346Y103827D01*
X350278Y103894D01*
X350208Y103957D01*
X350134Y104018D01*
X350059Y104076D01*
X349981Y104130D01*
X349901Y104182D01*
X349819Y104230D01*
X349736Y104274D01*
X349650Y104316D01*
X349563Y104353D01*
X349474Y104387D01*
X349384Y104418D01*
X349293Y104445D01*
X349201Y104468D01*
X349108Y104487D01*
X349014Y104502D01*
X348920Y104514D01*
X348825Y104522D01*
X348730Y104526D01*
X348636Y104526D01*
X348541Y104522D01*
X348446Y104514D01*
X348352Y104502D01*
X348258Y104487D01*
X348165Y104468D01*
X348073Y104445D01*
X347982Y104418D01*
X347892Y104387D01*
X347803Y104353D01*
X347716Y104316D01*
X347630Y104274D01*
X347547Y104230D01*
X347465Y104182D01*
X347385Y104130D01*
X347307Y104076D01*
X347232Y104018D01*
X347158Y103957D01*
X347088Y103894D01*
X347020Y103827D01*
X346955Y103758D01*
X346893Y103686D01*
X346834Y103612D01*
X346778Y103535D01*
X346725Y103457D01*
X346675Y103376D01*
X346628Y103293D01*
X346586Y103208D01*
X346546Y103122D01*
X346510Y103034D01*
X346478Y102944D01*
X346449Y102854D01*
X346424Y102762D01*
X346403Y102670D01*
X346386Y102576D01*
X346372Y102482D01*
X346363Y102388D01*
X346357Y102293D01*
X346355Y102198D01*
X346355Y99870D01*
X346357Y99775D01*
X346363Y99680D01*
X346372Y99586D01*
X346386Y99492D01*
X346403Y99398D01*
X346424Y99306D01*
X346449Y99214D01*
X346478Y99124D01*
X346510Y99034D01*
X346546Y98946D01*
X346586Y98860D01*
X346628Y98775D01*
X346675Y98692D01*
X346725Y98611D01*
X346778Y98533D01*
X346834Y98456D01*
X346893Y98382D01*
X346955Y98310D01*
X347020Y98241D01*
X347088Y98174D01*
X347158Y98111D01*
X347232Y98050D01*
X347307Y97992D01*
X347385Y97938D01*
X347465Y97886D01*
X347547Y97838D01*
X347630Y97794D01*
X347716Y97752D01*
X347803Y97715D01*
X347892Y97681D01*
X347982Y97650D01*
X348073Y97623D01*
X348165Y97600D01*
X348258Y97581D01*
X348352Y97566D01*
X348446Y97554D01*
X348541Y97546D01*
X348636Y97542D01*
X348730Y97542D01*
X348825Y97546D01*
X348920Y97554D01*
X349014Y97566D01*
X349108Y97581D01*
X349201Y97600D01*
X349293Y97623D01*
X349384Y97650D01*
X349474Y97681D01*
X349563Y97715D01*
X349650Y97752D01*
X349736Y97794D01*
X349819Y97838D01*
X349901Y97886D01*
X349981Y97938D01*
X350059Y97992D01*
X350134Y98050D01*
X350208Y98111D01*
X350278Y98174D01*
X350346Y98241D01*
X350411Y98310D01*
X350473Y98382D01*
X350532Y98456D01*
X350588Y98533D01*
X350641Y98611D01*
X350691Y98692D01*
X350738Y98775D01*
X350780Y98860D01*
X350820Y98946D01*
X350856Y99034D01*
X350888Y99124D01*
X350917Y99214D01*
X350942Y99306D01*
X350963Y99398D01*
X350980Y99492D01*
X350994Y99586D01*
X351003Y99680D01*
X351009Y99775D01*
X351011Y99870D01*
X341291Y97542D02*
X341291Y104526D01*
X338381Y104526D01*
X338300Y104524D01*
X338220Y104519D01*
X338140Y104509D01*
X338060Y104496D01*
X337981Y104480D01*
X337903Y104459D01*
X337826Y104435D01*
X337750Y104408D01*
X337676Y104377D01*
X337603Y104343D01*
X337531Y104305D01*
X337462Y104264D01*
X337394Y104220D01*
X337329Y104173D01*
X337266Y104123D01*
X337205Y104070D01*
X337146Y104015D01*
X337091Y103956D01*
X337038Y103895D01*
X336988Y103832D01*
X336941Y103767D01*
X336897Y103699D01*
X336856Y103630D01*
X336818Y103558D01*
X336784Y103485D01*
X336753Y103411D01*
X336726Y103335D01*
X336702Y103258D01*
X336681Y103180D01*
X336665Y103101D01*
X336652Y103021D01*
X336642Y102941D01*
X336637Y102861D01*
X336635Y102780D01*
X336635Y97542D01*
X330698Y101616D02*
X327788Y100452D01*
X330698Y101616D02*
X330768Y101646D01*
X330837Y101680D01*
X330903Y101716D01*
X330968Y101757D01*
X331030Y101800D01*
X331091Y101847D01*
X331148Y101896D01*
X331204Y101949D01*
X331256Y102004D01*
X331306Y102061D01*
X331353Y102122D01*
X331396Y102184D01*
X331437Y102249D01*
X331474Y102315D01*
X331507Y102383D01*
X331538Y102453D01*
X331564Y102525D01*
X331587Y102597D01*
X331607Y102671D01*
X331622Y102745D01*
X331634Y102820D01*
X331642Y102896D01*
X331646Y102972D01*
X331647Y103048D01*
X331643Y103124D01*
X331636Y103200D01*
X331625Y103276D01*
X331610Y103350D01*
X331591Y103424D01*
X331569Y103497D01*
X331543Y103568D01*
X331513Y103638D01*
X331480Y103707D01*
X331443Y103774D01*
X331404Y103839D01*
X331361Y103902D01*
X331314Y103962D01*
X331265Y104020D01*
X331213Y104076D01*
X331158Y104129D01*
X331101Y104179D01*
X331041Y104226D01*
X330979Y104270D01*
X330915Y104311D01*
X330849Y104348D01*
X330781Y104382D01*
X330711Y104413D01*
X330640Y104440D01*
X330567Y104464D01*
X330494Y104483D01*
X330419Y104500D01*
X330344Y104512D01*
X330269Y104520D01*
X330193Y104525D01*
X330116Y104526D01*
X330116Y104525D02*
X329957Y104521D01*
X329798Y104513D01*
X329640Y104501D01*
X329481Y104486D01*
X329324Y104466D01*
X329166Y104443D01*
X329010Y104416D01*
X328854Y104385D01*
X328699Y104351D01*
X328545Y104313D01*
X328391Y104271D01*
X328239Y104225D01*
X328088Y104176D01*
X327938Y104123D01*
X327790Y104067D01*
X327642Y104007D01*
X327497Y103943D01*
X327788Y100452D02*
X327718Y100422D01*
X327649Y100388D01*
X327583Y100352D01*
X327518Y100311D01*
X327456Y100268D01*
X327395Y100221D01*
X327338Y100172D01*
X327282Y100119D01*
X327230Y100064D01*
X327180Y100007D01*
X327133Y99946D01*
X327090Y99884D01*
X327049Y99819D01*
X327012Y99753D01*
X326979Y99685D01*
X326948Y99615D01*
X326922Y99543D01*
X326899Y99471D01*
X326879Y99397D01*
X326864Y99323D01*
X326852Y99248D01*
X326844Y99172D01*
X326840Y99096D01*
X326839Y99020D01*
X326843Y98944D01*
X326850Y98868D01*
X326861Y98792D01*
X326876Y98718D01*
X326895Y98644D01*
X326917Y98571D01*
X326943Y98500D01*
X326973Y98430D01*
X327006Y98361D01*
X327043Y98294D01*
X327082Y98229D01*
X327125Y98166D01*
X327172Y98106D01*
X327221Y98048D01*
X327273Y97992D01*
X327328Y97939D01*
X327385Y97889D01*
X327445Y97842D01*
X327507Y97798D01*
X327571Y97757D01*
X327637Y97720D01*
X327705Y97686D01*
X327775Y97655D01*
X327846Y97628D01*
X327919Y97604D01*
X327992Y97585D01*
X328067Y97568D01*
X328142Y97556D01*
X328217Y97548D01*
X328293Y97543D01*
X328370Y97542D01*
X328603Y97548D01*
X328837Y97560D01*
X329069Y97577D01*
X329302Y97599D01*
X329533Y97628D01*
X329764Y97661D01*
X329995Y97700D01*
X330224Y97745D01*
X330452Y97795D01*
X330679Y97850D01*
X330904Y97910D01*
X331128Y97976D01*
X331350Y98048D01*
X331571Y98124D01*
X315578Y101616D02*
X312668Y100452D01*
X315578Y101616D02*
X315648Y101646D01*
X315717Y101680D01*
X315783Y101716D01*
X315848Y101757D01*
X315910Y101800D01*
X315971Y101847D01*
X316028Y101896D01*
X316084Y101949D01*
X316136Y102004D01*
X316186Y102061D01*
X316233Y102122D01*
X316276Y102184D01*
X316317Y102249D01*
X316354Y102315D01*
X316387Y102383D01*
X316418Y102453D01*
X316444Y102525D01*
X316467Y102597D01*
X316487Y102671D01*
X316502Y102745D01*
X316514Y102820D01*
X316522Y102896D01*
X316526Y102972D01*
X316527Y103048D01*
X316523Y103124D01*
X316516Y103200D01*
X316505Y103276D01*
X316490Y103350D01*
X316471Y103424D01*
X316449Y103497D01*
X316423Y103568D01*
X316393Y103638D01*
X316360Y103707D01*
X316323Y103774D01*
X316284Y103839D01*
X316241Y103902D01*
X316194Y103962D01*
X316145Y104020D01*
X316093Y104076D01*
X316038Y104129D01*
X315981Y104179D01*
X315921Y104226D01*
X315859Y104270D01*
X315795Y104311D01*
X315729Y104348D01*
X315661Y104382D01*
X315591Y104413D01*
X315520Y104440D01*
X315447Y104464D01*
X315374Y104483D01*
X315299Y104500D01*
X315224Y104512D01*
X315149Y104520D01*
X315073Y104525D01*
X314996Y104526D01*
X314996Y104525D02*
X314837Y104521D01*
X314678Y104513D01*
X314520Y104501D01*
X314361Y104486D01*
X314204Y104466D01*
X314046Y104443D01*
X313890Y104416D01*
X313734Y104385D01*
X313579Y104351D01*
X313425Y104313D01*
X313271Y104271D01*
X313119Y104225D01*
X312968Y104176D01*
X312818Y104123D01*
X312670Y104067D01*
X312522Y104007D01*
X312377Y103943D01*
X312668Y100452D02*
X312598Y100422D01*
X312529Y100388D01*
X312463Y100352D01*
X312398Y100311D01*
X312336Y100268D01*
X312275Y100221D01*
X312218Y100172D01*
X312162Y100119D01*
X312110Y100064D01*
X312060Y100007D01*
X312013Y99946D01*
X311970Y99884D01*
X311929Y99819D01*
X311892Y99753D01*
X311859Y99685D01*
X311828Y99615D01*
X311802Y99543D01*
X311779Y99471D01*
X311759Y99397D01*
X311744Y99323D01*
X311732Y99248D01*
X311724Y99172D01*
X311720Y99096D01*
X311719Y99020D01*
X311723Y98944D01*
X311730Y98868D01*
X311741Y98792D01*
X311756Y98718D01*
X311775Y98644D01*
X311797Y98571D01*
X311823Y98500D01*
X311853Y98430D01*
X311886Y98361D01*
X311923Y98294D01*
X311962Y98229D01*
X312005Y98166D01*
X312052Y98106D01*
X312101Y98048D01*
X312153Y97992D01*
X312208Y97939D01*
X312265Y97889D01*
X312325Y97842D01*
X312387Y97798D01*
X312451Y97757D01*
X312517Y97720D01*
X312585Y97686D01*
X312655Y97655D01*
X312726Y97628D01*
X312799Y97604D01*
X312872Y97585D01*
X312947Y97568D01*
X313022Y97556D01*
X313097Y97548D01*
X313173Y97543D01*
X313250Y97542D01*
X313483Y97548D01*
X313717Y97560D01*
X313949Y97577D01*
X314182Y97599D01*
X314413Y97628D01*
X314644Y97661D01*
X314875Y97700D01*
X315104Y97745D01*
X315332Y97795D01*
X315559Y97850D01*
X315784Y97910D01*
X316008Y97976D01*
X316230Y98048D01*
X316451Y98124D01*
X307574Y98124D02*
X307574Y97542D01*
X307574Y98124D02*
X306992Y98124D01*
X306992Y97542D01*
X307574Y97542D01*
X302330Y97542D02*
X302330Y104526D01*
X298838Y104526D01*
X298838Y103362D01*
X295694Y98124D02*
X295694Y97542D01*
X295694Y98124D02*
X295112Y98124D01*
X295112Y97542D01*
X295694Y97542D01*
X290891Y99870D02*
X290891Y102198D01*
X290889Y102293D01*
X290883Y102388D01*
X290874Y102482D01*
X290860Y102576D01*
X290843Y102670D01*
X290822Y102762D01*
X290797Y102854D01*
X290768Y102944D01*
X290736Y103034D01*
X290700Y103122D01*
X290660Y103208D01*
X290618Y103293D01*
X290571Y103376D01*
X290521Y103457D01*
X290468Y103535D01*
X290412Y103612D01*
X290353Y103686D01*
X290291Y103758D01*
X290226Y103827D01*
X290158Y103894D01*
X290088Y103957D01*
X290014Y104018D01*
X289939Y104076D01*
X289861Y104130D01*
X289781Y104182D01*
X289699Y104230D01*
X289616Y104274D01*
X289530Y104316D01*
X289443Y104353D01*
X289354Y104387D01*
X289264Y104418D01*
X289173Y104445D01*
X289081Y104468D01*
X288988Y104487D01*
X288894Y104502D01*
X288800Y104514D01*
X288705Y104522D01*
X288610Y104526D01*
X288516Y104526D01*
X288421Y104522D01*
X288326Y104514D01*
X288232Y104502D01*
X288138Y104487D01*
X288045Y104468D01*
X287953Y104445D01*
X287862Y104418D01*
X287772Y104387D01*
X287683Y104353D01*
X287596Y104316D01*
X287510Y104274D01*
X287427Y104230D01*
X287345Y104182D01*
X287265Y104130D01*
X287187Y104076D01*
X287112Y104018D01*
X287038Y103957D01*
X286968Y103894D01*
X286900Y103827D01*
X286835Y103758D01*
X286773Y103686D01*
X286714Y103612D01*
X286658Y103535D01*
X286605Y103457D01*
X286555Y103376D01*
X286508Y103293D01*
X286466Y103208D01*
X286426Y103122D01*
X286390Y103034D01*
X286358Y102944D01*
X286329Y102854D01*
X286304Y102762D01*
X286283Y102670D01*
X286266Y102576D01*
X286252Y102482D01*
X286243Y102388D01*
X286237Y102293D01*
X286235Y102198D01*
X286235Y99870D01*
X286237Y99775D01*
X286243Y99680D01*
X286252Y99586D01*
X286266Y99492D01*
X286283Y99398D01*
X286304Y99306D01*
X286329Y99214D01*
X286358Y99124D01*
X286390Y99034D01*
X286426Y98946D01*
X286466Y98860D01*
X286508Y98775D01*
X286555Y98692D01*
X286605Y98611D01*
X286658Y98533D01*
X286714Y98456D01*
X286773Y98382D01*
X286835Y98310D01*
X286900Y98241D01*
X286968Y98174D01*
X287038Y98111D01*
X287112Y98050D01*
X287187Y97992D01*
X287265Y97938D01*
X287345Y97886D01*
X287427Y97838D01*
X287510Y97794D01*
X287596Y97752D01*
X287683Y97715D01*
X287772Y97681D01*
X287862Y97650D01*
X287953Y97623D01*
X288045Y97600D01*
X288138Y97581D01*
X288232Y97566D01*
X288326Y97554D01*
X288421Y97546D01*
X288516Y97542D01*
X288610Y97542D01*
X288705Y97546D01*
X288800Y97554D01*
X288894Y97566D01*
X288988Y97581D01*
X289081Y97600D01*
X289173Y97623D01*
X289264Y97650D01*
X289354Y97681D01*
X289443Y97715D01*
X289530Y97752D01*
X289616Y97794D01*
X289699Y97838D01*
X289781Y97886D01*
X289861Y97938D01*
X289939Y97992D01*
X290014Y98050D01*
X290088Y98111D01*
X290158Y98174D01*
X290226Y98241D01*
X290291Y98310D01*
X290353Y98382D01*
X290412Y98456D01*
X290468Y98533D01*
X290521Y98611D01*
X290571Y98692D01*
X290618Y98775D01*
X290660Y98860D01*
X290700Y98946D01*
X290736Y99034D01*
X290768Y99124D01*
X290797Y99214D01*
X290822Y99306D01*
X290843Y99398D01*
X290860Y99492D01*
X290874Y99586D01*
X290883Y99680D01*
X290889Y99775D01*
X290891Y99870D01*
X282014Y98124D02*
X282014Y97542D01*
X282014Y98124D02*
X281432Y98124D01*
X281432Y97542D01*
X282014Y97542D01*
X418669Y32258D02*
X418669Y24110D01*
X418671Y24016D01*
X418677Y23923D01*
X418686Y23829D01*
X418699Y23737D01*
X418716Y23644D01*
X418737Y23553D01*
X418761Y23462D01*
X418789Y23373D01*
X418820Y23284D01*
X418855Y23198D01*
X418894Y23112D01*
X418936Y23028D01*
X418981Y22946D01*
X419029Y22866D01*
X419081Y22788D01*
X419136Y22711D01*
X419194Y22638D01*
X419254Y22566D01*
X419318Y22497D01*
X419384Y22431D01*
X419453Y22367D01*
X419525Y22307D01*
X419598Y22249D01*
X419675Y22194D01*
X419753Y22142D01*
X419833Y22094D01*
X419915Y22049D01*
X419999Y22007D01*
X420085Y21968D01*
X420171Y21933D01*
X420260Y21902D01*
X420349Y21874D01*
X420440Y21850D01*
X420531Y21829D01*
X420624Y21812D01*
X420716Y21799D01*
X420810Y21790D01*
X420903Y21784D01*
X420997Y21782D01*
X422161Y21782D01*
X413164Y23528D02*
X413164Y28766D01*
X413164Y23528D02*
X413162Y23447D01*
X413157Y23367D01*
X413147Y23287D01*
X413134Y23207D01*
X413118Y23128D01*
X413097Y23050D01*
X413073Y22973D01*
X413046Y22897D01*
X413015Y22823D01*
X412981Y22750D01*
X412943Y22678D01*
X412902Y22609D01*
X412858Y22541D01*
X412811Y22476D01*
X412761Y22413D01*
X412708Y22352D01*
X412653Y22293D01*
X412594Y22238D01*
X412533Y22185D01*
X412470Y22135D01*
X412405Y22088D01*
X412337Y22044D01*
X412268Y22003D01*
X412196Y21965D01*
X412123Y21931D01*
X412049Y21900D01*
X411973Y21873D01*
X411896Y21849D01*
X411818Y21828D01*
X411739Y21812D01*
X411659Y21799D01*
X411579Y21789D01*
X411499Y21784D01*
X411418Y21782D01*
X408508Y21782D01*
X408508Y28766D01*
X403002Y28766D02*
X403002Y21782D01*
X403002Y28766D02*
X399510Y28766D01*
X399510Y27602D01*
X393919Y25856D02*
X391300Y25856D01*
X393919Y25856D02*
X394008Y25854D01*
X394097Y25848D01*
X394185Y25839D01*
X394273Y25825D01*
X394360Y25808D01*
X394446Y25787D01*
X394532Y25762D01*
X394616Y25733D01*
X394699Y25701D01*
X394780Y25665D01*
X394860Y25626D01*
X394938Y25583D01*
X395013Y25537D01*
X395087Y25488D01*
X395159Y25435D01*
X395228Y25379D01*
X395295Y25321D01*
X395359Y25259D01*
X395421Y25195D01*
X395479Y25128D01*
X395535Y25059D01*
X395588Y24987D01*
X395637Y24913D01*
X395683Y24837D01*
X395726Y24760D01*
X395765Y24680D01*
X395801Y24599D01*
X395833Y24516D01*
X395862Y24432D01*
X395887Y24346D01*
X395908Y24260D01*
X395925Y24173D01*
X395939Y24085D01*
X395948Y23997D01*
X395954Y23908D01*
X395956Y23819D01*
X395954Y23730D01*
X395948Y23641D01*
X395939Y23553D01*
X395925Y23465D01*
X395908Y23378D01*
X395887Y23292D01*
X395862Y23206D01*
X395833Y23122D01*
X395801Y23039D01*
X395765Y22958D01*
X395726Y22878D01*
X395683Y22800D01*
X395637Y22725D01*
X395588Y22651D01*
X395535Y22579D01*
X395479Y22510D01*
X395421Y22443D01*
X395359Y22379D01*
X395295Y22317D01*
X395228Y22259D01*
X395159Y22203D01*
X395087Y22150D01*
X395013Y22101D01*
X394938Y22055D01*
X394860Y22012D01*
X394780Y21973D01*
X394699Y21937D01*
X394616Y21905D01*
X394532Y21876D01*
X394446Y21851D01*
X394360Y21830D01*
X394273Y21813D01*
X394185Y21799D01*
X394097Y21790D01*
X394008Y21784D01*
X393919Y21782D01*
X391300Y21782D01*
X391300Y27020D01*
X391302Y27101D01*
X391307Y27181D01*
X391317Y27261D01*
X391330Y27341D01*
X391346Y27420D01*
X391367Y27498D01*
X391391Y27575D01*
X391418Y27651D01*
X391449Y27725D01*
X391483Y27798D01*
X391521Y27870D01*
X391562Y27939D01*
X391606Y28007D01*
X391653Y28072D01*
X391703Y28135D01*
X391756Y28196D01*
X391811Y28255D01*
X391870Y28310D01*
X391931Y28363D01*
X391994Y28413D01*
X392059Y28460D01*
X392127Y28504D01*
X392196Y28545D01*
X392268Y28583D01*
X392341Y28617D01*
X392415Y28648D01*
X392491Y28675D01*
X392568Y28699D01*
X392646Y28720D01*
X392725Y28736D01*
X392805Y28749D01*
X392885Y28759D01*
X392965Y28764D01*
X393046Y28766D01*
X395374Y28766D01*
X386597Y28766D02*
X386597Y20036D01*
X386599Y19955D01*
X386604Y19875D01*
X386614Y19795D01*
X386627Y19715D01*
X386643Y19636D01*
X386664Y19558D01*
X386688Y19481D01*
X386715Y19405D01*
X386746Y19331D01*
X386780Y19258D01*
X386818Y19186D01*
X386859Y19117D01*
X386903Y19049D01*
X386950Y18984D01*
X387000Y18921D01*
X387053Y18860D01*
X387108Y18801D01*
X387167Y18746D01*
X387228Y18693D01*
X387291Y18643D01*
X387356Y18596D01*
X387424Y18552D01*
X387493Y18511D01*
X387565Y18473D01*
X387638Y18439D01*
X387712Y18408D01*
X387788Y18381D01*
X387865Y18357D01*
X387943Y18336D01*
X388022Y18320D01*
X388102Y18307D01*
X388182Y18297D01*
X388262Y18292D01*
X388343Y18290D01*
X388925Y18290D01*
X386888Y31676D02*
X386888Y32258D01*
X386306Y32258D01*
X386306Y31676D01*
X386888Y31676D01*
X375496Y32258D02*
X375496Y21782D01*
X375496Y32258D02*
X372586Y32258D01*
X372480Y32256D01*
X372374Y32250D01*
X372268Y32241D01*
X372162Y32227D01*
X372057Y32210D01*
X371953Y32188D01*
X371850Y32163D01*
X371748Y32135D01*
X371646Y32102D01*
X371546Y32066D01*
X371448Y32026D01*
X371351Y31983D01*
X371255Y31936D01*
X371162Y31886D01*
X371070Y31832D01*
X370980Y31775D01*
X370893Y31715D01*
X370807Y31651D01*
X370725Y31585D01*
X370644Y31515D01*
X370566Y31443D01*
X370491Y31368D01*
X370419Y31290D01*
X370349Y31209D01*
X370283Y31127D01*
X370219Y31041D01*
X370159Y30954D01*
X370102Y30864D01*
X370048Y30772D01*
X369998Y30679D01*
X369951Y30583D01*
X369908Y30486D01*
X369868Y30388D01*
X369832Y30288D01*
X369799Y30186D01*
X369771Y30084D01*
X369746Y29981D01*
X369724Y29877D01*
X369707Y29772D01*
X369693Y29666D01*
X369684Y29560D01*
X369678Y29454D01*
X369676Y29348D01*
X369678Y29242D01*
X369684Y29136D01*
X369693Y29030D01*
X369707Y28924D01*
X369724Y28819D01*
X369746Y28715D01*
X369771Y28612D01*
X369799Y28510D01*
X369832Y28408D01*
X369868Y28308D01*
X369908Y28210D01*
X369951Y28113D01*
X369998Y28017D01*
X370048Y27924D01*
X370102Y27832D01*
X370159Y27742D01*
X370219Y27655D01*
X370283Y27569D01*
X370349Y27487D01*
X370419Y27406D01*
X370491Y27328D01*
X370566Y27253D01*
X370644Y27181D01*
X370725Y27111D01*
X370807Y27045D01*
X370893Y26981D01*
X370980Y26921D01*
X371070Y26864D01*
X371162Y26810D01*
X371255Y26760D01*
X371351Y26713D01*
X371448Y26670D01*
X371546Y26630D01*
X371646Y26594D01*
X371748Y26561D01*
X371850Y26533D01*
X371953Y26508D01*
X372057Y26486D01*
X372162Y26469D01*
X372268Y26455D01*
X372374Y26446D01*
X372480Y26440D01*
X372586Y26438D01*
X375496Y26438D01*
X372004Y26438D02*
X369676Y21782D01*
X363178Y21782D02*
X360268Y21782D01*
X363178Y21782D02*
X363259Y21784D01*
X363339Y21789D01*
X363419Y21799D01*
X363499Y21812D01*
X363578Y21828D01*
X363656Y21849D01*
X363733Y21873D01*
X363809Y21900D01*
X363883Y21931D01*
X363956Y21965D01*
X364028Y22003D01*
X364097Y22044D01*
X364165Y22088D01*
X364230Y22135D01*
X364293Y22185D01*
X364354Y22238D01*
X364413Y22293D01*
X364468Y22352D01*
X364521Y22413D01*
X364571Y22476D01*
X364618Y22541D01*
X364662Y22609D01*
X364703Y22678D01*
X364741Y22750D01*
X364775Y22823D01*
X364806Y22897D01*
X364833Y22973D01*
X364857Y23050D01*
X364878Y23128D01*
X364894Y23207D01*
X364907Y23287D01*
X364917Y23367D01*
X364922Y23447D01*
X364924Y23528D01*
X364924Y26438D01*
X364922Y26533D01*
X364916Y26628D01*
X364907Y26722D01*
X364893Y26816D01*
X364876Y26910D01*
X364855Y27002D01*
X364830Y27094D01*
X364801Y27184D01*
X364769Y27274D01*
X364733Y27362D01*
X364693Y27448D01*
X364651Y27533D01*
X364604Y27616D01*
X364554Y27697D01*
X364501Y27775D01*
X364445Y27852D01*
X364386Y27926D01*
X364324Y27998D01*
X364259Y28067D01*
X364191Y28134D01*
X364121Y28197D01*
X364047Y28258D01*
X363972Y28316D01*
X363894Y28370D01*
X363814Y28422D01*
X363732Y28470D01*
X363649Y28514D01*
X363563Y28556D01*
X363476Y28593D01*
X363387Y28627D01*
X363297Y28658D01*
X363206Y28685D01*
X363114Y28708D01*
X363021Y28727D01*
X362927Y28742D01*
X362833Y28754D01*
X362738Y28762D01*
X362643Y28766D01*
X362549Y28766D01*
X362454Y28762D01*
X362359Y28754D01*
X362265Y28742D01*
X362171Y28727D01*
X362078Y28708D01*
X361986Y28685D01*
X361895Y28658D01*
X361805Y28627D01*
X361716Y28593D01*
X361629Y28556D01*
X361543Y28514D01*
X361460Y28470D01*
X361378Y28422D01*
X361298Y28370D01*
X361220Y28316D01*
X361145Y28258D01*
X361071Y28197D01*
X361001Y28134D01*
X360933Y28067D01*
X360868Y27998D01*
X360806Y27926D01*
X360747Y27852D01*
X360691Y27775D01*
X360638Y27697D01*
X360588Y27616D01*
X360541Y27533D01*
X360499Y27448D01*
X360459Y27362D01*
X360423Y27274D01*
X360391Y27184D01*
X360362Y27094D01*
X360337Y27002D01*
X360316Y26910D01*
X360299Y26816D01*
X360285Y26722D01*
X360276Y26628D01*
X360270Y26533D01*
X360268Y26438D01*
X360268Y25274D01*
X364924Y25274D01*
X355132Y28766D02*
X355132Y18290D01*
X355132Y28766D02*
X352222Y28766D01*
X352141Y28764D01*
X352061Y28759D01*
X351981Y28749D01*
X351901Y28736D01*
X351822Y28720D01*
X351744Y28699D01*
X351667Y28675D01*
X351591Y28648D01*
X351517Y28617D01*
X351444Y28583D01*
X351372Y28545D01*
X351303Y28504D01*
X351235Y28460D01*
X351170Y28413D01*
X351107Y28363D01*
X351046Y28310D01*
X350987Y28255D01*
X350932Y28196D01*
X350879Y28135D01*
X350829Y28072D01*
X350782Y28007D01*
X350738Y27939D01*
X350697Y27870D01*
X350659Y27798D01*
X350625Y27725D01*
X350594Y27651D01*
X350567Y27575D01*
X350543Y27498D01*
X350522Y27420D01*
X350506Y27341D01*
X350493Y27261D01*
X350483Y27181D01*
X350478Y27101D01*
X350476Y27020D01*
X350476Y23528D01*
X350478Y23447D01*
X350483Y23367D01*
X350493Y23287D01*
X350506Y23207D01*
X350522Y23128D01*
X350543Y23050D01*
X350567Y22973D01*
X350594Y22897D01*
X350625Y22823D01*
X350659Y22750D01*
X350697Y22678D01*
X350738Y22609D01*
X350782Y22541D01*
X350829Y22476D01*
X350879Y22413D01*
X350932Y22352D01*
X350987Y22293D01*
X351046Y22238D01*
X351107Y22185D01*
X351170Y22135D01*
X351235Y22088D01*
X351303Y22044D01*
X351372Y22003D01*
X351444Y21965D01*
X351517Y21931D01*
X351591Y21900D01*
X351667Y21873D01*
X351744Y21849D01*
X351822Y21828D01*
X351901Y21812D01*
X351981Y21799D01*
X352061Y21789D01*
X352141Y21784D01*
X352222Y21782D01*
X355132Y21782D01*
X343960Y21782D02*
X341632Y21782D01*
X343960Y21782D02*
X344041Y21784D01*
X344121Y21789D01*
X344201Y21799D01*
X344281Y21812D01*
X344360Y21828D01*
X344438Y21849D01*
X344515Y21873D01*
X344591Y21900D01*
X344665Y21931D01*
X344738Y21965D01*
X344810Y22003D01*
X344879Y22044D01*
X344947Y22088D01*
X345012Y22135D01*
X345075Y22185D01*
X345136Y22238D01*
X345195Y22293D01*
X345250Y22352D01*
X345303Y22413D01*
X345353Y22476D01*
X345400Y22541D01*
X345444Y22609D01*
X345485Y22678D01*
X345523Y22750D01*
X345557Y22823D01*
X345588Y22897D01*
X345615Y22973D01*
X345639Y23050D01*
X345660Y23128D01*
X345676Y23207D01*
X345689Y23287D01*
X345699Y23367D01*
X345704Y23447D01*
X345706Y23528D01*
X345706Y27020D01*
X345704Y27101D01*
X345699Y27181D01*
X345689Y27261D01*
X345676Y27341D01*
X345660Y27420D01*
X345639Y27498D01*
X345615Y27575D01*
X345588Y27651D01*
X345557Y27725D01*
X345523Y27798D01*
X345485Y27870D01*
X345444Y27939D01*
X345400Y28007D01*
X345353Y28072D01*
X345303Y28135D01*
X345250Y28196D01*
X345195Y28255D01*
X345136Y28310D01*
X345075Y28363D01*
X345012Y28413D01*
X344947Y28460D01*
X344879Y28504D01*
X344810Y28545D01*
X344738Y28583D01*
X344665Y28617D01*
X344591Y28648D01*
X344515Y28675D01*
X344438Y28699D01*
X344360Y28720D01*
X344281Y28736D01*
X344201Y28749D01*
X344121Y28759D01*
X344041Y28764D01*
X343960Y28766D01*
X341632Y28766D01*
X343378Y31385D02*
X345124Y33131D01*
X343378Y31385D02*
X341632Y33131D01*
X337987Y28766D02*
X337987Y21782D01*
X338278Y31385D02*
X337114Y33713D01*
X333078Y32258D02*
X333078Y21782D01*
X333078Y25274D02*
X328422Y28766D01*
X331041Y26729D02*
X328422Y21782D01*
D12*
X411860Y65240D02*
X411860Y83240D01*
X395860Y83240D01*
X395860Y65240D01*
X411860Y65240D01*
D13*
X417510Y59540D02*
X417510Y89540D01*
X390210Y89540D01*
X390210Y59540D01*
X417510Y59540D01*
D12*
X417210Y91240D02*
X417208Y91178D01*
X417202Y91117D01*
X417193Y91056D01*
X417180Y90996D01*
X417163Y90937D01*
X417142Y90879D01*
X417118Y90822D01*
X417091Y90767D01*
X417060Y90714D01*
X417026Y90662D01*
X416989Y90613D01*
X416949Y90566D01*
X416906Y90522D01*
X416861Y90481D01*
X416813Y90442D01*
X416762Y90406D01*
X416710Y90374D01*
X416656Y90345D01*
X416600Y90319D01*
X416542Y90297D01*
X416484Y90278D01*
X416424Y90263D01*
X416363Y90252D01*
X416302Y90244D01*
X416241Y90240D01*
X416179Y90240D01*
X416118Y90244D01*
X416057Y90252D01*
X415996Y90263D01*
X415936Y90278D01*
X415878Y90297D01*
X415820Y90319D01*
X415764Y90345D01*
X415710Y90374D01*
X415658Y90406D01*
X415607Y90442D01*
X415559Y90481D01*
X415514Y90522D01*
X415471Y90566D01*
X415431Y90613D01*
X415394Y90662D01*
X415360Y90714D01*
X415329Y90767D01*
X415302Y90822D01*
X415278Y90879D01*
X415257Y90937D01*
X415240Y90996D01*
X415227Y91056D01*
X415218Y91117D01*
X415212Y91178D01*
X415210Y91240D01*
X415212Y91302D01*
X415218Y91363D01*
X415227Y91424D01*
X415240Y91484D01*
X415257Y91543D01*
X415278Y91601D01*
X415302Y91658D01*
X415329Y91713D01*
X415360Y91766D01*
X415394Y91818D01*
X415431Y91867D01*
X415471Y91914D01*
X415514Y91958D01*
X415559Y91999D01*
X415607Y92038D01*
X415658Y92074D01*
X415710Y92106D01*
X415764Y92135D01*
X415820Y92161D01*
X415878Y92183D01*
X415936Y92202D01*
X415996Y92217D01*
X416057Y92228D01*
X416118Y92236D01*
X416179Y92240D01*
X416241Y92240D01*
X416302Y92236D01*
X416363Y92228D01*
X416424Y92217D01*
X416484Y92202D01*
X416542Y92183D01*
X416600Y92161D01*
X416656Y92135D01*
X416710Y92106D01*
X416762Y92074D01*
X416813Y92038D01*
X416861Y91999D01*
X416906Y91958D01*
X416949Y91914D01*
X416989Y91867D01*
X417026Y91818D01*
X417060Y91766D01*
X417091Y91713D01*
X417118Y91658D01*
X417142Y91601D01*
X417163Y91543D01*
X417180Y91484D01*
X417193Y91424D01*
X417202Y91363D01*
X417208Y91302D01*
X417210Y91240D01*
D14*
X410845Y90488D03*
D15*
X422275Y61333D02*
X431165Y61333D01*
X422275Y61333D02*
X422275Y65284D01*
X422275Y69258D02*
X422275Y73209D01*
X422275Y69258D02*
X431165Y69258D01*
X431165Y73209D01*
X427214Y72221D02*
X427214Y69258D01*
X431165Y77159D02*
X422275Y77159D01*
X431165Y77159D02*
X431165Y79629D01*
X431163Y79726D01*
X431157Y79823D01*
X431148Y79919D01*
X431135Y80015D01*
X431118Y80111D01*
X431097Y80205D01*
X431072Y80299D01*
X431044Y80392D01*
X431012Y80484D01*
X430977Y80574D01*
X430938Y80663D01*
X430896Y80750D01*
X430850Y80835D01*
X430801Y80919D01*
X430749Y81001D01*
X430693Y81080D01*
X430635Y81158D01*
X430573Y81232D01*
X430509Y81305D01*
X430442Y81375D01*
X430372Y81442D01*
X430299Y81506D01*
X430225Y81568D01*
X430147Y81626D01*
X430068Y81682D01*
X429986Y81734D01*
X429902Y81783D01*
X429817Y81829D01*
X429730Y81871D01*
X429641Y81910D01*
X429551Y81945D01*
X429459Y81977D01*
X429366Y82005D01*
X429272Y82030D01*
X429178Y82051D01*
X429082Y82068D01*
X428986Y82081D01*
X428890Y82090D01*
X428793Y82096D01*
X428696Y82098D01*
X424744Y82098D01*
X424647Y82096D01*
X424550Y82090D01*
X424454Y82081D01*
X424358Y82068D01*
X424262Y82051D01*
X424168Y82030D01*
X424074Y82005D01*
X423981Y81977D01*
X423889Y81945D01*
X423799Y81910D01*
X423710Y81871D01*
X423623Y81829D01*
X423538Y81783D01*
X423454Y81734D01*
X423372Y81682D01*
X423293Y81626D01*
X423215Y81568D01*
X423141Y81506D01*
X423068Y81442D01*
X422998Y81375D01*
X422931Y81305D01*
X422867Y81232D01*
X422805Y81158D01*
X422747Y81080D01*
X422691Y81001D01*
X422639Y80919D01*
X422590Y80835D01*
X422544Y80750D01*
X422502Y80663D01*
X422463Y80574D01*
X422428Y80484D01*
X422396Y80392D01*
X422368Y80299D01*
X422343Y80205D01*
X422322Y80111D01*
X422305Y80015D01*
X422292Y79919D01*
X422283Y79823D01*
X422277Y79726D01*
X422275Y79629D01*
X422275Y77159D01*
X429189Y86608D02*
X431165Y89078D01*
X422275Y89078D01*
X422275Y91547D02*
X422275Y86608D01*
D16*
X276860Y41910D02*
X276862Y41981D01*
X276868Y42052D01*
X276878Y42123D01*
X276892Y42193D01*
X276910Y42262D01*
X276931Y42329D01*
X276957Y42396D01*
X276986Y42461D01*
X277018Y42524D01*
X277055Y42586D01*
X277094Y42645D01*
X277137Y42702D01*
X277183Y42756D01*
X277232Y42808D01*
X277284Y42857D01*
X277338Y42903D01*
X277395Y42946D01*
X277454Y42985D01*
X277516Y43022D01*
X277579Y43054D01*
X277644Y43083D01*
X277711Y43109D01*
X277778Y43130D01*
X277847Y43148D01*
X277917Y43162D01*
X277988Y43172D01*
X278059Y43178D01*
X278130Y43180D01*
X278201Y43178D01*
X278272Y43172D01*
X278343Y43162D01*
X278413Y43148D01*
X278482Y43130D01*
X278549Y43109D01*
X278616Y43083D01*
X278681Y43054D01*
X278744Y43022D01*
X278806Y42985D01*
X278865Y42946D01*
X278922Y42903D01*
X278976Y42857D01*
X279028Y42808D01*
X279077Y42756D01*
X279123Y42702D01*
X279166Y42645D01*
X279205Y42586D01*
X279242Y42524D01*
X279274Y42461D01*
X279303Y42396D01*
X279329Y42329D01*
X279350Y42262D01*
X279368Y42193D01*
X279382Y42123D01*
X279392Y42052D01*
X279398Y41981D01*
X279400Y41910D01*
X279398Y41839D01*
X279392Y41768D01*
X279382Y41697D01*
X279368Y41627D01*
X279350Y41558D01*
X279329Y41491D01*
X279303Y41424D01*
X279274Y41359D01*
X279242Y41296D01*
X279205Y41234D01*
X279166Y41175D01*
X279123Y41118D01*
X279077Y41064D01*
X279028Y41012D01*
X278976Y40963D01*
X278922Y40917D01*
X278865Y40874D01*
X278806Y40835D01*
X278744Y40798D01*
X278681Y40766D01*
X278616Y40737D01*
X278549Y40711D01*
X278482Y40690D01*
X278413Y40672D01*
X278343Y40658D01*
X278272Y40648D01*
X278201Y40642D01*
X278130Y40640D01*
X278059Y40642D01*
X277988Y40648D01*
X277917Y40658D01*
X277847Y40672D01*
X277778Y40690D01*
X277711Y40711D01*
X277644Y40737D01*
X277579Y40766D01*
X277516Y40798D01*
X277454Y40835D01*
X277395Y40874D01*
X277338Y40917D01*
X277284Y40963D01*
X277232Y41012D01*
X277183Y41064D01*
X277137Y41118D01*
X277094Y41175D01*
X277055Y41234D01*
X277018Y41296D01*
X276986Y41359D01*
X276957Y41424D01*
X276931Y41491D01*
X276910Y41558D01*
X276892Y41627D01*
X276878Y41697D01*
X276868Y41768D01*
X276862Y41839D01*
X276860Y41910D01*
D17*
X273050Y45720D02*
X273050Y106680D01*
X222250Y106680D02*
X222250Y45720D01*
D15*
X269875Y128834D02*
X269875Y135255D01*
X269875Y128834D02*
X269873Y128736D01*
X269867Y128638D01*
X269857Y128540D01*
X269844Y128443D01*
X269826Y128346D01*
X269805Y128250D01*
X269780Y128156D01*
X269751Y128062D01*
X269719Y127969D01*
X269682Y127878D01*
X269643Y127788D01*
X269599Y127700D01*
X269552Y127614D01*
X269502Y127529D01*
X269449Y127447D01*
X269392Y127367D01*
X269332Y127289D01*
X269269Y127214D01*
X269203Y127141D01*
X269134Y127071D01*
X269063Y127004D01*
X268989Y126939D01*
X268912Y126878D01*
X268833Y126819D01*
X268752Y126764D01*
X268669Y126712D01*
X268583Y126664D01*
X268496Y126619D01*
X268407Y126577D01*
X268317Y126539D01*
X268225Y126505D01*
X268132Y126474D01*
X268037Y126447D01*
X267942Y126424D01*
X267845Y126404D01*
X267749Y126389D01*
X267651Y126377D01*
X267553Y126369D01*
X267455Y126365D01*
X267357Y126365D01*
X267259Y126369D01*
X267161Y126377D01*
X267063Y126389D01*
X266967Y126404D01*
X266870Y126424D01*
X266775Y126447D01*
X266680Y126474D01*
X266587Y126505D01*
X266495Y126539D01*
X266405Y126577D01*
X266316Y126619D01*
X266229Y126664D01*
X266143Y126712D01*
X266060Y126764D01*
X265979Y126819D01*
X265900Y126878D01*
X265823Y126939D01*
X265749Y127004D01*
X265678Y127071D01*
X265609Y127141D01*
X265543Y127214D01*
X265480Y127289D01*
X265420Y127367D01*
X265363Y127447D01*
X265310Y127529D01*
X265260Y127614D01*
X265213Y127700D01*
X265169Y127788D01*
X265130Y127878D01*
X265093Y127969D01*
X265061Y128062D01*
X265032Y128156D01*
X265007Y128250D01*
X264986Y128346D01*
X264968Y128443D01*
X264955Y128540D01*
X264945Y128638D01*
X264939Y128736D01*
X264937Y128834D01*
X264936Y128834D02*
X264936Y135255D01*
X260426Y133279D02*
X257957Y135255D01*
X257957Y126365D01*
X260426Y126365D02*
X255487Y126365D01*
D12*
X140950Y114300D02*
X140950Y38100D01*
X189250Y38100D01*
X189250Y114300D01*
X140950Y114300D01*
D13*
X111900Y128200D02*
X111900Y28100D01*
X218300Y28100D01*
X218300Y128200D01*
X111900Y128200D01*
X140950Y114300D02*
X189100Y114300D01*
D18*
X199100Y118200D03*
D12*
X199162Y118198D01*
X199223Y118192D01*
X199284Y118183D01*
X199344Y118170D01*
X199403Y118153D01*
X199461Y118132D01*
X199518Y118108D01*
X199573Y118081D01*
X199626Y118050D01*
X199678Y118016D01*
X199727Y117979D01*
X199774Y117939D01*
X199818Y117896D01*
X199859Y117851D01*
X199898Y117803D01*
X199934Y117752D01*
X199966Y117700D01*
X199995Y117646D01*
X200021Y117590D01*
X200043Y117532D01*
X200062Y117474D01*
X200077Y117414D01*
X200088Y117353D01*
X200096Y117292D01*
X200100Y117231D01*
X200100Y117169D01*
X200096Y117108D01*
X200088Y117047D01*
X200077Y116986D01*
X200062Y116926D01*
X200043Y116868D01*
X200021Y116810D01*
X199995Y116754D01*
X199966Y116700D01*
X199934Y116648D01*
X199898Y116597D01*
X199859Y116549D01*
X199818Y116504D01*
X199774Y116461D01*
X199727Y116421D01*
X199678Y116384D01*
X199626Y116350D01*
X199573Y116319D01*
X199518Y116292D01*
X199461Y116268D01*
X199403Y116247D01*
X199344Y116230D01*
X199284Y116217D01*
X199223Y116208D01*
X199162Y116202D01*
X199100Y116200D01*
D18*
X199100Y116200D03*
D12*
X199038Y116202D01*
X198977Y116208D01*
X198916Y116217D01*
X198856Y116230D01*
X198797Y116247D01*
X198739Y116268D01*
X198682Y116292D01*
X198627Y116319D01*
X198574Y116350D01*
X198522Y116384D01*
X198473Y116421D01*
X198426Y116461D01*
X198382Y116504D01*
X198341Y116549D01*
X198302Y116597D01*
X198266Y116648D01*
X198234Y116700D01*
X198205Y116754D01*
X198179Y116810D01*
X198157Y116868D01*
X198138Y116926D01*
X198123Y116986D01*
X198112Y117047D01*
X198104Y117108D01*
X198100Y117169D01*
X198100Y117231D01*
X198104Y117292D01*
X198112Y117353D01*
X198123Y117414D01*
X198138Y117474D01*
X198157Y117532D01*
X198179Y117590D01*
X198205Y117646D01*
X198234Y117700D01*
X198266Y117752D01*
X198302Y117803D01*
X198341Y117851D01*
X198382Y117896D01*
X198426Y117939D01*
X198473Y117979D01*
X198522Y118016D01*
X198574Y118050D01*
X198627Y118081D01*
X198682Y118108D01*
X198739Y118132D01*
X198797Y118153D01*
X198856Y118170D01*
X198916Y118183D01*
X198977Y118192D01*
X199038Y118198D01*
X199100Y118200D01*
D13*
X189250Y38100D02*
X140950Y38200D01*
D15*
X121919Y134691D02*
X121919Y141605D01*
X121919Y134691D02*
X121921Y134605D01*
X121927Y134519D01*
X121936Y134433D01*
X121949Y134348D01*
X121966Y134263D01*
X121986Y134180D01*
X122010Y134097D01*
X122038Y134015D01*
X122069Y133935D01*
X122104Y133856D01*
X122142Y133779D01*
X122184Y133703D01*
X122228Y133629D01*
X122276Y133558D01*
X122327Y133488D01*
X122381Y133421D01*
X122438Y133356D01*
X122498Y133294D01*
X122560Y133234D01*
X122625Y133177D01*
X122692Y133123D01*
X122762Y133072D01*
X122833Y133024D01*
X122907Y132980D01*
X122983Y132938D01*
X123060Y132900D01*
X123139Y132865D01*
X123219Y132834D01*
X123301Y132806D01*
X123384Y132782D01*
X123467Y132762D01*
X123552Y132745D01*
X123637Y132732D01*
X123723Y132723D01*
X123809Y132717D01*
X123895Y132715D01*
X124882Y132715D01*
X117457Y139629D02*
X114987Y141605D01*
X114987Y132715D01*
X112518Y132715D02*
X117457Y132715D01*
D11*
X156210Y36830D02*
X162560Y30480D01*
X156210Y36830D02*
X143510Y36830D01*
X137160Y30480D01*
X137160Y17780D01*
X143510Y11430D01*
X156210Y11430D01*
X162560Y17780D01*
X194310Y36830D02*
X207010Y36830D01*
X194310Y36830D02*
X187960Y30480D01*
X187960Y17780D01*
X194310Y11430D01*
X187960Y30480D02*
X181610Y36830D01*
X168910Y36830D01*
X162560Y30480D01*
X162560Y17780D01*
X168910Y11430D01*
X181610Y11430D01*
X187960Y17780D01*
X213360Y17780D02*
X213360Y30480D01*
X207010Y36830D01*
X213360Y17780D02*
X207010Y11430D01*
X194310Y11430D01*
X130810Y36830D02*
X118110Y36830D01*
X111760Y30480D01*
X111760Y17780D01*
X118110Y11430D01*
X137160Y30480D02*
X130810Y36830D01*
X137160Y17780D02*
X130810Y11430D01*
X118110Y11430D01*
D19*
X149860Y24130D03*
X175260Y24130D03*
X200660Y24130D03*
X124460Y24130D03*
D15*
X103844Y22169D02*
X103844Y29083D01*
X103843Y22169D02*
X103845Y22083D01*
X103851Y21997D01*
X103860Y21911D01*
X103873Y21826D01*
X103890Y21741D01*
X103910Y21658D01*
X103934Y21575D01*
X103962Y21493D01*
X103993Y21413D01*
X104028Y21334D01*
X104066Y21257D01*
X104108Y21181D01*
X104152Y21107D01*
X104200Y21036D01*
X104251Y20966D01*
X104305Y20899D01*
X104362Y20834D01*
X104422Y20772D01*
X104484Y20712D01*
X104549Y20655D01*
X104616Y20601D01*
X104686Y20550D01*
X104757Y20502D01*
X104831Y20458D01*
X104907Y20416D01*
X104984Y20378D01*
X105063Y20343D01*
X105143Y20312D01*
X105225Y20284D01*
X105308Y20260D01*
X105391Y20240D01*
X105476Y20223D01*
X105561Y20210D01*
X105647Y20201D01*
X105733Y20195D01*
X105819Y20193D01*
X106807Y20193D01*
X98903Y20193D02*
X98903Y29083D01*
X96434Y29083D01*
X96336Y29081D01*
X96238Y29075D01*
X96140Y29065D01*
X96043Y29052D01*
X95946Y29034D01*
X95850Y29013D01*
X95756Y28988D01*
X95662Y28959D01*
X95569Y28927D01*
X95478Y28890D01*
X95388Y28851D01*
X95300Y28807D01*
X95214Y28760D01*
X95129Y28710D01*
X95047Y28657D01*
X94967Y28600D01*
X94889Y28540D01*
X94814Y28477D01*
X94741Y28411D01*
X94671Y28342D01*
X94604Y28271D01*
X94539Y28197D01*
X94478Y28120D01*
X94419Y28041D01*
X94364Y27960D01*
X94312Y27877D01*
X94264Y27791D01*
X94219Y27704D01*
X94177Y27615D01*
X94139Y27525D01*
X94105Y27433D01*
X94074Y27340D01*
X94047Y27245D01*
X94024Y27150D01*
X94004Y27053D01*
X93989Y26957D01*
X93977Y26859D01*
X93969Y26761D01*
X93965Y26663D01*
X93965Y26565D01*
X93969Y26467D01*
X93977Y26369D01*
X93989Y26271D01*
X94004Y26175D01*
X94024Y26078D01*
X94047Y25983D01*
X94074Y25888D01*
X94105Y25795D01*
X94139Y25703D01*
X94177Y25613D01*
X94219Y25524D01*
X94264Y25437D01*
X94312Y25351D01*
X94364Y25268D01*
X94419Y25187D01*
X94478Y25108D01*
X94539Y25031D01*
X94604Y24957D01*
X94671Y24886D01*
X94741Y24817D01*
X94814Y24751D01*
X94889Y24688D01*
X94967Y24628D01*
X95047Y24571D01*
X95129Y24518D01*
X95214Y24468D01*
X95300Y24421D01*
X95388Y24377D01*
X95478Y24338D01*
X95569Y24301D01*
X95662Y24269D01*
X95756Y24240D01*
X95850Y24215D01*
X95946Y24194D01*
X96043Y24176D01*
X96140Y24163D01*
X96238Y24153D01*
X96336Y24147D01*
X96434Y24145D01*
X96434Y24144D02*
X98903Y24144D01*
X90237Y27107D02*
X87768Y29083D01*
X87768Y20193D01*
X90237Y20193D02*
X85299Y20193D01*
D11*
X290320Y23880D02*
X298960Y23880D01*
X298960Y16760D02*
X290320Y16760D01*
D20*
X300990Y20320D03*
X288290Y20320D03*
D15*
X328586Y12065D02*
X328586Y3175D01*
X328586Y12065D02*
X326117Y12065D01*
X326019Y12063D01*
X325921Y12057D01*
X325823Y12047D01*
X325726Y12034D01*
X325629Y12016D01*
X325533Y11995D01*
X325439Y11970D01*
X325345Y11941D01*
X325252Y11909D01*
X325161Y11872D01*
X325071Y11833D01*
X324983Y11789D01*
X324897Y11742D01*
X324812Y11692D01*
X324730Y11639D01*
X324650Y11582D01*
X324572Y11522D01*
X324497Y11459D01*
X324424Y11393D01*
X324354Y11324D01*
X324287Y11253D01*
X324222Y11179D01*
X324161Y11102D01*
X324102Y11023D01*
X324047Y10942D01*
X323995Y10859D01*
X323947Y10773D01*
X323902Y10686D01*
X323860Y10597D01*
X323822Y10507D01*
X323788Y10415D01*
X323757Y10322D01*
X323730Y10227D01*
X323707Y10132D01*
X323687Y10035D01*
X323672Y9939D01*
X323660Y9841D01*
X323652Y9743D01*
X323648Y9645D01*
X323648Y9547D01*
X323652Y9449D01*
X323660Y9351D01*
X323672Y9253D01*
X323687Y9157D01*
X323707Y9060D01*
X323730Y8965D01*
X323757Y8870D01*
X323788Y8777D01*
X323822Y8685D01*
X323860Y8595D01*
X323902Y8506D01*
X323947Y8419D01*
X323995Y8333D01*
X324047Y8250D01*
X324102Y8169D01*
X324161Y8090D01*
X324222Y8013D01*
X324287Y7939D01*
X324354Y7868D01*
X324424Y7799D01*
X324497Y7733D01*
X324572Y7670D01*
X324650Y7610D01*
X324730Y7553D01*
X324812Y7500D01*
X324897Y7450D01*
X324983Y7403D01*
X325071Y7359D01*
X325161Y7320D01*
X325252Y7283D01*
X325345Y7251D01*
X325439Y7222D01*
X325533Y7197D01*
X325629Y7176D01*
X325726Y7158D01*
X325823Y7145D01*
X325921Y7135D01*
X326019Y7129D01*
X326117Y7127D01*
X326117Y7126D02*
X328586Y7126D01*
X325623Y7126D02*
X323648Y3175D01*
X319518Y10089D02*
X317048Y12065D01*
X317048Y3175D01*
X314579Y3175D02*
X319518Y3175D01*
X310374Y10089D02*
X307904Y12065D01*
X307904Y3175D01*
X305435Y3175D02*
X310374Y3175D01*
D11*
X235460Y23880D02*
X226820Y23880D01*
X226820Y16760D02*
X235460Y16760D01*
D20*
X237490Y20320D03*
X224790Y20320D03*
D15*
X243496Y12065D02*
X243496Y3175D01*
X243496Y12065D02*
X241027Y12065D01*
X240929Y12063D01*
X240831Y12057D01*
X240733Y12047D01*
X240636Y12034D01*
X240539Y12016D01*
X240443Y11995D01*
X240349Y11970D01*
X240255Y11941D01*
X240162Y11909D01*
X240071Y11872D01*
X239981Y11833D01*
X239893Y11789D01*
X239807Y11742D01*
X239722Y11692D01*
X239640Y11639D01*
X239560Y11582D01*
X239482Y11522D01*
X239407Y11459D01*
X239334Y11393D01*
X239264Y11324D01*
X239197Y11253D01*
X239132Y11179D01*
X239071Y11102D01*
X239012Y11023D01*
X238957Y10942D01*
X238905Y10859D01*
X238857Y10773D01*
X238812Y10686D01*
X238770Y10597D01*
X238732Y10507D01*
X238698Y10415D01*
X238667Y10322D01*
X238640Y10227D01*
X238617Y10132D01*
X238597Y10035D01*
X238582Y9939D01*
X238570Y9841D01*
X238562Y9743D01*
X238558Y9645D01*
X238558Y9547D01*
X238562Y9449D01*
X238570Y9351D01*
X238582Y9253D01*
X238597Y9157D01*
X238617Y9060D01*
X238640Y8965D01*
X238667Y8870D01*
X238698Y8777D01*
X238732Y8685D01*
X238770Y8595D01*
X238812Y8506D01*
X238857Y8419D01*
X238905Y8333D01*
X238957Y8250D01*
X239012Y8169D01*
X239071Y8090D01*
X239132Y8013D01*
X239197Y7939D01*
X239264Y7868D01*
X239334Y7799D01*
X239407Y7733D01*
X239482Y7670D01*
X239560Y7610D01*
X239640Y7553D01*
X239722Y7500D01*
X239807Y7450D01*
X239893Y7403D01*
X239981Y7359D01*
X240071Y7320D01*
X240162Y7283D01*
X240255Y7251D01*
X240349Y7222D01*
X240443Y7197D01*
X240539Y7176D01*
X240636Y7158D01*
X240733Y7145D01*
X240831Y7135D01*
X240929Y7129D01*
X241027Y7127D01*
X241027Y7126D02*
X243496Y7126D01*
X240533Y7126D02*
X238558Y3175D01*
X234428Y10089D02*
X231958Y12065D01*
X231958Y3175D01*
X229489Y3175D02*
X234428Y3175D01*
X222568Y12066D02*
X222476Y12064D01*
X222384Y12058D01*
X222293Y12049D01*
X222202Y12036D01*
X222112Y12019D01*
X222022Y11998D01*
X221934Y11974D01*
X221846Y11946D01*
X221760Y11914D01*
X221675Y11879D01*
X221592Y11840D01*
X221510Y11798D01*
X221430Y11753D01*
X221352Y11704D01*
X221276Y11652D01*
X221203Y11597D01*
X221131Y11539D01*
X221062Y11479D01*
X220996Y11415D01*
X220932Y11349D01*
X220872Y11280D01*
X220814Y11208D01*
X220759Y11135D01*
X220707Y11059D01*
X220658Y10981D01*
X220613Y10901D01*
X220571Y10819D01*
X220532Y10736D01*
X220497Y10651D01*
X220465Y10565D01*
X220437Y10477D01*
X220413Y10389D01*
X220392Y10299D01*
X220375Y10209D01*
X220362Y10118D01*
X220353Y10027D01*
X220347Y9935D01*
X220345Y9843D01*
X222568Y12065D02*
X222674Y12063D01*
X222779Y12057D01*
X222884Y12047D01*
X222989Y12034D01*
X223093Y12016D01*
X223196Y11995D01*
X223299Y11970D01*
X223401Y11941D01*
X223501Y11908D01*
X223600Y11872D01*
X223698Y11832D01*
X223794Y11788D01*
X223889Y11741D01*
X223981Y11691D01*
X224072Y11637D01*
X224161Y11579D01*
X224247Y11519D01*
X224331Y11455D01*
X224413Y11389D01*
X224493Y11319D01*
X224569Y11246D01*
X224643Y11171D01*
X224714Y11093D01*
X224782Y11012D01*
X224848Y10929D01*
X224910Y10843D01*
X224968Y10756D01*
X225024Y10666D01*
X225076Y10574D01*
X225125Y10480D01*
X225170Y10385D01*
X225212Y10288D01*
X225250Y10189D01*
X225284Y10090D01*
X221086Y8114D02*
X221017Y8183D01*
X220951Y8253D01*
X220888Y8327D01*
X220829Y8403D01*
X220772Y8481D01*
X220718Y8561D01*
X220668Y8644D01*
X220621Y8728D01*
X220578Y8815D01*
X220538Y8903D01*
X220502Y8992D01*
X220469Y9083D01*
X220440Y9175D01*
X220415Y9269D01*
X220394Y9363D01*
X220376Y9458D01*
X220363Y9554D01*
X220353Y9650D01*
X220347Y9746D01*
X220345Y9843D01*
X221086Y8114D02*
X225284Y3175D01*
X220345Y3175D01*
D11*
X258570Y16760D02*
X267210Y16760D01*
X267210Y23880D02*
X258570Y23880D01*
D20*
X256540Y20320D03*
X269240Y20320D03*
D15*
X292735Y12065D02*
X292735Y3175D01*
X292735Y12065D02*
X290266Y12065D01*
X290168Y12063D01*
X290070Y12057D01*
X289972Y12047D01*
X289875Y12034D01*
X289778Y12016D01*
X289682Y11995D01*
X289588Y11970D01*
X289494Y11941D01*
X289401Y11909D01*
X289310Y11872D01*
X289220Y11833D01*
X289132Y11789D01*
X289046Y11742D01*
X288961Y11692D01*
X288879Y11639D01*
X288799Y11582D01*
X288721Y11522D01*
X288646Y11459D01*
X288573Y11393D01*
X288503Y11324D01*
X288436Y11253D01*
X288371Y11179D01*
X288310Y11102D01*
X288251Y11023D01*
X288196Y10942D01*
X288144Y10859D01*
X288096Y10773D01*
X288051Y10686D01*
X288009Y10597D01*
X287971Y10507D01*
X287937Y10415D01*
X287906Y10322D01*
X287879Y10227D01*
X287856Y10132D01*
X287836Y10035D01*
X287821Y9939D01*
X287809Y9841D01*
X287801Y9743D01*
X287797Y9645D01*
X287797Y9547D01*
X287801Y9449D01*
X287809Y9351D01*
X287821Y9253D01*
X287836Y9157D01*
X287856Y9060D01*
X287879Y8965D01*
X287906Y8870D01*
X287937Y8777D01*
X287971Y8685D01*
X288009Y8595D01*
X288051Y8506D01*
X288096Y8419D01*
X288144Y8333D01*
X288196Y8250D01*
X288251Y8169D01*
X288310Y8090D01*
X288371Y8013D01*
X288436Y7939D01*
X288503Y7868D01*
X288573Y7799D01*
X288646Y7733D01*
X288721Y7670D01*
X288799Y7610D01*
X288879Y7553D01*
X288961Y7500D01*
X289046Y7450D01*
X289132Y7403D01*
X289220Y7359D01*
X289310Y7320D01*
X289401Y7283D01*
X289494Y7251D01*
X289588Y7222D01*
X289682Y7197D01*
X289778Y7176D01*
X289875Y7158D01*
X289972Y7145D01*
X290070Y7135D01*
X290168Y7129D01*
X290266Y7127D01*
X290266Y7126D02*
X292735Y7126D01*
X289772Y7126D02*
X287796Y3175D01*
X283666Y10089D02*
X281197Y12065D01*
X281197Y3175D01*
X283666Y3175D02*
X278728Y3175D01*
X274522Y3175D02*
X272053Y3175D01*
X271955Y3177D01*
X271857Y3183D01*
X271759Y3193D01*
X271662Y3206D01*
X271565Y3224D01*
X271469Y3245D01*
X271375Y3270D01*
X271281Y3299D01*
X271188Y3331D01*
X271097Y3368D01*
X271007Y3407D01*
X270919Y3451D01*
X270833Y3498D01*
X270748Y3548D01*
X270666Y3601D01*
X270586Y3658D01*
X270508Y3718D01*
X270433Y3781D01*
X270360Y3847D01*
X270290Y3916D01*
X270223Y3987D01*
X270158Y4061D01*
X270097Y4138D01*
X270038Y4217D01*
X269983Y4298D01*
X269931Y4381D01*
X269883Y4467D01*
X269838Y4554D01*
X269796Y4643D01*
X269758Y4733D01*
X269724Y4825D01*
X269693Y4918D01*
X269666Y5013D01*
X269643Y5108D01*
X269623Y5205D01*
X269608Y5301D01*
X269596Y5399D01*
X269588Y5497D01*
X269584Y5595D01*
X269584Y5693D01*
X269588Y5791D01*
X269596Y5889D01*
X269608Y5987D01*
X269623Y6083D01*
X269643Y6180D01*
X269666Y6275D01*
X269693Y6370D01*
X269724Y6463D01*
X269758Y6555D01*
X269796Y6645D01*
X269838Y6734D01*
X269883Y6821D01*
X269931Y6907D01*
X269983Y6990D01*
X270038Y7071D01*
X270097Y7150D01*
X270158Y7227D01*
X270223Y7301D01*
X270290Y7372D01*
X270360Y7441D01*
X270433Y7507D01*
X270508Y7570D01*
X270586Y7630D01*
X270666Y7687D01*
X270748Y7740D01*
X270833Y7790D01*
X270919Y7837D01*
X271007Y7881D01*
X271097Y7920D01*
X271188Y7957D01*
X271281Y7989D01*
X271375Y8018D01*
X271469Y8043D01*
X271565Y8064D01*
X271662Y8082D01*
X271759Y8095D01*
X271857Y8105D01*
X271955Y8111D01*
X272053Y8113D01*
X271559Y12065D02*
X274522Y12065D01*
X271559Y12065D02*
X271472Y12063D01*
X271384Y12057D01*
X271297Y12048D01*
X271211Y12034D01*
X271125Y12017D01*
X271041Y11996D01*
X270957Y11971D01*
X270874Y11942D01*
X270793Y11910D01*
X270713Y11875D01*
X270635Y11836D01*
X270558Y11793D01*
X270484Y11747D01*
X270412Y11698D01*
X270342Y11646D01*
X270274Y11590D01*
X270209Y11532D01*
X270146Y11471D01*
X270087Y11407D01*
X270030Y11340D01*
X269976Y11272D01*
X269925Y11200D01*
X269878Y11127D01*
X269833Y11052D01*
X269792Y10974D01*
X269755Y10895D01*
X269721Y10815D01*
X269691Y10733D01*
X269664Y10650D01*
X269641Y10565D01*
X269622Y10480D01*
X269607Y10394D01*
X269595Y10307D01*
X269587Y10220D01*
X269583Y10133D01*
X269583Y10045D01*
X269587Y9958D01*
X269595Y9871D01*
X269607Y9784D01*
X269622Y9698D01*
X269641Y9613D01*
X269664Y9528D01*
X269691Y9445D01*
X269721Y9363D01*
X269755Y9283D01*
X269792Y9204D01*
X269833Y9126D01*
X269878Y9051D01*
X269925Y8978D01*
X269976Y8906D01*
X270030Y8838D01*
X270087Y8771D01*
X270146Y8707D01*
X270209Y8646D01*
X270274Y8588D01*
X270342Y8532D01*
X270412Y8480D01*
X270484Y8431D01*
X270558Y8385D01*
X270635Y8342D01*
X270713Y8303D01*
X270793Y8268D01*
X270874Y8236D01*
X270957Y8207D01*
X271041Y8182D01*
X271125Y8161D01*
X271211Y8144D01*
X271297Y8130D01*
X271384Y8121D01*
X271472Y8115D01*
X271559Y8113D01*
X271559Y8114D02*
X273535Y8114D01*
D21*
X280980Y68950D02*
X280980Y83450D01*
X287980Y83450D02*
X287980Y68950D01*
D22*
X284480Y82450D03*
X284480Y69950D03*
D15*
X293855Y69843D02*
X293855Y67868D01*
X293857Y67782D01*
X293863Y67696D01*
X293872Y67610D01*
X293885Y67525D01*
X293902Y67440D01*
X293922Y67357D01*
X293946Y67274D01*
X293974Y67192D01*
X294005Y67112D01*
X294040Y67033D01*
X294078Y66956D01*
X294120Y66880D01*
X294164Y66806D01*
X294212Y66735D01*
X294263Y66665D01*
X294317Y66598D01*
X294374Y66533D01*
X294434Y66471D01*
X294496Y66411D01*
X294561Y66354D01*
X294628Y66300D01*
X294698Y66249D01*
X294769Y66201D01*
X294843Y66157D01*
X294919Y66115D01*
X294996Y66077D01*
X295075Y66042D01*
X295155Y66011D01*
X295237Y65983D01*
X295320Y65959D01*
X295403Y65939D01*
X295488Y65922D01*
X295573Y65909D01*
X295659Y65900D01*
X295745Y65894D01*
X295831Y65892D01*
X300769Y65892D01*
X300858Y65894D01*
X300946Y65900D01*
X301034Y65910D01*
X301122Y65924D01*
X301209Y65942D01*
X301295Y65963D01*
X301380Y65989D01*
X301463Y66018D01*
X301546Y66051D01*
X301626Y66088D01*
X301705Y66128D01*
X301782Y66172D01*
X301858Y66219D01*
X301930Y66269D01*
X302001Y66323D01*
X302069Y66380D01*
X302135Y66440D01*
X302197Y66502D01*
X302257Y66568D01*
X302314Y66636D01*
X302368Y66707D01*
X302418Y66779D01*
X302465Y66854D01*
X302509Y66932D01*
X302549Y67011D01*
X302586Y67091D01*
X302619Y67174D01*
X302648Y67257D01*
X302674Y67342D01*
X302695Y67428D01*
X302713Y67515D01*
X302727Y67603D01*
X302737Y67691D01*
X302743Y67779D01*
X302745Y67868D01*
X302745Y69843D01*
X302745Y75522D02*
X295831Y73546D01*
X295831Y78485D01*
X297806Y77003D02*
X293855Y77003D01*
M02*
